<?xml version="1.0" encoding="utf-8" standalone="no"?>
<!DOCTYPE svg PUBLIC "-//W3C//DTD SVG 1.1//EN"
  "http://www.w3.org/Graphics/SVG/1.1/DTD/svg11.dtd">
<svg height="345.6pt" version="1.1" viewBox="0 0 460.8 345.6" width="460.8pt" xmlns="http://www.w3.org/2000/svg" xmlns:xlink="http://www.w3.org/1999/xlink">
 <metadata>
  <rdf:RDF xmlns:cc="http://creativecommons.org/ns#" xmlns:dc="http://purl.org/dc/elements/1.1/" xmlns:rdf="http://www.w3.org/1999/02/22-rdf-syntax-ns#">
   <cc:Work>
    <dc:type rdf:resource="http://purl.org/dc/dcmitype/StillImage"/>
    <dc:date>2022-08-03T21:14:39.564607</dc:date>
    <dc:format>image/svg+xml</dc:format>
    <dc:creator>
     <cc:Agent>
      <dc:title>Matplotlib v3.4.1, https://matplotlib.org/</dc:title>
     </cc:Agent>
    </dc:creator>
   </cc:Work>
  </rdf:RDF>
 </metadata>
 <defs>
  <style type="text/css">*{stroke-linecap:butt;stroke-linejoin:round;}</style>
 </defs>
 <g id="figure_1">
  <g id="patch_1">
   <path d="M 0 345.6 
L 460.8 345.6 
L 460.8 0 
L 0 0 
z
" style="fill:#ffffff;"/>
  </g>
  <g id="axes_1">
   <g id="patch_2">
    <path d="M 57.6 293.76 
L 414.72 293.76 
L 414.72 41.472 
L 57.6 41.472 
z
" style="fill:#eaeaf2;"/>
   </g>
   <g id="matplotlib.axis_1">
    <g id="xtick_1">
     <g id="line2d_1">
      <path clip-path="url(#pf6d6026972)" d="M 57.6 293.76 
L 57.6 41.472 
" style="fill:none;stroke:#ffffff;stroke-linecap:round;"/>
     </g>
     <g id="text_1">
      <!-- 0 -->
      <g style="fill:#262626;" transform="translate(53.429297 313.996719)scale(0.15 -0.15)">
       <defs>
        <path d="M 266 2259 
Q 266 3072 433 3567 
Q 600 4063 929 4331 
Q 1259 4600 1759 4600 
Q 2128 4600 2406 4451 
Q 2684 4303 2865 4023 
Q 3047 3744 3150 3342 
Q 3253 2941 3253 2259 
Q 3253 1453 3087 958 
Q 2922 463 2592 192 
Q 2263 -78 1759 -78 
Q 1097 -78 719 397 
Q 266 969 266 2259 
z
M 844 2259 
Q 844 1131 1108 757 
Q 1372 384 1759 384 
Q 2147 384 2411 759 
Q 2675 1134 2675 2259 
Q 2675 3391 2411 3762 
Q 2147 4134 1753 4134 
Q 1366 4134 1134 3806 
Q 844 3388 844 2259 
z
" id="ArialMT-30" transform="scale(0.015625)"/>
       </defs>
       <use xlink:href="#ArialMT-30"/>
      </g>
     </g>
    </g>
    <g id="xtick_2">
     <g id="line2d_2">
      <path clip-path="url(#pf6d6026972)" d="M 127.35 293.76 
L 127.35 41.472 
" style="fill:none;stroke:#ffffff;stroke-linecap:round;"/>
     </g>
     <g id="text_2">
      <!-- 50 -->
      <g style="fill:#262626;" transform="translate(119.008594 313.996719)scale(0.15 -0.15)">
       <defs>
        <path d="M 266 1200 
L 856 1250 
Q 922 819 1161 601 
Q 1400 384 1738 384 
Q 2144 384 2425 690 
Q 2706 997 2706 1503 
Q 2706 1984 2436 2262 
Q 2166 2541 1728 2541 
Q 1456 2541 1237 2417 
Q 1019 2294 894 2097 
L 366 2166 
L 809 4519 
L 3088 4519 
L 3088 3981 
L 1259 3981 
L 1013 2750 
Q 1425 3038 1878 3038 
Q 2478 3038 2890 2622 
Q 3303 2206 3303 1553 
Q 3303 931 2941 478 
Q 2500 -78 1738 -78 
Q 1113 -78 717 272 
Q 322 622 266 1200 
z
" id="ArialMT-35" transform="scale(0.015625)"/>
       </defs>
       <use xlink:href="#ArialMT-35"/>
       <use x="55.615234" xlink:href="#ArialMT-30"/>
      </g>
     </g>
    </g>
    <g id="xtick_3">
     <g id="line2d_3">
      <path clip-path="url(#pf6d6026972)" d="M 197.1 293.76 
L 197.1 41.472 
" style="fill:none;stroke:#ffffff;stroke-linecap:round;"/>
     </g>
     <g id="text_3">
      <!-- 100 -->
      <g style="fill:#262626;" transform="translate(184.587891 313.996719)scale(0.15 -0.15)">
       <defs>
        <path d="M 2384 0 
L 1822 0 
L 1822 3584 
Q 1619 3391 1289 3197 
Q 959 3003 697 2906 
L 697 3450 
Q 1169 3672 1522 3987 
Q 1875 4303 2022 4600 
L 2384 4600 
L 2384 0 
z
" id="ArialMT-31" transform="scale(0.015625)"/>
       </defs>
       <use xlink:href="#ArialMT-31"/>
       <use x="55.615234" xlink:href="#ArialMT-30"/>
       <use x="111.230469" xlink:href="#ArialMT-30"/>
      </g>
     </g>
    </g>
    <g id="xtick_4">
     <g id="line2d_4">
      <path clip-path="url(#pf6d6026972)" d="M 266.85 293.76 
L 266.85 41.472 
" style="fill:none;stroke:#ffffff;stroke-linecap:round;"/>
     </g>
     <g id="text_4">
      <!-- 150 -->
      <g style="fill:#262626;" transform="translate(254.337891 313.996719)scale(0.15 -0.15)">
       <use xlink:href="#ArialMT-31"/>
       <use x="55.615234" xlink:href="#ArialMT-35"/>
       <use x="111.230469" xlink:href="#ArialMT-30"/>
      </g>
     </g>
    </g>
    <g id="xtick_5">
     <g id="line2d_5">
      <path clip-path="url(#pf6d6026972)" d="M 336.6 293.76 
L 336.6 41.472 
" style="fill:none;stroke:#ffffff;stroke-linecap:round;"/>
     </g>
     <g id="text_5">
      <!-- 200 -->
      <g style="fill:#262626;" transform="translate(324.087891 313.996719)scale(0.15 -0.15)">
       <defs>
        <path d="M 3222 541 
L 3222 0 
L 194 0 
Q 188 203 259 391 
Q 375 700 629 1000 
Q 884 1300 1366 1694 
Q 2113 2306 2375 2664 
Q 2638 3022 2638 3341 
Q 2638 3675 2398 3904 
Q 2159 4134 1775 4134 
Q 1369 4134 1125 3890 
Q 881 3647 878 3216 
L 300 3275 
Q 359 3922 746 4261 
Q 1134 4600 1788 4600 
Q 2447 4600 2831 4234 
Q 3216 3869 3216 3328 
Q 3216 3053 3103 2787 
Q 2991 2522 2730 2228 
Q 2469 1934 1863 1422 
Q 1356 997 1212 845 
Q 1069 694 975 541 
L 3222 541 
z
" id="ArialMT-32" transform="scale(0.015625)"/>
       </defs>
       <use xlink:href="#ArialMT-32"/>
       <use x="55.615234" xlink:href="#ArialMT-30"/>
       <use x="111.230469" xlink:href="#ArialMT-30"/>
      </g>
     </g>
    </g>
    <g id="xtick_6">
     <g id="line2d_6">
      <path clip-path="url(#pf6d6026972)" d="M 406.35 293.76 
L 406.35 41.472 
" style="fill:none;stroke:#ffffff;stroke-linecap:round;"/>
     </g>
     <g id="text_6">
      <!-- 250 -->
      <g style="fill:#262626;" transform="translate(393.837891 313.996719)scale(0.15 -0.15)">
       <use xlink:href="#ArialMT-32"/>
       <use x="55.615234" xlink:href="#ArialMT-35"/>
       <use x="111.230469" xlink:href="#ArialMT-30"/>
      </g>
     </g>
    </g>
    <g id="text_7">
     <!-- Time Step -->
     <g style="fill:#262626;" transform="translate(202.264688 331.8975)scale(0.15 -0.15)">
      <defs>
       <path d="M 1659 0 
L 1659 4041 
L 150 4041 
L 150 4581 
L 3781 4581 
L 3781 4041 
L 2266 4041 
L 2266 0 
L 1659 0 
z
" id="ArialMT-54" transform="scale(0.015625)"/>
       <path d="M 425 3934 
L 425 4581 
L 988 4581 
L 988 3934 
L 425 3934 
z
M 425 0 
L 425 3319 
L 988 3319 
L 988 0 
L 425 0 
z
" id="ArialMT-69" transform="scale(0.015625)"/>
       <path d="M 422 0 
L 422 3319 
L 925 3319 
L 925 2853 
Q 1081 3097 1340 3245 
Q 1600 3394 1931 3394 
Q 2300 3394 2536 3241 
Q 2772 3088 2869 2813 
Q 3263 3394 3894 3394 
Q 4388 3394 4653 3120 
Q 4919 2847 4919 2278 
L 4919 0 
L 4359 0 
L 4359 2091 
Q 4359 2428 4304 2576 
Q 4250 2725 4106 2815 
Q 3963 2906 3769 2906 
Q 3419 2906 3187 2673 
Q 2956 2441 2956 1928 
L 2956 0 
L 2394 0 
L 2394 2156 
Q 2394 2531 2256 2718 
Q 2119 2906 1806 2906 
Q 1569 2906 1367 2781 
Q 1166 2656 1075 2415 
Q 984 2175 984 1722 
L 984 0 
L 422 0 
z
" id="ArialMT-6d" transform="scale(0.015625)"/>
       <path d="M 2694 1069 
L 3275 997 
Q 3138 488 2766 206 
Q 2394 -75 1816 -75 
Q 1088 -75 661 373 
Q 234 822 234 1631 
Q 234 2469 665 2931 
Q 1097 3394 1784 3394 
Q 2450 3394 2872 2941 
Q 3294 2488 3294 1666 
Q 3294 1616 3291 1516 
L 816 1516 
Q 847 969 1125 678 
Q 1403 388 1819 388 
Q 2128 388 2347 550 
Q 2566 713 2694 1069 
z
M 847 1978 
L 2700 1978 
Q 2663 2397 2488 2606 
Q 2219 2931 1791 2931 
Q 1403 2931 1139 2672 
Q 875 2413 847 1978 
z
" id="ArialMT-65" transform="scale(0.015625)"/>
       <path id="ArialMT-20" transform="scale(0.015625)"/>
       <path d="M 288 1472 
L 859 1522 
Q 900 1178 1048 958 
Q 1197 738 1509 602 
Q 1822 466 2213 466 
Q 2559 466 2825 569 
Q 3091 672 3220 851 
Q 3350 1031 3350 1244 
Q 3350 1459 3225 1620 
Q 3100 1781 2813 1891 
Q 2628 1963 1997 2114 
Q 1366 2266 1113 2400 
Q 784 2572 623 2826 
Q 463 3081 463 3397 
Q 463 3744 659 4045 
Q 856 4347 1234 4503 
Q 1613 4659 2075 4659 
Q 2584 4659 2973 4495 
Q 3363 4331 3572 4012 
Q 3781 3694 3797 3291 
L 3216 3247 
Q 3169 3681 2898 3903 
Q 2628 4125 2100 4125 
Q 1550 4125 1298 3923 
Q 1047 3722 1047 3438 
Q 1047 3191 1225 3031 
Q 1400 2872 2139 2705 
Q 2878 2538 3153 2413 
Q 3553 2228 3743 1945 
Q 3934 1663 3934 1294 
Q 3934 928 3725 604 
Q 3516 281 3123 101 
Q 2731 -78 2241 -78 
Q 1619 -78 1198 103 
Q 778 284 539 648 
Q 300 1013 288 1472 
z
" id="ArialMT-53" transform="scale(0.015625)"/>
       <path d="M 1650 503 
L 1731 6 
Q 1494 -44 1306 -44 
Q 1000 -44 831 53 
Q 663 150 594 308 
Q 525 466 525 972 
L 525 2881 
L 113 2881 
L 113 3319 
L 525 3319 
L 525 4141 
L 1084 4478 
L 1084 3319 
L 1650 3319 
L 1650 2881 
L 1084 2881 
L 1084 941 
Q 1084 700 1114 631 
Q 1144 563 1211 522 
Q 1278 481 1403 481 
Q 1497 481 1650 503 
z
" id="ArialMT-74" transform="scale(0.015625)"/>
       <path d="M 422 -1272 
L 422 3319 
L 934 3319 
L 934 2888 
Q 1116 3141 1344 3267 
Q 1572 3394 1897 3394 
Q 2322 3394 2647 3175 
Q 2972 2956 3137 2557 
Q 3303 2159 3303 1684 
Q 3303 1175 3120 767 
Q 2938 359 2589 142 
Q 2241 -75 1856 -75 
Q 1575 -75 1351 44 
Q 1128 163 984 344 
L 984 -1272 
L 422 -1272 
z
M 931 1641 
Q 931 1000 1190 694 
Q 1450 388 1819 388 
Q 2194 388 2461 705 
Q 2728 1022 2728 1688 
Q 2728 2322 2467 2637 
Q 2206 2953 1844 2953 
Q 1484 2953 1207 2617 
Q 931 2281 931 1641 
z
" id="ArialMT-70" transform="scale(0.015625)"/>
      </defs>
      <use xlink:href="#ArialMT-54"/>
      <use x="57.333984" xlink:href="#ArialMT-69"/>
      <use x="79.550781" xlink:href="#ArialMT-6d"/>
      <use x="162.851562" xlink:href="#ArialMT-65"/>
      <use x="218.466797" xlink:href="#ArialMT-20"/>
      <use x="246.25" xlink:href="#ArialMT-53"/>
      <use x="312.949219" xlink:href="#ArialMT-74"/>
      <use x="340.732422" xlink:href="#ArialMT-65"/>
      <use x="396.347656" xlink:href="#ArialMT-70"/>
     </g>
    </g>
   </g>
   <g id="matplotlib.axis_2">
    <g id="ytick_1">
     <g id="line2d_7">
      <path clip-path="url(#pf6d6026972)" d="M 57.6 293.76 
L 414.72 293.76 
" style="fill:none;stroke:#ffffff;stroke-linecap:round;"/>
     </g>
     <g id="text_8">
      <!-- 0.0 -->
      <g style="fill:#262626;" transform="translate(27.25 299.128359)scale(0.15 -0.15)">
       <defs>
        <path d="M 581 0 
L 581 641 
L 1222 641 
L 1222 0 
L 581 0 
z
" id="ArialMT-2e" transform="scale(0.015625)"/>
       </defs>
       <use xlink:href="#ArialMT-30"/>
       <use x="55.615234" xlink:href="#ArialMT-2e"/>
       <use x="83.398438" xlink:href="#ArialMT-30"/>
      </g>
     </g>
    </g>
    <g id="ytick_2">
     <g id="line2d_8">
      <path clip-path="url(#pf6d6026972)" d="M 57.6 262.613333 
L 414.72 262.613333 
" style="fill:none;stroke:#ffffff;stroke-linecap:round;"/>
     </g>
     <g id="text_9">
      <!-- 0.1 -->
      <g style="fill:#262626;" transform="translate(27.25 267.981693)scale(0.15 -0.15)">
       <use xlink:href="#ArialMT-30"/>
       <use x="55.615234" xlink:href="#ArialMT-2e"/>
       <use x="83.398438" xlink:href="#ArialMT-31"/>
      </g>
     </g>
    </g>
    <g id="ytick_3">
     <g id="line2d_9">
      <path clip-path="url(#pf6d6026972)" d="M 57.6 231.466667 
L 414.72 231.466667 
" style="fill:none;stroke:#ffffff;stroke-linecap:round;"/>
     </g>
     <g id="text_10">
      <!-- 0.2 -->
      <g style="fill:#262626;" transform="translate(27.25 236.835026)scale(0.15 -0.15)">
       <use xlink:href="#ArialMT-30"/>
       <use x="55.615234" xlink:href="#ArialMT-2e"/>
       <use x="83.398438" xlink:href="#ArialMT-32"/>
      </g>
     </g>
    </g>
    <g id="ytick_4">
     <g id="line2d_10">
      <path clip-path="url(#pf6d6026972)" d="M 57.6 200.32 
L 414.72 200.32 
" style="fill:none;stroke:#ffffff;stroke-linecap:round;"/>
     </g>
     <g id="text_11">
      <!-- 0.3 -->
      <g style="fill:#262626;" transform="translate(27.25 205.688359)scale(0.15 -0.15)">
       <defs>
        <path d="M 269 1209 
L 831 1284 
Q 928 806 1161 595 
Q 1394 384 1728 384 
Q 2125 384 2398 659 
Q 2672 934 2672 1341 
Q 2672 1728 2419 1979 
Q 2166 2231 1775 2231 
Q 1616 2231 1378 2169 
L 1441 2663 
Q 1497 2656 1531 2656 
Q 1891 2656 2178 2843 
Q 2466 3031 2466 3422 
Q 2466 3731 2256 3934 
Q 2047 4138 1716 4138 
Q 1388 4138 1169 3931 
Q 950 3725 888 3313 
L 325 3413 
Q 428 3978 793 4289 
Q 1159 4600 1703 4600 
Q 2078 4600 2393 4439 
Q 2709 4278 2876 4000 
Q 3044 3722 3044 3409 
Q 3044 3113 2884 2869 
Q 2725 2625 2413 2481 
Q 2819 2388 3044 2092 
Q 3269 1797 3269 1353 
Q 3269 753 2831 336 
Q 2394 -81 1725 -81 
Q 1122 -81 723 278 
Q 325 638 269 1209 
z
" id="ArialMT-33" transform="scale(0.015625)"/>
       </defs>
       <use xlink:href="#ArialMT-30"/>
       <use x="55.615234" xlink:href="#ArialMT-2e"/>
       <use x="83.398438" xlink:href="#ArialMT-33"/>
      </g>
     </g>
    </g>
    <g id="ytick_5">
     <g id="line2d_11">
      <path clip-path="url(#pf6d6026972)" d="M 57.6 169.173333 
L 414.72 169.173333 
" style="fill:none;stroke:#ffffff;stroke-linecap:round;"/>
     </g>
     <g id="text_12">
      <!-- 0.4 -->
      <g style="fill:#262626;" transform="translate(27.25 174.541693)scale(0.15 -0.15)">
       <defs>
        <path d="M 2069 0 
L 2069 1097 
L 81 1097 
L 81 1613 
L 2172 4581 
L 2631 4581 
L 2631 1613 
L 3250 1613 
L 3250 1097 
L 2631 1097 
L 2631 0 
L 2069 0 
z
M 2069 1613 
L 2069 3678 
L 634 1613 
L 2069 1613 
z
" id="ArialMT-34" transform="scale(0.015625)"/>
       </defs>
       <use xlink:href="#ArialMT-30"/>
       <use x="55.615234" xlink:href="#ArialMT-2e"/>
       <use x="83.398438" xlink:href="#ArialMT-34"/>
      </g>
     </g>
    </g>
    <g id="ytick_6">
     <g id="line2d_12">
      <path clip-path="url(#pf6d6026972)" d="M 57.6 138.026667 
L 414.72 138.026667 
" style="fill:none;stroke:#ffffff;stroke-linecap:round;"/>
     </g>
     <g id="text_13">
      <!-- 0.5 -->
      <g style="fill:#262626;" transform="translate(27.25 143.395026)scale(0.15 -0.15)">
       <use xlink:href="#ArialMT-30"/>
       <use x="55.615234" xlink:href="#ArialMT-2e"/>
       <use x="83.398438" xlink:href="#ArialMT-35"/>
      </g>
     </g>
    </g>
    <g id="ytick_7">
     <g id="line2d_13">
      <path clip-path="url(#pf6d6026972)" d="M 57.6 106.88 
L 414.72 106.88 
" style="fill:none;stroke:#ffffff;stroke-linecap:round;"/>
     </g>
     <g id="text_14">
      <!-- 0.6 -->
      <g style="fill:#262626;" transform="translate(27.25 112.248359)scale(0.15 -0.15)">
       <defs>
        <path d="M 3184 3459 
L 2625 3416 
Q 2550 3747 2413 3897 
Q 2184 4138 1850 4138 
Q 1581 4138 1378 3988 
Q 1113 3794 959 3422 
Q 806 3050 800 2363 
Q 1003 2672 1297 2822 
Q 1591 2972 1913 2972 
Q 2475 2972 2870 2558 
Q 3266 2144 3266 1488 
Q 3266 1056 3080 686 
Q 2894 316 2569 119 
Q 2244 -78 1831 -78 
Q 1128 -78 684 439 
Q 241 956 241 2144 
Q 241 3472 731 4075 
Q 1159 4600 1884 4600 
Q 2425 4600 2770 4297 
Q 3116 3994 3184 3459 
z
M 888 1484 
Q 888 1194 1011 928 
Q 1134 663 1356 523 
Q 1578 384 1822 384 
Q 2178 384 2434 671 
Q 2691 959 2691 1453 
Q 2691 1928 2437 2201 
Q 2184 2475 1800 2475 
Q 1419 2475 1153 2201 
Q 888 1928 888 1484 
z
" id="ArialMT-36" transform="scale(0.015625)"/>
       </defs>
       <use xlink:href="#ArialMT-30"/>
       <use x="55.615234" xlink:href="#ArialMT-2e"/>
       <use x="83.398438" xlink:href="#ArialMT-36"/>
      </g>
     </g>
    </g>
    <g id="ytick_8">
     <g id="line2d_14">
      <path clip-path="url(#pf6d6026972)" d="M 57.6 75.733333 
L 414.72 75.733333 
" style="fill:none;stroke:#ffffff;stroke-linecap:round;"/>
     </g>
     <g id="text_15">
      <!-- 0.7 -->
      <g style="fill:#262626;" transform="translate(27.25 81.101693)scale(0.15 -0.15)">
       <defs>
        <path d="M 303 3981 
L 303 4522 
L 3269 4522 
L 3269 4084 
Q 2831 3619 2401 2847 
Q 1972 2075 1738 1259 
Q 1569 684 1522 0 
L 944 0 
Q 953 541 1156 1306 
Q 1359 2072 1739 2783 
Q 2119 3494 2547 3981 
L 303 3981 
z
" id="ArialMT-37" transform="scale(0.015625)"/>
       </defs>
       <use xlink:href="#ArialMT-30"/>
       <use x="55.615234" xlink:href="#ArialMT-2e"/>
       <use x="83.398438" xlink:href="#ArialMT-37"/>
      </g>
     </g>
    </g>
    <g id="ytick_9">
     <g id="line2d_15">
      <path clip-path="url(#pf6d6026972)" d="M 57.6 44.586667 
L 414.72 44.586667 
" style="fill:none;stroke:#ffffff;stroke-linecap:round;"/>
     </g>
     <g id="text_16">
      <!-- 0.8 -->
      <g style="fill:#262626;" transform="translate(27.25 49.955026)scale(0.15 -0.15)">
       <defs>
        <path d="M 1131 2484 
Q 781 2613 612 2850 
Q 444 3088 444 3419 
Q 444 3919 803 4259 
Q 1163 4600 1759 4600 
Q 2359 4600 2725 4251 
Q 3091 3903 3091 3403 
Q 3091 3084 2923 2848 
Q 2756 2613 2416 2484 
Q 2838 2347 3058 2040 
Q 3278 1734 3278 1309 
Q 3278 722 2862 322 
Q 2447 -78 1769 -78 
Q 1091 -78 675 323 
Q 259 725 259 1325 
Q 259 1772 486 2073 
Q 713 2375 1131 2484 
z
M 1019 3438 
Q 1019 3113 1228 2906 
Q 1438 2700 1772 2700 
Q 2097 2700 2305 2904 
Q 2513 3109 2513 3406 
Q 2513 3716 2298 3927 
Q 2084 4138 1766 4138 
Q 1444 4138 1231 3931 
Q 1019 3725 1019 3438 
z
M 838 1322 
Q 838 1081 952 856 
Q 1066 631 1291 507 
Q 1516 384 1775 384 
Q 2178 384 2440 643 
Q 2703 903 2703 1303 
Q 2703 1709 2433 1975 
Q 2163 2241 1756 2241 
Q 1359 2241 1098 1978 
Q 838 1716 838 1322 
z
" id="ArialMT-38" transform="scale(0.015625)"/>
       </defs>
       <use xlink:href="#ArialMT-30"/>
       <use x="55.615234" xlink:href="#ArialMT-2e"/>
       <use x="83.398438" xlink:href="#ArialMT-38"/>
      </g>
     </g>
    </g>
    <g id="text_17">
     <!-- Top-1 Acc -->
     <g style="fill:#262626;" transform="translate(19.6725 207.131625)rotate(-90)scale(0.18 -0.18)">
      <defs>
       <path d="M 213 1659 
Q 213 2581 725 3025 
Q 1153 3394 1769 3394 
Q 2453 3394 2887 2945 
Q 3322 2497 3322 1706 
Q 3322 1066 3130 698 
Q 2938 331 2570 128 
Q 2203 -75 1769 -75 
Q 1072 -75 642 372 
Q 213 819 213 1659 
z
M 791 1659 
Q 791 1022 1069 705 
Q 1347 388 1769 388 
Q 2188 388 2466 706 
Q 2744 1025 2744 1678 
Q 2744 2294 2464 2611 
Q 2184 2928 1769 2928 
Q 1347 2928 1069 2612 
Q 791 2297 791 1659 
z
" id="ArialMT-6f" transform="scale(0.015625)"/>
       <path d="M 203 1375 
L 203 1941 
L 1931 1941 
L 1931 1375 
L 203 1375 
z
" id="ArialMT-2d" transform="scale(0.015625)"/>
       <path d="M -9 0 
L 1750 4581 
L 2403 4581 
L 4278 0 
L 3588 0 
L 3053 1388 
L 1138 1388 
L 634 0 
L -9 0 
z
M 1313 1881 
L 2866 1881 
L 2388 3150 
Q 2169 3728 2063 4100 
Q 1975 3659 1816 3225 
L 1313 1881 
z
" id="ArialMT-41" transform="scale(0.015625)"/>
       <path d="M 2588 1216 
L 3141 1144 
Q 3050 572 2676 248 
Q 2303 -75 1759 -75 
Q 1078 -75 664 370 
Q 250 816 250 1647 
Q 250 2184 428 2587 
Q 606 2991 970 3192 
Q 1334 3394 1763 3394 
Q 2303 3394 2647 3120 
Q 2991 2847 3088 2344 
L 2541 2259 
Q 2463 2594 2264 2762 
Q 2066 2931 1784 2931 
Q 1359 2931 1093 2626 
Q 828 2322 828 1663 
Q 828 994 1084 691 
Q 1341 388 1753 388 
Q 2084 388 2306 591 
Q 2528 794 2588 1216 
z
" id="ArialMT-63" transform="scale(0.015625)"/>
      </defs>
      <use xlink:href="#ArialMT-54"/>
      <use x="49.958984" xlink:href="#ArialMT-6f"/>
      <use x="105.574219" xlink:href="#ArialMT-70"/>
      <use x="161.189453" xlink:href="#ArialMT-2d"/>
      <use x="194.490234" xlink:href="#ArialMT-31"/>
      <use x="250.105469" xlink:href="#ArialMT-20"/>
      <use x="272.388672" xlink:href="#ArialMT-41"/>
      <use x="339.087891" xlink:href="#ArialMT-63"/>
      <use x="389.087891" xlink:href="#ArialMT-63"/>
     </g>
    </g>
   </g>
   <g id="line2d_16">
    <path clip-path="url(#pf6d6026972)" d="M 57.6 290.645333 
L 58.995 290.645333 
L 60.39 290.894507 
L 61.785 290.39616 
L 64.575 285.25696 
L 65.97 284.416 
L 67.365 282.765227 
L 68.76 280.802987 
L 70.155 278.217813 
L 71.55 275.072 
L 72.945 271.178667 
L 74.34 266.818133 
L 77.13 254.452907 
L 79.92 239.75168 
L 82.71 222.340693 
L 84.105 212.685227 
L 85.5 203.808427 
L 86.895 194.121813 
L 88.29 186.085973 
L 91.08 168.145493 
L 93.87 153.475413 
L 96.66 140.89216 
L 98.055 135.28576 
L 99.45 130.551467 
L 103.635 119.276373 
L 109.215 107.72096 
L 110.61 105.883307 
L 112.005 104.325973 
L 113.4 101.92768 
L 116.19 98.781867 
L 117.585 97.317973 
L 118.98 96.196693 
L 120.375 94.701653 
L 121.77 93.42464 
L 124.56 91.27552 
L 127.35 89.40672 
L 128.745 88.036267 
L 131.535 86.354347 
L 132.93 85.887147 
L 134.325 85.20192 
L 135.72 84.82816 
L 137.115 84.236373 
L 138.51 83.52 
L 141.3 82.461013 
L 142.695 81.775787 
L 144.09 81.46432 
L 146.88 80.62336 
L 148.275 80.561067 
L 149.67 79.938133 
L 151.065 79.68896 
L 153.855 79.40864 
L 156.645 78.75456 
L 158.04 78.536533 
L 160.83 77.851307 
L 162.225 77.664427 
L 163.62 77.664427 
L 165.015 77.415253 
L 166.41 77.415253 
L 171.99 76.512 
L 173.385 76.200533 
L 174.78 76.13824 
L 176.175 75.826773 
L 180.36 75.359573 
L 181.755 75.01696 
L 183.15 75.1104 
L 184.545 74.954667 
L 187.335 74.45632 
L 198.495 73.303893 
L 199.89 73.210453 
L 201.285 72.96128 
L 202.68 73.05472 
L 205.47 72.86784 
L 206.865 72.649813 
L 212.445 72.431787 
L 218.025 72.12032 
L 219.42 72.089173 
L 220.815 71.93344 
L 225 71.74656 
L 226.395 71.65312 
L 227.79 71.684267 
L 229.185 71.497387 
L 237.555 71.248213 
L 240.345 71.030187 
L 241.74 70.9056 
L 247.32 70.874453 
L 250.11 70.71872 
L 254.295 70.687573 
L 259.875 70.749867 
L 261.27 70.594133 
L 264.06 70.656427 
L 268.245 70.53184 
L 273.825 70.53184 
L 275.22 70.376107 
L 276.615 70.376107 
L 278.01 70.500693 
L 282.195 70.313813 
L 284.985 70.15808 
L 286.38 70.220373 
L 289.17 70.095787 
L 298.935 69.9712 
L 307.305 70.095787 
L 310.095 70.06464 
L 335.205 69.504 
L 337.995 69.59744 
L 342.18 69.566293 
L 343.575 69.472853 
L 346.365 69.472853 
L 347.76 69.441707 
L 349.155 69.535147 
L 350.55 69.441707 
L 354.735 69.441707 
L 356.13 69.348267 
L 357.525 69.41056 
L 360.315 69.31712 
L 364.5 69.31712 
L 374.265 69.192533 
L 381.24 69.285973 
L 397.98 68.94336 
L 400.77 69.005653 
L 413.325 69.0368 
L 413.325 69.0368 
" style="fill:none;stroke:#bfbf00;stroke-linecap:round;stroke-width:2.5;"/>
   </g>
   <g id="line2d_17">
    <path clip-path="url(#pf6d6026972)" d="M 57.6 290.645333 
L 64.575 290.645333 
L 65.97 290.271573 
L 67.365 288.184747 
L 68.76 286.876587 
L 71.55 282.516053 
L 74.34 279.18336 
L 75.735 277.003093 
L 78.525 271.677013 
L 81.315 265.136213 
L 82.71 261.24288 
L 84.105 258.034773 
L 88.29 246.167893 
L 89.685 242.399147 
L 91.08 238.287787 
L 93.87 229.09952 
L 98.055 213.58848 
L 99.45 207.51488 
L 102.24 196.5824 
L 103.635 190.78912 
L 106.425 180.60416 
L 110.61 163.8784 
L 112.005 158.863787 
L 114.795 149.95584 
L 116.19 145.221547 
L 118.98 134.943147 
L 121.77 126.720427 
L 123.165 122.01728 
L 124.56 119.151787 
L 125.955 115.7568 
L 127.35 112.050347 
L 131.535 102.986667 
L 132.93 100.868693 
L 134.325 98.034347 
L 135.72 95.729493 
L 139.905 89.718187 
L 141.3 88.129707 
L 144.09 85.419947 
L 145.485 84.36096 
L 146.88 82.928213 
L 151.065 79.96928 
L 152.46 78.47424 
L 153.855 77.53984 
L 155.25 76.23168 
L 156.645 75.359573 
L 158.04 74.300587 
L 159.435 73.52192 
L 162.225 71.46624 
L 163.62 70.967893 
L 165.015 70.34496 
L 167.805 68.725333 
L 169.2 68.226987 
L 171.99 66.389333 
L 173.385 65.828693 
L 174.78 65.39264 
L 177.57 64.053333 
L 178.965 63.80416 
L 181.755 62.714027 
L 185.94 61.717333 
L 190.125 60.222293 
L 191.52 59.848533 
L 195.705 59.50592 
L 197.1 59.31904 
L 198.495 58.914133 
L 202.68 58.47808 
L 204.075 58.166613 
L 206.865 57.699413 
L 208.26 57.419093 
L 216.63 56.578133 
L 218.025 56.297813 
L 220.815 56.04864 
L 223.605 55.86176 
L 227.79 55.238827 
L 229.185 55.238827 
L 233.37 54.83392 
L 236.16 54.896213 
L 238.95 54.678187 
L 243.135 54.27328 
L 245.925 54.304427 
L 248.715 54.148693 
L 250.11 53.930667 
L 251.505 53.89952 
L 252.9 53.71264 
L 257.085 53.71264 
L 258.48 53.588053 
L 259.875 53.588053 
L 265.455 53.089707 
L 266.85 53.089707 
L 268.245 52.87168 
L 269.64 52.87168 
L 271.035 52.996267 
L 272.43 52.87168 
L 273.825 52.87168 
L 276.615 52.653653 
L 278.01 52.747093 
L 282.195 52.529067 
L 284.985 52.560213 
L 286.38 52.435627 
L 290.565 52.373333 
L 293.355 52.31104 
L 296.145 52.279893 
L 297.54 52.12416 
L 298.935 52.155307 
L 301.725 51.999573 
L 303.12 52.061867 
L 308.7 51.7504 
L 319.86 51.594667 
L 326.835 51.65696 
L 331.02 51.47008 
L 333.81 51.438933 
L 351.945 51.09632 
L 353.34 51.158613 
L 357.525 50.971733 
L 358.92 50.971733 
L 361.71 51.252053 
L 363.105 51.127467 
L 370.08 51.034027 
L 397.98 50.411093 
L 399.375 50.504533 
L 406.35 50.411093 
L 407.745 50.473387 
L 411.93 50.379947 
L 413.325 50.3488 
L 413.325 50.3488 
" style="fill:none;stroke:#00bfbf;stroke-linecap:round;stroke-width:2.5;"/>
   </g>
   <g id="line2d_18">
    <path clip-path="url(#pf6d6026972)" d="M 57.6 290.645333 
L 70.155 290.551893 
L 71.55 290.271573 
L 74.34 288.99456 
L 75.735 288.465067 
L 78.525 287.2192 
L 79.92 286.689707 
L 84.105 283.9488 
L 85.5 283.357013 
L 89.685 280.49152 
L 91.08 278.934187 
L 93.87 276.629333 
L 98.055 272.299947 
L 99.45 270.96064 
L 100.845 268.842667 
L 102.24 267.347627 
L 103.635 265.198507 
L 105.03 263.516587 
L 106.425 262.08384 
L 107.82 260.1216 
L 109.215 257.87904 
L 112.005 254.266027 
L 113.4 252.55296 
L 117.585 245.91872 
L 118.98 243.053227 
L 120.375 240.530347 
L 121.77 237.571413 
L 123.165 234.955093 
L 124.56 232.868267 
L 125.955 230.438827 
L 127.35 227.573333 
L 128.745 224.98816 
L 130.14 221.468587 
L 135.72 210.349227 
L 137.115 207.7952 
L 138.51 204.119893 
L 139.905 201.06752 
L 142.695 193.997227 
L 144.09 191.06944 
L 145.485 187.269547 
L 146.88 184.871253 
L 149.67 179.01568 
L 151.065 176.150187 
L 152.46 172.599467 
L 153.855 169.39136 
L 158.04 160.826027 
L 160.83 154.81472 
L 162.225 152.29184 
L 165.015 146.87232 
L 166.41 144.256 
L 167.805 142.075733 
L 169.2 138.92992 
L 170.595 136.344747 
L 174.78 130.115413 
L 176.175 127.62368 
L 178.965 123.51232 
L 180.36 121.705813 
L 184.545 115.787947 
L 188.73 110.43072 
L 195.705 102.644053 
L 197.1 100.962133 
L 198.495 99.809707 
L 199.89 98.4704 
L 201.285 97.286827 
L 202.68 95.916373 
L 206.865 92.58368 
L 208.26 91.64928 
L 209.655 91.119787 
L 211.05 90.278827 
L 213.84 88.223147 
L 222.21 83.42656 
L 223.605 83.0528 
L 227.79 80.685653 
L 229.185 80.15616 
L 230.58 79.7824 
L 231.975 78.879147 
L 233.37 78.318507 
L 234.765 77.944747 
L 238.95 76.013653 
L 244.53 74.08256 
L 245.925 73.52192 
L 247.32 73.179307 
L 248.715 72.649813 
L 250.11 72.462933 
L 251.505 72.02688 
L 252.9 71.871147 
L 255.69 71.123627 
L 258.48 70.220373 
L 259.875 69.940053 
L 261.27 69.41056 
L 266.85 67.977813 
L 268.245 67.853227 
L 269.64 67.572907 
L 272.43 66.7008 
L 273.825 66.545067 
L 275.22 66.2336 
L 280.8 65.48608 
L 283.59 64.92544 
L 284.985 64.863147 
L 287.775 64.27136 
L 290.565 63.866453 
L 293.355 63.399253 
L 294.75 63.212373 
L 296.145 62.77632 
L 300.33 62.21568 
L 301.725 62.0288 
L 303.12 61.966507 
L 305.91 61.405867 
L 310.095 60.969813 
L 311.49 60.689493 
L 318.465 60.16 
L 319.86 59.87968 
L 321.255 59.848533 
L 325.44 59.381333 
L 326.835 59.350187 
L 328.23 59.101013 
L 329.625 59.194453 
L 332.415 58.7584 
L 336.6 58.540373 
L 337.995 58.633813 
L 339.39 58.509227 
L 340.785 58.135467 
L 343.575 58.042027 
L 344.97 57.824 
L 349.155 57.54368 
L 371.475 56.110933 
L 375.66 56.173227 
L 377.055 56.079787 
L 379.845 56.110933 
L 384.03 55.924053 
L 386.82 55.799467 
L 388.215 55.612587 
L 389.61 55.706027 
L 392.4 55.456853 
L 396.585 55.145387 
L 397.98 55.20768 
L 404.955 54.83392 
L 413.325 54.5536 
L 413.325 54.5536 
" style="fill:none;stroke:#0000ff;stroke-linecap:round;stroke-width:2.5;"/>
   </g>
   <g id="line2d_19">
    <path clip-path="url(#pf6d6026972)" d="M 57.6 290.645333 
L 64.575 290.614187 
L 65.97 288.869973 
L 67.365 287.655253 
L 68.76 287.842133 
L 71.55 286.596267 
L 74.34 284.104533 
L 75.735 282.5472 
L 77.13 280.460373 
L 78.525 277.906347 
L 79.92 275.103147 
L 81.315 271.70816 
L 82.71 267.97056 
L 84.105 263.890347 
L 85.5 259.031467 
L 86.895 253.67424 
L 88.29 247.60064 
L 91.08 233.4912 
L 93.87 218.5408 
L 95.265 209.445973 
L 98.055 195.025067 
L 99.45 186.272853 
L 100.845 178.486187 
L 106.425 152.322987 
L 109.215 139.241387 
L 112.005 128.620373 
L 114.795 120.70912 
L 116.19 116.41088 
L 118.98 109.87008 
L 120.375 106.661973 
L 121.77 104.0768 
L 124.56 99.529387 
L 125.955 97.099947 
L 127.35 95.324587 
L 128.745 92.67712 
L 130.14 90.496853 
L 131.535 88.908373 
L 132.93 86.946133 
L 138.51 81.121707 
L 141.3 79.564373 
L 142.695 78.47424 
L 144.09 77.82016 
L 145.485 76.574293 
L 146.88 75.795627 
L 149.67 73.771093 
L 151.065 72.898987 
L 153.855 71.590827 
L 158.04 70.313813 
L 160.83 69.067947 
L 162.225 68.600747 
L 163.62 67.91552 
L 165.015 67.54176 
L 166.41 66.856533 
L 167.805 66.545067 
L 169.2 65.984427 
L 170.595 65.610667 
L 171.99 64.987733 
L 177.57 63.492693 
L 178.965 63.274667 
L 183.15 62.21568 
L 184.545 62.091093 
L 187.335 61.592747 
L 188.73 61.0944 
L 194.31 60.315733 
L 197.1 60.191147 
L 199.89 59.755093 
L 201.285 59.31904 
L 202.68 59.007573 
L 204.075 58.85184 
L 205.47 58.509227 
L 206.865 58.353493 
L 208.26 58.38464 
L 213.84 57.574827 
L 215.235 57.512533 
L 220.815 56.70272 
L 230.58 55.986347 
L 231.975 55.612587 
L 237.555 55.083093 
L 240.345 54.92736 
L 243.135 54.64704 
L 244.53 54.491307 
L 261.27 54.055253 
L 262.665 53.89952 
L 264.06 53.99296 
L 269.64 53.80608 
L 271.035 53.80608 
L 272.43 53.681493 
L 275.22 53.89952 
L 278.01 53.681493 
L 279.405 53.71264 
L 280.8 53.52576 
L 283.59 53.650347 
L 296.145 53.276587 
L 301.725 53.089707 
L 305.91 53.089707 
L 308.7 52.902827 
L 311.49 52.902827 
L 312.885 52.77824 
L 317.07 52.77824 
L 319.86 52.715947 
L 325.44 52.622507 
L 326.835 52.466773 
L 331.02 52.466773 
L 332.415 52.279893 
L 335.205 52.12416 
L 342.18 51.874987 
L 344.97 51.874987 
L 357.525 51.532373 
L 360.315 51.438933 
L 361.71 51.47008 
L 364.5 51.2832 
L 370.08 51.252053 
L 374.265 51.034027 
L 382.635 50.940587 
L 397.98 50.847147 
L 413.325 50.473387 
L 413.325 50.473387 
" style="fill:none;stroke:#008000;stroke-linecap:round;stroke-width:2.5;"/>
   </g>
   <g id="line2d_20">
    <path clip-path="url(#pf6d6026972)" d="M 57.6 290.645333 
L 67.365 290.645333 
L 68.76 290.4896 
L 70.155 289.430613 
L 72.945 287.810987 
L 74.34 286.814293 
L 77.13 284.260267 
L 79.92 280.896427 
L 86.895 272.019627 
L 88.29 269.995093 
L 89.685 267.721387 
L 92.475 264.201813 
L 99.45 251.774293 
L 100.845 248.846507 
L 103.635 242.617173 
L 105.03 239.5648 
L 106.425 236.85504 
L 107.82 233.896107 
L 114.795 216.267093 
L 116.19 212.716373 
L 118.98 204.61824 
L 124.56 189.885867 
L 128.745 177.769813 
L 132.93 166.2144 
L 134.325 162.819413 
L 137.115 155.063893 
L 139.905 148.398507 
L 141.3 145.688747 
L 142.695 142.29376 
L 145.485 136.68736 
L 146.88 132.980907 
L 148.275 130.115413 
L 149.67 126.907307 
L 151.065 124.290987 
L 152.46 121.986133 
L 156.645 114.292907 
L 158.04 112.361813 
L 160.83 107.90784 
L 162.225 105.75872 
L 166.41 99.872 
L 167.805 98.408107 
L 169.2 96.663893 
L 170.595 95.137707 
L 171.99 93.98528 
L 173.385 92.614827 
L 174.78 91.55584 
L 176.175 89.718187 
L 177.57 88.6592 
L 178.965 87.849387 
L 180.36 86.634667 
L 181.755 86.074027 
L 183.15 85.139627 
L 184.545 83.80032 
L 188.73 81.27744 
L 191.52 79.3152 
L 195.705 76.854613 
L 197.1 76.449707 
L 201.285 74.394027 
L 202.68 73.833387 
L 204.075 72.992427 
L 205.47 72.805547 
L 208.26 71.715413 
L 211.05 70.99904 
L 212.445 70.53184 
L 213.84 69.846613 
L 215.235 69.379413 
L 216.63 69.099093 
L 219.42 68.071253 
L 220.815 67.6352 
L 222.21 67.043413 
L 223.605 66.856533 
L 226.395 66.109013 
L 227.79 65.85984 
L 229.185 65.361493 
L 231.975 64.73856 
L 233.37 64.302507 
L 245.925 61.779627 
L 247.32 61.686187 
L 248.715 61.343573 
L 250.11 61.312427 
L 252.9 61.063253 
L 254.295 60.6272 
L 257.085 60.284587 
L 259.875 60.128853 
L 261.27 59.78624 
L 262.665 59.78624 
L 264.06 59.568213 
L 266.85 58.85184 
L 268.245 58.94528 
L 282.195 57.107627 
L 283.59 57.201067 
L 284.985 57.16992 
L 287.775 56.827307 
L 289.17 56.827307 
L 293.355 56.360107 
L 297.54 56.14208 
L 298.935 55.799467 
L 310.095 55.363413 
L 312.885 55.30112 
L 318.465 54.896213 
L 319.86 54.958507 
L 322.65 54.92736 
L 328.23 54.709333 
L 329.625 54.429013 
L 331.02 54.397867 
L 332.415 54.491307 
L 335.205 54.46016 
L 337.995 54.117547 
L 339.39 54.055253 
L 342.18 53.743787 
L 343.575 53.868373 
L 346.365 53.650347 
L 349.155 53.401173 
L 351.945 53.370027 
L 353.34 53.214293 
L 357.525 53.370027 
L 365.895 53.089707 
L 368.685 53.120853 
L 371.475 53.027413 
L 374.265 52.96512 
L 377.055 52.87168 
L 384.03 52.6848 
L 386.82 52.529067 
L 393.795 52.622507 
L 400.77 52.373333 
L 403.56 52.279893 
L 406.35 52.2176 
L 410.535 52.279893 
L 411.93 52.061867 
L 413.325 52.093013 
L 413.325 52.093013 
" style="fill:none;stroke:#ff0000;stroke-linecap:round;stroke-width:2.5;"/>
   </g>
   <g id="line2d_21">
    <path clip-path="url(#pf6d6026972)" d="M 57.6 290.645333 
L 64.575 290.707627 
L 65.97 290.4896 
L 67.365 289.74208 
L 68.76 282.765227 
L 71.55 256.072533 
L 75.735 223.617707 
L 78.525 203.559253 
L 84.105 168.5504 
L 85.5 161.760427 
L 86.895 154.036053 
L 88.29 147.121493 
L 92.475 129.554773 
L 93.87 123.854933 
L 98.055 109.714347 
L 99.45 105.976747 
L 100.845 103.266987 
L 102.24 99.809707 
L 103.635 96.850773 
L 107.82 89.811627 
L 109.215 87.81824 
L 110.61 85.3888 
L 112.005 83.23968 
L 114.795 79.813547 
L 116.19 78.225067 
L 117.585 76.449707 
L 120.375 73.864533 
L 121.77 72.805547 
L 123.165 72.21376 
L 125.955 70.313813 
L 128.745 68.694187 
L 134.325 65.20576 
L 137.115 63.8976 
L 138.51 63.212373 
L 142.695 61.84192 
L 145.485 60.81408 
L 148.275 59.910827 
L 149.67 59.817387 
L 151.065 59.31904 
L 152.46 59.2256 
L 156.645 58.01088 
L 158.04 57.419093 
L 163.62 56.827307 
L 166.41 56.204373 
L 170.595 55.488 
L 171.99 55.176533 
L 174.78 54.83392 
L 176.175 54.584747 
L 178.965 54.46016 
L 180.36 54.117547 
L 181.755 54.024107 
L 183.15 53.650347 
L 184.545 53.494613 
L 185.94 53.52576 
L 187.335 53.214293 
L 188.73 53.307733 
L 194.31 53.089707 
L 197.1 52.622507 
L 199.89 52.49792 
L 201.285 52.342187 
L 202.68 52.40448 
L 204.075 52.2176 
L 206.865 52.155307 
L 208.26 51.968427 
L 211.05 51.93728 
L 215.235 51.84384 
L 218.025 51.625813 
L 219.42 51.594667 
L 222.21 51.37664 
L 223.605 51.438933 
L 226.395 51.127467 
L 227.79 51.252053 
L 229.185 51.09632 
L 231.975 51.158613 
L 240.345 50.691413 
L 244.53 50.597973 
L 250.11 50.317653 
L 254.295 50.224213 
L 259.875 50.25536 
L 266.85 50.037333 
L 272.43 50.037333 
L 275.22 49.850453 
L 279.405 49.8816 
L 280.8 49.819307 
L 282.195 49.8816 
L 284.985 49.69472 
L 293.355 49.78816 
L 294.75 49.69472 
L 301.725 49.757013 
L 317.07 49.725867 
L 318.465 49.632427 
L 322.65 49.725867 
L 325.44 49.570133 
L 328.23 49.663573 
L 331.02 49.538987 
L 342.18 49.476693 
L 344.97 49.445547 
L 350.55 49.50784 
L 356.13 49.352107 
L 358.92 49.50784 
L 360.315 49.445547 
L 361.71 49.50784 
L 368.685 49.258667 
L 372.87 49.570133 
L 375.66 49.476693 
L 379.845 49.32096 
L 385.425 49.352107 
L 388.215 49.352107 
L 389.61 49.22752 
L 392.4 49.258667 
L 395.19 49.165227 
L 403.56 49.32096 
L 404.955 49.22752 
L 407.745 49.22752 
L 410.535 49.196373 
L 413.325 49.258667 
L 413.325 49.258667 
" style="fill:none;stroke:#bf00bf;stroke-linecap:round;stroke-width:2.5;"/>
   </g>
   <g id="line2d_22">
    <path clip-path="url(#pf6d6026972)" d="M 57.6 49.289813 
L 414.72 49.289813 
" style="fill:none;stroke:#000000;stroke-dasharray:9.25,4;stroke-dashoffset:0;stroke-width:2.5;"/>
   </g>
   <g id="patch_3">
    <path d="M 57.6 293.76 
L 57.6 41.472 
" style="fill:none;stroke:#ffffff;stroke-linecap:square;stroke-linejoin:miter;stroke-width:1.25;"/>
   </g>
   <g id="patch_4">
    <path d="M 414.72 293.76 
L 414.72 41.472 
" style="fill:none;stroke:#ffffff;stroke-linecap:square;stroke-linejoin:miter;stroke-width:1.25;"/>
   </g>
   <g id="patch_5">
    <path d="M 57.6 293.76 
L 414.72 293.76 
" style="fill:none;stroke:#ffffff;stroke-linecap:square;stroke-linejoin:miter;stroke-width:1.25;"/>
   </g>
   <g id="patch_6">
    <path d="M 57.6 41.472 
L 414.72 41.472 
" style="fill:none;stroke:#ffffff;stroke-linecap:square;stroke-linejoin:miter;stroke-width:1.25;"/>
   </g>
   <g id="patch_7">
    <path clip-path="url(#pf6d6026972)" d="M 370.08 55.488 
L 414.72 55.488 
L 414.72 48.324267 
L 370.08 48.324267 
z
" style="fill:none;opacity:0.5;stroke:#808080;stroke-linejoin:miter;"/>
   </g>
   <g id="patch_8">
    <path d="M 254.016 104.544 
Q 312.048 76.434133 370.08 48.324267 
" style="fill:none;opacity:0.5;stroke:#808080;stroke-linecap:round;"/>
   </g>
   <g id="patch_9">
    <path d="M 361.152 155.0016 
Q 387.936 105.2448 414.72 55.488 
" style="fill:none;opacity:0.5;stroke:#808080;stroke-linecap:round;"/>
   </g>
   <g id="axes_2">
    <g id="patch_10">
     <path d="M 254.016 155.0016 
L 361.152 155.0016 
L 361.152 104.544 
L 254.016 104.544 
z
" style="fill:#eaeaf2;"/>
    </g>
    <g id="matplotlib.axis_3">
     <g id="xtick_7">
      <g id="line2d_23">
       <path clip-path="url(#paa56bdd987)" d="M 274.104 155.0016 
L 274.104 104.544 
" style="fill:none;stroke:#ffffff;stroke-linecap:round;"/>
      </g>
      <g id="text_18">
       <!-- 230 -->
       <g style="fill:#262626;" transform="translate(264.928453 172.375194)scale(0.11 -0.11)">
        <use xlink:href="#ArialMT-32"/>
        <use x="55.615234" xlink:href="#ArialMT-33"/>
        <use x="111.230469" xlink:href="#ArialMT-30"/>
       </g>
      </g>
     </g>
     <g id="xtick_8">
      <g id="line2d_24">
       <path clip-path="url(#paa56bdd987)" d="M 307.584 155.0016 
L 307.584 104.544 
" style="fill:none;stroke:#ffffff;stroke-linecap:round;"/>
      </g>
      <g id="text_19">
       <!-- 240 -->
       <g style="fill:#262626;" transform="translate(298.408453 172.375194)scale(0.11 -0.11)">
        <use xlink:href="#ArialMT-32"/>
        <use x="55.615234" xlink:href="#ArialMT-34"/>
        <use x="111.230469" xlink:href="#ArialMT-30"/>
       </g>
      </g>
     </g>
     <g id="xtick_9">
      <g id="line2d_25">
       <path clip-path="url(#paa56bdd987)" d="M 341.064 155.0016 
L 341.064 104.544 
" style="fill:none;stroke:#ffffff;stroke-linecap:round;"/>
      </g>
      <g id="text_20">
       <!-- 250 -->
       <g style="fill:#262626;" transform="translate(331.888453 172.375194)scale(0.11 -0.11)">
        <use xlink:href="#ArialMT-32"/>
        <use x="55.615234" xlink:href="#ArialMT-35"/>
        <use x="111.230469" xlink:href="#ArialMT-30"/>
       </g>
      </g>
     </g>
    </g>
    <g id="matplotlib.axis_4">
     <g id="ytick_10">
      <g id="line2d_26">
       <path clip-path="url(#paa56bdd987)" d="M 254.016 144.032557 
L 361.152 144.032557 
" style="fill:none;stroke:#ffffff;stroke-linecap:round;"/>
      </g>
      <g id="text_21">
       <!-- 0.77 -->
       <g style="fill:#262626;" transform="translate(223.108969 147.969353)scale(0.11 -0.11)">
        <use xlink:href="#ArialMT-30"/>
        <use x="55.615234" xlink:href="#ArialMT-2e"/>
        <use x="83.398438" xlink:href="#ArialMT-37"/>
        <use x="139.013672" xlink:href="#ArialMT-37"/>
       </g>
      </g>
     </g>
     <g id="ytick_11">
      <g id="line2d_27">
       <path clip-path="url(#paa56bdd987)" d="M 254.016 122.09447 
L 361.152 122.09447 
" style="fill:none;stroke:#ffffff;stroke-linecap:round;"/>
      </g>
      <g id="text_22">
       <!-- 0.78 -->
       <g style="fill:#262626;" transform="translate(223.108969 126.031266)scale(0.11 -0.11)">
        <use xlink:href="#ArialMT-30"/>
        <use x="55.615234" xlink:href="#ArialMT-2e"/>
        <use x="83.398438" xlink:href="#ArialMT-37"/>
        <use x="139.013672" xlink:href="#ArialMT-38"/>
       </g>
      </g>
     </g>
    </g>
    <g id="line2d_28">
     <path clip-path="url(#paa56bdd987)" d="M -1 261.840083 
L -0.432 261.840083 
L 2.916 261.401322 
L 6.264 261.401322 
L 9.612 260.96256 
L 12.96 260.96256 
L 16.308 260.304417 
L 19.656 260.743179 
L 23.004 260.96256 
L 26.352 259.865656 
L 29.7 259.865656 
L 33.048 260.743179 
L 36.396 260.523798 
L 39.744 259.865656 
L 43.092 259.426894 
L 46.44 258.54937 
L 49.788 258.32999 
L 53.136 258.768751 
L 56.484 258.110609 
L 63.18 257.671847 
L 66.528 257.891228 
L 69.876 257.013704 
L 83.268 257.013704 
L 86.616 257.233085 
L 89.964 257.671847 
L 93.312 257.671847 
L 96.66 258.110609 
L 100.008 257.671847 
L 103.356 257.891228 
L 106.704 257.452466 
L 110.052 257.671847 
L 113.4 257.452466 
L 116.748 256.574943 
L 120.096 256.574943 
L 123.444 256.136181 
L 126.792 256.136181 
L 130.14 256.355562 
L 133.488 255.478038 
L 140.184 255.478038 
L 143.532 255.039277 
L 146.88 255.258657 
L 150.228 255.039277 
L 153.576 254.381134 
L 156.924 254.381134 
L 160.272 254.600515 
L 163.62 254.381134 
L 166.968 253.722991 
L 170.316 253.722991 
L 173.664 254.381134 
L 180.36 254.381134 
L 183.708 254.161753 
L 187.056 254.161753 
L 190.404 253.50361 
L 193.752 253.722991 
L 200.448 253.28423 
L 203.796 253.942372 
L 207.144 253.28423 
L 210.492 253.50361 
L 213.84 253.28423 
L 217.188 253.28423 
L 220.536 252.626087 
L 223.884 253.064849 
L 227.232 252.626087 
L 230.58 252.406706 
L 233.928 252.626087 
L 237.276 252.406706 
L 240.624 252.406706 
L 243.972 252.187325 
L 247.32 251.529183 
L 254.016 251.529183 
L 257.364 251.309802 
L 260.712 251.529183 
L 264.06 251.529183 
L 270.756 251.967944 
L 274.104 252.406706 
L 277.452 252.187325 
L 280.8 252.187325 
L 284.148 251.967944 
L 287.496 251.967944 
L 290.844 251.748563 
L 294.192 251.967944 
L 297.54 251.090421 
L 300.888 251.090421 
L 304.236 250.87104 
L 307.584 250.432278 
L 310.932 250.432278 
L 314.28 250.651659 
L 320.976 249.774136 
L 324.324 250.212897 
L 334.368 250.212897 
L 337.716 250.432278 
L 341.064 250.212897 
L 344.412 250.651659 
L 347.76 250.212897 
L 351.108 250.212897 
L 354.456 250.651659 
L 357.804 250.432278 
L 357.804 250.432278 
" style="fill:none;stroke:#bfbf00;stroke-linecap:round;stroke-width:2.5;"/>
    </g>
    <g id="line2d_29">
     <path clip-path="url(#paa56bdd987)" d="M -1 138.626404 
L -0.432 138.328654 
L 2.916 138.109273 
L 6.264 138.109273 
L 9.612 136.573607 
L 12.96 136.573607 
L 16.308 137.45113 
L 19.656 136.573607 
L 23.004 136.573607 
L 26.352 135.476703 
L 29.7 135.037941 
L 33.048 135.696083 
L 39.744 134.379798 
L 43.092 134.160417 
L 46.44 134.599179 
L 49.788 134.379798 
L 53.136 133.502275 
L 59.832 133.502275 
L 66.528 132.624751 
L 69.876 132.624751 
L 73.224 132.844132 
L 76.572 132.40537 
L 79.92 131.308466 
L 83.268 131.527847 
L 86.616 130.869704 
L 89.964 130.430943 
L 93.312 130.869704 
L 96.66 130.211562 
L 100.008 129.992181 
L 103.356 129.553419 
L 106.704 128.675896 
L 110.052 128.456515 
L 113.4 128.895277 
L 116.748 128.675896 
L 120.096 128.237134 
L 123.444 128.237134 
L 126.792 128.017753 
L 130.14 127.578991 
L 133.488 127.578991 
L 136.836 127.798372 
L 140.184 128.237134 
L 143.532 128.237134 
L 146.88 127.798372 
L 150.228 128.017753 
L 156.924 126.701468 
L 160.272 126.701468 
L 163.62 126.920849 
L 166.968 126.482087 
L 177.012 125.823944 
L 180.36 125.165802 
L 183.708 125.604563 
L 187.056 124.946421 
L 190.404 124.507659 
L 193.752 124.946421 
L 197.1 124.507659 
L 200.448 124.72704 
L 203.796 124.507659 
L 207.144 124.068897 
L 210.492 124.068897 
L 213.84 124.507659 
L 217.188 123.849517 
L 220.536 123.849517 
L 223.884 123.191374 
L 227.232 123.191374 
L 230.58 124.507659 
L 233.928 125.165802 
L 237.276 124.288278 
L 240.624 124.288278 
L 243.972 124.507659 
L 247.32 123.630136 
L 250.668 124.507659 
L 254.016 123.630136 
L 257.364 123.410755 
L 260.712 123.410755 
L 264.06 122.971993 
L 270.756 122.971993 
L 274.104 122.31385 
L 277.452 122.31385 
L 284.148 121.436327 
L 287.496 121.655708 
L 290.844 121.216946 
L 294.192 120.997565 
L 297.54 121.216946 
L 300.888 120.778184 
L 304.236 120.778184 
L 307.584 120.339423 
L 310.932 120.120042 
L 314.28 120.120042 
L 317.628 119.242518 
L 320.976 119.242518 
L 324.324 119.900661 
L 327.672 119.68128 
L 331.02 119.900661 
L 334.368 119.900661 
L 337.716 119.461899 
L 341.064 119.242518 
L 344.412 119.68128 
L 347.76 119.242518 
L 351.108 119.242518 
L 357.804 118.803757 
L 357.804 118.803757 
" style="fill:none;stroke:#00bfbf;stroke-linecap:round;stroke-width:2.5;"/>
    </g>
    <g id="line2d_30">
     <path clip-path="url(#paa56bdd987)" d="M -1 248.830038 
L -0.432 248.45785 
L 2.916 245.167137 
L 6.264 242.973329 
L 9.612 242.095805 
L 12.96 240.121377 
L 16.308 237.269426 
L 19.656 233.978713 
L 23.004 232.881809 
L 26.352 230.688 
L 33.048 228.05543 
L 36.396 226.519763 
L 39.744 225.422859 
L 43.092 223.22905 
L 46.44 221.474003 
L 49.788 221.035242 
L 53.136 218.841433 
L 56.484 216.867005 
L 59.832 215.770101 
L 63.18 214.015054 
L 66.528 212.040626 
L 73.224 209.408056 
L 76.572 206.336723 
L 79.92 205.239819 
L 83.268 203.484772 
L 86.616 202.387868 
L 89.964 201.071583 
L 93.312 200.632821 
L 100.008 196.683965 
L 103.356 195.806442 
L 106.704 194.270776 
L 110.052 193.612633 
L 113.4 191.638205 
L 116.748 190.980063 
L 123.444 189.225016 
L 126.792 188.786254 
L 130.14 187.90873 
L 133.488 185.934303 
L 136.836 185.714922 
L 140.184 184.618017 
L 143.532 183.959875 
L 146.88 182.424209 
L 150.228 182.204828 
L 153.576 180.449781 
L 156.924 181.107923 
L 160.272 179.352877 
L 163.62 178.036591 
L 166.968 177.59783 
L 170.316 177.378449 
L 173.664 176.500925 
L 177.012 177.159068 
L 180.36 176.281544 
L 183.708 173.648974 
L 187.056 173.429593 
L 190.404 172.990831 
L 193.752 171.455165 
L 197.1 171.016403 
L 200.448 169.919499 
L 203.796 169.480737 
L 207.144 168.822595 
L 210.492 167.72569 
L 213.84 166.848167 
L 217.188 166.628786 
L 220.536 165.970643 
L 223.884 165.531882 
L 227.232 164.434977 
L 230.58 163.557454 
L 237.276 162.241169 
L 240.624 162.241169 
L 243.972 160.924883 
L 247.32 160.705503 
L 250.668 160.705503 
L 254.016 159.608598 
L 257.364 159.389217 
L 260.712 159.608598 
L 264.06 159.389217 
L 267.408 159.827979 
L 270.756 159.169837 
L 274.104 159.608598 
L 280.8 159.169837 
L 284.148 158.731075 
L 287.496 158.072932 
L 294.192 157.195409 
L 297.54 155.879123 
L 300.888 156.537266 
L 304.236 155.440362 
L 310.932 154.124077 
L 314.28 153.685315 
L 317.628 152.58841 
L 320.976 153.027172 
L 327.672 151.710887 
L 331.02 150.613983 
L 334.368 150.833363 
L 341.064 149.95584 
L 344.412 149.078317 
L 351.108 148.639555 
L 354.456 147.54265 
L 357.804 148.420174 
L 357.804 148.420174 
" style="fill:none;stroke:#0000ff;stroke-linecap:round;stroke-width:2.5;"/>
    </g>
    <g id="line2d_31">
     <path clip-path="url(#paa56bdd987)" d="M -1 144.359662 
L -0.432 144.471318 
L 2.916 144.032557 
L 9.612 143.593795 
L 12.96 143.155033 
L 16.308 143.155033 
L 19.656 142.27751 
L 23.004 143.374414 
L 26.352 143.813176 
L 29.7 142.935652 
L 33.048 142.27751 
L 36.396 142.49689 
L 39.744 141.180605 
L 43.092 141.838748 
L 46.44 142.058129 
L 49.788 141.838748 
L 53.136 141.180605 
L 56.484 141.180605 
L 59.832 140.961224 
L 63.18 140.522463 
L 66.528 141.399986 
L 69.876 141.180605 
L 73.224 139.86432 
L 79.92 138.986797 
L 83.268 137.889892 
L 86.616 137.889892 
L 89.964 138.109273 
L 93.312 138.109273 
L 96.66 138.548035 
L 100.008 138.109273 
L 103.356 137.23175 
L 106.704 136.792988 
L 110.052 137.012369 
L 113.4 136.792988 
L 116.748 135.915464 
L 120.096 136.134845 
L 123.444 136.134845 
L 126.792 135.915464 
L 130.14 135.476703 
L 140.184 135.476703 
L 143.532 135.257322 
L 146.88 134.81856 
L 150.228 133.721656 
L 153.576 133.721656 
L 156.924 133.502275 
L 160.272 133.721656 
L 163.62 132.40537 
L 166.968 132.18599 
L 170.316 131.308466 
L 180.36 129.992181 
L 183.708 129.992181 
L 187.056 129.553419 
L 190.404 129.7728 
L 197.1 129.334038 
L 200.448 128.895277 
L 203.796 129.114657 
L 210.492 128.237134 
L 213.84 128.017753 
L 217.188 128.017753 
L 220.536 127.14023 
L 223.884 127.14023 
L 227.232 126.482087 
L 230.58 126.482087 
L 233.928 126.701468 
L 237.276 125.823944 
L 240.624 125.385183 
L 243.972 125.385183 
L 247.32 125.165802 
L 250.668 125.385183 
L 254.016 125.165802 
L 257.364 124.507659 
L 260.712 124.288278 
L 264.06 123.630136 
L 267.408 123.410755 
L 270.756 123.410755 
L 274.104 122.752612 
L 277.452 122.971993 
L 280.8 122.752612 
L 284.148 122.971993 
L 294.192 122.971993 
L 297.54 122.752612 
L 300.888 122.971993 
L 307.584 122.971993 
L 310.932 123.191374 
L 314.28 122.533231 
L 317.628 122.533231 
L 324.324 122.09447 
L 327.672 122.31385 
L 331.02 121.875089 
L 334.368 121.216946 
L 337.716 121.436327 
L 341.064 120.558803 
L 344.412 120.558803 
L 347.76 120.120042 
L 351.108 120.339423 
L 354.456 119.900661 
L 357.804 119.68128 
L 357.804 119.68128 
" style="fill:none;stroke:#008000;stroke-linecap:round;stroke-width:2.5;"/>
    </g>
    <g id="line2d_32">
     <path clip-path="url(#paa56bdd987)" d="M -1 184.001025 
L -0.432 183.740494 
L 2.916 180.888543 
L 6.264 178.694734 
L 9.612 179.352877 
L 12.96 178.036591 
L 16.308 176.062163 
L 19.656 175.623402 
L 23.004 174.307117 
L 26.352 172.77145 
L 29.7 171.674546 
L 33.048 170.13888 
L 36.396 169.261357 
L 39.744 167.286929 
L 43.092 166.409405 
L 46.44 167.067548 
L 49.788 166.848167 
L 53.136 165.751263 
L 56.484 164.434977 
L 59.832 164.434977 
L 63.18 163.118692 
L 66.528 162.46055 
L 69.876 161.144264 
L 76.572 159.827979 
L 79.92 159.608598 
L 83.268 157.195409 
L 86.616 156.756647 
L 89.964 156.537266 
L 93.312 155.659743 
L 96.66 155.440362 
L 100.008 154.343457 
L 103.356 155.0016 
L 106.704 154.782219 
L 110.052 154.124077 
L 113.4 154.124077 
L 116.748 153.685315 
L 120.096 152.807791 
L 123.444 152.58841 
L 130.14 150.833363 
L 133.488 151.272125 
L 136.836 150.833363 
L 140.184 151.052744 
L 143.532 150.833363 
L 146.88 150.175221 
L 150.228 150.175221 
L 153.576 149.517078 
L 156.924 147.54265 
L 160.272 147.32327 
L 163.62 147.981412 
L 166.968 147.762031 
L 170.316 147.762031 
L 173.664 146.226365 
L 177.012 145.348842 
L 180.36 144.91008 
L 183.708 143.593795 
L 187.056 142.716271 
L 190.404 143.593795 
L 193.752 143.155033 
L 197.1 142.058129 
L 203.796 140.303082 
L 207.144 140.303082 
L 210.492 140.083701 
L 213.84 138.986797 
L 217.188 139.425558 
L 220.536 139.644939 
L 223.884 140.083701 
L 227.232 139.644939 
L 230.58 138.548035 
L 233.928 138.986797 
L 237.276 138.548035 
L 240.624 137.23175 
L 243.972 138.109273 
L 247.32 138.328654 
L 250.668 138.328654 
L 254.016 137.670511 
L 260.712 137.670511 
L 264.06 137.23175 
L 267.408 136.573607 
L 270.756 136.573607 
L 274.104 136.354226 
L 277.452 136.792988 
L 280.8 135.915464 
L 284.148 135.696083 
L 287.496 135.257322 
L 290.844 134.379798 
L 294.192 134.160417 
L 297.54 134.379798 
L 300.888 135.037941 
L 304.236 134.379798 
L 307.584 135.037941 
L 314.28 134.599179 
L 317.628 133.941037 
L 320.976 133.721656 
L 324.324 133.721656 
L 331.02 132.40537 
L 334.368 132.40537 
L 337.716 131.966609 
L 344.412 131.966609 
L 351.108 132.40537 
L 354.456 130.869704 
L 357.804 131.089085 
L 357.804 131.089085 
" style="fill:none;stroke:#ff0000;stroke-linecap:round;stroke-width:2.5;"/>
    </g>
    <g id="line2d_33">
     <path clip-path="url(#paa56bdd987)" d="M -1 117.193653 
L -0.432 117.26809 
L 2.916 116.829329 
L 6.264 116.609948 
L 9.612 116.609948 
L 16.308 116.171186 
L 19.656 116.609948 
L 23.004 115.732424 
L 26.352 115.293663 
L 29.7 115.513043 
L 33.048 115.293663 
L 36.396 115.513043 
L 39.744 115.074282 
L 43.092 115.513043 
L 46.44 114.63552 
L 49.788 114.196758 
L 56.484 114.63552 
L 59.832 115.074282 
L 66.528 114.63552 
L 69.876 114.854901 
L 73.224 114.196758 
L 79.92 114.63552 
L 83.268 114.416139 
L 86.616 114.63552 
L 93.312 114.63552 
L 96.66 114.854901 
L 100.008 114.854901 
L 103.356 114.63552 
L 106.704 113.977377 
L 110.052 114.416139 
L 113.4 114.63552 
L 120.096 114.196758 
L 123.444 114.196758 
L 126.792 114.416139 
L 130.14 113.757997 
L 133.488 114.196758 
L 136.836 114.854901 
L 140.184 114.416139 
L 143.532 113.757997 
L 146.88 113.319235 
L 150.228 113.977377 
L 153.576 113.977377 
L 156.924 113.319235 
L 160.272 113.099854 
L 170.316 113.099854 
L 173.664 113.319235 
L 177.012 113.099854 
L 180.36 113.319235 
L 183.708 112.880473 
L 187.056 112.661092 
L 190.404 112.22233 
L 197.1 112.661092 
L 200.448 113.319235 
L 207.144 112.880473 
L 213.84 112.00295 
L 217.188 112.00295 
L 220.536 111.783569 
L 223.884 112.661092 
L 227.232 112.880473 
L 230.58 112.441711 
L 233.928 112.880473 
L 240.624 112.00295 
L 243.972 110.906045 
L 247.32 110.467283 
L 254.016 111.783569 
L 257.364 112.880473 
L 260.712 113.319235 
L 264.06 112.661092 
L 267.408 112.661092 
L 270.756 112.22233 
L 274.104 112.22233 
L 277.452 111.564188 
L 280.8 111.783569 
L 284.148 112.22233 
L 287.496 111.564188 
L 290.844 111.783569 
L 297.54 111.783569 
L 300.888 110.906045 
L 304.236 111.344807 
L 307.584 111.125426 
L 310.932 110.686664 
L 314.28 110.467283 
L 317.628 110.686664 
L 320.976 111.344807 
L 324.324 111.344807 
L 327.672 111.783569 
L 331.02 111.564188 
L 334.368 111.564188 
L 337.716 110.906045 
L 341.064 111.125426 
L 347.76 110.686664 
L 351.108 110.686664 
L 354.456 111.125426 
L 357.804 111.125426 
L 357.804 111.125426 
" style="fill:none;stroke:#bf00bf;stroke-linecap:round;stroke-width:2.5;"/>
    </g>
    <g id="line2d_34">
     <path clip-path="url(#paa56bdd987)" d="M -1 111.344807 
L 357.804 111.344807 
L 357.804 111.344807 
" style="fill:none;stroke:#000000;stroke-dasharray:9.25,4;stroke-dashoffset:0;stroke-width:2.5;"/>
    </g>
    <g id="patch_11">
     <path d="M 254.016 155.0016 
L 254.016 104.544 
" style="fill:none;stroke:#ffffff;stroke-linecap:square;stroke-linejoin:miter;stroke-width:1.25;"/>
    </g>
    <g id="patch_12">
     <path d="M 361.152 155.0016 
L 361.152 104.544 
" style="fill:none;stroke:#ffffff;stroke-linecap:square;stroke-linejoin:miter;stroke-width:1.25;"/>
    </g>
    <g id="patch_13">
     <path d="M 254.016 155.0016 
L 361.152 155.0016 
" style="fill:none;stroke:#ffffff;stroke-linecap:square;stroke-linejoin:miter;stroke-width:1.25;"/>
    </g>
    <g id="patch_14">
     <path d="M 254.016 104.544 
L 361.152 104.544 
" style="fill:none;stroke:#ffffff;stroke-linecap:square;stroke-linejoin:miter;stroke-width:1.25;"/>
    </g>
   </g>
   <g id="legend_1">
    <g id="patch_15">
     <path d="M 292.896563 292.440223 
L 407.72 292.440223 
Q 409.72 292.440223 409.72 290.440223 
L 409.72 192.27616 
Q 409.72 190.27616 407.72 190.27616 
L 292.896563 190.27616 
Q 290.896563 190.27616 290.896563 192.27616 
L 290.896563 290.440223 
Q 290.896563 292.440223 292.896563 292.440223 
z
" style="fill:#eaeaf2;opacity:0.8;stroke:#cccccc;stroke-linejoin:miter;"/>
    </g>
    <g id="line2d_35">
     <path d="M 294.896563 197.933972 
L 314.896563 197.933972 
" style="fill:none;stroke:#bfbf00;stroke-linecap:round;stroke-width:2.5;"/>
    </g>
    <g id="line2d_36"/>
    <g id="text_23">
     <!-- 0.2 x vth -->
     <g style="fill:#262626;" transform="translate(322.896563 201.433972)scale(0.1 -0.1)">
      <defs>
       <path d="M 47 0 
L 1259 1725 
L 138 3319 
L 841 3319 
L 1350 2541 
Q 1494 2319 1581 2169 
Q 1719 2375 1834 2534 
L 2394 3319 
L 3066 3319 
L 1919 1756 
L 3153 0 
L 2463 0 
L 1781 1031 
L 1600 1309 
L 728 0 
L 47 0 
z
" id="ArialMT-78" transform="scale(0.015625)"/>
       <path d="M 1344 0 
L 81 3319 
L 675 3319 
L 1388 1331 
Q 1503 1009 1600 663 
Q 1675 925 1809 1294 
L 2547 3319 
L 3125 3319 
L 1869 0 
L 1344 0 
z
" id="ArialMT-76" transform="scale(0.015625)"/>
       <path d="M 422 0 
L 422 4581 
L 984 4581 
L 984 2938 
Q 1378 3394 1978 3394 
Q 2347 3394 2619 3248 
Q 2891 3103 3008 2847 
Q 3125 2591 3125 2103 
L 3125 0 
L 2563 0 
L 2563 2103 
Q 2563 2525 2380 2717 
Q 2197 2909 1863 2909 
Q 1613 2909 1392 2779 
Q 1172 2650 1078 2428 
Q 984 2206 984 1816 
L 984 0 
L 422 0 
z
" id="ArialMT-68" transform="scale(0.015625)"/>
      </defs>
      <use xlink:href="#ArialMT-30"/>
      <use x="55.615234" xlink:href="#ArialMT-2e"/>
      <use x="83.398438" xlink:href="#ArialMT-32"/>
      <use x="139.013672" xlink:href="#ArialMT-20"/>
      <use x="166.796875" xlink:href="#ArialMT-78"/>
      <use x="216.796875" xlink:href="#ArialMT-20"/>
      <use x="244.580078" xlink:href="#ArialMT-76"/>
      <use x="294.580078" xlink:href="#ArialMT-74"/>
      <use x="322.363281" xlink:href="#ArialMT-68"/>
     </g>
    </g>
    <g id="line2d_37">
     <path d="M 294.896563 212.079285 
L 314.896563 212.079285 
" style="fill:none;stroke:#00bfbf;stroke-linecap:round;stroke-width:2.5;"/>
    </g>
    <g id="line2d_38"/>
    <g id="text_24">
     <!-- 0.5 x vth -->
     <g style="fill:#262626;" transform="translate(322.896563 215.579285)scale(0.1 -0.1)">
      <use xlink:href="#ArialMT-30"/>
      <use x="55.615234" xlink:href="#ArialMT-2e"/>
      <use x="83.398438" xlink:href="#ArialMT-35"/>
      <use x="139.013672" xlink:href="#ArialMT-20"/>
      <use x="166.796875" xlink:href="#ArialMT-78"/>
      <use x="216.796875" xlink:href="#ArialMT-20"/>
      <use x="244.580078" xlink:href="#ArialMT-76"/>
      <use x="294.580078" xlink:href="#ArialMT-74"/>
      <use x="322.363281" xlink:href="#ArialMT-68"/>
     </g>
    </g>
    <g id="line2d_39">
     <path d="M 294.896563 226.224597 
L 314.896563 226.224597 
" style="fill:none;stroke:#0000ff;stroke-linecap:round;stroke-width:2.5;"/>
    </g>
    <g id="line2d_40"/>
    <g id="text_25">
     <!-- 0.9 x vth -->
     <g style="fill:#262626;" transform="translate(322.896563 229.724597)scale(0.1 -0.1)">
      <defs>
       <path d="M 350 1059 
L 891 1109 
Q 959 728 1153 556 
Q 1347 384 1650 384 
Q 1909 384 2104 503 
Q 2300 622 2425 820 
Q 2550 1019 2634 1356 
Q 2719 1694 2719 2044 
Q 2719 2081 2716 2156 
Q 2547 1888 2255 1720 
Q 1963 1553 1622 1553 
Q 1053 1553 659 1965 
Q 266 2378 266 3053 
Q 266 3750 677 4175 
Q 1088 4600 1706 4600 
Q 2153 4600 2523 4359 
Q 2894 4119 3086 3673 
Q 3278 3228 3278 2384 
Q 3278 1506 3087 986 
Q 2897 466 2520 194 
Q 2144 -78 1638 -78 
Q 1100 -78 759 220 
Q 419 519 350 1059 
z
M 2653 3081 
Q 2653 3566 2395 3850 
Q 2138 4134 1775 4134 
Q 1400 4134 1122 3828 
Q 844 3522 844 3034 
Q 844 2597 1108 2323 
Q 1372 2050 1759 2050 
Q 2150 2050 2401 2323 
Q 2653 2597 2653 3081 
z
" id="ArialMT-39" transform="scale(0.015625)"/>
      </defs>
      <use xlink:href="#ArialMT-30"/>
      <use x="55.615234" xlink:href="#ArialMT-2e"/>
      <use x="83.398438" xlink:href="#ArialMT-39"/>
      <use x="139.013672" xlink:href="#ArialMT-20"/>
      <use x="166.796875" xlink:href="#ArialMT-78"/>
      <use x="216.796875" xlink:href="#ArialMT-20"/>
      <use x="244.580078" xlink:href="#ArialMT-76"/>
      <use x="294.580078" xlink:href="#ArialMT-74"/>
      <use x="322.363281" xlink:href="#ArialMT-68"/>
     </g>
    </g>
    <g id="line2d_41">
     <path d="M 294.896563 240.36991 
L 314.896563 240.36991 
" style="fill:none;stroke:#008000;stroke-linecap:round;stroke-width:2.5;"/>
    </g>
    <g id="line2d_42"/>
    <g id="text_26">
     <!-- With DTT -->
     <g style="fill:#262626;" transform="translate(322.896563 243.86991)scale(0.1 -0.1)">
      <defs>
       <path d="M 1294 0 
L 78 4581 
L 700 4581 
L 1397 1578 
Q 1509 1106 1591 641 
Q 1766 1375 1797 1488 
L 2669 4581 
L 3400 4581 
L 4056 2263 
Q 4303 1400 4413 641 
Q 4500 1075 4641 1638 
L 5359 4581 
L 5969 4581 
L 4713 0 
L 4128 0 
L 3163 3491 
Q 3041 3928 3019 4028 
Q 2947 3713 2884 3491 
L 1913 0 
L 1294 0 
z
" id="ArialMT-57" transform="scale(0.015625)"/>
       <path d="M 494 0 
L 494 4581 
L 2072 4581 
Q 2606 4581 2888 4516 
Q 3281 4425 3559 4188 
Q 3922 3881 4101 3404 
Q 4281 2928 4281 2316 
Q 4281 1794 4159 1391 
Q 4038 988 3847 723 
Q 3656 459 3429 307 
Q 3203 156 2883 78 
Q 2563 0 2147 0 
L 494 0 
z
M 1100 541 
L 2078 541 
Q 2531 541 2789 625 
Q 3047 709 3200 863 
Q 3416 1078 3536 1442 
Q 3656 1806 3656 2325 
Q 3656 3044 3420 3430 
Q 3184 3816 2847 3947 
Q 2603 4041 2063 4041 
L 1100 4041 
L 1100 541 
z
" id="ArialMT-44" transform="scale(0.015625)"/>
      </defs>
      <use xlink:href="#ArialMT-57"/>
      <use x="94.384766" xlink:href="#ArialMT-69"/>
      <use x="116.601562" xlink:href="#ArialMT-74"/>
      <use x="144.384766" xlink:href="#ArialMT-68"/>
      <use x="200" xlink:href="#ArialMT-20"/>
      <use x="227.783203" xlink:href="#ArialMT-44"/>
      <use x="300" xlink:href="#ArialMT-54"/>
      <use x="361.083984" xlink:href="#ArialMT-54"/>
     </g>
    </g>
    <g id="line2d_43">
     <path d="M 294.896563 254.515222 
L 314.896563 254.515222 
" style="fill:none;stroke:#ff0000;stroke-linecap:round;stroke-width:2.5;"/>
    </g>
    <g id="line2d_44"/>
    <g id="text_27">
     <!-- With DET -->
     <g style="fill:#262626;" transform="translate(322.896563 258.015222)scale(0.1 -0.1)">
      <defs>
       <path d="M 506 0 
L 506 4581 
L 3819 4581 
L 3819 4041 
L 1113 4041 
L 1113 2638 
L 3647 2638 
L 3647 2100 
L 1113 2100 
L 1113 541 
L 3925 541 
L 3925 0 
L 506 0 
z
" id="ArialMT-45" transform="scale(0.015625)"/>
      </defs>
      <use xlink:href="#ArialMT-57"/>
      <use x="94.384766" xlink:href="#ArialMT-69"/>
      <use x="116.601562" xlink:href="#ArialMT-74"/>
      <use x="144.384766" xlink:href="#ArialMT-68"/>
      <use x="200" xlink:href="#ArialMT-20"/>
      <use x="227.783203" xlink:href="#ArialMT-44"/>
      <use x="300" xlink:href="#ArialMT-45"/>
      <use x="366.699219" xlink:href="#ArialMT-54"/>
     </g>
    </g>
    <g id="line2d_45">
     <path d="M 294.896563 268.660535 
L 314.896563 268.660535 
" style="fill:none;stroke:#bf00bf;stroke-linecap:round;stroke-width:2.5;"/>
    </g>
    <g id="line2d_46"/>
    <g id="text_28">
     <!-- With DTT DET -->
     <g style="fill:#262626;" transform="translate(322.896563 272.160535)scale(0.1 -0.1)">
      <use xlink:href="#ArialMT-57"/>
      <use x="94.384766" xlink:href="#ArialMT-69"/>
      <use x="116.601562" xlink:href="#ArialMT-74"/>
      <use x="144.384766" xlink:href="#ArialMT-68"/>
      <use x="200" xlink:href="#ArialMT-20"/>
      <use x="227.783203" xlink:href="#ArialMT-44"/>
      <use x="300" xlink:href="#ArialMT-54"/>
      <use x="361.083984" xlink:href="#ArialMT-54"/>
      <use x="420.417969" xlink:href="#ArialMT-20"/>
      <use x="448.201172" xlink:href="#ArialMT-44"/>
      <use x="520.417969" xlink:href="#ArialMT-45"/>
      <use x="587.117188" xlink:href="#ArialMT-54"/>
     </g>
    </g>
    <g id="line2d_47">
     <path d="M 294.896563 282.835535 
L 314.896563 282.835535 
" style="fill:none;stroke:#000000;stroke-dasharray:9.25,4;stroke-dashoffset:0;stroke-width:2.5;"/>
    </g>
    <g id="line2d_48"/>
    <g id="text_29">
     <!-- Target Acc: 0.7849 -->
     <g style="fill:#262626;" transform="translate(322.896563 286.335535)scale(0.1 -0.1)">
      <defs>
       <path d="M 2588 409 
Q 2275 144 1986 34 
Q 1697 -75 1366 -75 
Q 819 -75 525 192 
Q 231 459 231 875 
Q 231 1119 342 1320 
Q 453 1522 633 1644 
Q 813 1766 1038 1828 
Q 1203 1872 1538 1913 
Q 2219 1994 2541 2106 
Q 2544 2222 2544 2253 
Q 2544 2597 2384 2738 
Q 2169 2928 1744 2928 
Q 1347 2928 1158 2789 
Q 969 2650 878 2297 
L 328 2372 
Q 403 2725 575 2942 
Q 747 3159 1072 3276 
Q 1397 3394 1825 3394 
Q 2250 3394 2515 3294 
Q 2781 3194 2906 3042 
Q 3031 2891 3081 2659 
Q 3109 2516 3109 2141 
L 3109 1391 
Q 3109 606 3145 398 
Q 3181 191 3288 0 
L 2700 0 
Q 2613 175 2588 409 
z
M 2541 1666 
Q 2234 1541 1622 1453 
Q 1275 1403 1131 1340 
Q 988 1278 909 1158 
Q 831 1038 831 891 
Q 831 666 1001 516 
Q 1172 366 1500 366 
Q 1825 366 2078 508 
Q 2331 650 2450 897 
Q 2541 1088 2541 1459 
L 2541 1666 
z
" id="ArialMT-61" transform="scale(0.015625)"/>
       <path d="M 416 0 
L 416 3319 
L 922 3319 
L 922 2816 
Q 1116 3169 1280 3281 
Q 1444 3394 1641 3394 
Q 1925 3394 2219 3213 
L 2025 2691 
Q 1819 2813 1613 2813 
Q 1428 2813 1281 2702 
Q 1134 2591 1072 2394 
Q 978 2094 978 1738 
L 978 0 
L 416 0 
z
" id="ArialMT-72" transform="scale(0.015625)"/>
       <path d="M 319 -275 
L 866 -356 
Q 900 -609 1056 -725 
Q 1266 -881 1628 -881 
Q 2019 -881 2231 -725 
Q 2444 -569 2519 -288 
Q 2563 -116 2559 434 
Q 2191 0 1641 0 
Q 956 0 581 494 
Q 206 988 206 1678 
Q 206 2153 378 2554 
Q 550 2956 876 3175 
Q 1203 3394 1644 3394 
Q 2231 3394 2613 2919 
L 2613 3319 
L 3131 3319 
L 3131 450 
Q 3131 -325 2973 -648 
Q 2816 -972 2473 -1159 
Q 2131 -1347 1631 -1347 
Q 1038 -1347 672 -1080 
Q 306 -813 319 -275 
z
M 784 1719 
Q 784 1066 1043 766 
Q 1303 466 1694 466 
Q 2081 466 2343 764 
Q 2606 1063 2606 1700 
Q 2606 2309 2336 2618 
Q 2066 2928 1684 2928 
Q 1309 2928 1046 2623 
Q 784 2319 784 1719 
z
" id="ArialMT-67" transform="scale(0.015625)"/>
       <path d="M 578 2678 
L 578 3319 
L 1219 3319 
L 1219 2678 
L 578 2678 
z
M 578 0 
L 578 641 
L 1219 641 
L 1219 0 
L 578 0 
z
" id="ArialMT-3a" transform="scale(0.015625)"/>
      </defs>
      <use xlink:href="#ArialMT-54"/>
      <use x="49.958984" xlink:href="#ArialMT-61"/>
      <use x="105.574219" xlink:href="#ArialMT-72"/>
      <use x="138.875" xlink:href="#ArialMT-67"/>
      <use x="194.490234" xlink:href="#ArialMT-65"/>
      <use x="250.105469" xlink:href="#ArialMT-74"/>
      <use x="277.888672" xlink:href="#ArialMT-20"/>
      <use x="300.171875" xlink:href="#ArialMT-41"/>
      <use x="366.871094" xlink:href="#ArialMT-63"/>
      <use x="416.871094" xlink:href="#ArialMT-63"/>
      <use x="466.871094" xlink:href="#ArialMT-3a"/>
      <use x="494.654297" xlink:href="#ArialMT-20"/>
      <use x="522.4375" xlink:href="#ArialMT-30"/>
      <use x="578.052734" xlink:href="#ArialMT-2e"/>
      <use x="605.835938" xlink:href="#ArialMT-37"/>
      <use x="661.451172" xlink:href="#ArialMT-38"/>
      <use x="717.066406" xlink:href="#ArialMT-34"/>
      <use x="772.681641" xlink:href="#ArialMT-39"/>
     </g>
    </g>
   </g>
  </g>
 </g>
 <defs>
  <clipPath id="pf6d6026972">
   <rect height="252.288" width="357.12" x="57.6" y="41.472"/>
  </clipPath>
  <clipPath id="paa56bdd987">
   <rect height="50.4576" width="107.136" x="254.016" y="104.544"/>
  </clipPath>
 </defs>
</svg>
