<?xml version="1.0" encoding="utf-8" standalone="no"?>
<!DOCTYPE svg PUBLIC "-//W3C//DTD SVG 1.1//EN"
  "http://www.w3.org/Graphics/SVG/1.1/DTD/svg11.dtd">
<svg height="345.6pt" version="1.1" viewBox="0 0 460.8 345.6" width="460.8pt" xmlns="http://www.w3.org/2000/svg" xmlns:xlink="http://www.w3.org/1999/xlink">
 <metadata>
  <rdf:RDF xmlns:cc="http://creativecommons.org/ns#" xmlns:dc="http://purl.org/dc/elements/1.1/" xmlns:rdf="http://www.w3.org/1999/02/22-rdf-syntax-ns#">
   <cc:Work>
    <dc:type rdf:resource="http://purl.org/dc/dcmitype/StillImage"/>
    <dc:date>2022-08-13T21:09:03.582563</dc:date>
    <dc:format>image/svg+xml</dc:format>
    <dc:creator>
     <cc:Agent>
      <dc:title>Matplotlib v3.4.1, https://matplotlib.org/</dc:title>
     </cc:Agent>
    </dc:creator>
   </cc:Work>
  </rdf:RDF>
 </metadata>
 <defs>
  <style type="text/css">*{stroke-linecap:butt;stroke-linejoin:round;}</style>
 </defs>
 <g id="figure_1">
  <g id="patch_1">
   <path d="M 0 345.6 
L 460.8 345.6 
L 460.8 0 
L 0 0 
z
" style="fill:#ffffff;"/>
  </g>
  <g id="axes_1">
   <g id="patch_2">
    <path d="M 57.6 293.76 
L 414.72 293.76 
L 414.72 41.472 
L 57.6 41.472 
z
" style="fill:#eaeaf2;"/>
   </g>
   <g id="matplotlib.axis_1">
    <g id="xtick_1">
     <g id="line2d_1">
      <path clip-path="url(#p8ba73617fd)" d="M 57.6 293.76 
L 57.6 41.472 
" style="fill:none;stroke:#ffffff;stroke-linecap:round;"/>
     </g>
     <g id="text_1">
      <!-- 0 -->
      <g style="fill:#262626;" transform="translate(53.429297 313.996719)scale(0.15 -0.15)">
       <defs>
        <path d="M 266 2259 
Q 266 3072 433 3567 
Q 600 4063 929 4331 
Q 1259 4600 1759 4600 
Q 2128 4600 2406 4451 
Q 2684 4303 2865 4023 
Q 3047 3744 3150 3342 
Q 3253 2941 3253 2259 
Q 3253 1453 3087 958 
Q 2922 463 2592 192 
Q 2263 -78 1759 -78 
Q 1097 -78 719 397 
Q 266 969 266 2259 
z
M 844 2259 
Q 844 1131 1108 757 
Q 1372 384 1759 384 
Q 2147 384 2411 759 
Q 2675 1134 2675 2259 
Q 2675 3391 2411 3762 
Q 2147 4134 1753 4134 
Q 1366 4134 1134 3806 
Q 844 3388 844 2259 
z
" id="ArialMT-30" transform="scale(0.015625)"/>
       </defs>
       <use xlink:href="#ArialMT-30"/>
      </g>
     </g>
    </g>
    <g id="xtick_2">
     <g id="line2d_2">
      <path clip-path="url(#p8ba73617fd)" d="M 127.35 293.76 
L 127.35 41.472 
" style="fill:none;stroke:#ffffff;stroke-linecap:round;"/>
     </g>
     <g id="text_2">
      <!-- 50 -->
      <g style="fill:#262626;" transform="translate(119.008594 313.996719)scale(0.15 -0.15)">
       <defs>
        <path d="M 266 1200 
L 856 1250 
Q 922 819 1161 601 
Q 1400 384 1738 384 
Q 2144 384 2425 690 
Q 2706 997 2706 1503 
Q 2706 1984 2436 2262 
Q 2166 2541 1728 2541 
Q 1456 2541 1237 2417 
Q 1019 2294 894 2097 
L 366 2166 
L 809 4519 
L 3088 4519 
L 3088 3981 
L 1259 3981 
L 1013 2750 
Q 1425 3038 1878 3038 
Q 2478 3038 2890 2622 
Q 3303 2206 3303 1553 
Q 3303 931 2941 478 
Q 2500 -78 1738 -78 
Q 1113 -78 717 272 
Q 322 622 266 1200 
z
" id="ArialMT-35" transform="scale(0.015625)"/>
       </defs>
       <use xlink:href="#ArialMT-35"/>
       <use x="55.615234" xlink:href="#ArialMT-30"/>
      </g>
     </g>
    </g>
    <g id="xtick_3">
     <g id="line2d_3">
      <path clip-path="url(#p8ba73617fd)" d="M 197.1 293.76 
L 197.1 41.472 
" style="fill:none;stroke:#ffffff;stroke-linecap:round;"/>
     </g>
     <g id="text_3">
      <!-- 100 -->
      <g style="fill:#262626;" transform="translate(184.587891 313.996719)scale(0.15 -0.15)">
       <defs>
        <path d="M 2384 0 
L 1822 0 
L 1822 3584 
Q 1619 3391 1289 3197 
Q 959 3003 697 2906 
L 697 3450 
Q 1169 3672 1522 3987 
Q 1875 4303 2022 4600 
L 2384 4600 
L 2384 0 
z
" id="ArialMT-31" transform="scale(0.015625)"/>
       </defs>
       <use xlink:href="#ArialMT-31"/>
       <use x="55.615234" xlink:href="#ArialMT-30"/>
       <use x="111.230469" xlink:href="#ArialMT-30"/>
      </g>
     </g>
    </g>
    <g id="xtick_4">
     <g id="line2d_4">
      <path clip-path="url(#p8ba73617fd)" d="M 266.85 293.76 
L 266.85 41.472 
" style="fill:none;stroke:#ffffff;stroke-linecap:round;"/>
     </g>
     <g id="text_4">
      <!-- 150 -->
      <g style="fill:#262626;" transform="translate(254.337891 313.996719)scale(0.15 -0.15)">
       <use xlink:href="#ArialMT-31"/>
       <use x="55.615234" xlink:href="#ArialMT-35"/>
       <use x="111.230469" xlink:href="#ArialMT-30"/>
      </g>
     </g>
    </g>
    <g id="xtick_5">
     <g id="line2d_5">
      <path clip-path="url(#p8ba73617fd)" d="M 336.6 293.76 
L 336.6 41.472 
" style="fill:none;stroke:#ffffff;stroke-linecap:round;"/>
     </g>
     <g id="text_5">
      <!-- 200 -->
      <g style="fill:#262626;" transform="translate(324.087891 313.996719)scale(0.15 -0.15)">
       <defs>
        <path d="M 3222 541 
L 3222 0 
L 194 0 
Q 188 203 259 391 
Q 375 700 629 1000 
Q 884 1300 1366 1694 
Q 2113 2306 2375 2664 
Q 2638 3022 2638 3341 
Q 2638 3675 2398 3904 
Q 2159 4134 1775 4134 
Q 1369 4134 1125 3890 
Q 881 3647 878 3216 
L 300 3275 
Q 359 3922 746 4261 
Q 1134 4600 1788 4600 
Q 2447 4600 2831 4234 
Q 3216 3869 3216 3328 
Q 3216 3053 3103 2787 
Q 2991 2522 2730 2228 
Q 2469 1934 1863 1422 
Q 1356 997 1212 845 
Q 1069 694 975 541 
L 3222 541 
z
" id="ArialMT-32" transform="scale(0.015625)"/>
       </defs>
       <use xlink:href="#ArialMT-32"/>
       <use x="55.615234" xlink:href="#ArialMT-30"/>
       <use x="111.230469" xlink:href="#ArialMT-30"/>
      </g>
     </g>
    </g>
    <g id="xtick_6">
     <g id="line2d_6">
      <path clip-path="url(#p8ba73617fd)" d="M 406.35 293.76 
L 406.35 41.472 
" style="fill:none;stroke:#ffffff;stroke-linecap:round;"/>
     </g>
     <g id="text_6">
      <!-- 250 -->
      <g style="fill:#262626;" transform="translate(393.837891 313.996719)scale(0.15 -0.15)">
       <use xlink:href="#ArialMT-32"/>
       <use x="55.615234" xlink:href="#ArialMT-35"/>
       <use x="111.230469" xlink:href="#ArialMT-30"/>
      </g>
     </g>
    </g>
    <g id="text_7">
     <!-- Time Step -->
     <g style="fill:#262626;" transform="translate(202.264688 331.8975)scale(0.15 -0.15)">
      <defs>
       <path d="M 1659 0 
L 1659 4041 
L 150 4041 
L 150 4581 
L 3781 4581 
L 3781 4041 
L 2266 4041 
L 2266 0 
L 1659 0 
z
" id="ArialMT-54" transform="scale(0.015625)"/>
       <path d="M 425 3934 
L 425 4581 
L 988 4581 
L 988 3934 
L 425 3934 
z
M 425 0 
L 425 3319 
L 988 3319 
L 988 0 
L 425 0 
z
" id="ArialMT-69" transform="scale(0.015625)"/>
       <path d="M 422 0 
L 422 3319 
L 925 3319 
L 925 2853 
Q 1081 3097 1340 3245 
Q 1600 3394 1931 3394 
Q 2300 3394 2536 3241 
Q 2772 3088 2869 2813 
Q 3263 3394 3894 3394 
Q 4388 3394 4653 3120 
Q 4919 2847 4919 2278 
L 4919 0 
L 4359 0 
L 4359 2091 
Q 4359 2428 4304 2576 
Q 4250 2725 4106 2815 
Q 3963 2906 3769 2906 
Q 3419 2906 3187 2673 
Q 2956 2441 2956 1928 
L 2956 0 
L 2394 0 
L 2394 2156 
Q 2394 2531 2256 2718 
Q 2119 2906 1806 2906 
Q 1569 2906 1367 2781 
Q 1166 2656 1075 2415 
Q 984 2175 984 1722 
L 984 0 
L 422 0 
z
" id="ArialMT-6d" transform="scale(0.015625)"/>
       <path d="M 2694 1069 
L 3275 997 
Q 3138 488 2766 206 
Q 2394 -75 1816 -75 
Q 1088 -75 661 373 
Q 234 822 234 1631 
Q 234 2469 665 2931 
Q 1097 3394 1784 3394 
Q 2450 3394 2872 2941 
Q 3294 2488 3294 1666 
Q 3294 1616 3291 1516 
L 816 1516 
Q 847 969 1125 678 
Q 1403 388 1819 388 
Q 2128 388 2347 550 
Q 2566 713 2694 1069 
z
M 847 1978 
L 2700 1978 
Q 2663 2397 2488 2606 
Q 2219 2931 1791 2931 
Q 1403 2931 1139 2672 
Q 875 2413 847 1978 
z
" id="ArialMT-65" transform="scale(0.015625)"/>
       <path id="ArialMT-20" transform="scale(0.015625)"/>
       <path d="M 288 1472 
L 859 1522 
Q 900 1178 1048 958 
Q 1197 738 1509 602 
Q 1822 466 2213 466 
Q 2559 466 2825 569 
Q 3091 672 3220 851 
Q 3350 1031 3350 1244 
Q 3350 1459 3225 1620 
Q 3100 1781 2813 1891 
Q 2628 1963 1997 2114 
Q 1366 2266 1113 2400 
Q 784 2572 623 2826 
Q 463 3081 463 3397 
Q 463 3744 659 4045 
Q 856 4347 1234 4503 
Q 1613 4659 2075 4659 
Q 2584 4659 2973 4495 
Q 3363 4331 3572 4012 
Q 3781 3694 3797 3291 
L 3216 3247 
Q 3169 3681 2898 3903 
Q 2628 4125 2100 4125 
Q 1550 4125 1298 3923 
Q 1047 3722 1047 3438 
Q 1047 3191 1225 3031 
Q 1400 2872 2139 2705 
Q 2878 2538 3153 2413 
Q 3553 2228 3743 1945 
Q 3934 1663 3934 1294 
Q 3934 928 3725 604 
Q 3516 281 3123 101 
Q 2731 -78 2241 -78 
Q 1619 -78 1198 103 
Q 778 284 539 648 
Q 300 1013 288 1472 
z
" id="ArialMT-53" transform="scale(0.015625)"/>
       <path d="M 1650 503 
L 1731 6 
Q 1494 -44 1306 -44 
Q 1000 -44 831 53 
Q 663 150 594 308 
Q 525 466 525 972 
L 525 2881 
L 113 2881 
L 113 3319 
L 525 3319 
L 525 4141 
L 1084 4478 
L 1084 3319 
L 1650 3319 
L 1650 2881 
L 1084 2881 
L 1084 941 
Q 1084 700 1114 631 
Q 1144 563 1211 522 
Q 1278 481 1403 481 
Q 1497 481 1650 503 
z
" id="ArialMT-74" transform="scale(0.015625)"/>
       <path d="M 422 -1272 
L 422 3319 
L 934 3319 
L 934 2888 
Q 1116 3141 1344 3267 
Q 1572 3394 1897 3394 
Q 2322 3394 2647 3175 
Q 2972 2956 3137 2557 
Q 3303 2159 3303 1684 
Q 3303 1175 3120 767 
Q 2938 359 2589 142 
Q 2241 -75 1856 -75 
Q 1575 -75 1351 44 
Q 1128 163 984 344 
L 984 -1272 
L 422 -1272 
z
M 931 1641 
Q 931 1000 1190 694 
Q 1450 388 1819 388 
Q 2194 388 2461 705 
Q 2728 1022 2728 1688 
Q 2728 2322 2467 2637 
Q 2206 2953 1844 2953 
Q 1484 2953 1207 2617 
Q 931 2281 931 1641 
z
" id="ArialMT-70" transform="scale(0.015625)"/>
      </defs>
      <use xlink:href="#ArialMT-54"/>
      <use x="57.333984" xlink:href="#ArialMT-69"/>
      <use x="79.550781" xlink:href="#ArialMT-6d"/>
      <use x="162.851562" xlink:href="#ArialMT-65"/>
      <use x="218.466797" xlink:href="#ArialMT-20"/>
      <use x="246.25" xlink:href="#ArialMT-53"/>
      <use x="312.949219" xlink:href="#ArialMT-74"/>
      <use x="340.732422" xlink:href="#ArialMT-65"/>
      <use x="396.347656" xlink:href="#ArialMT-70"/>
     </g>
    </g>
   </g>
   <g id="matplotlib.axis_2">
    <g id="ytick_1">
     <g id="line2d_7">
      <path clip-path="url(#p8ba73617fd)" d="M 57.6 293.76 
L 414.72 293.76 
" style="fill:none;stroke:#ffffff;stroke-linecap:round;"/>
     </g>
     <g id="text_8">
      <!-- 0.0 -->
      <g style="fill:#262626;" transform="translate(27.25 299.128359)scale(0.15 -0.15)">
       <defs>
        <path d="M 581 0 
L 581 641 
L 1222 641 
L 1222 0 
L 581 0 
z
" id="ArialMT-2e" transform="scale(0.015625)"/>
       </defs>
       <use xlink:href="#ArialMT-30"/>
       <use x="55.615234" xlink:href="#ArialMT-2e"/>
       <use x="83.398438" xlink:href="#ArialMT-30"/>
      </g>
     </g>
    </g>
    <g id="ytick_2">
     <g id="line2d_8">
      <path clip-path="url(#p8ba73617fd)" d="M 57.6 262.613333 
L 414.72 262.613333 
" style="fill:none;stroke:#ffffff;stroke-linecap:round;"/>
     </g>
     <g id="text_9">
      <!-- 0.1 -->
      <g style="fill:#262626;" transform="translate(27.25 267.981693)scale(0.15 -0.15)">
       <use xlink:href="#ArialMT-30"/>
       <use x="55.615234" xlink:href="#ArialMT-2e"/>
       <use x="83.398438" xlink:href="#ArialMT-31"/>
      </g>
     </g>
    </g>
    <g id="ytick_3">
     <g id="line2d_9">
      <path clip-path="url(#p8ba73617fd)" d="M 57.6 231.466667 
L 414.72 231.466667 
" style="fill:none;stroke:#ffffff;stroke-linecap:round;"/>
     </g>
     <g id="text_10">
      <!-- 0.2 -->
      <g style="fill:#262626;" transform="translate(27.25 236.835026)scale(0.15 -0.15)">
       <use xlink:href="#ArialMT-30"/>
       <use x="55.615234" xlink:href="#ArialMT-2e"/>
       <use x="83.398438" xlink:href="#ArialMT-32"/>
      </g>
     </g>
    </g>
    <g id="ytick_4">
     <g id="line2d_10">
      <path clip-path="url(#p8ba73617fd)" d="M 57.6 200.32 
L 414.72 200.32 
" style="fill:none;stroke:#ffffff;stroke-linecap:round;"/>
     </g>
     <g id="text_11">
      <!-- 0.3 -->
      <g style="fill:#262626;" transform="translate(27.25 205.688359)scale(0.15 -0.15)">
       <defs>
        <path d="M 269 1209 
L 831 1284 
Q 928 806 1161 595 
Q 1394 384 1728 384 
Q 2125 384 2398 659 
Q 2672 934 2672 1341 
Q 2672 1728 2419 1979 
Q 2166 2231 1775 2231 
Q 1616 2231 1378 2169 
L 1441 2663 
Q 1497 2656 1531 2656 
Q 1891 2656 2178 2843 
Q 2466 3031 2466 3422 
Q 2466 3731 2256 3934 
Q 2047 4138 1716 4138 
Q 1388 4138 1169 3931 
Q 950 3725 888 3313 
L 325 3413 
Q 428 3978 793 4289 
Q 1159 4600 1703 4600 
Q 2078 4600 2393 4439 
Q 2709 4278 2876 4000 
Q 3044 3722 3044 3409 
Q 3044 3113 2884 2869 
Q 2725 2625 2413 2481 
Q 2819 2388 3044 2092 
Q 3269 1797 3269 1353 
Q 3269 753 2831 336 
Q 2394 -81 1725 -81 
Q 1122 -81 723 278 
Q 325 638 269 1209 
z
" id="ArialMT-33" transform="scale(0.015625)"/>
       </defs>
       <use xlink:href="#ArialMT-30"/>
       <use x="55.615234" xlink:href="#ArialMT-2e"/>
       <use x="83.398438" xlink:href="#ArialMT-33"/>
      </g>
     </g>
    </g>
    <g id="ytick_5">
     <g id="line2d_11">
      <path clip-path="url(#p8ba73617fd)" d="M 57.6 169.173333 
L 414.72 169.173333 
" style="fill:none;stroke:#ffffff;stroke-linecap:round;"/>
     </g>
     <g id="text_12">
      <!-- 0.4 -->
      <g style="fill:#262626;" transform="translate(27.25 174.541693)scale(0.15 -0.15)">
       <defs>
        <path d="M 2069 0 
L 2069 1097 
L 81 1097 
L 81 1613 
L 2172 4581 
L 2631 4581 
L 2631 1613 
L 3250 1613 
L 3250 1097 
L 2631 1097 
L 2631 0 
L 2069 0 
z
M 2069 1613 
L 2069 3678 
L 634 1613 
L 2069 1613 
z
" id="ArialMT-34" transform="scale(0.015625)"/>
       </defs>
       <use xlink:href="#ArialMT-30"/>
       <use x="55.615234" xlink:href="#ArialMT-2e"/>
       <use x="83.398438" xlink:href="#ArialMT-34"/>
      </g>
     </g>
    </g>
    <g id="ytick_6">
     <g id="line2d_12">
      <path clip-path="url(#p8ba73617fd)" d="M 57.6 138.026667 
L 414.72 138.026667 
" style="fill:none;stroke:#ffffff;stroke-linecap:round;"/>
     </g>
     <g id="text_13">
      <!-- 0.5 -->
      <g style="fill:#262626;" transform="translate(27.25 143.395026)scale(0.15 -0.15)">
       <use xlink:href="#ArialMT-30"/>
       <use x="55.615234" xlink:href="#ArialMT-2e"/>
       <use x="83.398438" xlink:href="#ArialMT-35"/>
      </g>
     </g>
    </g>
    <g id="ytick_7">
     <g id="line2d_13">
      <path clip-path="url(#p8ba73617fd)" d="M 57.6 106.88 
L 414.72 106.88 
" style="fill:none;stroke:#ffffff;stroke-linecap:round;"/>
     </g>
     <g id="text_14">
      <!-- 0.6 -->
      <g style="fill:#262626;" transform="translate(27.25 112.248359)scale(0.15 -0.15)">
       <defs>
        <path d="M 3184 3459 
L 2625 3416 
Q 2550 3747 2413 3897 
Q 2184 4138 1850 4138 
Q 1581 4138 1378 3988 
Q 1113 3794 959 3422 
Q 806 3050 800 2363 
Q 1003 2672 1297 2822 
Q 1591 2972 1913 2972 
Q 2475 2972 2870 2558 
Q 3266 2144 3266 1488 
Q 3266 1056 3080 686 
Q 2894 316 2569 119 
Q 2244 -78 1831 -78 
Q 1128 -78 684 439 
Q 241 956 241 2144 
Q 241 3472 731 4075 
Q 1159 4600 1884 4600 
Q 2425 4600 2770 4297 
Q 3116 3994 3184 3459 
z
M 888 1484 
Q 888 1194 1011 928 
Q 1134 663 1356 523 
Q 1578 384 1822 384 
Q 2178 384 2434 671 
Q 2691 959 2691 1453 
Q 2691 1928 2437 2201 
Q 2184 2475 1800 2475 
Q 1419 2475 1153 2201 
Q 888 1928 888 1484 
z
" id="ArialMT-36" transform="scale(0.015625)"/>
       </defs>
       <use xlink:href="#ArialMT-30"/>
       <use x="55.615234" xlink:href="#ArialMT-2e"/>
       <use x="83.398438" xlink:href="#ArialMT-36"/>
      </g>
     </g>
    </g>
    <g id="ytick_8">
     <g id="line2d_14">
      <path clip-path="url(#p8ba73617fd)" d="M 57.6 75.733333 
L 414.72 75.733333 
" style="fill:none;stroke:#ffffff;stroke-linecap:round;"/>
     </g>
     <g id="text_15">
      <!-- 0.7 -->
      <g style="fill:#262626;" transform="translate(27.25 81.101693)scale(0.15 -0.15)">
       <defs>
        <path d="M 303 3981 
L 303 4522 
L 3269 4522 
L 3269 4084 
Q 2831 3619 2401 2847 
Q 1972 2075 1738 1259 
Q 1569 684 1522 0 
L 944 0 
Q 953 541 1156 1306 
Q 1359 2072 1739 2783 
Q 2119 3494 2547 3981 
L 303 3981 
z
" id="ArialMT-37" transform="scale(0.015625)"/>
       </defs>
       <use xlink:href="#ArialMT-30"/>
       <use x="55.615234" xlink:href="#ArialMT-2e"/>
       <use x="83.398438" xlink:href="#ArialMT-37"/>
      </g>
     </g>
    </g>
    <g id="ytick_9">
     <g id="line2d_15">
      <path clip-path="url(#p8ba73617fd)" d="M 57.6 44.586667 
L 414.72 44.586667 
" style="fill:none;stroke:#ffffff;stroke-linecap:round;"/>
     </g>
     <g id="text_16">
      <!-- 0.8 -->
      <g style="fill:#262626;" transform="translate(27.25 49.955026)scale(0.15 -0.15)">
       <defs>
        <path d="M 1131 2484 
Q 781 2613 612 2850 
Q 444 3088 444 3419 
Q 444 3919 803 4259 
Q 1163 4600 1759 4600 
Q 2359 4600 2725 4251 
Q 3091 3903 3091 3403 
Q 3091 3084 2923 2848 
Q 2756 2613 2416 2484 
Q 2838 2347 3058 2040 
Q 3278 1734 3278 1309 
Q 3278 722 2862 322 
Q 2447 -78 1769 -78 
Q 1091 -78 675 323 
Q 259 725 259 1325 
Q 259 1772 486 2073 
Q 713 2375 1131 2484 
z
M 1019 3438 
Q 1019 3113 1228 2906 
Q 1438 2700 1772 2700 
Q 2097 2700 2305 2904 
Q 2513 3109 2513 3406 
Q 2513 3716 2298 3927 
Q 2084 4138 1766 4138 
Q 1444 4138 1231 3931 
Q 1019 3725 1019 3438 
z
M 838 1322 
Q 838 1081 952 856 
Q 1066 631 1291 507 
Q 1516 384 1775 384 
Q 2178 384 2440 643 
Q 2703 903 2703 1303 
Q 2703 1709 2433 1975 
Q 2163 2241 1756 2241 
Q 1359 2241 1098 1978 
Q 838 1716 838 1322 
z
" id="ArialMT-38" transform="scale(0.015625)"/>
       </defs>
       <use xlink:href="#ArialMT-30"/>
       <use x="55.615234" xlink:href="#ArialMT-2e"/>
       <use x="83.398438" xlink:href="#ArialMT-38"/>
      </g>
     </g>
    </g>
    <g id="text_17">
     <!-- Top-1 Acc -->
     <g style="fill:#262626;" transform="translate(19.6725 207.131625)rotate(-90)scale(0.18 -0.18)">
      <defs>
       <path d="M 213 1659 
Q 213 2581 725 3025 
Q 1153 3394 1769 3394 
Q 2453 3394 2887 2945 
Q 3322 2497 3322 1706 
Q 3322 1066 3130 698 
Q 2938 331 2570 128 
Q 2203 -75 1769 -75 
Q 1072 -75 642 372 
Q 213 819 213 1659 
z
M 791 1659 
Q 791 1022 1069 705 
Q 1347 388 1769 388 
Q 2188 388 2466 706 
Q 2744 1025 2744 1678 
Q 2744 2294 2464 2611 
Q 2184 2928 1769 2928 
Q 1347 2928 1069 2612 
Q 791 2297 791 1659 
z
" id="ArialMT-6f" transform="scale(0.015625)"/>
       <path d="M 203 1375 
L 203 1941 
L 1931 1941 
L 1931 1375 
L 203 1375 
z
" id="ArialMT-2d" transform="scale(0.015625)"/>
       <path d="M -9 0 
L 1750 4581 
L 2403 4581 
L 4278 0 
L 3588 0 
L 3053 1388 
L 1138 1388 
L 634 0 
L -9 0 
z
M 1313 1881 
L 2866 1881 
L 2388 3150 
Q 2169 3728 2063 4100 
Q 1975 3659 1816 3225 
L 1313 1881 
z
" id="ArialMT-41" transform="scale(0.015625)"/>
       <path d="M 2588 1216 
L 3141 1144 
Q 3050 572 2676 248 
Q 2303 -75 1759 -75 
Q 1078 -75 664 370 
Q 250 816 250 1647 
Q 250 2184 428 2587 
Q 606 2991 970 3192 
Q 1334 3394 1763 3394 
Q 2303 3394 2647 3120 
Q 2991 2847 3088 2344 
L 2541 2259 
Q 2463 2594 2264 2762 
Q 2066 2931 1784 2931 
Q 1359 2931 1093 2626 
Q 828 2322 828 1663 
Q 828 994 1084 691 
Q 1341 388 1753 388 
Q 2084 388 2306 591 
Q 2528 794 2588 1216 
z
" id="ArialMT-63" transform="scale(0.015625)"/>
      </defs>
      <use xlink:href="#ArialMT-54"/>
      <use x="49.958984" xlink:href="#ArialMT-6f"/>
      <use x="105.574219" xlink:href="#ArialMT-70"/>
      <use x="161.189453" xlink:href="#ArialMT-2d"/>
      <use x="194.490234" xlink:href="#ArialMT-31"/>
      <use x="250.105469" xlink:href="#ArialMT-20"/>
      <use x="272.388672" xlink:href="#ArialMT-41"/>
      <use x="339.087891" xlink:href="#ArialMT-63"/>
      <use x="389.087891" xlink:href="#ArialMT-63"/>
     </g>
    </g>
   </g>
   <g id="line2d_16">
    <path clip-path="url(#p8ba73617fd)" d="M 57.6 290.645333 
L 58.995 290.645333 
L 60.39 290.76992 
L 63.18 290.365013 
L 64.575 289.83552 
L 65.97 285.3504 
L 67.365 279.401387 
L 68.76 272.860587 
L 70.155 265.416533 
L 71.55 258.657707 
L 72.945 252.521813 
L 77.13 227.915947 
L 79.92 212.436053 
L 84.105 189.66784 
L 86.895 176.150187 
L 92.475 156.185173 
L 93.87 151.793493 
L 95.265 148.772267 
L 96.66 145.346133 
L 98.055 141.54624 
L 100.845 136.375893 
L 102.24 133.9776 
L 103.635 131.859627 
L 105.03 129.523627 
L 110.61 121.26976 
L 116.19 115.19616 
L 118.98 112.20608 
L 123.165 108.84224 
L 124.56 107.938987 
L 125.955 106.817707 
L 127.35 105.9456 
L 128.745 104.91776 
L 130.14 104.419413 
L 134.325 102.30144 
L 135.72 101.958827 
L 137.115 100.930987 
L 138.51 100.71296 
L 139.905 100.15232 
L 141.3 99.435947 
L 142.695 99.249067 
L 144.09 98.75072 
L 145.485 98.09664 
L 146.88 98.065493 
L 148.275 97.754027 
L 149.67 97.224533 
L 151.065 96.477013 
L 153.855 95.636053 
L 156.645 94.483627 
L 158.04 94.421333 
L 159.435 94.07872 
L 160.83 93.268907 
L 165.015 92.614827 
L 166.41 92.085333 
L 167.805 92.20992 
L 169.2 91.55584 
L 170.595 91.55584 
L 171.99 91.057493 
L 173.385 90.80832 
L 174.78 90.372267 
L 176.175 90.278827 
L 177.57 89.936213 
L 178.965 89.842773 
L 180.36 89.188693 
L 181.755 89.40672 
L 183.15 89.157547 
L 184.545 88.783787 
L 185.94 88.56576 
L 187.335 88.47232 
L 188.73 88.503467 
L 192.915 87.880533 
L 194.31 87.413333 
L 195.705 87.319893 
L 197.1 87.413333 
L 199.89 86.946133 
L 202.68 86.385493 
L 204.075 86.447787 
L 205.47 86.105173 
L 206.865 85.887147 
L 208.26 85.856 
L 209.655 85.57568 
L 211.05 85.57568 
L 212.445 85.451093 
L 215.235 85.451093 
L 216.63 85.046187 
L 219.42 85.077333 
L 222.21 84.797013 
L 223.605 84.672427 
L 226.395 84.82816 
L 229.185 84.485547 
L 231.975 84.4544 
L 233.37 84.26752 
L 234.765 84.236373 
L 236.16 83.9872 
L 237.555 84.049493 
L 238.95 83.862613 
L 241.74 83.9872 
L 243.135 83.831467 
L 245.925 83.89376 
L 248.715 83.582293 
L 250.11 83.644587 
L 251.505 83.42656 
L 254.295 83.488853 
L 255.69 83.208533 
L 275.22 82.67904 
L 279.405 82.461013 
L 280.8 82.616747 
L 282.195 82.367573 
L 284.985 82.39872 
L 287.775 82.180693 
L 289.17 82.242987 
L 290.565 82.056107 
L 291.96 82.149547 
L 293.355 81.993813 
L 298.935 81.93152 
L 301.725 81.775787 
L 303.12 81.869227 
L 304.515 81.588907 
L 307.305 81.682347 
L 308.7 81.6512 
L 310.095 81.74464 
L 311.49 81.620053 
L 318.465 81.526613 
L 321.255 81.495467 
L 322.65 81.526613 
L 326.835 81.184 
L 328.23 81.308587 
L 329.625 81.27744 
L 331.02 81.46432 
L 333.81 81.059413 
L 335.205 81.152853 
L 337.995 80.841387 
L 339.39 80.841387 
L 340.785 80.965973 
L 346.365 80.81024 
L 349.155 80.779093 
L 350.55 80.685653 
L 351.945 80.7168 
L 353.34 80.62336 
L 358.92 80.685653 
L 363.105 80.592213 
L 365.895 80.498773 
L 367.29 80.311893 
L 368.685 80.467627 
L 370.08 80.218453 
L 381.24 80.187307 
L 382.635 80.093867 
L 384.03 80.15616 
L 385.425 79.938133 
L 386.82 79.938133 
L 388.215 80.093867 
L 392.4 79.68896 
L 395.19 79.720107 
L 396.585 79.751253 
L 397.98 79.626667 
L 399.375 79.657813 
L 400.77 79.533227 
L 403.56 79.50208 
L 409.14 79.346347 
L 413.325 79.439787 
L 413.325 79.439787 
" style="fill:none;stroke:#bfbf00;stroke-linecap:round;stroke-width:2.5;"/>
   </g>
   <g id="line2d_17">
    <path clip-path="url(#p8ba73617fd)" d="M 57.6 290.645333 
L 64.575 290.645333 
L 65.97 291.392853 
L 67.365 290.520747 
L 68.76 289.897813 
L 70.155 288.80768 
L 71.55 287.40608 
L 72.945 283.170133 
L 74.34 275.850667 
L 75.735 266.00832 
L 79.92 228.133973 
L 81.315 213.245867 
L 85.5 178.050133 
L 86.895 167.117653 
L 89.685 149.800107 
L 92.475 133.074347 
L 96.66 114.3552 
L 98.055 109.153707 
L 99.45 104.762027 
L 100.845 100.775253 
L 105.03 89.96736 
L 106.425 87.382187 
L 107.82 84.485547 
L 110.61 79.50208 
L 112.005 77.16608 
L 114.795 74.144853 
L 116.19 71.871147 
L 117.585 70.874453 
L 120.375 68.19584 
L 124.56 64.832 
L 125.955 64.240213 
L 130.14 61.873067 
L 131.535 61.032107 
L 132.93 60.409173 
L 135.72 58.602667 
L 137.115 58.135467 
L 139.905 57.045333 
L 141.3 56.23552 
L 142.695 55.706027 
L 144.09 55.0208 
L 145.485 54.709333 
L 148.275 54.46016 
L 149.67 53.99296 
L 151.065 53.743787 
L 152.46 53.370027 
L 153.855 53.214293 
L 156.645 52.560213 
L 159.435 51.501227 
L 160.83 51.220907 
L 162.225 51.345493 
L 163.62 51.18976 
L 165.015 50.816 
L 170.595 49.97504 
L 171.99 50.099627 
L 173.385 49.912747 
L 174.78 49.476693 
L 176.175 49.476693 
L 177.57 49.165227 
L 178.965 49.071787 
L 180.36 48.698027 
L 183.15 48.230827 
L 184.545 48.19968 
L 185.94 47.73248 
L 188.73 47.763627 
L 190.125 47.389867 
L 191.52 47.514453 
L 195.705 46.79808 
L 197.1 46.953813 
L 199.89 46.486613 
L 201.285 46.51776 
L 202.68 46.268587 
L 204.075 46.362027 
L 205.47 46.268587 
L 208.26 46.299733 
L 209.655 46.144 
L 213.84 45.988267 
L 215.235 45.801387 
L 218.025 45.77024 
L 219.42 45.925973 
L 223.605 45.614507 
L 226.395 45.707947 
L 229.185 45.58336 
L 230.58 45.552213 
L 231.975 45.30304 
L 234.765 45.147307 
L 237.555 45.271893 
L 238.95 44.960427 
L 240.345 44.991573 
L 243.135 44.804693 
L 244.53 44.960427 
L 245.925 44.7424 
L 248.715 44.617813 
L 255.69 44.150613 
L 258.48 44.337493 
L 259.875 44.18176 
L 261.27 44.2752 
L 262.665 44.150613 
L 265.455 44.150613 
L 266.85 43.963733 
L 273.825 43.870293 
L 275.22 43.71456 
L 280.8 43.776853 
L 282.195 43.683413 
L 283.59 43.808 
L 284.985 43.652267 
L 293.355 43.558827 
L 294.75 43.62112 
L 296.145 43.52768 
L 301.725 43.558827 
L 303.12 43.309653 
L 304.515 43.43424 
L 307.305 43.06048 
L 311.49 43.029333 
L 314.28 42.998187 
L 315.675 42.998187 
L 317.07 43.122773 
L 324.045 42.842453 
L 326.835 42.904747 
L 328.23 42.655573 
L 329.625 42.842453 
L 333.81 42.562133 
L 335.205 42.717867 
L 337.995 42.655573 
L 340.785 42.811307 
L 342.18 42.655573 
L 343.575 42.78016 
L 356.13 42.59328 
L 357.525 42.655573 
L 360.315 42.59328 
L 361.71 42.655573 
L 364.5 42.562133 
L 367.29 42.68672 
L 370.08 42.468693 
L 371.475 42.562133 
L 385.425 42.344107 
L 389.61 42.530987 
L 391.005 42.4064 
L 395.19 42.468693 
L 397.98 42.530987 
L 399.375 42.437547 
L 403.56 42.49984 
L 404.955 42.375253 
L 406.35 42.468693 
L 413.325 42.31296 
L 413.325 42.31296 
" style="fill:none;stroke:#00bfbf;stroke-linecap:round;stroke-width:2.5;"/>
   </g>
   <g id="line2d_18">
    <path clip-path="url(#p8ba73617fd)" d="M 57.6 290.645333 
L 71.55 290.645333 
L 72.945 291.05024 
L 74.34 290.4896 
L 75.735 290.645333 
L 78.525 290.645333 
L 79.92 290.832213 
L 82.71 288.71424 
L 84.105 287.12576 
L 85.5 283.917653 
L 86.895 280.30464 
L 88.29 276.09984 
L 89.685 271.396693 
L 92.475 260.21504 
L 93.87 253.798827 
L 98.055 231.560107 
L 99.45 224.925867 
L 105.03 194.402133 
L 106.425 188.297387 
L 107.82 181.009067 
L 109.215 174.71744 
L 110.61 169.360213 
L 113.4 157.8048 
L 114.795 153.724587 
L 116.19 148.616533 
L 118.98 139.988907 
L 120.375 135.93984 
L 121.77 131.236693 
L 125.955 120.864853 
L 127.35 117.71904 
L 128.745 115.133867 
L 130.14 112.829013 
L 132.93 106.59968 
L 134.325 104.575147 
L 135.72 101.803093 
L 137.115 100.121173 
L 138.51 98.034347 
L 139.905 96.22784 
L 141.3 93.549227 
L 144.09 90.870613 
L 145.485 89.1264 
L 149.67 84.9216 
L 151.065 83.924907 
L 155.25 80.311893 
L 159.435 76.60544 
L 160.83 75.702187 
L 162.225 74.985813 
L 165.015 73.303893 
L 166.41 72.21376 
L 167.805 71.684267 
L 170.595 70.002347 
L 171.99 68.84992 
L 173.385 68.47616 
L 174.78 67.884373 
L 176.175 67.136853 
L 177.57 66.763093 
L 178.965 66.60736 
L 183.15 64.08448 
L 184.545 63.71072 
L 187.335 62.714027 
L 188.73 61.84192 
L 190.125 61.74848 
L 191.52 61.405867 
L 194.31 60.34688 
L 195.705 60.378027 
L 197.1 59.723947 
L 198.495 59.2256 
L 202.68 58.353493 
L 204.075 58.2912 
L 205.47 57.481387 
L 206.865 57.3568 
L 208.26 57.107627 
L 209.655 56.4224 
L 212.445 56.32896 
L 218.025 54.802773 
L 219.42 54.74048 
L 220.815 54.242133 
L 230.58 52.560213 
L 233.37 52.342187 
L 234.765 52.31104 
L 237.555 51.84384 
L 244.53 51.158613 
L 245.925 51.158613 
L 247.32 50.90944 
L 250.11 50.691413 
L 251.505 50.660267 
L 252.9 50.473387 
L 255.69 50.411093 
L 257.085 50.099627 
L 258.48 50.193067 
L 259.875 49.8816 
L 262.665 49.912747 
L 264.06 49.663573 
L 265.455 49.663573 
L 268.245 49.258667 
L 269.64 48.9472 
L 271.035 49.102933 
L 272.43 48.85376 
L 278.01 48.57344 
L 279.405 48.355413 
L 286.38 47.981653 
L 289.17 47.763627 
L 290.565 47.857067 
L 293.355 47.576747 
L 294.75 47.45216 
L 296.145 47.576747 
L 297.54 47.576747 
L 298.935 47.327573 
L 301.725 47.26528 
L 303.12 47.45216 
L 308.7 47.421013 
L 311.49 47.17184 
L 312.885 47.327573 
L 315.675 47.140693 
L 317.07 47.26528 
L 318.465 47.234133 
L 319.86 47.047253 
L 321.255 47.109547 
L 322.65 46.6112 
L 328.23 46.548907 
L 331.02 46.362027 
L 332.415 46.393173 
L 333.81 46.206293 
L 344.97 46.144 
L 346.365 46.019413 
L 347.76 46.081707 
L 349.155 45.86368 
L 350.55 45.801387 
L 353.34 45.95712 
L 354.735 45.77024 
L 356.13 45.801387 
L 358.92 45.645653 
L 360.315 45.77024 
L 361.71 45.521067 
L 363.105 45.6768 
L 364.5 45.521067 
L 367.29 45.427627 
L 368.685 45.240747 
L 370.08 45.365333 
L 372.87 45.365333 
L 374.265 45.11616 
L 377.055 45.2096 
L 378.45 45.365333 
L 381.24 45.271893 
L 382.635 45.521067 
L 384.03 45.427627 
L 385.425 45.147307 
L 386.82 44.991573 
L 391.005 45.147307 
L 392.4 44.92928 
L 393.795 45.02272 
L 396.585 44.92928 
L 397.98 45.085013 
L 399.375 45.11616 
L 400.77 44.866987 
L 402.165 44.960427 
L 404.955 44.773547 
L 406.35 44.92928 
L 411.93 44.773547 
L 413.325 44.83584 
L 413.325 44.83584 
" style="fill:none;stroke:#0000ff;stroke-linecap:round;stroke-width:2.5;"/>
   </g>
   <g id="line2d_19">
    <path clip-path="url(#p8ba73617fd)" d="M 57.6 290.645333 
L 64.575 290.614187 
L 65.97 290.4896 
L 67.365 288.683093 
L 68.76 282.73408 
L 71.55 256.539733 
L 74.34 228.694613 
L 78.525 179.732053 
L 81.315 150.921387 
L 84.105 129.181013 
L 86.895 113.4208 
L 88.29 106.59968 
L 89.685 100.494933 
L 91.08 95.137707 
L 93.87 86.852693 
L 95.265 83.301973 
L 98.055 77.664427 
L 99.45 75.172693 
L 102.24 71.123627 
L 106.425 65.67296 
L 107.82 64.427093 
L 109.215 63.399253 
L 110.61 62.184533 
L 112.005 61.125547 
L 113.4 60.315733 
L 114.795 59.287893 
L 116.19 58.633813 
L 117.585 57.605973 
L 118.98 57.16992 
L 120.375 56.297813 
L 121.77 55.76832 
L 123.165 55.0208 
L 124.56 54.709333 
L 125.955 54.0864 
L 127.35 53.930667 
L 128.745 53.152 
L 130.14 52.996267 
L 132.93 52.093013 
L 134.325 52.061867 
L 135.72 51.56352 
L 138.51 50.971733 
L 139.905 50.971733 
L 141.3 50.847147 
L 144.09 50.130773 
L 145.485 50.25536 
L 146.88 50.130773 
L 148.275 49.60128 
L 152.46 48.66688 
L 158.04 47.981653 
L 159.435 47.701333 
L 160.83 47.607893 
L 162.225 47.26528 
L 163.62 47.047253 
L 165.015 47.0784 
L 166.41 46.98496 
L 167.805 46.735787 
L 176.175 46.206293 
L 177.57 46.206293 
L 180.36 45.832533 
L 181.755 45.458773 
L 183.15 45.645653 
L 184.545 45.707947 
L 185.94 45.552213 
L 187.335 45.552213 
L 188.73 45.427627 
L 190.125 45.48992 
L 191.52 45.334187 
L 194.31 45.39648 
L 195.705 45.2096 
L 197.1 45.30304 
L 198.495 45.271893 
L 199.89 45.11616 
L 202.68 45.2096 
L 204.075 45.085013 
L 205.47 45.2096 
L 206.865 45.085013 
L 209.655 45.02272 
L 211.05 44.83584 
L 215.235 45.02272 
L 216.63 44.773547 
L 218.025 44.773547 
L 219.42 44.586667 
L 223.605 44.493227 
L 226.395 44.119467 
L 231.975 44.08832 
L 233.37 43.963733 
L 237.555 44.08832 
L 238.95 44.08832 
L 240.345 43.932587 
L 248.715 43.870293 
L 250.11 43.808 
L 251.505 43.62112 
L 254.295 43.71456 
L 255.69 43.558827 
L 257.085 43.683413 
L 258.48 43.52768 
L 262.665 43.43424 
L 264.06 43.403093 
L 265.455 43.496533 
L 266.85 43.3408 
L 268.245 43.465387 
L 276.615 43.403093 
L 278.01 43.3408 
L 279.405 43.403093 
L 280.8 43.24736 
L 283.59 43.3408 
L 284.985 43.185067 
L 289.17 43.371947 
L 290.565 43.24736 
L 291.96 43.278507 
L 293.355 43.122773 
L 294.75 43.15392 
L 296.145 43.029333 
L 298.935 43.24736 
L 301.725 43.15392 
L 303.12 43.091627 
L 305.91 43.15392 
L 308.7 43.091627 
L 317.07 43.185067 
L 339.39 43.091627 
L 340.785 43.029333 
L 343.575 43.122773 
L 344.97 43.029333 
L 346.365 43.091627 
L 347.76 42.998187 
L 350.55 43.15392 
L 351.945 42.935893 
L 353.34 42.8736 
L 354.735 42.998187 
L 357.525 42.842453 
L 358.92 42.904747 
L 361.71 42.78016 
L 367.29 42.811307 
L 378.45 42.749013 
L 379.845 42.655573 
L 381.24 42.749013 
L 385.425 42.655573 
L 391.005 42.562133 
L 397.98 42.437547 
L 402.165 42.530987 
L 404.955 42.49984 
L 409.14 42.468693 
L 413.325 42.468693 
L 413.325 42.468693 
" style="fill:none;stroke:#008000;stroke-linecap:round;stroke-width:2.5;"/>
   </g>
   <g id="line2d_20">
    <path clip-path="url(#p8ba73617fd)" d="M 57.6 290.645333 
L 68.76 290.67648 
L 70.155 290.240427 
L 71.55 290.20928 
L 72.945 289.27488 
L 74.34 287.77984 
L 75.735 284.291413 
L 77.13 278.24896 
L 78.525 270.275413 
L 81.315 248.846507 
L 88.29 194.43328 
L 91.08 175.901013 
L 98.055 137.62176 
L 99.45 132.077653 
L 100.845 126.0352 
L 106.425 107.752107 
L 110.61 96.632747 
L 113.4 91.618133 
L 114.795 88.908373 
L 116.19 86.478933 
L 117.585 84.392107 
L 121.77 79.252907 
L 124.56 75.67104 
L 125.955 74.674347 
L 127.35 73.023573 
L 128.745 72.089173 
L 130.14 70.81216 
L 131.535 69.908907 
L 132.93 68.725333 
L 134.325 68.133547 
L 135.72 66.856533 
L 138.51 65.423787 
L 141.3 63.80416 
L 142.695 63.212373 
L 144.09 62.153387 
L 145.485 61.65504 
L 148.275 60.25344 
L 149.67 60.097707 
L 151.065 59.537067 
L 152.46 58.820693 
L 153.855 58.415787 
L 155.25 57.761707 
L 156.645 57.3568 
L 158.04 56.765013 
L 160.83 55.924053 
L 162.225 55.76832 
L 163.62 55.0208 
L 165.015 54.46016 
L 166.41 54.0864 
L 167.805 53.89952 
L 170.595 52.902827 
L 171.99 52.747093 
L 173.385 52.435627 
L 176.175 52.49792 
L 177.57 52.248747 
L 178.965 52.12416 
L 180.36 51.812693 
L 181.755 51.252053 
L 184.545 51.065173 
L 187.335 50.53568 
L 194.31 49.78816 
L 195.705 49.78816 
L 197.1 49.352107 
L 202.68 49.04064 
L 205.47 48.48 
L 206.865 48.38656 
L 208.26 48.168533 
L 209.655 48.230827 
L 211.05 48.10624 
L 212.445 47.5456 
L 213.84 47.607893 
L 215.235 47.5456 
L 216.63 47.327573 
L 218.025 47.35872 
L 219.42 47.234133 
L 220.815 47.234133 
L 222.21 46.922667 
L 223.605 47.047253 
L 225 46.922667 
L 226.395 46.922667 
L 227.79 46.673493 
L 230.58 46.829227 
L 233.37 46.486613 
L 234.765 46.548907 
L 237.555 46.05056 
L 238.95 46.23744 
L 240.345 45.95712 
L 241.74 46.144 
L 244.53 46.05056 
L 245.925 46.299733 
L 247.32 45.988267 
L 248.715 46.05056 
L 251.505 45.707947 
L 252.9 45.707947 
L 254.295 45.427627 
L 258.48 45.39648 
L 259.875 45.178453 
L 261.27 45.30304 
L 262.665 45.053867 
L 264.06 45.02272 
L 265.455 45.147307 
L 266.85 44.866987 
L 268.245 44.898133 
L 271.035 45.30304 
L 272.43 44.92928 
L 273.825 44.83584 
L 276.615 45.147307 
L 279.405 44.960427 
L 280.8 44.64896 
L 282.195 44.866987 
L 284.985 44.399787 
L 287.775 44.524373 
L 289.17 44.36864 
L 290.565 44.493227 
L 291.96 44.2752 
L 294.75 44.399787 
L 297.54 44.306347 
L 298.935 44.399787 
L 300.33 44.212907 
L 301.725 44.430933 
L 304.515 44.150613 
L 305.91 44.306347 
L 308.7 44.337493 
L 310.095 44.057173 
L 315.675 44.08832 
L 317.07 44.18176 
L 322.65 44.026027 
L 324.045 44.337493 
L 325.44 44.119467 
L 337.995 43.62112 
L 339.39 43.71456 
L 346.365 43.496533 
L 347.76 43.652267 
L 350.55 43.496533 
L 353.34 43.465387 
L 354.735 43.309653 
L 356.13 43.43424 
L 361.71 43.3408 
L 363.105 43.403093 
L 365.895 43.185067 
L 367.29 43.403093 
L 370.08 43.216213 
L 374.265 43.24736 
L 378.45 43.029333 
L 381.24 43.15392 
L 384.03 43.091627 
L 385.425 43.216213 
L 386.82 43.15392 
L 389.61 43.216213 
L 392.4 43.122773 
L 393.795 43.15392 
L 395.19 43.06048 
L 399.375 43.15392 
L 400.77 42.998187 
L 402.165 43.122773 
L 403.56 43.06048 
L 406.35 43.091627 
L 407.745 42.998187 
L 413.325 43.091627 
L 413.325 43.091627 
" style="fill:none;stroke:#ff0000;stroke-linecap:round;stroke-width:2.5;"/>
   </g>
   <g id="line2d_21">
    <path clip-path="url(#p8ba73617fd)" d="M 57.6 290.645333 
L 65.97 290.614187 
L 67.365 290.11584 
L 68.76 284.78976 
L 70.155 275.134293 
L 71.55 264.108373 
L 72.945 249.65632 
L 78.525 178.143573 
L 79.92 162.10304 
L 81.315 148.149333 
L 82.71 135.721813 
L 84.105 125.412267 
L 85.5 116.192853 
L 86.895 108.125867 
L 88.29 101.491627 
L 89.685 95.76064 
L 93.87 82.5856 
L 95.265 79.03488 
L 96.66 76.948053 
L 98.055 74.487467 
L 99.45 71.27936 
L 103.635 66.825387 
L 107.82 62.558293 
L 109.215 61.65504 
L 110.61 60.44032 
L 112.005 59.59936 
L 114.795 57.45024 
L 116.19 56.79616 
L 120.375 54.491307 
L 121.77 54.17984 
L 123.165 53.588053 
L 124.56 52.87168 
L 125.955 52.31104 
L 131.535 50.753707 
L 132.93 50.660267 
L 134.325 50.06848 
L 135.72 49.663573 
L 137.115 49.60128 
L 138.51 49.352107 
L 139.905 48.9472 
L 141.3 48.822613 
L 142.695 48.324267 
L 146.88 47.63904 
L 148.275 47.701333 
L 149.67 47.45216 
L 151.065 47.45216 
L 152.46 47.140693 
L 153.855 47.109547 
L 156.645 46.79808 
L 160.83 46.455467 
L 162.225 46.455467 
L 163.62 46.580053 
L 166.41 46.019413 
L 167.805 46.081707 
L 170.595 45.77024 
L 171.99 45.86368 
L 174.78 45.894827 
L 176.175 45.48992 
L 177.57 45.6768 
L 178.965 45.271893 
L 183.15 44.83584 
L 184.545 45.053867 
L 187.335 44.711253 
L 188.73 44.64896 
L 190.125 44.7424 
L 192.915 44.46208 
L 194.31 44.586667 
L 197.1 44.399787 
L 198.495 44.46208 
L 199.89 44.244053 
L 201.285 44.18176 
L 202.68 44.244053 
L 204.075 44.057173 
L 206.865 44.306347 
L 209.655 44.08832 
L 215.235 44.026027 
L 218.025 43.90144 
L 219.42 44.119467 
L 223.605 43.99488 
L 226.395 43.90144 
L 227.79 43.745707 
L 229.185 43.808 
L 230.58 43.71456 
L 231.975 43.839147 
L 233.37 43.839147 
L 236.16 43.62112 
L 244.53 43.652267 
L 245.925 43.371947 
L 247.32 43.496533 
L 248.715 43.278507 
L 252.9 43.371947 
L 254.295 43.185067 
L 257.085 43.216213 
L 258.48 43.24736 
L 259.875 43.15392 
L 261.27 43.216213 
L 265.455 42.96704 
L 266.85 43.029333 
L 269.64 42.904747 
L 271.035 43.029333 
L 275.22 42.998187 
L 276.615 43.091627 
L 279.405 42.904747 
L 286.38 42.935893 
L 287.775 43.06048 
L 293.355 42.811307 
L 294.75 42.96704 
L 301.725 43.091627 
L 303.12 42.904747 
L 305.91 43.029333 
L 308.7 42.8736 
L 314.28 42.904747 
L 315.675 42.78016 
L 319.86 42.96704 
L 321.255 42.8736 
L 322.65 42.904747 
L 324.045 42.78016 
L 325.44 42.8736 
L 326.835 42.717867 
L 328.23 42.8736 
L 337.995 42.842453 
L 339.39 43.029333 
L 353.34 42.811307 
L 354.735 42.904747 
L 356.13 42.811307 
L 357.525 42.935893 
L 378.45 42.904747 
L 379.845 42.811307 
L 381.24 42.96704 
L 386.82 42.96704 
L 388.215 42.749013 
L 392.4 42.811307 
L 393.795 42.717867 
L 395.19 42.811307 
L 397.98 42.842453 
L 400.77 42.811307 
L 402.165 42.68672 
L 403.56 42.78016 
L 404.955 42.68672 
L 407.745 42.78016 
L 410.535 42.749013 
L 413.325 42.78016 
L 413.325 42.78016 
" style="fill:none;stroke:#bf00bf;stroke-linecap:round;stroke-width:2.5;"/>
   </g>
   <g id="line2d_22">
    <path clip-path="url(#p8ba73617fd)" d="M 57.6 42.437547 
L 414.72 42.437547 
" style="fill:none;stroke:#000000;stroke-dasharray:9.25,4;stroke-dashoffset:0;stroke-width:2.5;"/>
   </g>
   <g id="patch_3">
    <path d="M 57.6 293.76 
L 57.6 41.472 
" style="fill:none;stroke:#ffffff;stroke-linecap:square;stroke-linejoin:miter;stroke-width:1.25;"/>
   </g>
   <g id="patch_4">
    <path d="M 414.72 293.76 
L 414.72 41.472 
" style="fill:none;stroke:#ffffff;stroke-linecap:square;stroke-linejoin:miter;stroke-width:1.25;"/>
   </g>
   <g id="patch_5">
    <path d="M 57.6 293.76 
L 414.72 293.76 
" style="fill:none;stroke:#ffffff;stroke-linecap:square;stroke-linejoin:miter;stroke-width:1.25;"/>
   </g>
   <g id="patch_6">
    <path d="M 57.6 41.472 
L 414.72 41.472 
" style="fill:none;stroke:#ffffff;stroke-linecap:square;stroke-linejoin:miter;stroke-width:1.25;"/>
   </g>
   <g id="patch_7">
    <path clip-path="url(#p8ba73617fd)" d="M 370.08 46.144 
L 414.72 46.144 
L 414.72 41.783467 
L 370.08 41.783467 
z
" style="fill:none;opacity:0.5;stroke:#808080;stroke-linejoin:miter;"/>
   </g>
   <g id="patch_8">
    <path d="M 254.016 104.544 
Q 312.048 73.163733 370.08 41.783467 
" style="fill:none;opacity:0.5;stroke:#808080;stroke-linecap:round;"/>
   </g>
   <g id="patch_9">
    <path d="M 361.152 155.0016 
Q 387.936 100.5728 414.72 46.144 
" style="fill:none;opacity:0.5;stroke:#808080;stroke-linecap:round;"/>
   </g>
   <g id="axes_2">
    <g id="patch_10">
     <path d="M 254.016 155.0016 
L 361.152 155.0016 
L 361.152 104.544 
L 254.016 104.544 
z
" style="fill:#eaeaf2;"/>
    </g>
    <g id="matplotlib.axis_3">
     <g id="xtick_7">
      <g id="line2d_23">
       <path clip-path="url(#p3e9bbf0246)" d="M 274.104 155.0016 
L 274.104 104.544 
" style="fill:none;stroke:#ffffff;stroke-linecap:round;"/>
      </g>
      <g id="text_18">
       <!-- 230 -->
       <g style="fill:#262626;" transform="translate(264.928453 172.375194)scale(0.11 -0.11)">
        <use xlink:href="#ArialMT-32"/>
        <use x="55.615234" xlink:href="#ArialMT-33"/>
        <use x="111.230469" xlink:href="#ArialMT-30"/>
       </g>
      </g>
     </g>
     <g id="xtick_8">
      <g id="line2d_24">
       <path clip-path="url(#p3e9bbf0246)" d="M 307.584 155.0016 
L 307.584 104.544 
" style="fill:none;stroke:#ffffff;stroke-linecap:round;"/>
      </g>
      <g id="text_19">
       <!-- 240 -->
       <g style="fill:#262626;" transform="translate(298.408453 172.375194)scale(0.11 -0.11)">
        <use xlink:href="#ArialMT-32"/>
        <use x="55.615234" xlink:href="#ArialMT-34"/>
        <use x="111.230469" xlink:href="#ArialMT-30"/>
       </g>
      </g>
     </g>
     <g id="xtick_9">
      <g id="line2d_25">
       <path clip-path="url(#p3e9bbf0246)" d="M 341.064 155.0016 
L 341.064 104.544 
" style="fill:none;stroke:#ffffff;stroke-linecap:round;"/>
      </g>
      <g id="text_20">
       <!-- 250 -->
       <g style="fill:#262626;" transform="translate(331.888453 172.375194)scale(0.11 -0.11)">
        <use xlink:href="#ArialMT-32"/>
        <use x="55.615234" xlink:href="#ArialMT-35"/>
        <use x="111.230469" xlink:href="#ArialMT-30"/>
       </g>
      </g>
     </g>
    </g>
    <g id="matplotlib.axis_4">
     <g id="ytick_10">
      <g id="line2d_26">
       <path clip-path="url(#p3e9bbf0246)" d="M 254.016 155.0016 
L 361.152 155.0016 
" style="fill:none;stroke:#ffffff;stroke-linecap:round;"/>
      </g>
      <g id="text_21">
       <!-- 0.795 -->
       <g style="fill:#262626;" transform="translate(216.991938 158.938397)scale(0.11 -0.11)">
        <defs>
         <path d="M 350 1059 
L 891 1109 
Q 959 728 1153 556 
Q 1347 384 1650 384 
Q 1909 384 2104 503 
Q 2300 622 2425 820 
Q 2550 1019 2634 1356 
Q 2719 1694 2719 2044 
Q 2719 2081 2716 2156 
Q 2547 1888 2255 1720 
Q 1963 1553 1622 1553 
Q 1053 1553 659 1965 
Q 266 2378 266 3053 
Q 266 3750 677 4175 
Q 1088 4600 1706 4600 
Q 2153 4600 2523 4359 
Q 2894 4119 3086 3673 
Q 3278 3228 3278 2384 
Q 3278 1506 3087 986 
Q 2897 466 2520 194 
Q 2144 -78 1638 -78 
Q 1100 -78 759 220 
Q 419 519 350 1059 
z
M 2653 3081 
Q 2653 3566 2395 3850 
Q 2138 4134 1775 4134 
Q 1400 4134 1122 3828 
Q 844 3522 844 3034 
Q 844 2597 1108 2323 
Q 1372 2050 1759 2050 
Q 2150 2050 2401 2323 
Q 2653 2597 2653 3081 
z
" id="ArialMT-39" transform="scale(0.015625)"/>
        </defs>
        <use xlink:href="#ArialMT-30"/>
        <use x="55.615234" xlink:href="#ArialMT-2e"/>
        <use x="83.398438" xlink:href="#ArialMT-37"/>
        <use x="139.013672" xlink:href="#ArialMT-39"/>
        <use x="194.628906" xlink:href="#ArialMT-35"/>
       </g>
      </g>
     </g>
     <g id="ytick_11">
      <g id="line2d_27">
       <path clip-path="url(#p3e9bbf0246)" d="M 254.016 136.981029 
L 361.152 136.981029 
" style="fill:none;stroke:#ffffff;stroke-linecap:round;"/>
      </g>
      <g id="text_22">
       <!-- 0.800 -->
       <g style="fill:#262626;" transform="translate(216.991938 140.917825)scale(0.11 -0.11)">
        <use xlink:href="#ArialMT-30"/>
        <use x="55.615234" xlink:href="#ArialMT-2e"/>
        <use x="83.398438" xlink:href="#ArialMT-38"/>
        <use x="139.013672" xlink:href="#ArialMT-30"/>
        <use x="194.628906" xlink:href="#ArialMT-30"/>
       </g>
      </g>
     </g>
     <g id="ytick_12">
      <g id="line2d_28">
       <path clip-path="url(#p3e9bbf0246)" d="M 254.016 118.960457 
L 361.152 118.960457 
" style="fill:none;stroke:#ffffff;stroke-linecap:round;"/>
      </g>
      <g id="text_23">
       <!-- 0.805 -->
       <g style="fill:#262626;" transform="translate(216.991938 122.897254)scale(0.11 -0.11)">
        <use xlink:href="#ArialMT-30"/>
        <use x="55.615234" xlink:href="#ArialMT-2e"/>
        <use x="83.398438" xlink:href="#ArialMT-38"/>
        <use x="139.013672" xlink:href="#ArialMT-30"/>
        <use x="194.628906" xlink:href="#ArialMT-35"/>
       </g>
      </g>
     </g>
    </g>
    <g id="line2d_29">
     <path clip-path="url(#p3e9bbf0246)" d="M 0 0 
" style="fill:none;stroke:#bfbf00;stroke-linecap:round;stroke-width:2.5;"/>
    </g>
    <g id="line2d_30">
     <path clip-path="url(#p3e9bbf0246)" d="M -1 132.234535 
L -0.432 132.29568 
L 2.916 131.935269 
L 6.264 129.7728 
L 9.612 129.7728 
L 12.96 128.691566 
L 16.308 128.691566 
L 19.656 129.412389 
L 23.004 128.691566 
L 26.352 126.889509 
L 29.7 127.24992 
L 33.048 126.889509 
L 36.396 128.331154 
L 39.744 127.610331 
L 43.092 126.529097 
L 46.44 127.970743 
L 49.788 126.168686 
L 53.136 125.808274 
L 56.484 126.168686 
L 59.832 125.447863 
L 63.18 123.645806 
L 66.528 124.006217 
L 69.876 125.087451 
L 73.224 125.808274 
L 76.572 124.72704 
L 79.92 125.087451 
L 83.268 124.366629 
L 89.964 125.087451 
L 93.312 122.20416 
L 96.66 123.645806 
L 100.008 121.122926 
L 103.356 119.320869 
L 106.704 118.960457 
L 110.052 119.68128 
L 113.4 118.960457 
L 116.748 119.320869 
L 120.096 118.600046 
L 123.444 118.600046 
L 126.792 120.041691 
L 130.14 119.320869 
L 133.488 117.518811 
L 136.836 117.518811 
L 140.184 118.239634 
L 143.532 116.797989 
L 150.228 117.518811 
L 153.576 114.63552 
L 156.924 116.797989 
L 160.272 115.716754 
L 163.62 114.995931 
L 166.968 113.554286 
L 170.316 115.356343 
L 173.664 114.63552 
L 177.012 114.63552 
L 180.36 115.716754 
L 183.708 116.437577 
L 187.056 114.63552 
L 190.404 116.077166 
L 193.752 115.716754 
L 197.1 114.995931 
L 200.448 113.914697 
L 203.796 113.554286 
L 207.144 114.995931 
L 210.492 113.554286 
L 213.84 112.833463 
L 217.188 113.914697 
L 220.536 113.914697 
L 223.884 114.63552 
L 227.232 113.914697 
L 230.58 113.914697 
L 233.928 114.63552 
L 237.276 113.554286 
L 240.624 113.554286 
L 243.972 114.63552 
L 247.32 114.995931 
L 250.668 113.914697 
L 254.016 112.473051 
L 257.364 113.554286 
L 264.06 112.833463 
L 267.408 112.11264 
L 270.756 112.473051 
L 274.104 112.473051 
L 280.8 111.752229 
L 284.148 111.752229 
L 287.496 110.310583 
L 294.192 111.752229 
L 297.54 111.391817 
L 300.888 113.193874 
L 304.236 111.752229 
L 307.584 111.752229 
L 310.932 112.833463 
L 314.28 112.473051 
L 317.628 113.193874 
L 320.976 113.193874 
L 324.324 112.11264 
L 327.672 112.473051 
L 331.02 113.193874 
L 334.368 112.833463 
L 337.716 111.391817 
L 341.064 112.473051 
L 347.76 111.752229 
L 351.108 111.031406 
L 354.456 111.391817 
L 357.804 110.670994 
L 357.804 110.670994 
" style="fill:none;stroke:#00bfbf;stroke-linecap:round;stroke-width:2.5;"/>
    </g>
    <g id="line2d_31">
     <path clip-path="url(#p3e9bbf0246)" d="M -1 196.217252 
L -0.432 195.728091 
L 2.916 195.728091 
L 6.264 193.926034 
L 9.612 191.042743 
L 12.96 187.438629 
L 16.308 189.240686 
L 19.656 186.357394 
L 26.352 184.915749 
L 29.7 183.834514 
L 33.048 183.113691 
L 36.396 180.590811 
L 39.744 179.869989 
L 43.092 179.869989 
L 46.44 177.347109 
L 49.788 176.986697 
L 53.136 176.265874 
L 56.484 174.824229 
L 59.832 173.742994 
L 63.18 174.824229 
L 66.528 172.66176 
L 69.876 171.580526 
L 73.224 170.13888 
L 76.572 171.580526 
L 79.92 171.580526 
L 83.268 168.697234 
L 86.616 167.976411 
L 89.964 167.976411 
L 93.312 170.13888 
L 96.66 170.13888 
L 100.008 169.778469 
L 103.356 170.499291 
L 106.704 169.778469 
L 113.4 166.895177 
L 116.748 168.697234 
L 120.096 167.976411 
L 123.444 166.534766 
L 126.792 167.976411 
L 130.14 167.616 
L 133.488 165.453531 
L 136.836 166.174354 
L 140.184 160.407771 
L 143.532 160.407771 
L 146.88 159.326537 
L 150.228 161.489006 
L 153.576 159.686949 
L 160.272 157.52448 
L 163.62 157.884891 
L 166.968 155.722423 
L 177.012 155.722423 
L 180.36 156.803657 
L 183.708 155.362011 
L 187.056 156.443246 
L 193.752 155.0016 
L 197.1 153.559954 
L 200.448 154.280777 
L 203.796 151.757897 
L 207.144 151.037074 
L 210.492 152.47872 
L 213.84 152.839131 
L 217.188 150.676663 
L 220.536 151.037074 
L 223.884 149.595429 
L 227.232 149.235017 
L 230.58 150.676663 
L 233.928 147.793371 
L 237.276 149.595429 
L 240.624 147.793371 
L 243.972 147.43296 
L 247.32 146.712137 
L 250.668 144.549669 
L 254.016 145.991314 
L 257.364 145.630903 
L 260.712 145.991314 
L 264.06 143.108023 
L 267.408 143.468434 
L 270.756 144.189257 
L 274.104 145.991314 
L 277.452 145.630903 
L 280.8 144.91008 
L 284.148 147.793371 
L 287.496 146.712137 
L 290.844 143.468434 
L 294.192 141.666377 
L 297.54 142.3872 
L 300.888 142.747611 
L 304.236 143.468434 
L 307.584 140.945554 
L 310.932 142.026789 
L 314.28 141.666377 
L 317.628 140.945554 
L 320.976 142.747611 
L 324.324 143.108023 
L 327.672 140.224731 
L 331.02 141.305966 
L 337.716 139.143497 
L 341.064 140.945554 
L 344.412 140.224731 
L 354.456 139.143497 
L 357.804 139.86432 
L 357.804 139.86432 
" style="fill:none;stroke:#0000ff;stroke-linecap:round;stroke-width:2.5;"/>
    </g>
    <g id="line2d_32">
     <path clip-path="url(#p3e9bbf0246)" d="M -1 123.346539 
L -0.432 123.285394 
L 2.916 124.366629 
L 6.264 122.564571 
L 9.612 124.006217 
L 12.96 124.006217 
L 16.308 124.72704 
L 19.656 125.087451 
L 26.352 123.645806 
L 29.7 123.285394 
L 33.048 122.564571 
L 36.396 123.285394 
L 39.744 121.483337 
L 43.092 121.843749 
L 46.44 122.564571 
L 49.788 120.762514 
L 59.832 122.924983 
L 63.18 121.483337 
L 66.528 121.843749 
L 69.876 120.041691 
L 73.224 120.402103 
L 76.572 118.960457 
L 79.92 120.762514 
L 83.268 121.483337 
L 86.616 120.402103 
L 89.964 120.402103 
L 93.312 119.68128 
L 96.66 120.402103 
L 100.008 120.402103 
L 103.356 119.68128 
L 106.704 119.68128 
L 110.052 120.041691 
L 113.4 120.041691 
L 116.748 121.483337 
L 120.096 121.483337 
L 123.444 122.20416 
L 126.792 120.762514 
L 130.14 120.762514 
L 133.488 121.483337 
L 136.836 120.402103 
L 140.184 121.483337 
L 143.532 120.402103 
L 146.88 120.402103 
L 150.228 121.483337 
L 153.576 120.402103 
L 156.924 120.402103 
L 160.272 121.483337 
L 163.62 121.122926 
L 166.968 121.843749 
L 170.316 120.762514 
L 180.36 119.68128 
L 183.708 118.960457 
L 187.056 119.68128 
L 190.404 120.041691 
L 193.752 118.960457 
L 197.1 119.68128 
L 200.448 118.600046 
L 203.796 119.320869 
L 207.144 120.402103 
L 210.492 117.879223 
L 213.84 117.1584 
L 217.188 118.600046 
L 220.536 117.518811 
L 223.884 116.797989 
L 227.232 117.518811 
L 230.58 116.437577 
L 233.928 116.077166 
L 237.276 116.437577 
L 250.668 116.437577 
L 254.016 116.077166 
L 257.364 117.1584 
L 260.712 116.077166 
L 264.06 116.437577 
L 270.756 115.716754 
L 274.104 115.716754 
L 277.452 114.63552 
L 280.8 115.716754 
L 284.148 114.995931 
L 287.496 114.63552 
L 294.192 114.63552 
L 297.54 114.275109 
L 300.888 114.63552 
L 304.236 113.554286 
L 307.584 113.193874 
L 310.932 113.193874 
L 314.28 112.833463 
L 317.628 112.833463 
L 320.976 112.11264 
L 324.324 112.833463 
L 327.672 112.833463 
L 331.02 113.193874 
L 334.368 112.473051 
L 337.716 112.833463 
L 341.064 112.473051 
L 347.76 112.473051 
L 351.108 112.833463 
L 354.456 112.833463 
L 357.804 112.473051 
L 357.804 112.473051 
" style="fill:none;stroke:#008000;stroke-linecap:round;stroke-width:2.5;"/>
    </g>
    <g id="line2d_33">
     <path clip-path="url(#p3e9bbf0246)" d="M -1 142.087934 
L -0.432 142.026789 
L 2.916 143.468434 
L 6.264 140.224731 
L 9.612 140.585143 
L 12.96 143.468434 
L 16.308 145.270491 
L 19.656 140.945554 
L 23.004 139.86432 
L 29.7 143.468434 
L 36.396 141.305966 
L 39.744 137.701851 
L 43.092 140.224731 
L 46.44 137.34144 
L 49.788 134.81856 
L 53.136 135.899794 
L 56.484 136.260206 
L 59.832 134.458149 
L 63.18 135.899794 
L 66.528 133.376914 
L 73.224 134.81856 
L 76.572 133.737326 
L 79.92 133.737326 
L 83.268 134.81856 
L 86.616 132.656091 
L 89.964 135.178971 
L 93.312 133.376914 
L 96.66 131.935269 
L 100.008 133.737326 
L 103.356 134.097737 
L 106.704 134.097737 
L 110.052 130.854034 
L 113.4 130.854034 
L 116.748 131.214446 
L 123.444 131.214446 
L 126.792 132.29568 
L 130.14 131.935269 
L 133.488 131.214446 
L 136.836 132.29568 
L 140.184 130.493623 
L 143.532 134.097737 
L 146.88 131.574857 
L 150.228 130.854034 
L 153.576 129.412389 
L 156.924 128.691566 
L 160.272 128.691566 
L 163.62 126.889509 
L 166.968 127.24992 
L 170.316 126.168686 
L 173.664 126.889509 
L 177.012 125.808274 
L 180.36 126.889509 
L 183.708 126.529097 
L 187.056 125.087451 
L 190.404 126.529097 
L 193.752 124.366629 
L 197.1 124.366629 
L 200.448 126.168686 
L 203.796 125.087451 
L 207.144 124.366629 
L 210.492 124.72704 
L 213.84 124.006217 
L 217.188 122.20416 
L 220.536 123.645806 
L 230.58 122.564571 
L 233.928 122.564571 
L 237.276 123.285394 
L 240.624 121.843749 
L 243.972 120.762514 
L 247.32 123.285394 
L 254.016 121.122926 
L 257.364 121.483337 
L 260.712 120.762514 
L 264.06 121.483337 
L 267.408 120.402103 
L 270.756 120.402103 
L 274.104 118.960457 
L 280.8 120.402103 
L 284.148 119.68128 
L 287.496 119.68128 
L 290.844 121.122926 
L 294.192 120.402103 
L 297.54 121.122926 
L 300.888 121.122926 
L 304.236 120.402103 
L 307.584 120.041691 
L 310.932 120.402103 
L 314.28 119.320869 
L 317.628 119.68128 
L 320.976 120.402103 
L 324.324 120.402103 
L 327.672 118.600046 
L 331.02 120.041691 
L 334.368 119.320869 
L 337.716 120.041691 
L 341.064 119.68128 
L 344.412 118.600046 
L 347.76 118.960457 
L 351.108 118.600046 
L 354.456 119.320869 
L 357.804 119.68128 
L 357.804 119.68128 
" style="fill:none;stroke:#ff0000;stroke-linecap:round;stroke-width:2.5;"/>
    </g>
    <g id="line2d_34">
     <path clip-path="url(#p3e9bbf0246)" d="M -1 119.443159 
L -0.432 119.320869 
L 2.916 118.239634 
L 6.264 118.960457 
L 12.96 117.518811 
L 16.308 118.960457 
L 23.004 118.239634 
L 26.352 118.600046 
L 29.7 119.68128 
L 33.048 118.239634 
L 36.396 117.518811 
L 39.744 117.518811 
L 43.092 117.1584 
L 46.44 118.239634 
L 49.788 117.879223 
L 53.136 117.879223 
L 56.484 119.320869 
L 63.18 117.879223 
L 66.528 118.239634 
L 69.876 116.437577 
L 73.224 118.239634 
L 76.572 118.600046 
L 79.92 118.239634 
L 86.616 118.960457 
L 89.964 119.68128 
L 93.312 117.518811 
L 96.66 118.600046 
L 100.008 118.960457 
L 103.356 117.879223 
L 106.704 117.1584 
L 110.052 117.518811 
L 113.4 116.797989 
L 116.748 117.518811 
L 120.096 117.518811 
L 123.444 116.077166 
L 126.792 116.797989 
L 130.14 118.600046 
L 133.488 118.239634 
L 136.836 117.1584 
L 140.184 117.518811 
L 143.532 116.077166 
L 146.88 117.1584 
L 150.228 115.356343 
L 153.576 117.1584 
L 156.924 117.1584 
L 160.272 116.797989 
L 163.62 117.879223 
L 166.968 118.239634 
L 173.664 118.239634 
L 177.012 116.797989 
L 180.36 118.960457 
L 183.708 118.600046 
L 187.056 117.518811 
L 190.404 117.879223 
L 193.752 116.797989 
L 200.448 116.797989 
L 203.796 117.1584 
L 207.144 116.077166 
L 210.492 115.716754 
L 213.84 116.437577 
L 217.188 117.518811 
L 220.536 116.437577 
L 223.884 117.879223 
L 227.232 117.879223 
L 230.58 116.797989 
L 233.928 117.518811 
L 237.276 117.1584 
L 240.624 117.518811 
L 250.668 117.518811 
L 254.016 117.879223 
L 257.364 117.1584 
L 260.712 117.879223 
L 264.06 117.879223 
L 267.408 118.600046 
L 270.756 116.797989 
L 274.104 117.518811 
L 277.452 116.437577 
L 280.8 118.239634 
L 284.148 118.239634 
L 287.496 117.518811 
L 290.844 117.1584 
L 294.192 118.239634 
L 297.54 115.716754 
L 304.236 116.437577 
L 307.584 116.437577 
L 310.932 115.356343 
L 314.28 116.437577 
L 317.628 116.077166 
L 320.976 116.797989 
L 324.324 116.797989 
L 327.672 116.437577 
L 331.02 114.995931 
L 334.368 116.077166 
L 337.716 114.995931 
L 341.064 115.716754 
L 344.412 116.077166 
L 347.76 115.356343 
L 354.456 116.077166 
L 357.804 116.077166 
L 357.804 116.077166 
" style="fill:none;stroke:#bf00bf;stroke-linecap:round;stroke-width:2.5;"/>
    </g>
    <g id="line2d_35">
     <path clip-path="url(#p3e9bbf0246)" d="M -1 112.11264 
L 357.804 112.11264 
L 357.804 112.11264 
" style="fill:none;stroke:#000000;stroke-dasharray:9.25,4;stroke-dashoffset:0;stroke-width:2.5;"/>
    </g>
    <g id="patch_11">
     <path d="M 254.016 155.0016 
L 254.016 104.544 
" style="fill:none;stroke:#ffffff;stroke-linecap:square;stroke-linejoin:miter;stroke-width:1.25;"/>
    </g>
    <g id="patch_12">
     <path d="M 361.152 155.0016 
L 361.152 104.544 
" style="fill:none;stroke:#ffffff;stroke-linecap:square;stroke-linejoin:miter;stroke-width:1.25;"/>
    </g>
    <g id="patch_13">
     <path d="M 254.016 155.0016 
L 361.152 155.0016 
" style="fill:none;stroke:#ffffff;stroke-linecap:square;stroke-linejoin:miter;stroke-width:1.25;"/>
    </g>
    <g id="patch_14">
     <path d="M 254.016 104.544 
L 361.152 104.544 
" style="fill:none;stroke:#ffffff;stroke-linecap:square;stroke-linejoin:miter;stroke-width:1.25;"/>
    </g>
   </g>
   <g id="legend_1">
    <g id="patch_15">
     <path d="M 292.896563 292.440223 
L 407.72 292.440223 
Q 409.72 292.440223 409.72 290.440223 
L 409.72 192.27616 
Q 409.72 190.27616 407.72 190.27616 
L 292.896563 190.27616 
Q 290.896563 190.27616 290.896563 192.27616 
L 290.896563 290.440223 
Q 290.896563 292.440223 292.896563 292.440223 
z
" style="fill:#eaeaf2;opacity:0.8;stroke:#cccccc;stroke-linejoin:miter;"/>
    </g>
    <g id="line2d_36">
     <path d="M 294.896563 197.933972 
L 314.896563 197.933972 
" style="fill:none;stroke:#bfbf00;stroke-linecap:round;stroke-width:2.5;"/>
    </g>
    <g id="line2d_37"/>
    <g id="text_24">
     <!-- 0.2 x vth -->
     <g style="fill:#262626;" transform="translate(322.896563 201.433972)scale(0.1 -0.1)">
      <defs>
       <path d="M 47 0 
L 1259 1725 
L 138 3319 
L 841 3319 
L 1350 2541 
Q 1494 2319 1581 2169 
Q 1719 2375 1834 2534 
L 2394 3319 
L 3066 3319 
L 1919 1756 
L 3153 0 
L 2463 0 
L 1781 1031 
L 1600 1309 
L 728 0 
L 47 0 
z
" id="ArialMT-78" transform="scale(0.015625)"/>
       <path d="M 1344 0 
L 81 3319 
L 675 3319 
L 1388 1331 
Q 1503 1009 1600 663 
Q 1675 925 1809 1294 
L 2547 3319 
L 3125 3319 
L 1869 0 
L 1344 0 
z
" id="ArialMT-76" transform="scale(0.015625)"/>
       <path d="M 422 0 
L 422 4581 
L 984 4581 
L 984 2938 
Q 1378 3394 1978 3394 
Q 2347 3394 2619 3248 
Q 2891 3103 3008 2847 
Q 3125 2591 3125 2103 
L 3125 0 
L 2563 0 
L 2563 2103 
Q 2563 2525 2380 2717 
Q 2197 2909 1863 2909 
Q 1613 2909 1392 2779 
Q 1172 2650 1078 2428 
Q 984 2206 984 1816 
L 984 0 
L 422 0 
z
" id="ArialMT-68" transform="scale(0.015625)"/>
      </defs>
      <use xlink:href="#ArialMT-30"/>
      <use x="55.615234" xlink:href="#ArialMT-2e"/>
      <use x="83.398438" xlink:href="#ArialMT-32"/>
      <use x="139.013672" xlink:href="#ArialMT-20"/>
      <use x="166.796875" xlink:href="#ArialMT-78"/>
      <use x="216.796875" xlink:href="#ArialMT-20"/>
      <use x="244.580078" xlink:href="#ArialMT-76"/>
      <use x="294.580078" xlink:href="#ArialMT-74"/>
      <use x="322.363281" xlink:href="#ArialMT-68"/>
     </g>
    </g>
    <g id="line2d_38">
     <path d="M 294.896563 212.079285 
L 314.896563 212.079285 
" style="fill:none;stroke:#00bfbf;stroke-linecap:round;stroke-width:2.5;"/>
    </g>
    <g id="line2d_39"/>
    <g id="text_25">
     <!-- 0.5 x vth -->
     <g style="fill:#262626;" transform="translate(322.896563 215.579285)scale(0.1 -0.1)">
      <use xlink:href="#ArialMT-30"/>
      <use x="55.615234" xlink:href="#ArialMT-2e"/>
      <use x="83.398438" xlink:href="#ArialMT-35"/>
      <use x="139.013672" xlink:href="#ArialMT-20"/>
      <use x="166.796875" xlink:href="#ArialMT-78"/>
      <use x="216.796875" xlink:href="#ArialMT-20"/>
      <use x="244.580078" xlink:href="#ArialMT-76"/>
      <use x="294.580078" xlink:href="#ArialMT-74"/>
      <use x="322.363281" xlink:href="#ArialMT-68"/>
     </g>
    </g>
    <g id="line2d_40">
     <path d="M 294.896563 226.224597 
L 314.896563 226.224597 
" style="fill:none;stroke:#0000ff;stroke-linecap:round;stroke-width:2.5;"/>
    </g>
    <g id="line2d_41"/>
    <g id="text_26">
     <!-- 0.9 x vth -->
     <g style="fill:#262626;" transform="translate(322.896563 229.724597)scale(0.1 -0.1)">
      <use xlink:href="#ArialMT-30"/>
      <use x="55.615234" xlink:href="#ArialMT-2e"/>
      <use x="83.398438" xlink:href="#ArialMT-39"/>
      <use x="139.013672" xlink:href="#ArialMT-20"/>
      <use x="166.796875" xlink:href="#ArialMT-78"/>
      <use x="216.796875" xlink:href="#ArialMT-20"/>
      <use x="244.580078" xlink:href="#ArialMT-76"/>
      <use x="294.580078" xlink:href="#ArialMT-74"/>
      <use x="322.363281" xlink:href="#ArialMT-68"/>
     </g>
    </g>
    <g id="line2d_42">
     <path d="M 294.896563 240.36991 
L 314.896563 240.36991 
" style="fill:none;stroke:#008000;stroke-linecap:round;stroke-width:2.5;"/>
    </g>
    <g id="line2d_43"/>
    <g id="text_27">
     <!-- With DTT -->
     <g style="fill:#262626;" transform="translate(322.896563 243.86991)scale(0.1 -0.1)">
      <defs>
       <path d="M 1294 0 
L 78 4581 
L 700 4581 
L 1397 1578 
Q 1509 1106 1591 641 
Q 1766 1375 1797 1488 
L 2669 4581 
L 3400 4581 
L 4056 2263 
Q 4303 1400 4413 641 
Q 4500 1075 4641 1638 
L 5359 4581 
L 5969 4581 
L 4713 0 
L 4128 0 
L 3163 3491 
Q 3041 3928 3019 4028 
Q 2947 3713 2884 3491 
L 1913 0 
L 1294 0 
z
" id="ArialMT-57" transform="scale(0.015625)"/>
       <path d="M 494 0 
L 494 4581 
L 2072 4581 
Q 2606 4581 2888 4516 
Q 3281 4425 3559 4188 
Q 3922 3881 4101 3404 
Q 4281 2928 4281 2316 
Q 4281 1794 4159 1391 
Q 4038 988 3847 723 
Q 3656 459 3429 307 
Q 3203 156 2883 78 
Q 2563 0 2147 0 
L 494 0 
z
M 1100 541 
L 2078 541 
Q 2531 541 2789 625 
Q 3047 709 3200 863 
Q 3416 1078 3536 1442 
Q 3656 1806 3656 2325 
Q 3656 3044 3420 3430 
Q 3184 3816 2847 3947 
Q 2603 4041 2063 4041 
L 1100 4041 
L 1100 541 
z
" id="ArialMT-44" transform="scale(0.015625)"/>
      </defs>
      <use xlink:href="#ArialMT-57"/>
      <use x="94.384766" xlink:href="#ArialMT-69"/>
      <use x="116.601562" xlink:href="#ArialMT-74"/>
      <use x="144.384766" xlink:href="#ArialMT-68"/>
      <use x="200" xlink:href="#ArialMT-20"/>
      <use x="227.783203" xlink:href="#ArialMT-44"/>
      <use x="300" xlink:href="#ArialMT-54"/>
      <use x="361.083984" xlink:href="#ArialMT-54"/>
     </g>
    </g>
    <g id="line2d_44">
     <path d="M 294.896563 254.515222 
L 314.896563 254.515222 
" style="fill:none;stroke:#ff0000;stroke-linecap:round;stroke-width:2.5;"/>
    </g>
    <g id="line2d_45"/>
    <g id="text_28">
     <!-- With DET -->
     <g style="fill:#262626;" transform="translate(322.896563 258.015222)scale(0.1 -0.1)">
      <defs>
       <path d="M 506 0 
L 506 4581 
L 3819 4581 
L 3819 4041 
L 1113 4041 
L 1113 2638 
L 3647 2638 
L 3647 2100 
L 1113 2100 
L 1113 541 
L 3925 541 
L 3925 0 
L 506 0 
z
" id="ArialMT-45" transform="scale(0.015625)"/>
      </defs>
      <use xlink:href="#ArialMT-57"/>
      <use x="94.384766" xlink:href="#ArialMT-69"/>
      <use x="116.601562" xlink:href="#ArialMT-74"/>
      <use x="144.384766" xlink:href="#ArialMT-68"/>
      <use x="200" xlink:href="#ArialMT-20"/>
      <use x="227.783203" xlink:href="#ArialMT-44"/>
      <use x="300" xlink:href="#ArialMT-45"/>
      <use x="366.699219" xlink:href="#ArialMT-54"/>
     </g>
    </g>
    <g id="line2d_46">
     <path d="M 294.896563 268.660535 
L 314.896563 268.660535 
" style="fill:none;stroke:#bf00bf;stroke-linecap:round;stroke-width:2.5;"/>
    </g>
    <g id="line2d_47"/>
    <g id="text_29">
     <!-- With DTT DET -->
     <g style="fill:#262626;" transform="translate(322.896563 272.160535)scale(0.1 -0.1)">
      <use xlink:href="#ArialMT-57"/>
      <use x="94.384766" xlink:href="#ArialMT-69"/>
      <use x="116.601562" xlink:href="#ArialMT-74"/>
      <use x="144.384766" xlink:href="#ArialMT-68"/>
      <use x="200" xlink:href="#ArialMT-20"/>
      <use x="227.783203" xlink:href="#ArialMT-44"/>
      <use x="300" xlink:href="#ArialMT-54"/>
      <use x="361.083984" xlink:href="#ArialMT-54"/>
      <use x="420.417969" xlink:href="#ArialMT-20"/>
      <use x="448.201172" xlink:href="#ArialMT-44"/>
      <use x="520.417969" xlink:href="#ArialMT-45"/>
      <use x="587.117188" xlink:href="#ArialMT-54"/>
     </g>
    </g>
    <g id="line2d_48">
     <path d="M 294.896563 282.835535 
L 314.896563 282.835535 
" style="fill:none;stroke:#000000;stroke-dasharray:9.25,4;stroke-dashoffset:0;stroke-width:2.5;"/>
    </g>
    <g id="line2d_49"/>
    <g id="text_30">
     <!-- Target Acc: 0.8069 -->
     <g style="fill:#262626;" transform="translate(322.896563 286.335535)scale(0.1 -0.1)">
      <defs>
       <path d="M 2588 409 
Q 2275 144 1986 34 
Q 1697 -75 1366 -75 
Q 819 -75 525 192 
Q 231 459 231 875 
Q 231 1119 342 1320 
Q 453 1522 633 1644 
Q 813 1766 1038 1828 
Q 1203 1872 1538 1913 
Q 2219 1994 2541 2106 
Q 2544 2222 2544 2253 
Q 2544 2597 2384 2738 
Q 2169 2928 1744 2928 
Q 1347 2928 1158 2789 
Q 969 2650 878 2297 
L 328 2372 
Q 403 2725 575 2942 
Q 747 3159 1072 3276 
Q 1397 3394 1825 3394 
Q 2250 3394 2515 3294 
Q 2781 3194 2906 3042 
Q 3031 2891 3081 2659 
Q 3109 2516 3109 2141 
L 3109 1391 
Q 3109 606 3145 398 
Q 3181 191 3288 0 
L 2700 0 
Q 2613 175 2588 409 
z
M 2541 1666 
Q 2234 1541 1622 1453 
Q 1275 1403 1131 1340 
Q 988 1278 909 1158 
Q 831 1038 831 891 
Q 831 666 1001 516 
Q 1172 366 1500 366 
Q 1825 366 2078 508 
Q 2331 650 2450 897 
Q 2541 1088 2541 1459 
L 2541 1666 
z
" id="ArialMT-61" transform="scale(0.015625)"/>
       <path d="M 416 0 
L 416 3319 
L 922 3319 
L 922 2816 
Q 1116 3169 1280 3281 
Q 1444 3394 1641 3394 
Q 1925 3394 2219 3213 
L 2025 2691 
Q 1819 2813 1613 2813 
Q 1428 2813 1281 2702 
Q 1134 2591 1072 2394 
Q 978 2094 978 1738 
L 978 0 
L 416 0 
z
" id="ArialMT-72" transform="scale(0.015625)"/>
       <path d="M 319 -275 
L 866 -356 
Q 900 -609 1056 -725 
Q 1266 -881 1628 -881 
Q 2019 -881 2231 -725 
Q 2444 -569 2519 -288 
Q 2563 -116 2559 434 
Q 2191 0 1641 0 
Q 956 0 581 494 
Q 206 988 206 1678 
Q 206 2153 378 2554 
Q 550 2956 876 3175 
Q 1203 3394 1644 3394 
Q 2231 3394 2613 2919 
L 2613 3319 
L 3131 3319 
L 3131 450 
Q 3131 -325 2973 -648 
Q 2816 -972 2473 -1159 
Q 2131 -1347 1631 -1347 
Q 1038 -1347 672 -1080 
Q 306 -813 319 -275 
z
M 784 1719 
Q 784 1066 1043 766 
Q 1303 466 1694 466 
Q 2081 466 2343 764 
Q 2606 1063 2606 1700 
Q 2606 2309 2336 2618 
Q 2066 2928 1684 2928 
Q 1309 2928 1046 2623 
Q 784 2319 784 1719 
z
" id="ArialMT-67" transform="scale(0.015625)"/>
       <path d="M 578 2678 
L 578 3319 
L 1219 3319 
L 1219 2678 
L 578 2678 
z
M 578 0 
L 578 641 
L 1219 641 
L 1219 0 
L 578 0 
z
" id="ArialMT-3a" transform="scale(0.015625)"/>
      </defs>
      <use xlink:href="#ArialMT-54"/>
      <use x="49.958984" xlink:href="#ArialMT-61"/>
      <use x="105.574219" xlink:href="#ArialMT-72"/>
      <use x="138.875" xlink:href="#ArialMT-67"/>
      <use x="194.490234" xlink:href="#ArialMT-65"/>
      <use x="250.105469" xlink:href="#ArialMT-74"/>
      <use x="277.888672" xlink:href="#ArialMT-20"/>
      <use x="300.171875" xlink:href="#ArialMT-41"/>
      <use x="366.871094" xlink:href="#ArialMT-63"/>
      <use x="416.871094" xlink:href="#ArialMT-63"/>
      <use x="466.871094" xlink:href="#ArialMT-3a"/>
      <use x="494.654297" xlink:href="#ArialMT-20"/>
      <use x="522.4375" xlink:href="#ArialMT-30"/>
      <use x="578.052734" xlink:href="#ArialMT-2e"/>
      <use x="605.835938" xlink:href="#ArialMT-38"/>
      <use x="661.451172" xlink:href="#ArialMT-30"/>
      <use x="717.066406" xlink:href="#ArialMT-36"/>
      <use x="772.681641" xlink:href="#ArialMT-39"/>
     </g>
    </g>
   </g>
  </g>
 </g>
 <defs>
  <clipPath id="p8ba73617fd">
   <rect height="252.288" width="357.12" x="57.6" y="41.472"/>
  </clipPath>
  <clipPath id="p3e9bbf0246">
   <rect height="50.4576" width="107.136" x="254.016" y="104.544"/>
  </clipPath>
 </defs>
</svg>
