<?xml version="1.0" encoding="utf-8" standalone="no"?>
<!DOCTYPE svg PUBLIC "-//W3C//DTD SVG 1.1//EN"
  "http://www.w3.org/Graphics/SVG/1.1/DTD/svg11.dtd">
<svg height="345.6pt" version="1.1" viewBox="0 0 460.8 345.6" width="460.8pt" xmlns="http://www.w3.org/2000/svg" xmlns:xlink="http://www.w3.org/1999/xlink">
 <metadata>
  <rdf:RDF xmlns:cc="http://creativecommons.org/ns#" xmlns:dc="http://purl.org/dc/elements/1.1/" xmlns:rdf="http://www.w3.org/1999/02/22-rdf-syntax-ns#">
   <cc:Work>
    <dc:type rdf:resource="http://purl.org/dc/dcmitype/StillImage"/>
    <dc:date>2022-08-03T21:12:54.775630</dc:date>
    <dc:format>image/svg+xml</dc:format>
    <dc:creator>
     <cc:Agent>
      <dc:title>Matplotlib v3.4.1, https://matplotlib.org/</dc:title>
     </cc:Agent>
    </dc:creator>
   </cc:Work>
  </rdf:RDF>
 </metadata>
 <defs>
  <style type="text/css">*{stroke-linecap:butt;stroke-linejoin:round;}</style>
 </defs>
 <g id="figure_1">
  <g id="patch_1">
   <path d="M 0 345.6 
L 460.8 345.6 
L 460.8 0 
L 0 0 
z
" style="fill:#ffffff;"/>
  </g>
  <g id="axes_1">
   <g id="patch_2">
    <path d="M 57.6 293.76 
L 414.72 293.76 
L 414.72 41.472 
L 57.6 41.472 
z
" style="fill:#eaeaf2;"/>
   </g>
   <g id="matplotlib.axis_1">
    <g id="xtick_1">
     <g id="line2d_1">
      <path clip-path="url(#pbba1db492e)" d="M 57.6 293.76 
L 57.6 41.472 
" style="fill:none;stroke:#ffffff;stroke-linecap:round;"/>
     </g>
     <g id="text_1">
      <!-- 0 -->
      <g style="fill:#262626;" transform="translate(53.429297 313.996719)scale(0.15 -0.15)">
       <defs>
        <path d="M 266 2259 
Q 266 3072 433 3567 
Q 600 4063 929 4331 
Q 1259 4600 1759 4600 
Q 2128 4600 2406 4451 
Q 2684 4303 2865 4023 
Q 3047 3744 3150 3342 
Q 3253 2941 3253 2259 
Q 3253 1453 3087 958 
Q 2922 463 2592 192 
Q 2263 -78 1759 -78 
Q 1097 -78 719 397 
Q 266 969 266 2259 
z
M 844 2259 
Q 844 1131 1108 757 
Q 1372 384 1759 384 
Q 2147 384 2411 759 
Q 2675 1134 2675 2259 
Q 2675 3391 2411 3762 
Q 2147 4134 1753 4134 
Q 1366 4134 1134 3806 
Q 844 3388 844 2259 
z
" id="ArialMT-30" transform="scale(0.015625)"/>
       </defs>
       <use xlink:href="#ArialMT-30"/>
      </g>
     </g>
    </g>
    <g id="xtick_2">
     <g id="line2d_2">
      <path clip-path="url(#pbba1db492e)" d="M 127.35 293.76 
L 127.35 41.472 
" style="fill:none;stroke:#ffffff;stroke-linecap:round;"/>
     </g>
     <g id="text_2">
      <!-- 50 -->
      <g style="fill:#262626;" transform="translate(119.008594 313.996719)scale(0.15 -0.15)">
       <defs>
        <path d="M 266 1200 
L 856 1250 
Q 922 819 1161 601 
Q 1400 384 1738 384 
Q 2144 384 2425 690 
Q 2706 997 2706 1503 
Q 2706 1984 2436 2262 
Q 2166 2541 1728 2541 
Q 1456 2541 1237 2417 
Q 1019 2294 894 2097 
L 366 2166 
L 809 4519 
L 3088 4519 
L 3088 3981 
L 1259 3981 
L 1013 2750 
Q 1425 3038 1878 3038 
Q 2478 3038 2890 2622 
Q 3303 2206 3303 1553 
Q 3303 931 2941 478 
Q 2500 -78 1738 -78 
Q 1113 -78 717 272 
Q 322 622 266 1200 
z
" id="ArialMT-35" transform="scale(0.015625)"/>
       </defs>
       <use xlink:href="#ArialMT-35"/>
       <use x="55.615234" xlink:href="#ArialMT-30"/>
      </g>
     </g>
    </g>
    <g id="xtick_3">
     <g id="line2d_3">
      <path clip-path="url(#pbba1db492e)" d="M 197.1 293.76 
L 197.1 41.472 
" style="fill:none;stroke:#ffffff;stroke-linecap:round;"/>
     </g>
     <g id="text_3">
      <!-- 100 -->
      <g style="fill:#262626;" transform="translate(184.587891 313.996719)scale(0.15 -0.15)">
       <defs>
        <path d="M 2384 0 
L 1822 0 
L 1822 3584 
Q 1619 3391 1289 3197 
Q 959 3003 697 2906 
L 697 3450 
Q 1169 3672 1522 3987 
Q 1875 4303 2022 4600 
L 2384 4600 
L 2384 0 
z
" id="ArialMT-31" transform="scale(0.015625)"/>
       </defs>
       <use xlink:href="#ArialMT-31"/>
       <use x="55.615234" xlink:href="#ArialMT-30"/>
       <use x="111.230469" xlink:href="#ArialMT-30"/>
      </g>
     </g>
    </g>
    <g id="xtick_4">
     <g id="line2d_4">
      <path clip-path="url(#pbba1db492e)" d="M 266.85 293.76 
L 266.85 41.472 
" style="fill:none;stroke:#ffffff;stroke-linecap:round;"/>
     </g>
     <g id="text_4">
      <!-- 150 -->
      <g style="fill:#262626;" transform="translate(254.337891 313.996719)scale(0.15 -0.15)">
       <use xlink:href="#ArialMT-31"/>
       <use x="55.615234" xlink:href="#ArialMT-35"/>
       <use x="111.230469" xlink:href="#ArialMT-30"/>
      </g>
     </g>
    </g>
    <g id="xtick_5">
     <g id="line2d_5">
      <path clip-path="url(#pbba1db492e)" d="M 336.6 293.76 
L 336.6 41.472 
" style="fill:none;stroke:#ffffff;stroke-linecap:round;"/>
     </g>
     <g id="text_5">
      <!-- 200 -->
      <g style="fill:#262626;" transform="translate(324.087891 313.996719)scale(0.15 -0.15)">
       <defs>
        <path d="M 3222 541 
L 3222 0 
L 194 0 
Q 188 203 259 391 
Q 375 700 629 1000 
Q 884 1300 1366 1694 
Q 2113 2306 2375 2664 
Q 2638 3022 2638 3341 
Q 2638 3675 2398 3904 
Q 2159 4134 1775 4134 
Q 1369 4134 1125 3890 
Q 881 3647 878 3216 
L 300 3275 
Q 359 3922 746 4261 
Q 1134 4600 1788 4600 
Q 2447 4600 2831 4234 
Q 3216 3869 3216 3328 
Q 3216 3053 3103 2787 
Q 2991 2522 2730 2228 
Q 2469 1934 1863 1422 
Q 1356 997 1212 845 
Q 1069 694 975 541 
L 3222 541 
z
" id="ArialMT-32" transform="scale(0.015625)"/>
       </defs>
       <use xlink:href="#ArialMT-32"/>
       <use x="55.615234" xlink:href="#ArialMT-30"/>
       <use x="111.230469" xlink:href="#ArialMT-30"/>
      </g>
     </g>
    </g>
    <g id="xtick_6">
     <g id="line2d_6">
      <path clip-path="url(#pbba1db492e)" d="M 406.35 293.76 
L 406.35 41.472 
" style="fill:none;stroke:#ffffff;stroke-linecap:round;"/>
     </g>
     <g id="text_6">
      <!-- 250 -->
      <g style="fill:#262626;" transform="translate(393.837891 313.996719)scale(0.15 -0.15)">
       <use xlink:href="#ArialMT-32"/>
       <use x="55.615234" xlink:href="#ArialMT-35"/>
       <use x="111.230469" xlink:href="#ArialMT-30"/>
      </g>
     </g>
    </g>
    <g id="text_7">
     <!-- Time Step -->
     <g style="fill:#262626;" transform="translate(202.264688 331.8975)scale(0.15 -0.15)">
      <defs>
       <path d="M 1659 0 
L 1659 4041 
L 150 4041 
L 150 4581 
L 3781 4581 
L 3781 4041 
L 2266 4041 
L 2266 0 
L 1659 0 
z
" id="ArialMT-54" transform="scale(0.015625)"/>
       <path d="M 425 3934 
L 425 4581 
L 988 4581 
L 988 3934 
L 425 3934 
z
M 425 0 
L 425 3319 
L 988 3319 
L 988 0 
L 425 0 
z
" id="ArialMT-69" transform="scale(0.015625)"/>
       <path d="M 422 0 
L 422 3319 
L 925 3319 
L 925 2853 
Q 1081 3097 1340 3245 
Q 1600 3394 1931 3394 
Q 2300 3394 2536 3241 
Q 2772 3088 2869 2813 
Q 3263 3394 3894 3394 
Q 4388 3394 4653 3120 
Q 4919 2847 4919 2278 
L 4919 0 
L 4359 0 
L 4359 2091 
Q 4359 2428 4304 2576 
Q 4250 2725 4106 2815 
Q 3963 2906 3769 2906 
Q 3419 2906 3187 2673 
Q 2956 2441 2956 1928 
L 2956 0 
L 2394 0 
L 2394 2156 
Q 2394 2531 2256 2718 
Q 2119 2906 1806 2906 
Q 1569 2906 1367 2781 
Q 1166 2656 1075 2415 
Q 984 2175 984 1722 
L 984 0 
L 422 0 
z
" id="ArialMT-6d" transform="scale(0.015625)"/>
       <path d="M 2694 1069 
L 3275 997 
Q 3138 488 2766 206 
Q 2394 -75 1816 -75 
Q 1088 -75 661 373 
Q 234 822 234 1631 
Q 234 2469 665 2931 
Q 1097 3394 1784 3394 
Q 2450 3394 2872 2941 
Q 3294 2488 3294 1666 
Q 3294 1616 3291 1516 
L 816 1516 
Q 847 969 1125 678 
Q 1403 388 1819 388 
Q 2128 388 2347 550 
Q 2566 713 2694 1069 
z
M 847 1978 
L 2700 1978 
Q 2663 2397 2488 2606 
Q 2219 2931 1791 2931 
Q 1403 2931 1139 2672 
Q 875 2413 847 1978 
z
" id="ArialMT-65" transform="scale(0.015625)"/>
       <path id="ArialMT-20" transform="scale(0.015625)"/>
       <path d="M 288 1472 
L 859 1522 
Q 900 1178 1048 958 
Q 1197 738 1509 602 
Q 1822 466 2213 466 
Q 2559 466 2825 569 
Q 3091 672 3220 851 
Q 3350 1031 3350 1244 
Q 3350 1459 3225 1620 
Q 3100 1781 2813 1891 
Q 2628 1963 1997 2114 
Q 1366 2266 1113 2400 
Q 784 2572 623 2826 
Q 463 3081 463 3397 
Q 463 3744 659 4045 
Q 856 4347 1234 4503 
Q 1613 4659 2075 4659 
Q 2584 4659 2973 4495 
Q 3363 4331 3572 4012 
Q 3781 3694 3797 3291 
L 3216 3247 
Q 3169 3681 2898 3903 
Q 2628 4125 2100 4125 
Q 1550 4125 1298 3923 
Q 1047 3722 1047 3438 
Q 1047 3191 1225 3031 
Q 1400 2872 2139 2705 
Q 2878 2538 3153 2413 
Q 3553 2228 3743 1945 
Q 3934 1663 3934 1294 
Q 3934 928 3725 604 
Q 3516 281 3123 101 
Q 2731 -78 2241 -78 
Q 1619 -78 1198 103 
Q 778 284 539 648 
Q 300 1013 288 1472 
z
" id="ArialMT-53" transform="scale(0.015625)"/>
       <path d="M 1650 503 
L 1731 6 
Q 1494 -44 1306 -44 
Q 1000 -44 831 53 
Q 663 150 594 308 
Q 525 466 525 972 
L 525 2881 
L 113 2881 
L 113 3319 
L 525 3319 
L 525 4141 
L 1084 4478 
L 1084 3319 
L 1650 3319 
L 1650 2881 
L 1084 2881 
L 1084 941 
Q 1084 700 1114 631 
Q 1144 563 1211 522 
Q 1278 481 1403 481 
Q 1497 481 1650 503 
z
" id="ArialMT-74" transform="scale(0.015625)"/>
       <path d="M 422 -1272 
L 422 3319 
L 934 3319 
L 934 2888 
Q 1116 3141 1344 3267 
Q 1572 3394 1897 3394 
Q 2322 3394 2647 3175 
Q 2972 2956 3137 2557 
Q 3303 2159 3303 1684 
Q 3303 1175 3120 767 
Q 2938 359 2589 142 
Q 2241 -75 1856 -75 
Q 1575 -75 1351 44 
Q 1128 163 984 344 
L 984 -1272 
L 422 -1272 
z
M 931 1641 
Q 931 1000 1190 694 
Q 1450 388 1819 388 
Q 2194 388 2461 705 
Q 2728 1022 2728 1688 
Q 2728 2322 2467 2637 
Q 2206 2953 1844 2953 
Q 1484 2953 1207 2617 
Q 931 2281 931 1641 
z
" id="ArialMT-70" transform="scale(0.015625)"/>
      </defs>
      <use xlink:href="#ArialMT-54"/>
      <use x="57.333984" xlink:href="#ArialMT-69"/>
      <use x="79.550781" xlink:href="#ArialMT-6d"/>
      <use x="162.851562" xlink:href="#ArialMT-65"/>
      <use x="218.466797" xlink:href="#ArialMT-20"/>
      <use x="246.25" xlink:href="#ArialMT-53"/>
      <use x="312.949219" xlink:href="#ArialMT-74"/>
      <use x="340.732422" xlink:href="#ArialMT-65"/>
      <use x="396.347656" xlink:href="#ArialMT-70"/>
     </g>
    </g>
   </g>
   <g id="matplotlib.axis_2">
    <g id="ytick_1">
     <g id="line2d_7">
      <path clip-path="url(#pbba1db492e)" d="M 57.6 293.76 
L 414.72 293.76 
" style="fill:none;stroke:#ffffff;stroke-linecap:round;"/>
     </g>
     <g id="text_8">
      <!-- 0.0 -->
      <g style="fill:#262626;" transform="translate(27.25 299.128359)scale(0.15 -0.15)">
       <defs>
        <path d="M 581 0 
L 581 641 
L 1222 641 
L 1222 0 
L 581 0 
z
" id="ArialMT-2e" transform="scale(0.015625)"/>
       </defs>
       <use xlink:href="#ArialMT-30"/>
       <use x="55.615234" xlink:href="#ArialMT-2e"/>
       <use x="83.398438" xlink:href="#ArialMT-30"/>
      </g>
     </g>
    </g>
    <g id="ytick_2">
     <g id="line2d_8">
      <path clip-path="url(#pbba1db492e)" d="M 57.6 243.3024 
L 414.72 243.3024 
" style="fill:none;stroke:#ffffff;stroke-linecap:round;"/>
     </g>
     <g id="text_9">
      <!-- 0.2 -->
      <g style="fill:#262626;" transform="translate(27.25 248.670759)scale(0.15 -0.15)">
       <use xlink:href="#ArialMT-30"/>
       <use x="55.615234" xlink:href="#ArialMT-2e"/>
       <use x="83.398438" xlink:href="#ArialMT-32"/>
      </g>
     </g>
    </g>
    <g id="ytick_3">
     <g id="line2d_9">
      <path clip-path="url(#pbba1db492e)" d="M 57.6 192.8448 
L 414.72 192.8448 
" style="fill:none;stroke:#ffffff;stroke-linecap:round;"/>
     </g>
     <g id="text_10">
      <!-- 0.4 -->
      <g style="fill:#262626;" transform="translate(27.25 198.213159)scale(0.15 -0.15)">
       <defs>
        <path d="M 2069 0 
L 2069 1097 
L 81 1097 
L 81 1613 
L 2172 4581 
L 2631 4581 
L 2631 1613 
L 3250 1613 
L 3250 1097 
L 2631 1097 
L 2631 0 
L 2069 0 
z
M 2069 1613 
L 2069 3678 
L 634 1613 
L 2069 1613 
z
" id="ArialMT-34" transform="scale(0.015625)"/>
       </defs>
       <use xlink:href="#ArialMT-30"/>
       <use x="55.615234" xlink:href="#ArialMT-2e"/>
       <use x="83.398438" xlink:href="#ArialMT-34"/>
      </g>
     </g>
    </g>
    <g id="ytick_4">
     <g id="line2d_10">
      <path clip-path="url(#pbba1db492e)" d="M 57.6 142.3872 
L 414.72 142.3872 
" style="fill:none;stroke:#ffffff;stroke-linecap:round;"/>
     </g>
     <g id="text_11">
      <!-- 0.6 -->
      <g style="fill:#262626;" transform="translate(27.25 147.755559)scale(0.15 -0.15)">
       <defs>
        <path d="M 3184 3459 
L 2625 3416 
Q 2550 3747 2413 3897 
Q 2184 4138 1850 4138 
Q 1581 4138 1378 3988 
Q 1113 3794 959 3422 
Q 806 3050 800 2363 
Q 1003 2672 1297 2822 
Q 1591 2972 1913 2972 
Q 2475 2972 2870 2558 
Q 3266 2144 3266 1488 
Q 3266 1056 3080 686 
Q 2894 316 2569 119 
Q 2244 -78 1831 -78 
Q 1128 -78 684 439 
Q 241 956 241 2144 
Q 241 3472 731 4075 
Q 1159 4600 1884 4600 
Q 2425 4600 2770 4297 
Q 3116 3994 3184 3459 
z
M 888 1484 
Q 888 1194 1011 928 
Q 1134 663 1356 523 
Q 1578 384 1822 384 
Q 2178 384 2434 671 
Q 2691 959 2691 1453 
Q 2691 1928 2437 2201 
Q 2184 2475 1800 2475 
Q 1419 2475 1153 2201 
Q 888 1928 888 1484 
z
" id="ArialMT-36" transform="scale(0.015625)"/>
       </defs>
       <use xlink:href="#ArialMT-30"/>
       <use x="55.615234" xlink:href="#ArialMT-2e"/>
       <use x="83.398438" xlink:href="#ArialMT-36"/>
      </g>
     </g>
    </g>
    <g id="ytick_5">
     <g id="line2d_11">
      <path clip-path="url(#pbba1db492e)" d="M 57.6 91.9296 
L 414.72 91.9296 
" style="fill:none;stroke:#ffffff;stroke-linecap:round;"/>
     </g>
     <g id="text_12">
      <!-- 0.8 -->
      <g style="fill:#262626;" transform="translate(27.25 97.297959)scale(0.15 -0.15)">
       <defs>
        <path d="M 1131 2484 
Q 781 2613 612 2850 
Q 444 3088 444 3419 
Q 444 3919 803 4259 
Q 1163 4600 1759 4600 
Q 2359 4600 2725 4251 
Q 3091 3903 3091 3403 
Q 3091 3084 2923 2848 
Q 2756 2613 2416 2484 
Q 2838 2347 3058 2040 
Q 3278 1734 3278 1309 
Q 3278 722 2862 322 
Q 2447 -78 1769 -78 
Q 1091 -78 675 323 
Q 259 725 259 1325 
Q 259 1772 486 2073 
Q 713 2375 1131 2484 
z
M 1019 3438 
Q 1019 3113 1228 2906 
Q 1438 2700 1772 2700 
Q 2097 2700 2305 2904 
Q 2513 3109 2513 3406 
Q 2513 3716 2298 3927 
Q 2084 4138 1766 4138 
Q 1444 4138 1231 3931 
Q 1019 3725 1019 3438 
z
M 838 1322 
Q 838 1081 952 856 
Q 1066 631 1291 507 
Q 1516 384 1775 384 
Q 2178 384 2440 643 
Q 2703 903 2703 1303 
Q 2703 1709 2433 1975 
Q 2163 2241 1756 2241 
Q 1359 2241 1098 1978 
Q 838 1716 838 1322 
z
" id="ArialMT-38" transform="scale(0.015625)"/>
       </defs>
       <use xlink:href="#ArialMT-30"/>
       <use x="55.615234" xlink:href="#ArialMT-2e"/>
       <use x="83.398438" xlink:href="#ArialMT-38"/>
      </g>
     </g>
    </g>
    <g id="ytick_6">
     <g id="line2d_12">
      <path clip-path="url(#pbba1db492e)" d="M 57.6 41.472 
L 414.72 41.472 
" style="fill:none;stroke:#ffffff;stroke-linecap:round;"/>
     </g>
     <g id="text_13">
      <!-- 1.0 -->
      <g style="fill:#262626;" transform="translate(27.25 46.840359)scale(0.15 -0.15)">
       <use xlink:href="#ArialMT-31"/>
       <use x="55.615234" xlink:href="#ArialMT-2e"/>
       <use x="83.398438" xlink:href="#ArialMT-30"/>
      </g>
     </g>
    </g>
    <g id="text_14">
     <!-- Top-1 Acc -->
     <g style="fill:#262626;" transform="translate(19.6725 207.131625)rotate(-90)scale(0.18 -0.18)">
      <defs>
       <path d="M 213 1659 
Q 213 2581 725 3025 
Q 1153 3394 1769 3394 
Q 2453 3394 2887 2945 
Q 3322 2497 3322 1706 
Q 3322 1066 3130 698 
Q 2938 331 2570 128 
Q 2203 -75 1769 -75 
Q 1072 -75 642 372 
Q 213 819 213 1659 
z
M 791 1659 
Q 791 1022 1069 705 
Q 1347 388 1769 388 
Q 2188 388 2466 706 
Q 2744 1025 2744 1678 
Q 2744 2294 2464 2611 
Q 2184 2928 1769 2928 
Q 1347 2928 1069 2612 
Q 791 2297 791 1659 
z
" id="ArialMT-6f" transform="scale(0.015625)"/>
       <path d="M 203 1375 
L 203 1941 
L 1931 1941 
L 1931 1375 
L 203 1375 
z
" id="ArialMT-2d" transform="scale(0.015625)"/>
       <path d="M -9 0 
L 1750 4581 
L 2403 4581 
L 4278 0 
L 3588 0 
L 3053 1388 
L 1138 1388 
L 634 0 
L -9 0 
z
M 1313 1881 
L 2866 1881 
L 2388 3150 
Q 2169 3728 2063 4100 
Q 1975 3659 1816 3225 
L 1313 1881 
z
" id="ArialMT-41" transform="scale(0.015625)"/>
       <path d="M 2588 1216 
L 3141 1144 
Q 3050 572 2676 248 
Q 2303 -75 1759 -75 
Q 1078 -75 664 370 
Q 250 816 250 1647 
Q 250 2184 428 2587 
Q 606 2991 970 3192 
Q 1334 3394 1763 3394 
Q 2303 3394 2647 3120 
Q 2991 2847 3088 2344 
L 2541 2259 
Q 2463 2594 2264 2762 
Q 2066 2931 1784 2931 
Q 1359 2931 1093 2626 
Q 828 2322 828 1663 
Q 828 994 1084 691 
Q 1341 388 1753 388 
Q 2084 388 2306 591 
Q 2528 794 2588 1216 
z
" id="ArialMT-63" transform="scale(0.015625)"/>
      </defs>
      <use xlink:href="#ArialMT-54"/>
      <use x="49.958984" xlink:href="#ArialMT-6f"/>
      <use x="105.574219" xlink:href="#ArialMT-70"/>
      <use x="161.189453" xlink:href="#ArialMT-2d"/>
      <use x="194.490234" xlink:href="#ArialMT-31"/>
      <use x="250.105469" xlink:href="#ArialMT-20"/>
      <use x="272.388672" xlink:href="#ArialMT-41"/>
      <use x="339.087891" xlink:href="#ArialMT-63"/>
      <use x="389.087891" xlink:href="#ArialMT-63"/>
     </g>
    </g>
   </g>
   <g id="line2d_13">
    <path clip-path="url(#pbba1db492e)" d="M 57.6 268.5312 
L 61.785 268.5312 
L 63.18 267.219302 
L 64.575 261.113933 
L 65.97 243.655603 
L 67.365 222.05975 
L 68.76 213.406272 
L 70.155 203.239066 
L 71.55 190.019174 
L 72.945 175.588301 
L 74.34 163.352333 
L 77.13 143.244979 
L 78.525 135.045619 
L 79.92 128.233843 
L 81.315 122.128474 
L 84.105 112.036954 
L 86.895 105.527923 
L 89.685 100.305562 
L 93.87 93.998362 
L 95.265 92.181888 
L 96.66 91.046592 
L 99.45 88.473254 
L 106.425 83.93207 
L 107.82 83.200435 
L 109.215 82.342656 
L 112.005 81.156902 
L 113.4 80.475725 
L 114.795 80.248666 
L 118.98 79.11337 
L 120.375 78.558336 
L 121.77 78.306048 
L 123.165 77.902387 
L 125.955 77.448269 
L 127.35 77.095066 
L 130.14 76.741862 
L 131.535 76.36343 
L 132.93 76.287744 
L 134.325 75.884083 
L 137.115 75.556109 
L 138.51 75.127219 
L 139.905 74.950618 
L 141.3 74.925389 
L 145.485 74.168525 
L 148.275 73.865779 
L 155.25 73.184602 
L 156.645 72.932314 
L 159.435 72.831398 
L 160.83 72.629568 
L 165.015 72.402509 
L 166.41 72.049306 
L 167.805 72.024077 
L 169.2 71.847475 
L 170.595 71.872704 
L 173.385 71.670874 
L 174.78 71.645645 
L 177.57 71.443814 
L 178.965 71.443814 
L 180.36 71.241984 
L 181.755 71.191526 
L 183.15 71.342899 
L 184.545 71.11584 
L 187.335 71.040154 
L 198.495 70.68695 
L 201.285 70.762637 
L 204.075 70.434662 
L 212.445 70.358976 
L 213.84 70.232832 
L 216.63 70.28329 
L 227.79 69.8544 
L 229.185 70.005773 
L 233.37 69.65257 
L 237.555 69.551654 
L 238.95 69.42551 
L 240.345 69.475968 
L 243.135 69.349824 
L 244.53 69.450739 
L 247.32 69.349824 
L 251.505 69.324595 
L 252.9 69.173222 
L 257.085 69.122765 
L 259.875 69.072307 
L 272.43 68.769562 
L 273.825 68.668646 
L 275.22 68.693875 
L 276.615 68.567731 
L 279.405 68.59296 
L 284.985 68.492045 
L 293.355 68.416358 
L 297.54 68.290214 
L 303.12 68.39113 
L 305.91 68.264986 
L 308.7 68.340672 
L 328.23 68.063155 
L 331.02 68.063155 
L 333.81 68.012698 
L 335.205 68.063155 
L 337.995 67.911782 
L 354.735 67.836096 
L 358.92 67.709952 
L 364.5 67.709952 
L 367.29 67.709952 
L 370.08 67.735181 
L 374.265 67.659494 
L 377.055 67.634266 
L 382.635 67.634266 
L 402.165 67.583808 
L 403.56 67.482893 
L 409.14 67.508122 
L 413.325 67.508122 
L 413.325 67.508122 
" style="fill:none;stroke:#bfbf00;stroke-linecap:round;stroke-width:2.5;"/>
   </g>
   <g id="line2d_14">
    <path clip-path="url(#pbba1db492e)" d="M 57.6 268.5312 
L 68.76 268.556429 
L 70.155 268.253683 
L 71.55 257.985562 
L 75.735 157.650624 
L 77.13 130.756723 
L 78.525 110.926886 
L 79.92 97.984512 
L 81.315 89.103974 
L 82.71 82.721088 
L 84.105 77.877158 
L 85.5 73.966694 
L 86.895 70.863552 
L 88.29 68.416358 
L 91.08 64.581581 
L 92.475 63.496742 
L 93.87 62.235302 
L 95.265 61.22615 
L 96.66 60.696346 
L 98.055 59.712422 
L 103.635 57.012941 
L 105.03 56.760653 
L 106.425 56.356992 
L 107.82 56.230848 
L 112.005 55.196467 
L 113.4 54.969408 
L 116.19 54.263002 
L 117.585 54.28823 
L 124.56 53.682739 
L 125.955 53.45568 
L 127.35 53.354765 
L 128.745 53.052019 
L 141.3 52.774502 
L 142.695 52.597901 
L 145.485 52.572672 
L 146.88 52.320384 
L 148.275 52.345613 
L 149.67 52.169011 
L 158.04 52.017638 
L 159.435 51.790579 
L 165.015 51.790579 
L 169.2 51.689664 
L 173.385 51.639206 
L 181.755 51.538291 
L 187.335 51.513062 
L 188.73 51.613978 
L 194.31 51.588749 
L 197.1 51.588749 
L 205.47 51.36169 
L 206.865 51.437376 
L 211.05 51.286003 
L 213.84 51.260774 
L 216.63 51.311232 
L 219.42 51.286003 
L 220.815 51.386918 
L 225 51.260774 
L 236.16 51.159859 
L 241.74 51.159859 
L 258.48 51.13463 
L 261.27 51.033715 
L 265.455 50.9328 
L 268.245 50.983258 
L 275.22 50.958029 
L 339.39 50.857114 
L 344.97 50.806656 
L 347.76 50.882342 
L 350.55 50.882342 
L 353.34 50.831885 
L 356.13 50.9328 
L 363.105 50.882342 
L 367.29 50.907571 
L 370.08 50.882342 
L 372.87 50.857114 
L 379.845 50.831885 
L 413.325 50.806656 
L 413.325 50.806656 
" style="fill:none;stroke:#00bfbf;stroke-linecap:round;stroke-width:2.5;"/>
   </g>
   <g id="line2d_15">
    <path clip-path="url(#pbba1db492e)" d="M 57.6 268.5312 
L 75.735 268.505971 
L 77.13 268.405056 
L 78.525 268.051853 
L 79.92 265.907405 
L 81.315 261.366221 
L 82.71 251.602675 
L 84.105 234.875981 
L 88.29 177.631834 
L 89.685 160.400563 
L 92.475 129.697114 
L 93.87 119.227162 
L 95.265 109.640218 
L 96.66 101.264256 
L 98.055 95.234573 
L 99.45 90.617702 
L 102.24 83.578867 
L 103.635 79.693632 
L 105.03 77.801472 
L 106.425 75.10199 
L 110.61 69.602112 
L 112.005 68.365901 
L 113.4 66.398054 
L 114.795 66.044851 
L 116.19 64.60681 
L 117.585 63.900403 
L 118.98 62.91648 
L 120.375 62.361446 
L 121.77 61.276608 
L 123.165 61.049549 
L 125.955 59.788109 
L 127.35 59.56105 
L 131.535 58.476211 
L 132.93 58.476211 
L 134.325 57.820262 
L 135.72 57.391373 
L 137.115 57.24 
L 138.51 56.81111 
L 139.905 56.659738 
L 141.3 56.205619 
L 148.275 55.34784 
L 149.67 55.120781 
L 151.065 55.221696 
L 152.46 55.070323 
L 153.855 55.070323 
L 156.645 54.616205 
L 162.225 54.212544 
L 163.62 53.960256 
L 166.41 54.212544 
L 169.2 53.859341 
L 170.595 53.88457 
L 171.99 53.632282 
L 176.175 53.228621 
L 177.57 53.430451 
L 180.36 53.379994 
L 183.15 53.127706 
L 185.94 53.052019 
L 194.31 52.724045 
L 195.705 52.547443 
L 197.1 52.799731 
L 198.495 52.597901 
L 202.68 52.572672 
L 222.21 51.790579 
L 223.605 51.689664 
L 225 51.790579 
L 237.555 51.639206 
L 238.95 51.689664 
L 241.74 51.462605 
L 243.135 51.56352 
L 248.715 51.538291 
L 250.11 51.613978 
L 255.69 51.412147 
L 257.085 51.487834 
L 259.875 51.386918 
L 265.455 51.412147 
L 269.64 51.260774 
L 291.96 51.159859 
L 293.355 51.109402 
L 296.145 51.159859 
L 300.33 51.13463 
L 304.515 51.210317 
L 307.305 51.084173 
L 311.49 51.235546 
L 312.885 51.159859 
L 318.465 51.286003 
L 322.65 51.185088 
L 325.44 51.185088 
L 351.945 51.109402 
L 353.34 51.058944 
L 354.735 51.13463 
L 358.92 51.084173 
L 368.685 50.958029 
L 374.265 51.058944 
L 378.45 50.983258 
L 413.325 50.907571 
L 413.325 50.907571 
" style="fill:none;stroke:#0000ff;stroke-linecap:round;stroke-width:2.5;"/>
   </g>
   <g id="line2d_16">
    <path clip-path="url(#pbba1db492e)" d="M 57.6 268.5312 
L 63.18 268.581658 
L 64.575 266.311066 
L 65.97 264.797338 
L 67.365 258.540595 
L 68.76 236.011277 
L 71.55 183.131712 
L 72.945 159.340954 
L 74.34 138.729024 
L 75.735 123.061939 
L 77.13 110.825971 
L 78.525 99.851443 
L 79.92 91.551168 
L 81.315 84.764621 
L 84.105 76.136371 
L 86.895 70.863552 
L 88.29 68.340672 
L 89.685 66.145766 
L 92.475 63.11831 
L 95.265 61.100006 
L 98.055 59.56105 
L 100.845 58.678042 
L 102.24 57.921178 
L 105.03 56.836339 
L 106.425 56.533594 
L 107.82 56.003789 
L 112.005 54.944179 
L 113.4 54.71712 
L 114.795 54.792806 
L 116.19 54.490061 
L 117.585 54.061171 
L 131.535 52.370842 
L 142.695 51.841037 
L 148.275 51.714893 
L 149.67 51.841037 
L 152.46 51.689664 
L 153.855 51.714893 
L 159.435 51.412147 
L 162.225 51.36169 
L 166.41 51.13463 
L 169.2 51.13463 
L 173.385 50.882342 
L 174.78 50.857114 
L 176.175 50.958029 
L 177.57 50.882342 
L 183.15 50.983258 
L 188.73 51.008486 
L 195.705 50.983258 
L 240.345 50.882342 
L 245.925 50.857114 
L 250.11 50.831885 
L 255.69 50.806656 
L 264.06 50.857114 
L 280.8 50.756198 
L 284.985 50.781427 
L 371.475 50.680512 
L 375.66 50.680512 
L 378.45 50.705741 
L 413.325 50.73097 
L 413.325 50.73097 
" style="fill:none;stroke:#008000;stroke-linecap:round;stroke-width:2.5;"/>
   </g>
   <g id="line2d_17">
    <path clip-path="url(#pbba1db492e)" d="M 57.6 268.5312 
L 70.155 268.480742 
L 71.55 264.797338 
L 72.945 240.174029 
L 75.735 173.771827 
L 77.13 144.27936 
L 78.525 121.598669 
L 79.92 105.60361 
L 81.315 95.032742 
L 82.71 87.51456 
L 84.105 81.459648 
L 85.5 76.59049 
L 88.29 70.712179 
L 89.685 68.744333 
L 91.08 66.322368 
L 92.475 64.556352 
L 93.87 63.395827 
L 95.265 62.48759 
L 96.66 61.251379 
L 98.055 60.267456 
L 100.845 59.13216 
L 102.24 58.148237 
L 103.635 57.795034 
L 105.03 57.567974 
L 106.425 57.012941 
L 109.215 56.281306 
L 117.585 54.616205 
L 121.77 54.490061 
L 123.165 54.111629 
L 127.35 53.65751 
L 128.745 53.733197 
L 130.14 53.430451 
L 137.115 52.976333 
L 138.51 52.976333 
L 141.3 52.774502 
L 145.485 52.62313 
L 146.88 52.446528 
L 148.275 52.446528 
L 149.67 52.19424 
L 152.46 52.269926 
L 167.805 51.689664 
L 169.2 51.841037 
L 171.99 51.689664 
L 178.965 51.689664 
L 180.36 51.538291 
L 183.15 51.487834 
L 215.235 51.386918 
L 216.63 51.210317 
L 218.025 51.311232 
L 233.37 51.13463 
L 237.555 51.13463 
L 243.135 51.008486 
L 245.925 51.109402 
L 250.11 51.033715 
L 254.295 51.008486 
L 255.69 50.9328 
L 257.085 51.008486 
L 259.875 50.958029 
L 265.455 51.008486 
L 266.85 51.084173 
L 268.245 50.983258 
L 269.64 51.058944 
L 273.825 50.983258 
L 287.775 50.9328 
L 290.565 50.831885 
L 296.145 50.9328 
L 300.33 50.907571 
L 303.12 50.857114 
L 326.835 50.9328 
L 328.23 50.983258 
L 329.625 50.857114 
L 413.325 50.857114 
L 413.325 50.857114 
" style="fill:none;stroke:#ff0000;stroke-linecap:round;stroke-width:2.5;"/>
   </g>
   <g id="line2d_18">
    <path clip-path="url(#pbba1db492e)" d="M 57.6 268.5312 
L 63.18 268.5312 
L 64.575 269.111462 
L 65.97 265.402829 
L 67.365 260.306611 
L 68.76 243.201485 
L 71.55 185.049101 
L 72.945 160.526707 
L 74.34 140.772557 
L 75.735 125.307302 
L 77.13 112.137869 
L 78.525 101.087654 
L 79.92 92.610778 
L 81.315 85.799002 
L 82.71 81.156902 
L 84.105 77.145523 
L 85.5 73.563034 
L 88.29 68.542502 
L 89.685 66.549427 
L 91.08 64.909555 
L 92.475 63.471514 
L 95.265 61.427981 
L 98.055 59.460134 
L 99.45 58.728499 
L 100.845 58.375296 
L 102.24 57.895949 
L 103.635 57.24 
L 105.03 56.735424 
L 109.215 55.726272 
L 110.61 55.54967 
L 112.005 55.246925 
L 113.4 55.095552 
L 117.585 54.162086 
L 120.375 53.733197 
L 123.165 53.581824 
L 125.955 53.25385 
L 127.35 53.228621 
L 128.745 53.052019 
L 130.14 53.001562 
L 131.535 52.724045 
L 134.325 52.547443 
L 137.115 52.269926 
L 139.905 52.143782 
L 142.695 51.941952 
L 144.09 51.815808 
L 153.855 51.714893 
L 155.25 51.588749 
L 160.83 51.588749 
L 163.62 51.538291 
L 171.99 51.185088 
L 185.94 51.033715 
L 191.52 51.033715 
L 197.1 51.033715 
L 237.555 50.983258 
L 238.95 50.882342 
L 241.74 50.907571 
L 247.32 50.907571 
L 252.9 50.907571 
L 269.64 50.831885 
L 273.825 50.781427 
L 282.195 50.73097 
L 291.96 50.806656 
L 404.955 50.705741 
L 410.535 50.705741 
L 413.325 50.756198 
L 413.325 50.756198 
" style="fill:none;stroke:#bf00bf;stroke-linecap:round;stroke-width:2.5;"/>
   </g>
   <g id="line2d_19">
    <path clip-path="url(#pbba1db492e)" d="M 57.6 50.630054 
L 414.72 50.630054 
" style="fill:none;stroke:#000000;stroke-dasharray:9.25,4;stroke-dashoffset:0;stroke-width:2.5;"/>
   </g>
   <g id="patch_3">
    <path d="M 57.6 293.76 
L 57.6 41.472 
" style="fill:none;stroke:#ffffff;stroke-linecap:square;stroke-linejoin:miter;stroke-width:1.25;"/>
   </g>
   <g id="patch_4">
    <path d="M 414.72 293.76 
L 414.72 41.472 
" style="fill:none;stroke:#ffffff;stroke-linecap:square;stroke-linejoin:miter;stroke-width:1.25;"/>
   </g>
   <g id="patch_5">
    <path d="M 57.6 293.76 
L 414.72 293.76 
" style="fill:none;stroke:#ffffff;stroke-linecap:square;stroke-linejoin:miter;stroke-width:1.25;"/>
   </g>
   <g id="patch_6">
    <path d="M 57.6 41.472 
L 414.72 41.472 
" style="fill:none;stroke:#ffffff;stroke-linecap:square;stroke-linejoin:miter;stroke-width:1.25;"/>
   </g>
   <g id="patch_7">
    <path clip-path="url(#pbba1db492e)" d="M 370.08 51.56352 
L 414.72 51.56352 
L 414.72 49.04064 
L 370.08 49.04064 
z
" style="fill:none;opacity:0.5;stroke:#808080;stroke-linejoin:miter;"/>
   </g>
   <g id="patch_8">
    <path d="M 254.016 104.544 
Q 312.048 76.79232 370.08 49.04064 
" style="fill:none;opacity:0.5;stroke:#808080;stroke-linecap:round;"/>
   </g>
   <g id="patch_9">
    <path d="M 361.152 155.0016 
Q 387.936 103.28256 414.72 51.56352 
" style="fill:none;opacity:0.5;stroke:#808080;stroke-linecap:round;"/>
   </g>
   <g id="axes_2">
    <g id="patch_10">
     <path d="M 254.016 155.0016 
L 361.152 155.0016 
L 361.152 104.544 
L 254.016 104.544 
z
" style="fill:#eaeaf2;"/>
    </g>
    <g id="matplotlib.axis_3">
     <g id="xtick_7">
      <g id="line2d_20">
       <path clip-path="url(#p03a0e6af3d)" d="M 274.104 155.0016 
L 274.104 104.544 
" style="fill:none;stroke:#ffffff;stroke-linecap:round;"/>
      </g>
      <g id="text_15">
       <!-- 230 -->
       <g style="fill:#262626;" transform="translate(264.928453 172.375194)scale(0.11 -0.11)">
        <defs>
         <path d="M 269 1209 
L 831 1284 
Q 928 806 1161 595 
Q 1394 384 1728 384 
Q 2125 384 2398 659 
Q 2672 934 2672 1341 
Q 2672 1728 2419 1979 
Q 2166 2231 1775 2231 
Q 1616 2231 1378 2169 
L 1441 2663 
Q 1497 2656 1531 2656 
Q 1891 2656 2178 2843 
Q 2466 3031 2466 3422 
Q 2466 3731 2256 3934 
Q 2047 4138 1716 4138 
Q 1388 4138 1169 3931 
Q 950 3725 888 3313 
L 325 3413 
Q 428 3978 793 4289 
Q 1159 4600 1703 4600 
Q 2078 4600 2393 4439 
Q 2709 4278 2876 4000 
Q 3044 3722 3044 3409 
Q 3044 3113 2884 2869 
Q 2725 2625 2413 2481 
Q 2819 2388 3044 2092 
Q 3269 1797 3269 1353 
Q 3269 753 2831 336 
Q 2394 -81 1725 -81 
Q 1122 -81 723 278 
Q 325 638 269 1209 
z
" id="ArialMT-33" transform="scale(0.015625)"/>
        </defs>
        <use xlink:href="#ArialMT-32"/>
        <use x="55.615234" xlink:href="#ArialMT-33"/>
        <use x="111.230469" xlink:href="#ArialMT-30"/>
       </g>
      </g>
     </g>
     <g id="xtick_8">
      <g id="line2d_21">
       <path clip-path="url(#p03a0e6af3d)" d="M 307.584 155.0016 
L 307.584 104.544 
" style="fill:none;stroke:#ffffff;stroke-linecap:round;"/>
      </g>
      <g id="text_16">
       <!-- 240 -->
       <g style="fill:#262626;" transform="translate(298.408453 172.375194)scale(0.11 -0.11)">
        <use xlink:href="#ArialMT-32"/>
        <use x="55.615234" xlink:href="#ArialMT-34"/>
        <use x="111.230469" xlink:href="#ArialMT-30"/>
       </g>
      </g>
     </g>
     <g id="xtick_9">
      <g id="line2d_22">
       <path clip-path="url(#p03a0e6af3d)" d="M 341.064 155.0016 
L 341.064 104.544 
" style="fill:none;stroke:#ffffff;stroke-linecap:round;"/>
      </g>
      <g id="text_17">
       <!-- 250 -->
       <g style="fill:#262626;" transform="translate(331.888453 172.375194)scale(0.11 -0.11)">
        <use xlink:href="#ArialMT-32"/>
        <use x="55.615234" xlink:href="#ArialMT-35"/>
        <use x="111.230469" xlink:href="#ArialMT-30"/>
       </g>
      </g>
     </g>
    </g>
    <g id="matplotlib.axis_4">
     <g id="ytick_7">
      <g id="line2d_23">
       <path clip-path="url(#p03a0e6af3d)" d="M 254.016 155.0016 
L 361.152 155.0016 
" style="fill:none;stroke:#ffffff;stroke-linecap:round;"/>
      </g>
      <g id="text_18">
       <!-- 0.960 -->
       <g style="fill:#262626;" transform="translate(216.991938 158.938397)scale(0.11 -0.11)">
        <defs>
         <path d="M 350 1059 
L 891 1109 
Q 959 728 1153 556 
Q 1347 384 1650 384 
Q 1909 384 2104 503 
Q 2300 622 2425 820 
Q 2550 1019 2634 1356 
Q 2719 1694 2719 2044 
Q 2719 2081 2716 2156 
Q 2547 1888 2255 1720 
Q 1963 1553 1622 1553 
Q 1053 1553 659 1965 
Q 266 2378 266 3053 
Q 266 3750 677 4175 
Q 1088 4600 1706 4600 
Q 2153 4600 2523 4359 
Q 2894 4119 3086 3673 
Q 3278 3228 3278 2384 
Q 3278 1506 3087 986 
Q 2897 466 2520 194 
Q 2144 -78 1638 -78 
Q 1100 -78 759 220 
Q 419 519 350 1059 
z
M 2653 3081 
Q 2653 3566 2395 3850 
Q 2138 4134 1775 4134 
Q 1400 4134 1122 3828 
Q 844 3522 844 3034 
Q 844 2597 1108 2323 
Q 1372 2050 1759 2050 
Q 2150 2050 2401 2323 
Q 2653 2597 2653 3081 
z
" id="ArialMT-39" transform="scale(0.015625)"/>
        </defs>
        <use xlink:href="#ArialMT-30"/>
        <use x="55.615234" xlink:href="#ArialMT-2e"/>
        <use x="83.398438" xlink:href="#ArialMT-39"/>
        <use x="139.013672" xlink:href="#ArialMT-36"/>
        <use x="194.628906" xlink:href="#ArialMT-30"/>
       </g>
      </g>
     </g>
     <g id="ytick_8">
      <g id="line2d_24">
       <path clip-path="url(#p03a0e6af3d)" d="M 254.016 129.7728 
L 361.152 129.7728 
" style="fill:none;stroke:#ffffff;stroke-linecap:round;"/>
      </g>
      <g id="text_19">
       <!-- 0.965 -->
       <g style="fill:#262626;" transform="translate(216.991938 133.709597)scale(0.11 -0.11)">
        <use xlink:href="#ArialMT-30"/>
        <use x="55.615234" xlink:href="#ArialMT-2e"/>
        <use x="83.398438" xlink:href="#ArialMT-39"/>
        <use x="139.013672" xlink:href="#ArialMT-36"/>
        <use x="194.628906" xlink:href="#ArialMT-35"/>
       </g>
      </g>
     </g>
     <g id="ytick_9">
      <g id="line2d_25">
       <path clip-path="url(#p03a0e6af3d)" d="M 254.016 104.544 
L 361.152 104.544 
" style="fill:none;stroke:#ffffff;stroke-linecap:round;"/>
      </g>
      <g id="text_20">
       <!-- 0.970 -->
       <g style="fill:#262626;" transform="translate(216.991938 108.480797)scale(0.11 -0.11)">
        <defs>
         <path d="M 303 3981 
L 303 4522 
L 3269 4522 
L 3269 4084 
Q 2831 3619 2401 2847 
Q 1972 2075 1738 1259 
Q 1569 684 1522 0 
L 944 0 
Q 953 541 1156 1306 
Q 1359 2072 1739 2783 
Q 2119 3494 2547 3981 
L 303 3981 
z
" id="ArialMT-37" transform="scale(0.015625)"/>
        </defs>
        <use xlink:href="#ArialMT-30"/>
        <use x="55.615234" xlink:href="#ArialMT-2e"/>
        <use x="83.398438" xlink:href="#ArialMT-39"/>
        <use x="139.013672" xlink:href="#ArialMT-37"/>
        <use x="194.628906" xlink:href="#ArialMT-30"/>
       </g>
      </g>
     </g>
    </g>
    <g id="line2d_26">
     <path clip-path="url(#p03a0e6af3d)" d="M 0 0 
" style="fill:none;stroke:#bfbf00;stroke-linecap:round;stroke-width:2.5;"/>
    </g>
    <g id="line2d_27">
     <path clip-path="url(#p03a0e6af3d)" d="M -1 142.977379 
L 2.916 142.3872 
L 6.264 143.900928 
L 16.308 142.3872 
L 23.004 142.3872 
L 26.352 142.891776 
L 29.7 142.891776 
L 33.048 143.900928 
L 39.744 143.900928 
L 43.092 142.3872 
L 46.44 141.882624 
L 49.788 142.891776 
L 56.484 143.900928 
L 59.832 142.891776 
L 63.18 142.3872 
L 66.528 143.396352 
L 73.224 144.405504 
L 76.572 144.405504 
L 79.92 142.891776 
L 83.268 142.891776 
L 93.312 141.378048 
L 96.66 142.3872 
L 100.008 142.3872 
L 103.356 141.882624 
L 106.704 142.891776 
L 110.052 142.3872 
L 113.4 141.378048 
L 116.748 143.396352 
L 120.096 142.891776 
L 123.444 141.882624 
L 126.792 141.882624 
L 130.14 142.3872 
L 133.488 142.3872 
L 136.836 141.882624 
L 140.184 142.3872 
L 143.532 143.900928 
L 146.88 142.3872 
L 150.228 142.3872 
L 153.576 141.882624 
L 156.924 141.882624 
L 160.272 143.396352 
L 166.968 141.378048 
L 170.316 142.891776 
L 173.664 142.891776 
L 177.012 141.378048 
L 183.708 140.368896 
L 187.056 141.882624 
L 190.404 141.378048 
L 193.752 139.86432 
L 197.1 141.378048 
L 200.448 141.378048 
L 203.796 141.882624 
L 207.144 141.378048 
L 210.492 139.86432 
L 213.84 140.368896 
L 217.188 141.882624 
L 220.536 142.3872 
L 223.884 141.882624 
L 227.232 141.882624 
L 230.58 142.3872 
L 233.928 142.3872 
L 237.276 141.378048 
L 240.624 141.882624 
L 247.32 141.882624 
L 250.668 140.873472 
L 257.364 141.882624 
L 260.712 140.873472 
L 264.06 140.368896 
L 280.8 140.368896 
L 284.148 141.378048 
L 287.496 141.378048 
L 290.844 140.873472 
L 294.192 140.873472 
L 297.54 140.368896 
L 300.888 140.873472 
L 304.236 141.882624 
L 307.584 139.86432 
L 310.932 139.86432 
L 314.28 140.368896 
L 320.976 140.368896 
L 331.02 138.855168 
L 334.368 139.359744 
L 337.716 140.368896 
L 341.064 139.86432 
L 344.412 140.368896 
L 347.76 139.86432 
L 351.108 139.86432 
L 354.456 139.359744 
L 357.804 139.86432 
L 357.804 139.86432 
" style="fill:none;stroke:#00bfbf;stroke-linecap:round;stroke-width:2.5;"/>
    </g>
    <g id="line2d_28">
     <path clip-path="url(#p03a0e6af3d)" d="M -1 151.717335 
L -0.432 151.974144 
L 2.916 151.974144 
L 9.612 148.946688 
L 16.308 148.946688 
L 19.656 148.442112 
L 23.004 149.95584 
L 26.352 149.451264 
L 29.7 150.460416 
L 33.048 150.460416 
L 36.396 149.451264 
L 39.744 150.460416 
L 43.092 150.460416 
L 46.44 149.95584 
L 49.788 148.442112 
L 53.136 147.937536 
L 56.484 147.937536 
L 59.832 147.43296 
L 63.18 147.937536 
L 69.876 145.919232 
L 73.224 147.43296 
L 79.92 146.423808 
L 86.616 146.423808 
L 93.312 148.442112 
L 96.66 147.937536 
L 100.008 146.423808 
L 103.356 145.414656 
L 106.704 146.423808 
L 110.052 148.442112 
L 113.4 148.442112 
L 116.748 146.928384 
L 120.096 147.937536 
L 130.14 149.451264 
L 133.488 148.442112 
L 136.836 148.442112 
L 140.184 147.43296 
L 143.532 148.442112 
L 146.88 147.43296 
L 153.576 147.43296 
L 156.924 147.937536 
L 160.272 147.43296 
L 163.62 148.442112 
L 170.316 148.442112 
L 173.664 147.937536 
L 177.012 148.442112 
L 180.36 148.442112 
L 183.708 147.43296 
L 187.056 147.43296 
L 190.404 146.928384 
L 193.752 146.928384 
L 197.1 145.919232 
L 200.448 145.414656 
L 207.144 147.43296 
L 210.492 145.919232 
L 213.84 144.91008 
L 217.188 146.423808 
L 220.536 145.414656 
L 227.232 145.414656 
L 233.928 144.405504 
L 237.276 142.891776 
L 240.624 143.900928 
L 243.972 142.891776 
L 247.32 142.3872 
L 250.668 142.891776 
L 254.016 143.900928 
L 257.364 143.396352 
L 260.712 143.900928 
L 264.06 144.91008 
L 267.408 143.900928 
L 270.756 143.396352 
L 277.452 143.396352 
L 284.148 145.414656 
L 287.496 144.91008 
L 290.844 142.891776 
L 294.192 143.396352 
L 297.54 143.396352 
L 300.888 141.882624 
L 304.236 142.3872 
L 314.28 142.3872 
L 317.628 141.882624 
L 320.976 142.3872 
L 324.324 142.3872 
L 327.672 141.882624 
L 331.02 143.900928 
L 334.368 143.396352 
L 337.716 141.882624 
L 341.064 141.882624 
L 347.76 142.891776 
L 351.108 142.891776 
L 354.456 141.882624 
L 357.804 141.882624 
L 357.804 141.882624 
" style="fill:none;stroke:#0000ff;stroke-linecap:round;stroke-width:2.5;"/>
    </g>
    <g id="line2d_29">
     <path clip-path="url(#p03a0e6af3d)" d="M -1 140.787869 
L -0.432 140.873472 
L 9.612 140.873472 
L 12.96 141.378048 
L 16.308 140.368896 
L 19.656 140.873472 
L 23.004 140.368896 
L 26.352 139.359744 
L 33.048 140.368896 
L 36.396 140.368896 
L 39.744 138.855168 
L 43.092 138.350592 
L 46.44 139.359744 
L 56.484 139.359744 
L 59.832 137.846016 
L 66.528 137.846016 
L 69.876 137.34144 
L 73.224 138.350592 
L 93.312 138.350592 
L 96.66 137.846016 
L 103.356 137.846016 
L 106.704 138.350592 
L 113.4 138.350592 
L 116.748 137.846016 
L 120.096 137.846016 
L 123.444 138.350592 
L 126.792 138.350592 
L 130.14 137.846016 
L 133.488 138.350592 
L 136.836 138.350592 
L 140.184 137.846016 
L 143.532 138.350592 
L 150.228 138.350592 
L 153.576 139.86432 
L 156.924 138.855168 
L 160.272 139.359744 
L 163.62 139.359744 
L 166.968 138.855168 
L 170.316 138.855168 
L 173.664 140.873472 
L 177.012 139.359744 
L 180.36 139.359744 
L 183.708 139.86432 
L 187.056 138.855168 
L 190.404 139.86432 
L 193.752 139.359744 
L 197.1 138.350592 
L 200.448 138.855168 
L 203.796 138.855168 
L 207.144 139.359744 
L 210.492 138.350592 
L 223.884 138.350592 
L 227.232 137.846016 
L 230.58 138.855168 
L 233.928 138.855168 
L 237.276 137.846016 
L 250.668 137.846016 
L 254.016 137.34144 
L 257.364 137.34144 
L 260.712 136.836864 
L 264.06 136.836864 
L 267.408 137.34144 
L 270.756 138.350592 
L 274.104 137.846016 
L 284.148 137.846016 
L 287.496 137.34144 
L 290.844 137.34144 
L 294.192 137.846016 
L 297.54 137.34144 
L 300.888 137.34144 
L 304.236 137.846016 
L 307.584 137.846016 
L 310.932 137.34144 
L 320.976 137.34144 
L 324.324 137.846016 
L 344.412 137.846016 
L 347.76 138.350592 
L 351.108 138.350592 
L 354.456 137.846016 
L 357.804 138.350592 
L 357.804 138.350592 
" style="fill:none;stroke:#008000;stroke-linecap:round;stroke-width:2.5;"/>
    </g>
    <g id="line2d_30">
     <path clip-path="url(#p03a0e6af3d)" d="M -1 142.644009 
L -0.432 142.3872 
L 6.264 145.414656 
L 9.612 143.396352 
L 12.96 144.91008 
L 16.308 143.900928 
L 19.656 143.396352 
L 26.352 143.396352 
L 29.7 142.891776 
L 33.048 143.900928 
L 36.396 141.882624 
L 39.744 141.378048 
L 43.092 141.378048 
L 46.44 142.891776 
L 49.788 143.396352 
L 53.136 141.882624 
L 56.484 142.3872 
L 59.832 140.873472 
L 63.18 140.368896 
L 66.528 140.368896 
L 69.876 142.3872 
L 76.572 142.3872 
L 79.92 142.891776 
L 83.268 141.378048 
L 86.616 141.882624 
L 89.964 140.368896 
L 93.312 140.873472 
L 100.008 140.873472 
L 103.356 139.86432 
L 106.704 142.3872 
L 113.4 142.3872 
L 116.748 141.378048 
L 123.444 142.3872 
L 126.792 142.3872 
L 133.488 141.378048 
L 136.836 141.882624 
L 140.184 140.873472 
L 143.532 141.882624 
L 146.88 141.882624 
L 150.228 142.3872 
L 153.576 143.396352 
L 156.924 140.873472 
L 160.272 140.873472 
L 163.62 141.378048 
L 166.968 140.368896 
L 170.316 141.882624 
L 173.664 142.3872 
L 177.012 140.368896 
L 180.36 139.359744 
L 183.708 140.873472 
L 187.056 141.882624 
L 190.404 141.882624 
L 193.752 140.873472 
L 197.1 141.882624 
L 203.796 140.873472 
L 207.144 141.882624 
L 210.492 142.3872 
L 213.84 140.873472 
L 217.188 140.368896 
L 220.536 141.378048 
L 223.884 140.873472 
L 227.232 140.873472 
L 230.58 141.378048 
L 233.928 140.873472 
L 240.624 140.873472 
L 243.972 139.86432 
L 247.32 141.378048 
L 250.668 140.873472 
L 254.016 141.378048 
L 257.364 140.873472 
L 264.06 141.882624 
L 267.408 141.882624 
L 270.756 141.378048 
L 274.104 141.378048 
L 277.452 141.882624 
L 280.8 140.873472 
L 284.148 141.378048 
L 287.496 140.873472 
L 294.192 140.873472 
L 297.54 141.378048 
L 300.888 140.368896 
L 304.236 141.378048 
L 307.584 141.882624 
L 310.932 141.378048 
L 314.28 141.882624 
L 317.628 141.378048 
L 324.324 141.378048 
L 327.672 141.882624 
L 331.02 141.882624 
L 334.368 142.891776 
L 341.064 142.891776 
L 344.412 141.882624 
L 351.108 140.873472 
L 354.456 141.378048 
L 357.804 140.873472 
L 357.804 140.873472 
" style="fill:none;stroke:#ff0000;stroke-linecap:round;stroke-width:2.5;"/>
    </g>
    <g id="line2d_31">
     <path clip-path="url(#p03a0e6af3d)" d="M -1 140.873472 
L 6.264 140.873472 
L 9.612 139.86432 
L 12.96 140.368896 
L 16.308 139.359744 
L 23.004 139.359744 
L 26.352 138.855168 
L 29.7 139.359744 
L 33.048 138.855168 
L 36.396 137.34144 
L 46.44 138.855168 
L 49.788 138.350592 
L 56.484 139.359744 
L 59.832 140.368896 
L 63.18 139.86432 
L 69.876 139.86432 
L 73.224 139.359744 
L 76.572 139.86432 
L 79.92 139.86432 
L 83.268 138.350592 
L 86.616 138.855168 
L 89.964 137.846016 
L 96.66 139.86432 
L 100.008 139.86432 
L 103.356 139.359744 
L 110.052 139.359744 
L 113.4 138.350592 
L 116.748 137.846016 
L 120.096 137.846016 
L 126.792 138.855168 
L 130.14 138.855168 
L 133.488 140.368896 
L 136.836 138.855168 
L 140.184 138.350592 
L 143.532 139.359744 
L 150.228 140.368896 
L 156.924 140.368896 
L 160.272 140.873472 
L 163.62 139.359744 
L 170.316 140.368896 
L 173.664 141.378048 
L 177.012 140.873472 
L 180.36 140.873472 
L 183.708 140.368896 
L 187.056 138.855168 
L 190.404 139.359744 
L 193.752 140.368896 
L 197.1 140.368896 
L 203.796 141.378048 
L 207.144 139.86432 
L 210.492 140.368896 
L 213.84 139.86432 
L 217.188 139.86432 
L 220.536 140.368896 
L 227.232 140.368896 
L 230.58 140.873472 
L 233.928 140.873472 
L 237.276 140.368896 
L 240.624 140.873472 
L 264.06 140.873472 
L 267.408 139.86432 
L 277.452 139.86432 
L 280.8 138.855168 
L 284.148 139.86432 
L 290.844 138.855168 
L 297.54 138.855168 
L 300.888 139.86432 
L 304.236 139.359744 
L 310.932 139.359744 
L 314.28 138.855168 
L 317.628 139.359744 
L 320.976 138.350592 
L 324.324 138.855168 
L 327.672 138.855168 
L 331.02 138.350592 
L 334.368 138.855168 
L 337.716 137.846016 
L 341.064 137.34144 
L 344.412 137.846016 
L 351.108 137.846016 
L 357.804 138.855168 
L 357.804 138.855168 
" style="fill:none;stroke:#bf00bf;stroke-linecap:round;stroke-width:2.5;"/>
    </g>
    <g id="line2d_32">
     <path clip-path="url(#p03a0e6af3d)" d="M -1 136.332288 
L 357.804 136.332288 
L 357.804 136.332288 
" style="fill:none;stroke:#000000;stroke-dasharray:9.25,4;stroke-dashoffset:0;stroke-width:2.5;"/>
    </g>
    <g id="patch_11">
     <path d="M 254.016 155.0016 
L 254.016 104.544 
" style="fill:none;stroke:#ffffff;stroke-linecap:square;stroke-linejoin:miter;stroke-width:1.25;"/>
    </g>
    <g id="patch_12">
     <path d="M 361.152 155.0016 
L 361.152 104.544 
" style="fill:none;stroke:#ffffff;stroke-linecap:square;stroke-linejoin:miter;stroke-width:1.25;"/>
    </g>
    <g id="patch_13">
     <path d="M 254.016 155.0016 
L 361.152 155.0016 
" style="fill:none;stroke:#ffffff;stroke-linecap:square;stroke-linejoin:miter;stroke-width:1.25;"/>
    </g>
    <g id="patch_14">
     <path d="M 254.016 104.544 
L 361.152 104.544 
" style="fill:none;stroke:#ffffff;stroke-linecap:square;stroke-linejoin:miter;stroke-width:1.25;"/>
    </g>
   </g>
   <g id="legend_1">
    <g id="patch_15">
     <path d="M 292.896563 292.440223 
L 407.72 292.440223 
Q 409.72 292.440223 409.72 290.440223 
L 409.72 192.27616 
Q 409.72 190.27616 407.72 190.27616 
L 292.896563 190.27616 
Q 290.896563 190.27616 290.896563 192.27616 
L 290.896563 290.440223 
Q 290.896563 292.440223 292.896563 292.440223 
z
" style="fill:#eaeaf2;opacity:0.8;stroke:#cccccc;stroke-linejoin:miter;"/>
    </g>
    <g id="line2d_33">
     <path d="M 294.896563 197.933972 
L 314.896563 197.933972 
" style="fill:none;stroke:#bfbf00;stroke-linecap:round;stroke-width:2.5;"/>
    </g>
    <g id="line2d_34"/>
    <g id="text_21">
     <!-- 0.2 x vth -->
     <g style="fill:#262626;" transform="translate(322.896563 201.433972)scale(0.1 -0.1)">
      <defs>
       <path d="M 47 0 
L 1259 1725 
L 138 3319 
L 841 3319 
L 1350 2541 
Q 1494 2319 1581 2169 
Q 1719 2375 1834 2534 
L 2394 3319 
L 3066 3319 
L 1919 1756 
L 3153 0 
L 2463 0 
L 1781 1031 
L 1600 1309 
L 728 0 
L 47 0 
z
" id="ArialMT-78" transform="scale(0.015625)"/>
       <path d="M 1344 0 
L 81 3319 
L 675 3319 
L 1388 1331 
Q 1503 1009 1600 663 
Q 1675 925 1809 1294 
L 2547 3319 
L 3125 3319 
L 1869 0 
L 1344 0 
z
" id="ArialMT-76" transform="scale(0.015625)"/>
       <path d="M 422 0 
L 422 4581 
L 984 4581 
L 984 2938 
Q 1378 3394 1978 3394 
Q 2347 3394 2619 3248 
Q 2891 3103 3008 2847 
Q 3125 2591 3125 2103 
L 3125 0 
L 2563 0 
L 2563 2103 
Q 2563 2525 2380 2717 
Q 2197 2909 1863 2909 
Q 1613 2909 1392 2779 
Q 1172 2650 1078 2428 
Q 984 2206 984 1816 
L 984 0 
L 422 0 
z
" id="ArialMT-68" transform="scale(0.015625)"/>
      </defs>
      <use xlink:href="#ArialMT-30"/>
      <use x="55.615234" xlink:href="#ArialMT-2e"/>
      <use x="83.398438" xlink:href="#ArialMT-32"/>
      <use x="139.013672" xlink:href="#ArialMT-20"/>
      <use x="166.796875" xlink:href="#ArialMT-78"/>
      <use x="216.796875" xlink:href="#ArialMT-20"/>
      <use x="244.580078" xlink:href="#ArialMT-76"/>
      <use x="294.580078" xlink:href="#ArialMT-74"/>
      <use x="322.363281" xlink:href="#ArialMT-68"/>
     </g>
    </g>
    <g id="line2d_35">
     <path d="M 294.896563 212.079285 
L 314.896563 212.079285 
" style="fill:none;stroke:#00bfbf;stroke-linecap:round;stroke-width:2.5;"/>
    </g>
    <g id="line2d_36"/>
    <g id="text_22">
     <!-- 0.5 x vth -->
     <g style="fill:#262626;" transform="translate(322.896563 215.579285)scale(0.1 -0.1)">
      <use xlink:href="#ArialMT-30"/>
      <use x="55.615234" xlink:href="#ArialMT-2e"/>
      <use x="83.398438" xlink:href="#ArialMT-35"/>
      <use x="139.013672" xlink:href="#ArialMT-20"/>
      <use x="166.796875" xlink:href="#ArialMT-78"/>
      <use x="216.796875" xlink:href="#ArialMT-20"/>
      <use x="244.580078" xlink:href="#ArialMT-76"/>
      <use x="294.580078" xlink:href="#ArialMT-74"/>
      <use x="322.363281" xlink:href="#ArialMT-68"/>
     </g>
    </g>
    <g id="line2d_37">
     <path d="M 294.896563 226.224597 
L 314.896563 226.224597 
" style="fill:none;stroke:#0000ff;stroke-linecap:round;stroke-width:2.5;"/>
    </g>
    <g id="line2d_38"/>
    <g id="text_23">
     <!-- 0.9 x vth -->
     <g style="fill:#262626;" transform="translate(322.896563 229.724597)scale(0.1 -0.1)">
      <use xlink:href="#ArialMT-30"/>
      <use x="55.615234" xlink:href="#ArialMT-2e"/>
      <use x="83.398438" xlink:href="#ArialMT-39"/>
      <use x="139.013672" xlink:href="#ArialMT-20"/>
      <use x="166.796875" xlink:href="#ArialMT-78"/>
      <use x="216.796875" xlink:href="#ArialMT-20"/>
      <use x="244.580078" xlink:href="#ArialMT-76"/>
      <use x="294.580078" xlink:href="#ArialMT-74"/>
      <use x="322.363281" xlink:href="#ArialMT-68"/>
     </g>
    </g>
    <g id="line2d_39">
     <path d="M 294.896563 240.36991 
L 314.896563 240.36991 
" style="fill:none;stroke:#008000;stroke-linecap:round;stroke-width:2.5;"/>
    </g>
    <g id="line2d_40"/>
    <g id="text_24">
     <!-- With DTT -->
     <g style="fill:#262626;" transform="translate(322.896563 243.86991)scale(0.1 -0.1)">
      <defs>
       <path d="M 1294 0 
L 78 4581 
L 700 4581 
L 1397 1578 
Q 1509 1106 1591 641 
Q 1766 1375 1797 1488 
L 2669 4581 
L 3400 4581 
L 4056 2263 
Q 4303 1400 4413 641 
Q 4500 1075 4641 1638 
L 5359 4581 
L 5969 4581 
L 4713 0 
L 4128 0 
L 3163 3491 
Q 3041 3928 3019 4028 
Q 2947 3713 2884 3491 
L 1913 0 
L 1294 0 
z
" id="ArialMT-57" transform="scale(0.015625)"/>
       <path d="M 494 0 
L 494 4581 
L 2072 4581 
Q 2606 4581 2888 4516 
Q 3281 4425 3559 4188 
Q 3922 3881 4101 3404 
Q 4281 2928 4281 2316 
Q 4281 1794 4159 1391 
Q 4038 988 3847 723 
Q 3656 459 3429 307 
Q 3203 156 2883 78 
Q 2563 0 2147 0 
L 494 0 
z
M 1100 541 
L 2078 541 
Q 2531 541 2789 625 
Q 3047 709 3200 863 
Q 3416 1078 3536 1442 
Q 3656 1806 3656 2325 
Q 3656 3044 3420 3430 
Q 3184 3816 2847 3947 
Q 2603 4041 2063 4041 
L 1100 4041 
L 1100 541 
z
" id="ArialMT-44" transform="scale(0.015625)"/>
      </defs>
      <use xlink:href="#ArialMT-57"/>
      <use x="94.384766" xlink:href="#ArialMT-69"/>
      <use x="116.601562" xlink:href="#ArialMT-74"/>
      <use x="144.384766" xlink:href="#ArialMT-68"/>
      <use x="200" xlink:href="#ArialMT-20"/>
      <use x="227.783203" xlink:href="#ArialMT-44"/>
      <use x="300" xlink:href="#ArialMT-54"/>
      <use x="361.083984" xlink:href="#ArialMT-54"/>
     </g>
    </g>
    <g id="line2d_41">
     <path d="M 294.896563 254.515222 
L 314.896563 254.515222 
" style="fill:none;stroke:#ff0000;stroke-linecap:round;stroke-width:2.5;"/>
    </g>
    <g id="line2d_42"/>
    <g id="text_25">
     <!-- With DET -->
     <g style="fill:#262626;" transform="translate(322.896563 258.015222)scale(0.1 -0.1)">
      <defs>
       <path d="M 506 0 
L 506 4581 
L 3819 4581 
L 3819 4041 
L 1113 4041 
L 1113 2638 
L 3647 2638 
L 3647 2100 
L 1113 2100 
L 1113 541 
L 3925 541 
L 3925 0 
L 506 0 
z
" id="ArialMT-45" transform="scale(0.015625)"/>
      </defs>
      <use xlink:href="#ArialMT-57"/>
      <use x="94.384766" xlink:href="#ArialMT-69"/>
      <use x="116.601562" xlink:href="#ArialMT-74"/>
      <use x="144.384766" xlink:href="#ArialMT-68"/>
      <use x="200" xlink:href="#ArialMT-20"/>
      <use x="227.783203" xlink:href="#ArialMT-44"/>
      <use x="300" xlink:href="#ArialMT-45"/>
      <use x="366.699219" xlink:href="#ArialMT-54"/>
     </g>
    </g>
    <g id="line2d_43">
     <path d="M 294.896563 268.660535 
L 314.896563 268.660535 
" style="fill:none;stroke:#bf00bf;stroke-linecap:round;stroke-width:2.5;"/>
    </g>
    <g id="line2d_44"/>
    <g id="text_26">
     <!-- With DTT DET -->
     <g style="fill:#262626;" transform="translate(322.896563 272.160535)scale(0.1 -0.1)">
      <use xlink:href="#ArialMT-57"/>
      <use x="94.384766" xlink:href="#ArialMT-69"/>
      <use x="116.601562" xlink:href="#ArialMT-74"/>
      <use x="144.384766" xlink:href="#ArialMT-68"/>
      <use x="200" xlink:href="#ArialMT-20"/>
      <use x="227.783203" xlink:href="#ArialMT-44"/>
      <use x="300" xlink:href="#ArialMT-54"/>
      <use x="361.083984" xlink:href="#ArialMT-54"/>
      <use x="420.417969" xlink:href="#ArialMT-20"/>
      <use x="448.201172" xlink:href="#ArialMT-44"/>
      <use x="520.417969" xlink:href="#ArialMT-45"/>
      <use x="587.117188" xlink:href="#ArialMT-54"/>
     </g>
    </g>
    <g id="line2d_45">
     <path d="M 294.896563 282.835535 
L 314.896563 282.835535 
" style="fill:none;stroke:#000000;stroke-dasharray:9.25,4;stroke-dashoffset:0;stroke-width:2.5;"/>
    </g>
    <g id="line2d_46"/>
    <g id="text_27">
     <!-- Target Acc: 0.9637 -->
     <g style="fill:#262626;" transform="translate(322.896563 286.335535)scale(0.1 -0.1)">
      <defs>
       <path d="M 2588 409 
Q 2275 144 1986 34 
Q 1697 -75 1366 -75 
Q 819 -75 525 192 
Q 231 459 231 875 
Q 231 1119 342 1320 
Q 453 1522 633 1644 
Q 813 1766 1038 1828 
Q 1203 1872 1538 1913 
Q 2219 1994 2541 2106 
Q 2544 2222 2544 2253 
Q 2544 2597 2384 2738 
Q 2169 2928 1744 2928 
Q 1347 2928 1158 2789 
Q 969 2650 878 2297 
L 328 2372 
Q 403 2725 575 2942 
Q 747 3159 1072 3276 
Q 1397 3394 1825 3394 
Q 2250 3394 2515 3294 
Q 2781 3194 2906 3042 
Q 3031 2891 3081 2659 
Q 3109 2516 3109 2141 
L 3109 1391 
Q 3109 606 3145 398 
Q 3181 191 3288 0 
L 2700 0 
Q 2613 175 2588 409 
z
M 2541 1666 
Q 2234 1541 1622 1453 
Q 1275 1403 1131 1340 
Q 988 1278 909 1158 
Q 831 1038 831 891 
Q 831 666 1001 516 
Q 1172 366 1500 366 
Q 1825 366 2078 508 
Q 2331 650 2450 897 
Q 2541 1088 2541 1459 
L 2541 1666 
z
" id="ArialMT-61" transform="scale(0.015625)"/>
       <path d="M 416 0 
L 416 3319 
L 922 3319 
L 922 2816 
Q 1116 3169 1280 3281 
Q 1444 3394 1641 3394 
Q 1925 3394 2219 3213 
L 2025 2691 
Q 1819 2813 1613 2813 
Q 1428 2813 1281 2702 
Q 1134 2591 1072 2394 
Q 978 2094 978 1738 
L 978 0 
L 416 0 
z
" id="ArialMT-72" transform="scale(0.015625)"/>
       <path d="M 319 -275 
L 866 -356 
Q 900 -609 1056 -725 
Q 1266 -881 1628 -881 
Q 2019 -881 2231 -725 
Q 2444 -569 2519 -288 
Q 2563 -116 2559 434 
Q 2191 0 1641 0 
Q 956 0 581 494 
Q 206 988 206 1678 
Q 206 2153 378 2554 
Q 550 2956 876 3175 
Q 1203 3394 1644 3394 
Q 2231 3394 2613 2919 
L 2613 3319 
L 3131 3319 
L 3131 450 
Q 3131 -325 2973 -648 
Q 2816 -972 2473 -1159 
Q 2131 -1347 1631 -1347 
Q 1038 -1347 672 -1080 
Q 306 -813 319 -275 
z
M 784 1719 
Q 784 1066 1043 766 
Q 1303 466 1694 466 
Q 2081 466 2343 764 
Q 2606 1063 2606 1700 
Q 2606 2309 2336 2618 
Q 2066 2928 1684 2928 
Q 1309 2928 1046 2623 
Q 784 2319 784 1719 
z
" id="ArialMT-67" transform="scale(0.015625)"/>
       <path d="M 578 2678 
L 578 3319 
L 1219 3319 
L 1219 2678 
L 578 2678 
z
M 578 0 
L 578 641 
L 1219 641 
L 1219 0 
L 578 0 
z
" id="ArialMT-3a" transform="scale(0.015625)"/>
      </defs>
      <use xlink:href="#ArialMT-54"/>
      <use x="49.958984" xlink:href="#ArialMT-61"/>
      <use x="105.574219" xlink:href="#ArialMT-72"/>
      <use x="138.875" xlink:href="#ArialMT-67"/>
      <use x="194.490234" xlink:href="#ArialMT-65"/>
      <use x="250.105469" xlink:href="#ArialMT-74"/>
      <use x="277.888672" xlink:href="#ArialMT-20"/>
      <use x="300.171875" xlink:href="#ArialMT-41"/>
      <use x="366.871094" xlink:href="#ArialMT-63"/>
      <use x="416.871094" xlink:href="#ArialMT-63"/>
      <use x="466.871094" xlink:href="#ArialMT-3a"/>
      <use x="494.654297" xlink:href="#ArialMT-20"/>
      <use x="522.4375" xlink:href="#ArialMT-30"/>
      <use x="578.052734" xlink:href="#ArialMT-2e"/>
      <use x="605.835938" xlink:href="#ArialMT-39"/>
      <use x="661.451172" xlink:href="#ArialMT-36"/>
      <use x="717.066406" xlink:href="#ArialMT-33"/>
      <use x="772.681641" xlink:href="#ArialMT-37"/>
     </g>
    </g>
   </g>
  </g>
 </g>
 <defs>
  <clipPath id="pbba1db492e">
   <rect height="252.288" width="357.12" x="57.6" y="41.472"/>
  </clipPath>
  <clipPath id="p03a0e6af3d">
   <rect height="50.4576" width="107.136" x="254.016" y="104.544"/>
  </clipPath>
 </defs>
</svg>
