<?xml version="1.0" encoding="utf-8" standalone="no"?>
<!DOCTYPE svg PUBLIC "-//W3C//DTD SVG 1.1//EN"
  "http://www.w3.org/Graphics/SVG/1.1/DTD/svg11.dtd">
<svg height="345.6pt" version="1.1" viewBox="0 0 460.8 345.6" width="460.8pt" xmlns="http://www.w3.org/2000/svg" xmlns:xlink="http://www.w3.org/1999/xlink">
 <metadata>
  <rdf:RDF xmlns:cc="http://creativecommons.org/ns#" xmlns:dc="http://purl.org/dc/elements/1.1/" xmlns:rdf="http://www.w3.org/1999/02/22-rdf-syntax-ns#">
   <cc:Work>
    <dc:type rdf:resource="http://purl.org/dc/dcmitype/StillImage"/>
    <dc:date>2022-08-13T21:00:07.758263</dc:date>
    <dc:format>image/svg+xml</dc:format>
    <dc:creator>
     <cc:Agent>
      <dc:title>Matplotlib v3.4.1, https://matplotlib.org/</dc:title>
     </cc:Agent>
    </dc:creator>
   </cc:Work>
  </rdf:RDF>
 </metadata>
 <defs>
  <style type="text/css">*{stroke-linecap:butt;stroke-linejoin:round;}</style>
 </defs>
 <g id="figure_1">
  <g id="patch_1">
   <path d="M 0 345.6 
L 460.8 345.6 
L 460.8 0 
L 0 0 
z
" style="fill:#ffffff;"/>
  </g>
  <g id="axes_1">
   <g id="patch_2">
    <path d="M 57.6 293.76 
L 414.72 293.76 
L 414.72 41.472 
L 57.6 41.472 
z
" style="fill:#eaeaf2;"/>
   </g>
   <g id="matplotlib.axis_1">
    <g id="xtick_1">
     <g id="line2d_1">
      <path clip-path="url(#pdce1d9eaae)" d="M 57.6 293.76 
L 57.6 41.472 
" style="fill:none;stroke:#ffffff;stroke-linecap:round;"/>
     </g>
     <g id="text_1">
      <!-- 0 -->
      <g style="fill:#262626;" transform="translate(53.429297 313.996719)scale(0.15 -0.15)">
       <defs>
        <path d="M 266 2259 
Q 266 3072 433 3567 
Q 600 4063 929 4331 
Q 1259 4600 1759 4600 
Q 2128 4600 2406 4451 
Q 2684 4303 2865 4023 
Q 3047 3744 3150 3342 
Q 3253 2941 3253 2259 
Q 3253 1453 3087 958 
Q 2922 463 2592 192 
Q 2263 -78 1759 -78 
Q 1097 -78 719 397 
Q 266 969 266 2259 
z
M 844 2259 
Q 844 1131 1108 757 
Q 1372 384 1759 384 
Q 2147 384 2411 759 
Q 2675 1134 2675 2259 
Q 2675 3391 2411 3762 
Q 2147 4134 1753 4134 
Q 1366 4134 1134 3806 
Q 844 3388 844 2259 
z
" id="ArialMT-30" transform="scale(0.015625)"/>
       </defs>
       <use xlink:href="#ArialMT-30"/>
      </g>
     </g>
    </g>
    <g id="xtick_2">
     <g id="line2d_2">
      <path clip-path="url(#pdce1d9eaae)" d="M 127.35 293.76 
L 127.35 41.472 
" style="fill:none;stroke:#ffffff;stroke-linecap:round;"/>
     </g>
     <g id="text_2">
      <!-- 50 -->
      <g style="fill:#262626;" transform="translate(119.008594 313.996719)scale(0.15 -0.15)">
       <defs>
        <path d="M 266 1200 
L 856 1250 
Q 922 819 1161 601 
Q 1400 384 1738 384 
Q 2144 384 2425 690 
Q 2706 997 2706 1503 
Q 2706 1984 2436 2262 
Q 2166 2541 1728 2541 
Q 1456 2541 1237 2417 
Q 1019 2294 894 2097 
L 366 2166 
L 809 4519 
L 3088 4519 
L 3088 3981 
L 1259 3981 
L 1013 2750 
Q 1425 3038 1878 3038 
Q 2478 3038 2890 2622 
Q 3303 2206 3303 1553 
Q 3303 931 2941 478 
Q 2500 -78 1738 -78 
Q 1113 -78 717 272 
Q 322 622 266 1200 
z
" id="ArialMT-35" transform="scale(0.015625)"/>
       </defs>
       <use xlink:href="#ArialMT-35"/>
       <use x="55.615234" xlink:href="#ArialMT-30"/>
      </g>
     </g>
    </g>
    <g id="xtick_3">
     <g id="line2d_3">
      <path clip-path="url(#pdce1d9eaae)" d="M 197.1 293.76 
L 197.1 41.472 
" style="fill:none;stroke:#ffffff;stroke-linecap:round;"/>
     </g>
     <g id="text_3">
      <!-- 100 -->
      <g style="fill:#262626;" transform="translate(184.587891 313.996719)scale(0.15 -0.15)">
       <defs>
        <path d="M 2384 0 
L 1822 0 
L 1822 3584 
Q 1619 3391 1289 3197 
Q 959 3003 697 2906 
L 697 3450 
Q 1169 3672 1522 3987 
Q 1875 4303 2022 4600 
L 2384 4600 
L 2384 0 
z
" id="ArialMT-31" transform="scale(0.015625)"/>
       </defs>
       <use xlink:href="#ArialMT-31"/>
       <use x="55.615234" xlink:href="#ArialMT-30"/>
       <use x="111.230469" xlink:href="#ArialMT-30"/>
      </g>
     </g>
    </g>
    <g id="xtick_4">
     <g id="line2d_4">
      <path clip-path="url(#pdce1d9eaae)" d="M 266.85 293.76 
L 266.85 41.472 
" style="fill:none;stroke:#ffffff;stroke-linecap:round;"/>
     </g>
     <g id="text_4">
      <!-- 150 -->
      <g style="fill:#262626;" transform="translate(254.337891 313.996719)scale(0.15 -0.15)">
       <use xlink:href="#ArialMT-31"/>
       <use x="55.615234" xlink:href="#ArialMT-35"/>
       <use x="111.230469" xlink:href="#ArialMT-30"/>
      </g>
     </g>
    </g>
    <g id="xtick_5">
     <g id="line2d_5">
      <path clip-path="url(#pdce1d9eaae)" d="M 336.6 293.76 
L 336.6 41.472 
" style="fill:none;stroke:#ffffff;stroke-linecap:round;"/>
     </g>
     <g id="text_5">
      <!-- 200 -->
      <g style="fill:#262626;" transform="translate(324.087891 313.996719)scale(0.15 -0.15)">
       <defs>
        <path d="M 3222 541 
L 3222 0 
L 194 0 
Q 188 203 259 391 
Q 375 700 629 1000 
Q 884 1300 1366 1694 
Q 2113 2306 2375 2664 
Q 2638 3022 2638 3341 
Q 2638 3675 2398 3904 
Q 2159 4134 1775 4134 
Q 1369 4134 1125 3890 
Q 881 3647 878 3216 
L 300 3275 
Q 359 3922 746 4261 
Q 1134 4600 1788 4600 
Q 2447 4600 2831 4234 
Q 3216 3869 3216 3328 
Q 3216 3053 3103 2787 
Q 2991 2522 2730 2228 
Q 2469 1934 1863 1422 
Q 1356 997 1212 845 
Q 1069 694 975 541 
L 3222 541 
z
" id="ArialMT-32" transform="scale(0.015625)"/>
       </defs>
       <use xlink:href="#ArialMT-32"/>
       <use x="55.615234" xlink:href="#ArialMT-30"/>
       <use x="111.230469" xlink:href="#ArialMT-30"/>
      </g>
     </g>
    </g>
    <g id="xtick_6">
     <g id="line2d_6">
      <path clip-path="url(#pdce1d9eaae)" d="M 406.35 293.76 
L 406.35 41.472 
" style="fill:none;stroke:#ffffff;stroke-linecap:round;"/>
     </g>
     <g id="text_6">
      <!-- 250 -->
      <g style="fill:#262626;" transform="translate(393.837891 313.996719)scale(0.15 -0.15)">
       <use xlink:href="#ArialMT-32"/>
       <use x="55.615234" xlink:href="#ArialMT-35"/>
       <use x="111.230469" xlink:href="#ArialMT-30"/>
      </g>
     </g>
    </g>
    <g id="text_7">
     <!-- Time Step -->
     <g style="fill:#262626;" transform="translate(202.264688 331.8975)scale(0.15 -0.15)">
      <defs>
       <path d="M 1659 0 
L 1659 4041 
L 150 4041 
L 150 4581 
L 3781 4581 
L 3781 4041 
L 2266 4041 
L 2266 0 
L 1659 0 
z
" id="ArialMT-54" transform="scale(0.015625)"/>
       <path d="M 425 3934 
L 425 4581 
L 988 4581 
L 988 3934 
L 425 3934 
z
M 425 0 
L 425 3319 
L 988 3319 
L 988 0 
L 425 0 
z
" id="ArialMT-69" transform="scale(0.015625)"/>
       <path d="M 422 0 
L 422 3319 
L 925 3319 
L 925 2853 
Q 1081 3097 1340 3245 
Q 1600 3394 1931 3394 
Q 2300 3394 2536 3241 
Q 2772 3088 2869 2813 
Q 3263 3394 3894 3394 
Q 4388 3394 4653 3120 
Q 4919 2847 4919 2278 
L 4919 0 
L 4359 0 
L 4359 2091 
Q 4359 2428 4304 2576 
Q 4250 2725 4106 2815 
Q 3963 2906 3769 2906 
Q 3419 2906 3187 2673 
Q 2956 2441 2956 1928 
L 2956 0 
L 2394 0 
L 2394 2156 
Q 2394 2531 2256 2718 
Q 2119 2906 1806 2906 
Q 1569 2906 1367 2781 
Q 1166 2656 1075 2415 
Q 984 2175 984 1722 
L 984 0 
L 422 0 
z
" id="ArialMT-6d" transform="scale(0.015625)"/>
       <path d="M 2694 1069 
L 3275 997 
Q 3138 488 2766 206 
Q 2394 -75 1816 -75 
Q 1088 -75 661 373 
Q 234 822 234 1631 
Q 234 2469 665 2931 
Q 1097 3394 1784 3394 
Q 2450 3394 2872 2941 
Q 3294 2488 3294 1666 
Q 3294 1616 3291 1516 
L 816 1516 
Q 847 969 1125 678 
Q 1403 388 1819 388 
Q 2128 388 2347 550 
Q 2566 713 2694 1069 
z
M 847 1978 
L 2700 1978 
Q 2663 2397 2488 2606 
Q 2219 2931 1791 2931 
Q 1403 2931 1139 2672 
Q 875 2413 847 1978 
z
" id="ArialMT-65" transform="scale(0.015625)"/>
       <path id="ArialMT-20" transform="scale(0.015625)"/>
       <path d="M 288 1472 
L 859 1522 
Q 900 1178 1048 958 
Q 1197 738 1509 602 
Q 1822 466 2213 466 
Q 2559 466 2825 569 
Q 3091 672 3220 851 
Q 3350 1031 3350 1244 
Q 3350 1459 3225 1620 
Q 3100 1781 2813 1891 
Q 2628 1963 1997 2114 
Q 1366 2266 1113 2400 
Q 784 2572 623 2826 
Q 463 3081 463 3397 
Q 463 3744 659 4045 
Q 856 4347 1234 4503 
Q 1613 4659 2075 4659 
Q 2584 4659 2973 4495 
Q 3363 4331 3572 4012 
Q 3781 3694 3797 3291 
L 3216 3247 
Q 3169 3681 2898 3903 
Q 2628 4125 2100 4125 
Q 1550 4125 1298 3923 
Q 1047 3722 1047 3438 
Q 1047 3191 1225 3031 
Q 1400 2872 2139 2705 
Q 2878 2538 3153 2413 
Q 3553 2228 3743 1945 
Q 3934 1663 3934 1294 
Q 3934 928 3725 604 
Q 3516 281 3123 101 
Q 2731 -78 2241 -78 
Q 1619 -78 1198 103 
Q 778 284 539 648 
Q 300 1013 288 1472 
z
" id="ArialMT-53" transform="scale(0.015625)"/>
       <path d="M 1650 503 
L 1731 6 
Q 1494 -44 1306 -44 
Q 1000 -44 831 53 
Q 663 150 594 308 
Q 525 466 525 972 
L 525 2881 
L 113 2881 
L 113 3319 
L 525 3319 
L 525 4141 
L 1084 4478 
L 1084 3319 
L 1650 3319 
L 1650 2881 
L 1084 2881 
L 1084 941 
Q 1084 700 1114 631 
Q 1144 563 1211 522 
Q 1278 481 1403 481 
Q 1497 481 1650 503 
z
" id="ArialMT-74" transform="scale(0.015625)"/>
       <path d="M 422 -1272 
L 422 3319 
L 934 3319 
L 934 2888 
Q 1116 3141 1344 3267 
Q 1572 3394 1897 3394 
Q 2322 3394 2647 3175 
Q 2972 2956 3137 2557 
Q 3303 2159 3303 1684 
Q 3303 1175 3120 767 
Q 2938 359 2589 142 
Q 2241 -75 1856 -75 
Q 1575 -75 1351 44 
Q 1128 163 984 344 
L 984 -1272 
L 422 -1272 
z
M 931 1641 
Q 931 1000 1190 694 
Q 1450 388 1819 388 
Q 2194 388 2461 705 
Q 2728 1022 2728 1688 
Q 2728 2322 2467 2637 
Q 2206 2953 1844 2953 
Q 1484 2953 1207 2617 
Q 931 2281 931 1641 
z
" id="ArialMT-70" transform="scale(0.015625)"/>
      </defs>
      <use xlink:href="#ArialMT-54"/>
      <use x="57.333984" xlink:href="#ArialMT-69"/>
      <use x="79.550781" xlink:href="#ArialMT-6d"/>
      <use x="162.851562" xlink:href="#ArialMT-65"/>
      <use x="218.466797" xlink:href="#ArialMT-20"/>
      <use x="246.25" xlink:href="#ArialMT-53"/>
      <use x="312.949219" xlink:href="#ArialMT-74"/>
      <use x="340.732422" xlink:href="#ArialMT-65"/>
      <use x="396.347656" xlink:href="#ArialMT-70"/>
     </g>
    </g>
   </g>
   <g id="matplotlib.axis_2">
    <g id="ytick_1">
     <g id="line2d_7">
      <path clip-path="url(#pdce1d9eaae)" d="M 57.6 293.76 
L 414.72 293.76 
" style="fill:none;stroke:#ffffff;stroke-linecap:round;"/>
     </g>
     <g id="text_8">
      <!-- 0.0 -->
      <g style="fill:#262626;" transform="translate(27.25 299.128359)scale(0.15 -0.15)">
       <defs>
        <path d="M 581 0 
L 581 641 
L 1222 641 
L 1222 0 
L 581 0 
z
" id="ArialMT-2e" transform="scale(0.015625)"/>
       </defs>
       <use xlink:href="#ArialMT-30"/>
       <use x="55.615234" xlink:href="#ArialMT-2e"/>
       <use x="83.398438" xlink:href="#ArialMT-30"/>
      </g>
     </g>
    </g>
    <g id="ytick_2">
     <g id="line2d_8">
      <path clip-path="url(#pdce1d9eaae)" d="M 57.6 243.3024 
L 414.72 243.3024 
" style="fill:none;stroke:#ffffff;stroke-linecap:round;"/>
     </g>
     <g id="text_9">
      <!-- 0.2 -->
      <g style="fill:#262626;" transform="translate(27.25 248.670759)scale(0.15 -0.15)">
       <use xlink:href="#ArialMT-30"/>
       <use x="55.615234" xlink:href="#ArialMT-2e"/>
       <use x="83.398438" xlink:href="#ArialMT-32"/>
      </g>
     </g>
    </g>
    <g id="ytick_3">
     <g id="line2d_9">
      <path clip-path="url(#pdce1d9eaae)" d="M 57.6 192.8448 
L 414.72 192.8448 
" style="fill:none;stroke:#ffffff;stroke-linecap:round;"/>
     </g>
     <g id="text_10">
      <!-- 0.4 -->
      <g style="fill:#262626;" transform="translate(27.25 198.213159)scale(0.15 -0.15)">
       <defs>
        <path d="M 2069 0 
L 2069 1097 
L 81 1097 
L 81 1613 
L 2172 4581 
L 2631 4581 
L 2631 1613 
L 3250 1613 
L 3250 1097 
L 2631 1097 
L 2631 0 
L 2069 0 
z
M 2069 1613 
L 2069 3678 
L 634 1613 
L 2069 1613 
z
" id="ArialMT-34" transform="scale(0.015625)"/>
       </defs>
       <use xlink:href="#ArialMT-30"/>
       <use x="55.615234" xlink:href="#ArialMT-2e"/>
       <use x="83.398438" xlink:href="#ArialMT-34"/>
      </g>
     </g>
    </g>
    <g id="ytick_4">
     <g id="line2d_10">
      <path clip-path="url(#pdce1d9eaae)" d="M 57.6 142.3872 
L 414.72 142.3872 
" style="fill:none;stroke:#ffffff;stroke-linecap:round;"/>
     </g>
     <g id="text_11">
      <!-- 0.6 -->
      <g style="fill:#262626;" transform="translate(27.25 147.755559)scale(0.15 -0.15)">
       <defs>
        <path d="M 3184 3459 
L 2625 3416 
Q 2550 3747 2413 3897 
Q 2184 4138 1850 4138 
Q 1581 4138 1378 3988 
Q 1113 3794 959 3422 
Q 806 3050 800 2363 
Q 1003 2672 1297 2822 
Q 1591 2972 1913 2972 
Q 2475 2972 2870 2558 
Q 3266 2144 3266 1488 
Q 3266 1056 3080 686 
Q 2894 316 2569 119 
Q 2244 -78 1831 -78 
Q 1128 -78 684 439 
Q 241 956 241 2144 
Q 241 3472 731 4075 
Q 1159 4600 1884 4600 
Q 2425 4600 2770 4297 
Q 3116 3994 3184 3459 
z
M 888 1484 
Q 888 1194 1011 928 
Q 1134 663 1356 523 
Q 1578 384 1822 384 
Q 2178 384 2434 671 
Q 2691 959 2691 1453 
Q 2691 1928 2437 2201 
Q 2184 2475 1800 2475 
Q 1419 2475 1153 2201 
Q 888 1928 888 1484 
z
" id="ArialMT-36" transform="scale(0.015625)"/>
       </defs>
       <use xlink:href="#ArialMT-30"/>
       <use x="55.615234" xlink:href="#ArialMT-2e"/>
       <use x="83.398438" xlink:href="#ArialMT-36"/>
      </g>
     </g>
    </g>
    <g id="ytick_5">
     <g id="line2d_11">
      <path clip-path="url(#pdce1d9eaae)" d="M 57.6 91.9296 
L 414.72 91.9296 
" style="fill:none;stroke:#ffffff;stroke-linecap:round;"/>
     </g>
     <g id="text_12">
      <!-- 0.8 -->
      <g style="fill:#262626;" transform="translate(27.25 97.297959)scale(0.15 -0.15)">
       <defs>
        <path d="M 1131 2484 
Q 781 2613 612 2850 
Q 444 3088 444 3419 
Q 444 3919 803 4259 
Q 1163 4600 1759 4600 
Q 2359 4600 2725 4251 
Q 3091 3903 3091 3403 
Q 3091 3084 2923 2848 
Q 2756 2613 2416 2484 
Q 2838 2347 3058 2040 
Q 3278 1734 3278 1309 
Q 3278 722 2862 322 
Q 2447 -78 1769 -78 
Q 1091 -78 675 323 
Q 259 725 259 1325 
Q 259 1772 486 2073 
Q 713 2375 1131 2484 
z
M 1019 3438 
Q 1019 3113 1228 2906 
Q 1438 2700 1772 2700 
Q 2097 2700 2305 2904 
Q 2513 3109 2513 3406 
Q 2513 3716 2298 3927 
Q 2084 4138 1766 4138 
Q 1444 4138 1231 3931 
Q 1019 3725 1019 3438 
z
M 838 1322 
Q 838 1081 952 856 
Q 1066 631 1291 507 
Q 1516 384 1775 384 
Q 2178 384 2440 643 
Q 2703 903 2703 1303 
Q 2703 1709 2433 1975 
Q 2163 2241 1756 2241 
Q 1359 2241 1098 1978 
Q 838 1716 838 1322 
z
" id="ArialMT-38" transform="scale(0.015625)"/>
       </defs>
       <use xlink:href="#ArialMT-30"/>
       <use x="55.615234" xlink:href="#ArialMT-2e"/>
       <use x="83.398438" xlink:href="#ArialMT-38"/>
      </g>
     </g>
    </g>
    <g id="ytick_6">
     <g id="line2d_12">
      <path clip-path="url(#pdce1d9eaae)" d="M 57.6 41.472 
L 414.72 41.472 
" style="fill:none;stroke:#ffffff;stroke-linecap:round;"/>
     </g>
     <g id="text_13">
      <!-- 1.0 -->
      <g style="fill:#262626;" transform="translate(27.25 46.840359)scale(0.15 -0.15)">
       <use xlink:href="#ArialMT-31"/>
       <use x="55.615234" xlink:href="#ArialMT-2e"/>
       <use x="83.398438" xlink:href="#ArialMT-30"/>
      </g>
     </g>
    </g>
    <g id="text_14">
     <!-- Top-1 Acc -->
     <g style="fill:#262626;" transform="translate(19.6725 207.131625)rotate(-90)scale(0.18 -0.18)">
      <defs>
       <path d="M 213 1659 
Q 213 2581 725 3025 
Q 1153 3394 1769 3394 
Q 2453 3394 2887 2945 
Q 3322 2497 3322 1706 
Q 3322 1066 3130 698 
Q 2938 331 2570 128 
Q 2203 -75 1769 -75 
Q 1072 -75 642 372 
Q 213 819 213 1659 
z
M 791 1659 
Q 791 1022 1069 705 
Q 1347 388 1769 388 
Q 2188 388 2466 706 
Q 2744 1025 2744 1678 
Q 2744 2294 2464 2611 
Q 2184 2928 1769 2928 
Q 1347 2928 1069 2612 
Q 791 2297 791 1659 
z
" id="ArialMT-6f" transform="scale(0.015625)"/>
       <path d="M 203 1375 
L 203 1941 
L 1931 1941 
L 1931 1375 
L 203 1375 
z
" id="ArialMT-2d" transform="scale(0.015625)"/>
       <path d="M -9 0 
L 1750 4581 
L 2403 4581 
L 4278 0 
L 3588 0 
L 3053 1388 
L 1138 1388 
L 634 0 
L -9 0 
z
M 1313 1881 
L 2866 1881 
L 2388 3150 
Q 2169 3728 2063 4100 
Q 1975 3659 1816 3225 
L 1313 1881 
z
" id="ArialMT-41" transform="scale(0.015625)"/>
       <path d="M 2588 1216 
L 3141 1144 
Q 3050 572 2676 248 
Q 2303 -75 1759 -75 
Q 1078 -75 664 370 
Q 250 816 250 1647 
Q 250 2184 428 2587 
Q 606 2991 970 3192 
Q 1334 3394 1763 3394 
Q 2303 3394 2647 3120 
Q 2991 2847 3088 2344 
L 2541 2259 
Q 2463 2594 2264 2762 
Q 2066 2931 1784 2931 
Q 1359 2931 1093 2626 
Q 828 2322 828 1663 
Q 828 994 1084 691 
Q 1341 388 1753 388 
Q 2084 388 2306 591 
Q 2528 794 2588 1216 
z
" id="ArialMT-63" transform="scale(0.015625)"/>
      </defs>
      <use xlink:href="#ArialMT-54"/>
      <use x="49.958984" xlink:href="#ArialMT-6f"/>
      <use x="105.574219" xlink:href="#ArialMT-70"/>
      <use x="161.189453" xlink:href="#ArialMT-2d"/>
      <use x="194.490234" xlink:href="#ArialMT-31"/>
      <use x="250.105469" xlink:href="#ArialMT-20"/>
      <use x="272.388672" xlink:href="#ArialMT-41"/>
      <use x="339.087891" xlink:href="#ArialMT-63"/>
      <use x="389.087891" xlink:href="#ArialMT-63"/>
     </g>
    </g>
   </g>
   <g id="line2d_13">
    <path clip-path="url(#pdce1d9eaae)" d="M 57.6 268.5312 
L 60.39 268.5312 
L 61.785 267.824794 
L 63.18 260.13001 
L 64.575 228.846298 
L 65.97 179.473536 
L 67.365 137.13961 
L 68.76 105.60361 
L 70.155 86.480179 
L 71.55 76.489574 
L 72.945 71.141069 
L 74.34 68.239757 
L 75.735 66.297139 
L 77.13 64.758182 
L 78.525 63.496742 
L 79.92 62.815565 
L 81.315 61.932557 
L 82.71 61.554125 
L 84.105 60.948634 
L 91.08 59.258304 
L 92.475 59.13216 
L 95.265 58.450982 
L 98.055 58.148237 
L 100.845 58.047322 
L 102.24 57.845491 
L 103.635 57.795034 
L 106.425 57.44183 
L 124.56 56.861568 
L 127.35 56.886797 
L 130.14 56.785882 
L 144.09 56.684966 
L 151.065 56.508365 
L 155.25 56.457907 
L 158.04 56.306534 
L 177.57 56.205619 
L 180.36 56.104704 
L 190.125 56.18039 
L 192.915 56.155162 
L 198.495 56.18039 
L 201.285 56.104704 
L 202.68 56.230848 
L 211.05 56.18039 
L 216.63 56.18039 
L 236.16 56.104704 
L 238.95 56.054246 
L 245.925 55.97856 
L 248.715 56.079475 
L 257.085 56.029018 
L 262.665 56.029018 
L 326.835 55.953331 
L 329.625 55.928102 
L 372.87 55.827187 
L 378.45 55.827187 
L 384.03 55.827187 
L 413.325 55.77673 
L 413.325 55.77673 
" style="fill:none;stroke:#bfbf00;stroke-linecap:round;stroke-width:2.5;"/>
   </g>
   <g id="line2d_14">
    <path clip-path="url(#pdce1d9eaae)" d="M 57.6 268.5312 
L 67.365 268.5312 
L 68.76 267.774336 
L 70.155 264.923482 
L 71.55 260.029094 
L 72.945 251.148557 
L 74.34 239.770368 
L 77.13 214.541568 
L 79.92 187.294464 
L 84.105 152.756237 
L 85.5 141.55465 
L 86.895 132.09385 
L 89.685 114.458918 
L 91.08 106.915507 
L 92.475 100.33079 
L 93.87 94.704768 
L 95.265 89.709466 
L 98.055 81.257818 
L 100.845 75.354278 
L 102.24 72.730483 
L 105.03 68.845248 
L 107.82 65.994394 
L 109.215 64.707725 
L 112.005 62.866022 
L 114.795 61.730726 
L 120.375 59.510592 
L 124.56 58.425754 
L 125.955 57.971635 
L 132.93 56.432678 
L 134.325 56.205619 
L 135.72 56.155162 
L 137.115 55.852416 
L 139.905 55.625357 
L 141.3 55.600128 
L 142.695 55.322611 
L 145.485 55.221696 
L 149.67 54.767578 
L 151.065 54.742349 
L 155.25 54.313459 
L 159.435 54.187315 
L 162.225 54.111629 
L 169.2 53.808883 
L 171.99 53.607053 
L 173.385 53.682739 
L 174.78 53.531366 
L 176.175 53.581824 
L 180.36 53.45568 
L 191.52 53.304307 
L 192.915 53.405222 
L 209.655 53.203392 
L 240.345 53.152934 
L 243.135 53.077248 
L 245.925 53.052019 
L 250.11 53.203392 
L 259.875 53.279078 
L 278.01 53.02679 
L 282.195 53.052019 
L 284.985 53.001562 
L 287.775 53.001562 
L 329.625 52.900646 
L 335.205 52.900646 
L 339.39 52.900646 
L 351.945 52.774502 
L 356.13 52.749274 
L 413.325 52.749274 
L 413.325 52.749274 
" style="fill:none;stroke:#00bfbf;stroke-linecap:round;stroke-width:2.5;"/>
   </g>
   <g id="line2d_15">
    <path clip-path="url(#pdce1d9eaae)" d="M 57.6 268.5312 
L 77.13 268.480742 
L 78.525 268.354598 
L 79.92 267.850022 
L 81.315 266.967014 
L 82.71 265.428058 
L 84.105 263.006093 
L 85.5 260.281382 
L 86.895 256.597978 
L 89.685 246.304627 
L 91.08 241.738214 
L 92.475 235.910362 
L 93.87 229.350874 
L 96.66 217.24105 
L 100.845 198.041933 
L 102.24 192.895258 
L 103.635 186.789888 
L 105.03 181.315238 
L 106.425 175.033267 
L 107.82 169.659533 
L 110.61 157.474022 
L 113.4 147.029299 
L 114.795 141.605107 
L 117.585 131.892019 
L 124.56 110.548454 
L 125.955 107.041651 
L 130.14 98.514317 
L 131.535 95.335488 
L 137.115 86.026061 
L 138.51 84.411418 
L 139.905 82.998605 
L 141.3 80.980301 
L 142.695 79.643174 
L 144.09 78.608794 
L 145.485 76.968922 
L 146.88 75.631795 
L 148.275 75.001075 
L 151.065 72.225907 
L 153.855 70.005773 
L 155.25 69.22368 
L 159.435 66.524198 
L 165.015 64.102234 
L 167.805 63.219226 
L 171.99 62.538048 
L 176.175 61.629811 
L 177.57 61.377523 
L 178.965 60.923405 
L 180.36 60.59543 
L 181.755 60.418829 
L 183.15 60.015168 
L 184.545 59.813338 
L 185.94 59.788109 
L 187.335 59.434906 
L 190.125 59.106931 
L 191.52 58.829414 
L 195.705 58.476211 
L 197.1 58.274381 
L 198.495 58.249152 
L 206.865 57.265229 
L 215.235 56.584051 
L 219.42 56.306534 
L 220.815 56.129933 
L 223.605 55.928102 
L 233.37 55.322611 
L 234.765 55.448755 
L 248.715 54.71712 
L 250.11 54.742349 
L 251.505 54.490061 
L 264.06 54.237773 
L 265.455 54.061171 
L 282.195 53.859341 
L 286.38 53.834112 
L 290.565 53.758426 
L 294.75 53.707968 
L 307.305 53.556595 
L 310.095 53.531366 
L 314.28 53.45568 
L 321.255 53.480909 
L 329.625 53.430451 
L 332.415 53.405222 
L 336.6 53.405222 
L 344.97 53.45568 
L 349.155 53.405222 
L 357.525 53.304307 
L 365.895 53.228621 
L 370.08 53.228621 
L 377.055 53.178163 
L 378.45 53.228621 
L 381.24 53.152934 
L 384.03 53.178163 
L 391.005 53.203392 
L 395.19 53.127706 
L 413.325 53.102477 
L 413.325 53.102477 
" style="fill:none;stroke:#0000ff;stroke-linecap:round;stroke-width:2.5;"/>
   </g>
   <g id="line2d_16">
    <path clip-path="url(#pdce1d9eaae)" d="M 57.6 268.5312 
L 68.76 268.480742 
L 70.155 266.21015 
L 71.55 254.176013 
L 72.945 235.254413 
L 75.735 187.698125 
L 77.13 166.278874 
L 78.525 147.710477 
L 79.92 131.261299 
L 81.315 119.454221 
L 82.71 108.631066 
L 84.105 100.356019 
L 85.5 94.679539 
L 88.29 86.101747 
L 89.685 83.149978 
L 91.08 80.526182 
L 92.475 78.507878 
L 93.87 76.060685 
L 98.055 70.989696 
L 99.45 69.980544 
L 100.845 68.769562 
L 105.03 66.473741 
L 107.82 64.480666 
L 110.61 63.11831 
L 117.585 60.797261 
L 118.98 60.59543 
L 120.375 60.116083 
L 128.745 58.678042 
L 131.535 58.350067 
L 139.905 57.315686 
L 141.3 57.290458 
L 144.09 57.088627 
L 148.275 56.760653 
L 149.67 56.558822 
L 155.25 56.306534 
L 158.04 56.256077 
L 163.62 56.054246 
L 167.805 55.877645 
L 169.2 55.751501 
L 171.99 55.650586 
L 177.57 55.423526 
L 192.915 55.045094 
L 215.235 54.313459 
L 218.025 54.28823 
L 223.605 54.187315 
L 226.395 54.212544 
L 229.185 54.0864 
L 245.925 53.88457 
L 254.295 53.935027 
L 265.455 53.859341 
L 269.64 53.783654 
L 297.54 53.682739 
L 300.33 53.632282 
L 303.12 53.632282 
L 310.095 53.581824 
L 315.675 53.607053 
L 325.44 53.531366 
L 335.205 53.45568 
L 337.995 53.405222 
L 344.97 53.430451 
L 354.735 53.329536 
L 361.71 53.304307 
L 413.325 53.304307 
L 413.325 53.304307 
" style="fill:none;stroke:#008000;stroke-linecap:round;stroke-width:2.5;"/>
   </g>
   <g id="line2d_17">
    <path clip-path="url(#pdce1d9eaae)" d="M 57.6 268.5312 
L 72.945 268.455514 
L 74.34 268.10231 
L 75.735 267.26976 
L 77.13 265.276685 
L 78.525 262.123085 
L 79.92 257.531443 
L 81.315 251.779277 
L 84.105 237.575462 
L 91.08 196.906637 
L 92.475 190.019174 
L 99.45 152.201203 
L 105.03 126.013709 
L 106.425 120.312 
L 109.215 110.321395 
L 110.61 105.982042 
L 112.005 102.22295 
L 113.4 98.03497 
L 117.585 88.14528 
L 118.98 85.672858 
L 120.375 83.452723 
L 121.77 80.879386 
L 123.165 78.936768 
L 124.56 77.347354 
L 125.955 75.228134 
L 128.745 72.37728 
L 130.14 71.393357 
L 131.535 70.005773 
L 132.93 69.072307 
L 134.325 67.785638 
L 135.72 66.953088 
L 137.115 65.86825 
L 138.51 65.212301 
L 139.905 64.278835 
L 142.695 63.320141 
L 144.09 62.638963 
L 145.485 62.310989 
L 146.88 61.755955 
L 148.275 61.503667 
L 149.67 61.049549 
L 152.46 60.3936 
L 155.25 59.661965 
L 156.645 59.33399 
L 158.04 58.854643 
L 160.83 58.50144 
L 169.2 57.366144 
L 177.57 56.508365 
L 181.755 56.155162 
L 184.545 56.104704 
L 185.94 55.77673 
L 191.52 55.600128 
L 194.31 55.398298 
L 197.1 55.221696 
L 199.89 55.019866 
L 208.26 54.590976 
L 209.655 54.641434 
L 212.445 54.414374 
L 219.42 54.136858 
L 220.815 54.187315 
L 226.395 53.985485 
L 231.975 53.808883 
L 236.16 53.859341 
L 240.345 53.65751 
L 247.32 53.581824 
L 248.715 53.45568 
L 252.9 53.430451 
L 255.69 53.480909 
L 264.06 53.379994 
L 269.64 53.279078 
L 275.22 53.203392 
L 278.01 53.077248 
L 280.8 53.077248 
L 284.985 53.127706 
L 287.775 53.127706 
L 293.355 53.02679 
L 300.33 53.001562 
L 322.65 52.951104 
L 325.44 52.875418 
L 413.325 52.875418 
L 413.325 52.875418 
" style="fill:none;stroke:#ff0000;stroke-linecap:round;stroke-width:2.5;"/>
   </g>
   <g id="line2d_18">
    <path clip-path="url(#pdce1d9eaae)" d="M 57.6 268.5312 
L 64.575 268.5312 
L 65.97 268.152768 
L 67.365 262.451059 
L 68.76 246.607373 
L 71.55 207.855936 
L 74.34 162.57024 
L 77.13 121.825728 
L 78.525 107.167795 
L 79.92 95.562547 
L 81.315 86.757696 
L 82.71 80.37481 
L 84.105 75.884083 
L 85.5 71.94839 
L 86.895 68.769562 
L 88.29 66.170995 
L 89.685 64.152691 
L 91.08 62.941709 
L 93.87 61.200922 
L 95.265 60.19177 
L 98.055 59.13216 
L 100.845 57.921178 
L 103.635 57.517517 
L 105.03 57.063398 
L 109.215 56.256077 
L 110.61 56.003789 
L 112.005 55.625357 
L 113.4 55.448755 
L 114.795 55.120781 
L 120.375 54.71712 
L 121.77 54.490061 
L 130.14 54.111629 
L 131.535 54.010714 
L 134.325 54.061171 
L 142.695 53.682739 
L 146.88 53.531366 
L 151.065 53.379994 
L 155.25 53.329536 
L 158.04 53.379994 
L 160.83 53.354765 
L 162.225 53.430451 
L 167.805 53.329536 
L 173.385 53.329536 
L 181.755 53.25385 
L 184.545 53.304307 
L 208.26 52.976333 
L 226.395 52.875418 
L 231.975 52.850189 
L 238.95 53.001562 
L 248.715 52.875418 
L 251.505 52.875418 
L 283.59 52.774502 
L 293.355 52.698816 
L 315.675 52.799731 
L 324.045 52.850189 
L 342.18 52.774502 
L 346.365 52.698816 
L 413.325 52.774502 
L 413.325 52.774502 
" style="fill:none;stroke:#bf00bf;stroke-linecap:round;stroke-width:2.5;"/>
   </g>
   <g id="line2d_19">
    <path clip-path="url(#pdce1d9eaae)" d="M 57.6 52.951104 
L 414.72 52.951104 
" style="fill:none;stroke:#000000;stroke-dasharray:9.25,4;stroke-dashoffset:0;stroke-width:2.5;"/>
   </g>
   <g id="patch_3">
    <path d="M 57.6 293.76 
L 57.6 41.472 
" style="fill:none;stroke:#ffffff;stroke-linecap:square;stroke-linejoin:miter;stroke-width:1.25;"/>
   </g>
   <g id="patch_4">
    <path d="M 414.72 293.76 
L 414.72 41.472 
" style="fill:none;stroke:#ffffff;stroke-linecap:square;stroke-linejoin:miter;stroke-width:1.25;"/>
   </g>
   <g id="patch_5">
    <path d="M 57.6 293.76 
L 414.72 293.76 
" style="fill:none;stroke:#ffffff;stroke-linecap:square;stroke-linejoin:miter;stroke-width:1.25;"/>
   </g>
   <g id="patch_6">
    <path d="M 57.6 41.472 
L 414.72 41.472 
" style="fill:none;stroke:#ffffff;stroke-linecap:square;stroke-linejoin:miter;stroke-width:1.25;"/>
   </g>
   <g id="patch_7">
    <path clip-path="url(#pdce1d9eaae)" d="M 370.08 53.581824 
L 414.72 53.581824 
L 414.72 52.572672 
L 370.08 52.572672 
z
" style="fill:none;opacity:0.5;stroke:#808080;stroke-linejoin:miter;"/>
   </g>
   <g id="patch_8">
    <path d="M 254.016 104.544 
Q 312.048 78.558336 370.08 52.572672 
" style="fill:none;opacity:0.5;stroke:#808080;stroke-linecap:round;"/>
   </g>
   <g id="patch_9">
    <path d="M 361.152 155.0016 
Q 387.936 104.291712 414.72 53.581824 
" style="fill:none;opacity:0.5;stroke:#808080;stroke-linecap:round;"/>
   </g>
   <g id="axes_2">
    <g id="patch_10">
     <path d="M 254.016 155.0016 
L 361.152 155.0016 
L 361.152 104.544 
L 254.016 104.544 
z
" style="fill:#eaeaf2;"/>
    </g>
    <g id="matplotlib.axis_3">
     <g id="xtick_7">
      <g id="line2d_20">
       <path clip-path="url(#peea6c477d4)" d="M 274.104 155.0016 
L 274.104 104.544 
" style="fill:none;stroke:#ffffff;stroke-linecap:round;"/>
      </g>
      <g id="text_15">
       <!-- 230 -->
       <g style="fill:#262626;" transform="translate(264.928453 172.375194)scale(0.11 -0.11)">
        <defs>
         <path d="M 269 1209 
L 831 1284 
Q 928 806 1161 595 
Q 1394 384 1728 384 
Q 2125 384 2398 659 
Q 2672 934 2672 1341 
Q 2672 1728 2419 1979 
Q 2166 2231 1775 2231 
Q 1616 2231 1378 2169 
L 1441 2663 
Q 1497 2656 1531 2656 
Q 1891 2656 2178 2843 
Q 2466 3031 2466 3422 
Q 2466 3731 2256 3934 
Q 2047 4138 1716 4138 
Q 1388 4138 1169 3931 
Q 950 3725 888 3313 
L 325 3413 
Q 428 3978 793 4289 
Q 1159 4600 1703 4600 
Q 2078 4600 2393 4439 
Q 2709 4278 2876 4000 
Q 3044 3722 3044 3409 
Q 3044 3113 2884 2869 
Q 2725 2625 2413 2481 
Q 2819 2388 3044 2092 
Q 3269 1797 3269 1353 
Q 3269 753 2831 336 
Q 2394 -81 1725 -81 
Q 1122 -81 723 278 
Q 325 638 269 1209 
z
" id="ArialMT-33" transform="scale(0.015625)"/>
        </defs>
        <use xlink:href="#ArialMT-32"/>
        <use x="55.615234" xlink:href="#ArialMT-33"/>
        <use x="111.230469" xlink:href="#ArialMT-30"/>
       </g>
      </g>
     </g>
     <g id="xtick_8">
      <g id="line2d_21">
       <path clip-path="url(#peea6c477d4)" d="M 307.584 155.0016 
L 307.584 104.544 
" style="fill:none;stroke:#ffffff;stroke-linecap:round;"/>
      </g>
      <g id="text_16">
       <!-- 240 -->
       <g style="fill:#262626;" transform="translate(298.408453 172.375194)scale(0.11 -0.11)">
        <use xlink:href="#ArialMT-32"/>
        <use x="55.615234" xlink:href="#ArialMT-34"/>
        <use x="111.230469" xlink:href="#ArialMT-30"/>
       </g>
      </g>
     </g>
     <g id="xtick_9">
      <g id="line2d_22">
       <path clip-path="url(#peea6c477d4)" d="M 341.064 155.0016 
L 341.064 104.544 
" style="fill:none;stroke:#ffffff;stroke-linecap:round;"/>
      </g>
      <g id="text_17">
       <!-- 250 -->
       <g style="fill:#262626;" transform="translate(331.888453 172.375194)scale(0.11 -0.11)">
        <use xlink:href="#ArialMT-32"/>
        <use x="55.615234" xlink:href="#ArialMT-35"/>
        <use x="111.230469" xlink:href="#ArialMT-30"/>
       </g>
      </g>
     </g>
    </g>
    <g id="matplotlib.axis_4">
     <g id="ytick_7">
      <g id="line2d_23">
       <path clip-path="url(#peea6c477d4)" d="M 254.016 148.6944 
L 361.152 148.6944 
" style="fill:none;stroke:#ffffff;stroke-linecap:round;"/>
      </g>
      <g id="text_18">
       <!-- 0.9525 -->
       <g style="fill:#262626;" transform="translate(210.874906 152.631197)scale(0.11 -0.11)">
        <defs>
         <path d="M 350 1059 
L 891 1109 
Q 959 728 1153 556 
Q 1347 384 1650 384 
Q 1909 384 2104 503 
Q 2300 622 2425 820 
Q 2550 1019 2634 1356 
Q 2719 1694 2719 2044 
Q 2719 2081 2716 2156 
Q 2547 1888 2255 1720 
Q 1963 1553 1622 1553 
Q 1053 1553 659 1965 
Q 266 2378 266 3053 
Q 266 3750 677 4175 
Q 1088 4600 1706 4600 
Q 2153 4600 2523 4359 
Q 2894 4119 3086 3673 
Q 3278 3228 3278 2384 
Q 3278 1506 3087 986 
Q 2897 466 2520 194 
Q 2144 -78 1638 -78 
Q 1100 -78 759 220 
Q 419 519 350 1059 
z
M 2653 3081 
Q 2653 3566 2395 3850 
Q 2138 4134 1775 4134 
Q 1400 4134 1122 3828 
Q 844 3522 844 3034 
Q 844 2597 1108 2323 
Q 1372 2050 1759 2050 
Q 2150 2050 2401 2323 
Q 2653 2597 2653 3081 
z
" id="ArialMT-39" transform="scale(0.015625)"/>
        </defs>
        <use xlink:href="#ArialMT-30"/>
        <use x="55.615234" xlink:href="#ArialMT-2e"/>
        <use x="83.398438" xlink:href="#ArialMT-39"/>
        <use x="139.013672" xlink:href="#ArialMT-35"/>
        <use x="194.628906" xlink:href="#ArialMT-32"/>
        <use x="250.244141" xlink:href="#ArialMT-35"/>
       </g>
      </g>
     </g>
     <g id="ytick_8">
      <g id="line2d_24">
       <path clip-path="url(#peea6c477d4)" d="M 254.016 117.1584 
L 361.152 117.1584 
" style="fill:none;stroke:#ffffff;stroke-linecap:round;"/>
      </g>
      <g id="text_19">
       <!-- 0.9550 -->
       <g style="fill:#262626;" transform="translate(210.874906 121.095197)scale(0.11 -0.11)">
        <use xlink:href="#ArialMT-30"/>
        <use x="55.615234" xlink:href="#ArialMT-2e"/>
        <use x="83.398438" xlink:href="#ArialMT-39"/>
        <use x="139.013672" xlink:href="#ArialMT-35"/>
        <use x="194.628906" xlink:href="#ArialMT-35"/>
        <use x="250.244141" xlink:href="#ArialMT-30"/>
       </g>
      </g>
     </g>
    </g>
    <g id="line2d_25">
     <path clip-path="url(#peea6c477d4)" d="M -1 277.36128 
L -0.432 277.36128 
L 2.916 278.62272 
L 6.264 278.62272 
L 9.612 277.36128 
L 12.96 277.36128 
L 19.656 274.8384 
L 23.004 278.62272 
L 26.352 276.09984 
L 29.7 276.09984 
L 33.048 274.8384 
L 39.744 274.8384 
L 43.092 277.36128 
L 53.136 273.57696 
L 59.832 273.57696 
L 63.18 272.31552 
L 66.528 273.57696 
L 69.876 273.57696 
L 73.224 272.31552 
L 79.92 274.8384 
L 83.268 273.57696 
L 86.616 273.57696 
L 89.964 274.8384 
L 96.66 274.8384 
L 100.008 277.36128 
L 120.096 277.36128 
L 123.444 276.09984 
L 130.14 276.09984 
L 133.488 273.57696 
L 140.184 273.57696 
L 143.532 272.31552 
L 146.88 273.57696 
L 150.228 273.57696 
L 153.576 271.05408 
L 156.924 272.31552 
L 163.62 272.31552 
L 166.968 273.57696 
L 170.316 276.09984 
L 173.664 274.8384 
L 177.012 272.31552 
L 183.708 274.8384 
L 190.404 272.31552 
L 193.752 272.31552 
L 197.1 271.05408 
L 200.448 272.31552 
L 203.796 271.05408 
L 207.144 271.05408 
L 210.492 269.79264 
L 213.84 269.79264 
L 217.188 271.05408 
L 223.884 268.5312 
L 230.58 268.5312 
L 233.928 269.79264 
L 237.276 268.5312 
L 240.624 269.79264 
L 243.972 268.5312 
L 247.32 268.5312 
L 250.668 269.79264 
L 257.364 267.26976 
L 260.712 267.26976 
L 264.06 266.00832 
L 267.408 267.26976 
L 274.104 267.26976 
L 277.452 268.5312 
L 284.148 268.5312 
L 287.496 267.26976 
L 294.192 267.26976 
L 297.54 268.5312 
L 300.888 267.26976 
L 304.236 267.26976 
L 310.932 269.79264 
L 314.28 268.5312 
L 317.628 269.79264 
L 320.976 267.26976 
L 324.324 266.00832 
L 327.672 266.00832 
L 331.02 263.48544 
L 334.368 264.74688 
L 337.716 263.48544 
L 354.456 263.48544 
L 357.804 264.74688 
L 357.804 264.74688 
" style="fill:none;stroke:#bfbf00;stroke-linecap:round;stroke-width:2.5;"/>
    </g>
    <g id="line2d_26">
     <path clip-path="url(#peea6c477d4)" d="M -1 135.651985 
L -0.432 136.08 
L 2.916 132.29568 
L 6.264 136.08 
L 9.612 131.03424 
L 12.96 131.03424 
L 16.308 128.51136 
L 23.004 131.03424 
L 26.352 131.03424 
L 29.7 129.7728 
L 33.048 127.24992 
L 36.396 128.51136 
L 39.744 127.24992 
L 43.092 128.51136 
L 46.44 125.98848 
L 49.788 125.98848 
L 53.136 128.51136 
L 56.484 125.98848 
L 66.528 125.98848 
L 69.876 129.7728 
L 76.572 124.72704 
L 79.92 124.72704 
L 86.616 127.24992 
L 89.964 125.98848 
L 93.312 127.24992 
L 96.66 124.72704 
L 100.008 127.24992 
L 103.356 128.51136 
L 106.704 125.98848 
L 110.052 127.24992 
L 113.4 125.98848 
L 116.748 125.98848 
L 120.096 124.72704 
L 123.444 125.98848 
L 126.792 125.98848 
L 130.14 124.72704 
L 133.488 125.98848 
L 140.184 125.98848 
L 143.532 124.72704 
L 146.88 125.98848 
L 150.228 120.94272 
L 156.924 120.94272 
L 160.272 119.68128 
L 163.62 120.94272 
L 170.316 120.94272 
L 173.664 122.20416 
L 177.012 120.94272 
L 180.36 120.94272 
L 183.708 119.68128 
L 187.056 120.94272 
L 190.404 114.63552 
L 193.752 115.89696 
L 197.1 114.63552 
L 200.448 114.63552 
L 203.796 115.89696 
L 207.144 115.89696 
L 210.492 114.63552 
L 213.84 115.89696 
L 220.536 113.37408 
L 223.884 113.37408 
L 227.232 114.63552 
L 237.276 114.63552 
L 240.624 113.37408 
L 243.972 114.63552 
L 257.364 114.63552 
L 260.712 115.89696 
L 267.408 115.89696 
L 270.756 113.37408 
L 274.104 114.63552 
L 277.452 114.63552 
L 284.148 112.11264 
L 287.496 113.37408 
L 290.844 112.11264 
L 294.192 112.11264 
L 297.54 110.8512 
L 300.888 112.11264 
L 307.584 112.11264 
L 310.932 113.37408 
L 317.628 110.8512 
L 324.324 110.8512 
L 327.672 113.37408 
L 331.02 112.11264 
L 337.716 112.11264 
L 341.064 114.63552 
L 344.412 113.37408 
L 347.76 113.37408 
L 351.108 115.89696 
L 357.804 113.37408 
L 357.804 113.37408 
" style="fill:none;stroke:#00bfbf;stroke-linecap:round;stroke-width:2.5;"/>
    </g>
    <g id="line2d_27">
     <path clip-path="url(#peea6c477d4)" d="M -1 187.585032 
L -0.432 187.79904 
L 2.916 178.96896 
L 6.264 177.70752 
L 9.612 177.70752 
L 12.96 175.18464 
L 16.308 176.44608 
L 19.656 172.66176 
L 26.352 172.66176 
L 29.7 171.40032 
L 33.048 172.66176 
L 36.396 170.13888 
L 39.744 168.87744 
L 43.092 168.87744 
L 46.44 170.13888 
L 49.788 166.35456 
L 53.136 167.616 
L 59.832 167.616 
L 63.18 163.83168 
L 66.528 161.3088 
L 69.876 162.57024 
L 76.572 160.04736 
L 79.92 162.57024 
L 83.268 161.3088 
L 86.616 156.26304 
L 89.964 157.52448 
L 93.312 153.74016 
L 96.66 156.26304 
L 100.008 156.26304 
L 103.356 153.74016 
L 106.704 155.0016 
L 113.4 149.95584 
L 116.748 148.6944 
L 120.096 148.6944 
L 123.444 149.95584 
L 130.14 147.43296 
L 136.836 149.95584 
L 140.184 148.6944 
L 143.532 148.6944 
L 146.88 149.95584 
L 150.228 148.6944 
L 153.576 148.6944 
L 156.924 147.43296 
L 160.272 148.6944 
L 163.62 146.17152 
L 166.968 144.91008 
L 170.316 146.17152 
L 173.664 146.17152 
L 180.36 148.6944 
L 183.708 146.17152 
L 187.056 149.95584 
L 190.404 148.6944 
L 193.752 148.6944 
L 197.1 146.17152 
L 207.144 146.17152 
L 210.492 143.64864 
L 213.84 142.3872 
L 217.188 143.64864 
L 227.232 139.86432 
L 230.58 141.12576 
L 240.624 137.34144 
L 243.972 137.34144 
L 247.32 138.60288 
L 250.668 137.34144 
L 254.016 137.34144 
L 257.364 136.08 
L 260.712 138.60288 
L 264.06 136.08 
L 267.408 136.08 
L 270.756 134.81856 
L 274.104 137.34144 
L 277.452 133.55712 
L 280.8 133.55712 
L 284.148 132.29568 
L 287.496 134.81856 
L 290.844 136.08 
L 294.192 136.08 
L 297.54 133.55712 
L 300.888 137.34144 
L 304.236 136.08 
L 307.584 133.55712 
L 310.932 133.55712 
L 314.28 132.29568 
L 317.628 132.29568 
L 320.976 131.03424 
L 324.324 131.03424 
L 327.672 132.29568 
L 331.02 131.03424 
L 334.368 131.03424 
L 337.716 132.29568 
L 341.064 132.29568 
L 344.412 129.7728 
L 347.76 131.03424 
L 351.108 128.51136 
L 357.804 131.03424 
L 357.804 131.03424 
" style="fill:none;stroke:#0000ff;stroke-linecap:round;stroke-width:2.5;"/>
    </g>
    <g id="line2d_28">
     <path clip-path="url(#peea6c477d4)" d="M -1 169.305455 
L -0.432 168.87744 
L 2.916 168.87744 
L 9.612 163.83168 
L 12.96 165.09312 
L 19.656 165.09312 
L 23.004 162.57024 
L 36.396 162.57024 
L 39.744 161.3088 
L 56.484 161.3088 
L 59.832 162.57024 
L 63.18 160.04736 
L 66.528 160.04736 
L 69.876 161.3088 
L 76.572 161.3088 
L 79.92 160.04736 
L 83.268 157.52448 
L 86.616 157.52448 
L 89.964 160.04736 
L 93.312 157.52448 
L 100.008 155.0016 
L 103.356 155.0016 
L 106.704 153.74016 
L 113.4 156.26304 
L 123.444 156.26304 
L 126.792 155.0016 
L 130.14 152.47872 
L 133.488 152.47872 
L 136.836 153.74016 
L 140.184 153.74016 
L 143.532 152.47872 
L 150.228 152.47872 
L 153.576 151.21728 
L 156.924 151.21728 
L 160.272 149.95584 
L 163.62 147.43296 
L 166.968 147.43296 
L 170.316 148.6944 
L 173.664 146.17152 
L 177.012 146.17152 
L 180.36 147.43296 
L 187.056 147.43296 
L 190.404 148.6944 
L 193.752 147.43296 
L 200.448 147.43296 
L 203.796 143.64864 
L 207.144 143.64864 
L 210.492 142.3872 
L 217.188 142.3872 
L 220.536 141.12576 
L 243.972 141.12576 
L 250.668 143.64864 
L 254.016 141.12576 
L 257.364 141.12576 
L 260.712 142.3872 
L 264.06 144.91008 
L 284.148 144.91008 
L 287.496 142.3872 
L 290.844 142.3872 
L 294.192 143.64864 
L 327.672 143.64864 
L 331.02 142.3872 
L 347.76 142.3872 
L 351.108 141.12576 
L 357.804 141.12576 
L 357.804 141.12576 
" style="fill:none;stroke:#008000;stroke-linecap:round;stroke-width:2.5;"/>
    </g>
    <g id="line2d_29">
     <path clip-path="url(#peea6c477d4)" d="M -1 145.124088 
L -0.432 144.91008 
L 2.916 142.3872 
L 6.264 142.3872 
L 9.612 139.86432 
L 16.308 139.86432 
L 19.656 138.60288 
L 23.004 134.81856 
L 26.352 136.08 
L 29.7 131.03424 
L 36.396 128.51136 
L 39.744 129.7728 
L 43.092 132.29568 
L 46.44 131.03424 
L 53.136 133.55712 
L 56.484 132.29568 
L 59.832 129.7728 
L 63.18 131.03424 
L 66.528 128.51136 
L 73.224 125.98848 
L 76.572 125.98848 
L 79.92 128.51136 
L 83.268 124.72704 
L 86.616 125.98848 
L 100.008 125.98848 
L 103.356 127.24992 
L 106.704 127.24992 
L 110.052 125.98848 
L 113.4 128.51136 
L 116.748 124.72704 
L 120.096 123.4656 
L 123.444 125.98848 
L 130.14 125.98848 
L 133.488 124.72704 
L 136.836 124.72704 
L 140.184 123.4656 
L 143.532 119.68128 
L 150.228 119.68128 
L 153.576 122.20416 
L 156.924 118.41984 
L 163.62 115.89696 
L 166.968 115.89696 
L 170.316 118.41984 
L 173.664 117.1584 
L 177.012 117.1584 
L 180.36 118.41984 
L 183.708 115.89696 
L 187.056 115.89696 
L 193.752 118.41984 
L 197.1 118.41984 
L 200.448 115.89696 
L 203.796 118.41984 
L 207.144 118.41984 
L 210.492 119.68128 
L 213.84 118.41984 
L 217.188 115.89696 
L 223.884 115.89696 
L 227.232 117.1584 
L 230.58 115.89696 
L 237.276 115.89696 
L 240.624 117.1584 
L 243.972 115.89696 
L 247.32 117.1584 
L 250.668 115.89696 
L 254.016 117.1584 
L 264.06 117.1584 
L 267.408 115.89696 
L 270.756 117.1584 
L 274.104 117.1584 
L 277.452 115.89696 
L 280.8 117.1584 
L 284.148 117.1584 
L 287.496 119.68128 
L 290.844 118.41984 
L 294.192 118.41984 
L 297.54 119.68128 
L 300.888 115.89696 
L 304.236 119.68128 
L 307.584 118.41984 
L 310.932 115.89696 
L 314.28 119.68128 
L 317.628 118.41984 
L 320.976 119.68128 
L 324.324 118.41984 
L 331.02 118.41984 
L 334.368 119.68128 
L 337.716 119.68128 
L 341.064 120.94272 
L 344.412 120.94272 
L 347.76 122.20416 
L 351.108 119.68128 
L 354.456 122.20416 
L 357.804 119.68128 
L 357.804 119.68128 
" style="fill:none;stroke:#ff0000;stroke-linecap:round;stroke-width:2.5;"/>
    </g>
    <g id="line2d_30">
     <path clip-path="url(#peea6c477d4)" d="M -1 120.728712 
L -0.432 120.94272 
L 2.916 120.94272 
L 6.264 122.20416 
L 12.96 122.20416 
L 16.308 119.68128 
L 19.656 120.94272 
L 23.004 117.1584 
L 26.352 118.41984 
L 36.396 118.41984 
L 39.744 117.1584 
L 43.092 114.63552 
L 46.44 114.63552 
L 53.136 112.11264 
L 56.484 112.11264 
L 59.832 110.8512 
L 79.92 110.8512 
L 86.616 113.37408 
L 89.964 113.37408 
L 93.312 114.63552 
L 96.66 114.63552 
L 100.008 115.89696 
L 106.704 113.37408 
L 110.052 114.63552 
L 113.4 114.63552 
L 116.748 115.89696 
L 123.444 115.89696 
L 126.792 117.1584 
L 130.14 115.89696 
L 136.836 115.89696 
L 140.184 118.41984 
L 150.228 118.41984 
L 153.576 114.63552 
L 156.924 117.1584 
L 163.62 117.1584 
L 166.968 115.89696 
L 170.316 115.89696 
L 177.012 118.41984 
L 183.708 118.41984 
L 187.056 114.63552 
L 190.404 112.11264 
L 193.752 112.11264 
L 197.1 110.8512 
L 210.492 110.8512 
L 213.84 112.11264 
L 217.188 110.8512 
L 227.232 114.63552 
L 230.58 114.63552 
L 233.928 113.37408 
L 243.972 113.37408 
L 247.32 114.63552 
L 250.668 112.11264 
L 254.016 113.37408 
L 257.364 112.11264 
L 260.712 112.11264 
L 264.06 113.37408 
L 267.408 112.11264 
L 284.148 112.11264 
L 287.496 110.8512 
L 297.54 114.63552 
L 300.888 114.63552 
L 304.236 113.37408 
L 307.584 114.63552 
L 314.28 112.11264 
L 317.628 112.11264 
L 320.976 113.37408 
L 331.02 113.37408 
L 334.368 114.63552 
L 344.412 114.63552 
L 347.76 115.89696 
L 354.456 115.89696 
L 357.804 114.63552 
L 357.804 114.63552 
" style="fill:none;stroke:#bf00bf;stroke-linecap:round;stroke-width:2.5;"/>
    </g>
    <g id="line2d_31">
     <path clip-path="url(#peea6c477d4)" d="M -1 123.4656 
L 357.804 123.4656 
L 357.804 123.4656 
" style="fill:none;stroke:#000000;stroke-dasharray:9.25,4;stroke-dashoffset:0;stroke-width:2.5;"/>
    </g>
    <g id="patch_11">
     <path d="M 254.016 155.0016 
L 254.016 104.544 
" style="fill:none;stroke:#ffffff;stroke-linecap:square;stroke-linejoin:miter;stroke-width:1.25;"/>
    </g>
    <g id="patch_12">
     <path d="M 361.152 155.0016 
L 361.152 104.544 
" style="fill:none;stroke:#ffffff;stroke-linecap:square;stroke-linejoin:miter;stroke-width:1.25;"/>
    </g>
    <g id="patch_13">
     <path d="M 254.016 155.0016 
L 361.152 155.0016 
" style="fill:none;stroke:#ffffff;stroke-linecap:square;stroke-linejoin:miter;stroke-width:1.25;"/>
    </g>
    <g id="patch_14">
     <path d="M 254.016 104.544 
L 361.152 104.544 
" style="fill:none;stroke:#ffffff;stroke-linecap:square;stroke-linejoin:miter;stroke-width:1.25;"/>
    </g>
   </g>
   <g id="legend_1">
    <g id="patch_15">
     <path d="M 292.896563 292.440223 
L 407.72 292.440223 
Q 409.72 292.440223 409.72 290.440223 
L 409.72 192.27616 
Q 409.72 190.27616 407.72 190.27616 
L 292.896563 190.27616 
Q 290.896563 190.27616 290.896563 192.27616 
L 290.896563 290.440223 
Q 290.896563 292.440223 292.896563 292.440223 
z
" style="fill:#eaeaf2;opacity:0.8;stroke:#cccccc;stroke-linejoin:miter;"/>
    </g>
    <g id="line2d_32">
     <path d="M 294.896563 197.933972 
L 314.896563 197.933972 
" style="fill:none;stroke:#bfbf00;stroke-linecap:round;stroke-width:2.5;"/>
    </g>
    <g id="line2d_33"/>
    <g id="text_20">
     <!-- 0.2 x vth -->
     <g style="fill:#262626;" transform="translate(322.896563 201.433972)scale(0.1 -0.1)">
      <defs>
       <path d="M 47 0 
L 1259 1725 
L 138 3319 
L 841 3319 
L 1350 2541 
Q 1494 2319 1581 2169 
Q 1719 2375 1834 2534 
L 2394 3319 
L 3066 3319 
L 1919 1756 
L 3153 0 
L 2463 0 
L 1781 1031 
L 1600 1309 
L 728 0 
L 47 0 
z
" id="ArialMT-78" transform="scale(0.015625)"/>
       <path d="M 1344 0 
L 81 3319 
L 675 3319 
L 1388 1331 
Q 1503 1009 1600 663 
Q 1675 925 1809 1294 
L 2547 3319 
L 3125 3319 
L 1869 0 
L 1344 0 
z
" id="ArialMT-76" transform="scale(0.015625)"/>
       <path d="M 422 0 
L 422 4581 
L 984 4581 
L 984 2938 
Q 1378 3394 1978 3394 
Q 2347 3394 2619 3248 
Q 2891 3103 3008 2847 
Q 3125 2591 3125 2103 
L 3125 0 
L 2563 0 
L 2563 2103 
Q 2563 2525 2380 2717 
Q 2197 2909 1863 2909 
Q 1613 2909 1392 2779 
Q 1172 2650 1078 2428 
Q 984 2206 984 1816 
L 984 0 
L 422 0 
z
" id="ArialMT-68" transform="scale(0.015625)"/>
      </defs>
      <use xlink:href="#ArialMT-30"/>
      <use x="55.615234" xlink:href="#ArialMT-2e"/>
      <use x="83.398438" xlink:href="#ArialMT-32"/>
      <use x="139.013672" xlink:href="#ArialMT-20"/>
      <use x="166.796875" xlink:href="#ArialMT-78"/>
      <use x="216.796875" xlink:href="#ArialMT-20"/>
      <use x="244.580078" xlink:href="#ArialMT-76"/>
      <use x="294.580078" xlink:href="#ArialMT-74"/>
      <use x="322.363281" xlink:href="#ArialMT-68"/>
     </g>
    </g>
    <g id="line2d_34">
     <path d="M 294.896563 212.079285 
L 314.896563 212.079285 
" style="fill:none;stroke:#00bfbf;stroke-linecap:round;stroke-width:2.5;"/>
    </g>
    <g id="line2d_35"/>
    <g id="text_21">
     <!-- 0.5 x vth -->
     <g style="fill:#262626;" transform="translate(322.896563 215.579285)scale(0.1 -0.1)">
      <use xlink:href="#ArialMT-30"/>
      <use x="55.615234" xlink:href="#ArialMT-2e"/>
      <use x="83.398438" xlink:href="#ArialMT-35"/>
      <use x="139.013672" xlink:href="#ArialMT-20"/>
      <use x="166.796875" xlink:href="#ArialMT-78"/>
      <use x="216.796875" xlink:href="#ArialMT-20"/>
      <use x="244.580078" xlink:href="#ArialMT-76"/>
      <use x="294.580078" xlink:href="#ArialMT-74"/>
      <use x="322.363281" xlink:href="#ArialMT-68"/>
     </g>
    </g>
    <g id="line2d_36">
     <path d="M 294.896563 226.224597 
L 314.896563 226.224597 
" style="fill:none;stroke:#0000ff;stroke-linecap:round;stroke-width:2.5;"/>
    </g>
    <g id="line2d_37"/>
    <g id="text_22">
     <!-- 0.9 x vth -->
     <g style="fill:#262626;" transform="translate(322.896563 229.724597)scale(0.1 -0.1)">
      <use xlink:href="#ArialMT-30"/>
      <use x="55.615234" xlink:href="#ArialMT-2e"/>
      <use x="83.398438" xlink:href="#ArialMT-39"/>
      <use x="139.013672" xlink:href="#ArialMT-20"/>
      <use x="166.796875" xlink:href="#ArialMT-78"/>
      <use x="216.796875" xlink:href="#ArialMT-20"/>
      <use x="244.580078" xlink:href="#ArialMT-76"/>
      <use x="294.580078" xlink:href="#ArialMT-74"/>
      <use x="322.363281" xlink:href="#ArialMT-68"/>
     </g>
    </g>
    <g id="line2d_38">
     <path d="M 294.896563 240.36991 
L 314.896563 240.36991 
" style="fill:none;stroke:#008000;stroke-linecap:round;stroke-width:2.5;"/>
    </g>
    <g id="line2d_39"/>
    <g id="text_23">
     <!-- With DTT -->
     <g style="fill:#262626;" transform="translate(322.896563 243.86991)scale(0.1 -0.1)">
      <defs>
       <path d="M 1294 0 
L 78 4581 
L 700 4581 
L 1397 1578 
Q 1509 1106 1591 641 
Q 1766 1375 1797 1488 
L 2669 4581 
L 3400 4581 
L 4056 2263 
Q 4303 1400 4413 641 
Q 4500 1075 4641 1638 
L 5359 4581 
L 5969 4581 
L 4713 0 
L 4128 0 
L 3163 3491 
Q 3041 3928 3019 4028 
Q 2947 3713 2884 3491 
L 1913 0 
L 1294 0 
z
" id="ArialMT-57" transform="scale(0.015625)"/>
       <path d="M 494 0 
L 494 4581 
L 2072 4581 
Q 2606 4581 2888 4516 
Q 3281 4425 3559 4188 
Q 3922 3881 4101 3404 
Q 4281 2928 4281 2316 
Q 4281 1794 4159 1391 
Q 4038 988 3847 723 
Q 3656 459 3429 307 
Q 3203 156 2883 78 
Q 2563 0 2147 0 
L 494 0 
z
M 1100 541 
L 2078 541 
Q 2531 541 2789 625 
Q 3047 709 3200 863 
Q 3416 1078 3536 1442 
Q 3656 1806 3656 2325 
Q 3656 3044 3420 3430 
Q 3184 3816 2847 3947 
Q 2603 4041 2063 4041 
L 1100 4041 
L 1100 541 
z
" id="ArialMT-44" transform="scale(0.015625)"/>
      </defs>
      <use xlink:href="#ArialMT-57"/>
      <use x="94.384766" xlink:href="#ArialMT-69"/>
      <use x="116.601562" xlink:href="#ArialMT-74"/>
      <use x="144.384766" xlink:href="#ArialMT-68"/>
      <use x="200" xlink:href="#ArialMT-20"/>
      <use x="227.783203" xlink:href="#ArialMT-44"/>
      <use x="300" xlink:href="#ArialMT-54"/>
      <use x="361.083984" xlink:href="#ArialMT-54"/>
     </g>
    </g>
    <g id="line2d_40">
     <path d="M 294.896563 254.515222 
L 314.896563 254.515222 
" style="fill:none;stroke:#ff0000;stroke-linecap:round;stroke-width:2.5;"/>
    </g>
    <g id="line2d_41"/>
    <g id="text_24">
     <!-- With DET -->
     <g style="fill:#262626;" transform="translate(322.896563 258.015222)scale(0.1 -0.1)">
      <defs>
       <path d="M 506 0 
L 506 4581 
L 3819 4581 
L 3819 4041 
L 1113 4041 
L 1113 2638 
L 3647 2638 
L 3647 2100 
L 1113 2100 
L 1113 541 
L 3925 541 
L 3925 0 
L 506 0 
z
" id="ArialMT-45" transform="scale(0.015625)"/>
      </defs>
      <use xlink:href="#ArialMT-57"/>
      <use x="94.384766" xlink:href="#ArialMT-69"/>
      <use x="116.601562" xlink:href="#ArialMT-74"/>
      <use x="144.384766" xlink:href="#ArialMT-68"/>
      <use x="200" xlink:href="#ArialMT-20"/>
      <use x="227.783203" xlink:href="#ArialMT-44"/>
      <use x="300" xlink:href="#ArialMT-45"/>
      <use x="366.699219" xlink:href="#ArialMT-54"/>
     </g>
    </g>
    <g id="line2d_42">
     <path d="M 294.896563 268.660535 
L 314.896563 268.660535 
" style="fill:none;stroke:#bf00bf;stroke-linecap:round;stroke-width:2.5;"/>
    </g>
    <g id="line2d_43"/>
    <g id="text_25">
     <!-- With DTT DET -->
     <g style="fill:#262626;" transform="translate(322.896563 272.160535)scale(0.1 -0.1)">
      <use xlink:href="#ArialMT-57"/>
      <use x="94.384766" xlink:href="#ArialMT-69"/>
      <use x="116.601562" xlink:href="#ArialMT-74"/>
      <use x="144.384766" xlink:href="#ArialMT-68"/>
      <use x="200" xlink:href="#ArialMT-20"/>
      <use x="227.783203" xlink:href="#ArialMT-44"/>
      <use x="300" xlink:href="#ArialMT-54"/>
      <use x="361.083984" xlink:href="#ArialMT-54"/>
      <use x="420.417969" xlink:href="#ArialMT-20"/>
      <use x="448.201172" xlink:href="#ArialMT-44"/>
      <use x="520.417969" xlink:href="#ArialMT-45"/>
      <use x="587.117188" xlink:href="#ArialMT-54"/>
     </g>
    </g>
    <g id="line2d_44">
     <path d="M 294.896563 282.835535 
L 314.896563 282.835535 
" style="fill:none;stroke:#000000;stroke-dasharray:9.25,4;stroke-dashoffset:0;stroke-width:2.5;"/>
    </g>
    <g id="line2d_45"/>
    <g id="text_26">
     <!-- Target Acc: 0.9545 -->
     <g style="fill:#262626;" transform="translate(322.896563 286.335535)scale(0.1 -0.1)">
      <defs>
       <path d="M 2588 409 
Q 2275 144 1986 34 
Q 1697 -75 1366 -75 
Q 819 -75 525 192 
Q 231 459 231 875 
Q 231 1119 342 1320 
Q 453 1522 633 1644 
Q 813 1766 1038 1828 
Q 1203 1872 1538 1913 
Q 2219 1994 2541 2106 
Q 2544 2222 2544 2253 
Q 2544 2597 2384 2738 
Q 2169 2928 1744 2928 
Q 1347 2928 1158 2789 
Q 969 2650 878 2297 
L 328 2372 
Q 403 2725 575 2942 
Q 747 3159 1072 3276 
Q 1397 3394 1825 3394 
Q 2250 3394 2515 3294 
Q 2781 3194 2906 3042 
Q 3031 2891 3081 2659 
Q 3109 2516 3109 2141 
L 3109 1391 
Q 3109 606 3145 398 
Q 3181 191 3288 0 
L 2700 0 
Q 2613 175 2588 409 
z
M 2541 1666 
Q 2234 1541 1622 1453 
Q 1275 1403 1131 1340 
Q 988 1278 909 1158 
Q 831 1038 831 891 
Q 831 666 1001 516 
Q 1172 366 1500 366 
Q 1825 366 2078 508 
Q 2331 650 2450 897 
Q 2541 1088 2541 1459 
L 2541 1666 
z
" id="ArialMT-61" transform="scale(0.015625)"/>
       <path d="M 416 0 
L 416 3319 
L 922 3319 
L 922 2816 
Q 1116 3169 1280 3281 
Q 1444 3394 1641 3394 
Q 1925 3394 2219 3213 
L 2025 2691 
Q 1819 2813 1613 2813 
Q 1428 2813 1281 2702 
Q 1134 2591 1072 2394 
Q 978 2094 978 1738 
L 978 0 
L 416 0 
z
" id="ArialMT-72" transform="scale(0.015625)"/>
       <path d="M 319 -275 
L 866 -356 
Q 900 -609 1056 -725 
Q 1266 -881 1628 -881 
Q 2019 -881 2231 -725 
Q 2444 -569 2519 -288 
Q 2563 -116 2559 434 
Q 2191 0 1641 0 
Q 956 0 581 494 
Q 206 988 206 1678 
Q 206 2153 378 2554 
Q 550 2956 876 3175 
Q 1203 3394 1644 3394 
Q 2231 3394 2613 2919 
L 2613 3319 
L 3131 3319 
L 3131 450 
Q 3131 -325 2973 -648 
Q 2816 -972 2473 -1159 
Q 2131 -1347 1631 -1347 
Q 1038 -1347 672 -1080 
Q 306 -813 319 -275 
z
M 784 1719 
Q 784 1066 1043 766 
Q 1303 466 1694 466 
Q 2081 466 2343 764 
Q 2606 1063 2606 1700 
Q 2606 2309 2336 2618 
Q 2066 2928 1684 2928 
Q 1309 2928 1046 2623 
Q 784 2319 784 1719 
z
" id="ArialMT-67" transform="scale(0.015625)"/>
       <path d="M 578 2678 
L 578 3319 
L 1219 3319 
L 1219 2678 
L 578 2678 
z
M 578 0 
L 578 641 
L 1219 641 
L 1219 0 
L 578 0 
z
" id="ArialMT-3a" transform="scale(0.015625)"/>
      </defs>
      <use xlink:href="#ArialMT-54"/>
      <use x="49.958984" xlink:href="#ArialMT-61"/>
      <use x="105.574219" xlink:href="#ArialMT-72"/>
      <use x="138.875" xlink:href="#ArialMT-67"/>
      <use x="194.490234" xlink:href="#ArialMT-65"/>
      <use x="250.105469" xlink:href="#ArialMT-74"/>
      <use x="277.888672" xlink:href="#ArialMT-20"/>
      <use x="300.171875" xlink:href="#ArialMT-41"/>
      <use x="366.871094" xlink:href="#ArialMT-63"/>
      <use x="416.871094" xlink:href="#ArialMT-63"/>
      <use x="466.871094" xlink:href="#ArialMT-3a"/>
      <use x="494.654297" xlink:href="#ArialMT-20"/>
      <use x="522.4375" xlink:href="#ArialMT-30"/>
      <use x="578.052734" xlink:href="#ArialMT-2e"/>
      <use x="605.835938" xlink:href="#ArialMT-39"/>
      <use x="661.451172" xlink:href="#ArialMT-35"/>
      <use x="717.066406" xlink:href="#ArialMT-34"/>
      <use x="772.681641" xlink:href="#ArialMT-35"/>
     </g>
    </g>
   </g>
  </g>
 </g>
 <defs>
  <clipPath id="pdce1d9eaae">
   <rect height="252.288" width="357.12" x="57.6" y="41.472"/>
  </clipPath>
  <clipPath id="peea6c477d4">
   <rect height="50.4576" width="107.136" x="254.016" y="104.544"/>
  </clipPath>
 </defs>
</svg>
