<?xml version="1.0" encoding="utf-8" standalone="no"?>
<!DOCTYPE svg PUBLIC "-//W3C//DTD SVG 1.1//EN"
  "http://www.w3.org/Graphics/SVG/1.1/DTD/svg11.dtd">
<svg height="360pt" version="1.1" viewBox="0 0 720 360" width="720pt" xmlns="http://www.w3.org/2000/svg" xmlns:xlink="http://www.w3.org/1999/xlink">
 <metadata>
  <rdf:RDF xmlns:cc="http://creativecommons.org/ns#" xmlns:dc="http://purl.org/dc/elements/1.1/" xmlns:rdf="http://www.w3.org/1999/02/22-rdf-syntax-ns#">
   <cc:Work>
    <dc:type rdf:resource="http://purl.org/dc/dcmitype/StillImage"/>
    <dc:date>2022-07-05T10:50:20.018869</dc:date>
    <dc:format>image/svg+xml</dc:format>
    <dc:creator>
     <cc:Agent>
      <dc:title>Matplotlib v3.4.1, https://matplotlib.org/</dc:title>
     </cc:Agent>
    </dc:creator>
   </cc:Work>
  </rdf:RDF>
 </metadata>
 <defs>
  <style type="text/css">*{stroke-linecap:butt;stroke-linejoin:round;}</style>
 </defs>
 <g id="figure_1">
  <g id="patch_1">
   <path d="M 0 360 
L 720 360 
L 720 0 
L 0 0 
z
" style="fill:#ffffff;"/>
  </g>
  <g id="axes_1">
   <g id="patch_2">
    <path d="M 90 320.4 
L 648 320.4 
L 648 43.2 
L 90 43.2 
z
" style="fill:#ffffff;"/>
   </g>
   <g id="matplotlib.axis_1">
    <g id="xtick_1">
     <g id="line2d_1">
      <path clip-path="url(#p3950506ab6)" d="M 100.730769 320.4 
L 100.730769 43.2 
" style="fill:none;stroke:#b0b0b0;stroke-dasharray:2.96,1.28;stroke-dashoffset:0;stroke-width:0.8;"/>
     </g>
     <g id="line2d_2">
      <defs>
       <path d="M 0 0 
L 0 3.5 
" id="mddfde5145b" style="stroke:#000000;stroke-width:0.8;"/>
      </defs>
      <g>
       <use style="stroke:#000000;stroke-width:0.8;" x="100.730769" xlink:href="#mddfde5145b" y="320.4"/>
      </g>
     </g>
     <g id="text_1">
      <!-- Top 0-5% -->
      <g transform="translate(70.075457 336.518125)scale(0.12 -0.12)">
       <defs>
        <path d="M 31 4666 
L 4331 4666 
L 4331 3756 
L 2784 3756 
L 2784 0 
L 1581 0 
L 1581 3756 
L 31 3756 
L 31 4666 
z
" id="DejaVuSans-Bold-54" transform="scale(0.015625)"/>
        <path d="M 2203 2784 
Q 1831 2784 1636 2517 
Q 1441 2250 1441 1747 
Q 1441 1244 1636 976 
Q 1831 709 2203 709 
Q 2569 709 2762 976 
Q 2956 1244 2956 1747 
Q 2956 2250 2762 2517 
Q 2569 2784 2203 2784 
z
M 2203 3584 
Q 3106 3584 3614 3096 
Q 4122 2609 4122 1747 
Q 4122 884 3614 396 
Q 3106 -91 2203 -91 
Q 1297 -91 786 396 
Q 275 884 275 1747 
Q 275 2609 786 3096 
Q 1297 3584 2203 3584 
z
" id="DejaVuSans-Bold-6f" transform="scale(0.015625)"/>
        <path d="M 1656 506 
L 1656 -1331 
L 538 -1331 
L 538 3500 
L 1656 3500 
L 1656 2988 
Q 1888 3294 2169 3439 
Q 2450 3584 2816 3584 
Q 3463 3584 3878 3070 
Q 4294 2556 4294 1747 
Q 4294 938 3878 423 
Q 3463 -91 2816 -91 
Q 2450 -91 2169 54 
Q 1888 200 1656 506 
z
M 2400 2772 
Q 2041 2772 1848 2508 
Q 1656 2244 1656 1747 
Q 1656 1250 1848 986 
Q 2041 722 2400 722 
Q 2759 722 2948 984 
Q 3138 1247 3138 1747 
Q 3138 2247 2948 2509 
Q 2759 2772 2400 2772 
z
" id="DejaVuSans-Bold-70" transform="scale(0.015625)"/>
        <path id="DejaVuSans-Bold-20" transform="scale(0.015625)"/>
        <path d="M 2944 2338 
Q 2944 3213 2780 3570 
Q 2616 3928 2228 3928 
Q 1841 3928 1675 3570 
Q 1509 3213 1509 2338 
Q 1509 1453 1675 1090 
Q 1841 728 2228 728 
Q 2613 728 2778 1090 
Q 2944 1453 2944 2338 
z
M 4147 2328 
Q 4147 1169 3647 539 
Q 3147 -91 2228 -91 
Q 1306 -91 806 539 
Q 306 1169 306 2328 
Q 306 3491 806 4120 
Q 1306 4750 2228 4750 
Q 3147 4750 3647 4120 
Q 4147 3491 4147 2328 
z
" id="DejaVuSans-Bold-30" transform="scale(0.015625)"/>
        <path d="M 347 2297 
L 2309 2297 
L 2309 1388 
L 347 1388 
L 347 2297 
z
" id="DejaVuSans-Bold-2d" transform="scale(0.015625)"/>
        <path d="M 678 4666 
L 3669 4666 
L 3669 3781 
L 1638 3781 
L 1638 3059 
Q 1775 3097 1914 3117 
Q 2053 3138 2203 3138 
Q 3056 3138 3531 2711 
Q 4006 2284 4006 1522 
Q 4006 766 3489 337 
Q 2972 -91 2053 -91 
Q 1656 -91 1267 -14 
Q 878 63 494 219 
L 494 1166 
Q 875 947 1217 837 
Q 1559 728 1863 728 
Q 2300 728 2551 942 
Q 2803 1156 2803 1522 
Q 2803 1891 2551 2103 
Q 2300 2316 1863 2316 
Q 1603 2316 1309 2248 
Q 1016 2181 678 2041 
L 678 4666 
z
" id="DejaVuSans-Bold-35" transform="scale(0.015625)"/>
        <path d="M 4959 1925 
Q 4738 1925 4616 1733 
Q 4494 1541 4494 1184 
Q 4494 825 4614 633 
Q 4734 441 4959 441 
Q 5184 441 5303 633 
Q 5422 825 5422 1184 
Q 5422 1541 5301 1733 
Q 5181 1925 4959 1925 
z
M 4959 2450 
Q 5541 2450 5875 2112 
Q 6209 1775 6209 1184 
Q 6209 594 5875 251 
Q 5541 -91 4959 -91 
Q 4378 -91 4042 251 
Q 3706 594 3706 1184 
Q 3706 1772 4042 2111 
Q 4378 2450 4959 2450 
z
M 2094 -91 
L 1403 -91 
L 4319 4750 
L 5013 4750 
L 2094 -91 
z
M 1453 4750 
Q 2034 4750 2367 4411 
Q 2700 4072 2700 3481 
Q 2700 2891 2367 2550 
Q 2034 2209 1453 2209 
Q 872 2209 539 2550 
Q 206 2891 206 3481 
Q 206 4072 539 4411 
Q 872 4750 1453 4750 
z
M 1453 4225 
Q 1228 4225 1106 4031 
Q 984 3838 984 3481 
Q 984 3122 1106 2926 
Q 1228 2731 1453 2731 
Q 1678 2731 1798 2926 
Q 1919 3122 1919 3481 
Q 1919 3838 1797 4031 
Q 1675 4225 1453 4225 
z
" id="DejaVuSans-Bold-25" transform="scale(0.015625)"/>
       </defs>
       <use xlink:href="#DejaVuSans-Bold-54"/>
       <use x="54.962891" xlink:href="#DejaVuSans-Bold-6f"/>
       <use x="123.664062" xlink:href="#DejaVuSans-Bold-70"/>
       <use x="195.246094" xlink:href="#DejaVuSans-Bold-20"/>
       <use x="230.060547" xlink:href="#DejaVuSans-Bold-30"/>
       <use x="299.640625" xlink:href="#DejaVuSans-Bold-2d"/>
       <use x="341.144531" xlink:href="#DejaVuSans-Bold-35"/>
       <use x="410.724609" xlink:href="#DejaVuSans-Bold-25"/>
      </g>
     </g>
    </g>
    <g id="xtick_2">
     <g id="line2d_3">
      <path clip-path="url(#p3950506ab6)" d="M 208.038462 320.4 
L 208.038462 43.2 
" style="fill:none;stroke:#b0b0b0;stroke-dasharray:2.96,1.28;stroke-dashoffset:0;stroke-width:0.8;"/>
     </g>
     <g id="line2d_4">
      <g>
       <use style="stroke:#000000;stroke-width:0.8;" x="208.038462" xlink:href="#mddfde5145b" y="320.4"/>
      </g>
     </g>
     <g id="text_2">
      <!-- Top 5-10% -->
      <g transform="translate(173.208462 336.518125)scale(0.12 -0.12)">
       <defs>
        <path d="M 750 831 
L 1813 831 
L 1813 3847 
L 722 3622 
L 722 4441 
L 1806 4666 
L 2950 4666 
L 2950 831 
L 4013 831 
L 4013 0 
L 750 0 
L 750 831 
z
" id="DejaVuSans-Bold-31" transform="scale(0.015625)"/>
       </defs>
       <use xlink:href="#DejaVuSans-Bold-54"/>
       <use x="54.962891" xlink:href="#DejaVuSans-Bold-6f"/>
       <use x="123.664062" xlink:href="#DejaVuSans-Bold-70"/>
       <use x="195.246094" xlink:href="#DejaVuSans-Bold-20"/>
       <use x="230.060547" xlink:href="#DejaVuSans-Bold-35"/>
       <use x="299.640625" xlink:href="#DejaVuSans-Bold-2d"/>
       <use x="341.144531" xlink:href="#DejaVuSans-Bold-31"/>
       <use x="410.724609" xlink:href="#DejaVuSans-Bold-30"/>
       <use x="480.304688" xlink:href="#DejaVuSans-Bold-25"/>
      </g>
     </g>
    </g>
    <g id="xtick_3">
     <g id="line2d_5">
      <path clip-path="url(#p3950506ab6)" d="M 315.346154 320.4 
L 315.346154 43.2 
" style="fill:none;stroke:#b0b0b0;stroke-dasharray:2.96,1.28;stroke-dashoffset:0;stroke-width:0.8;"/>
     </g>
     <g id="line2d_6">
      <g>
       <use style="stroke:#000000;stroke-width:0.8;" x="315.346154" xlink:href="#mddfde5145b" y="320.4"/>
      </g>
     </g>
     <g id="text_3">
      <!-- Top 10-20% -->
      <g transform="translate(276.341466 336.518125)scale(0.12 -0.12)">
       <defs>
        <path d="M 1844 884 
L 3897 884 
L 3897 0 
L 506 0 
L 506 884 
L 2209 2388 
Q 2438 2594 2547 2791 
Q 2656 2988 2656 3200 
Q 2656 3528 2436 3728 
Q 2216 3928 1850 3928 
Q 1569 3928 1234 3808 
Q 900 3688 519 3450 
L 519 4475 
Q 925 4609 1322 4679 
Q 1719 4750 2100 4750 
Q 2938 4750 3402 4381 
Q 3866 4013 3866 3353 
Q 3866 2972 3669 2642 
Q 3472 2313 2841 1759 
L 1844 884 
z
" id="DejaVuSans-Bold-32" transform="scale(0.015625)"/>
       </defs>
       <use xlink:href="#DejaVuSans-Bold-54"/>
       <use x="54.962891" xlink:href="#DejaVuSans-Bold-6f"/>
       <use x="123.664062" xlink:href="#DejaVuSans-Bold-70"/>
       <use x="195.246094" xlink:href="#DejaVuSans-Bold-20"/>
       <use x="230.060547" xlink:href="#DejaVuSans-Bold-31"/>
       <use x="299.640625" xlink:href="#DejaVuSans-Bold-30"/>
       <use x="369.220703" xlink:href="#DejaVuSans-Bold-2d"/>
       <use x="410.724609" xlink:href="#DejaVuSans-Bold-32"/>
       <use x="480.304688" xlink:href="#DejaVuSans-Bold-30"/>
       <use x="549.884766" xlink:href="#DejaVuSans-Bold-25"/>
      </g>
     </g>
    </g>
    <g id="xtick_4">
     <g id="line2d_7">
      <path clip-path="url(#p3950506ab6)" d="M 422.653846 320.4 
L 422.653846 43.2 
" style="fill:none;stroke:#b0b0b0;stroke-dasharray:2.96,1.28;stroke-dashoffset:0;stroke-width:0.8;"/>
     </g>
     <g id="line2d_8">
      <g>
       <use style="stroke:#000000;stroke-width:0.8;" x="422.653846" xlink:href="#mddfde5145b" y="320.4"/>
      </g>
     </g>
     <g id="text_4">
      <!-- Top 20-50% -->
      <g transform="translate(383.649159 336.518125)scale(0.12 -0.12)">
       <use xlink:href="#DejaVuSans-Bold-54"/>
       <use x="54.962891" xlink:href="#DejaVuSans-Bold-6f"/>
       <use x="123.664062" xlink:href="#DejaVuSans-Bold-70"/>
       <use x="195.246094" xlink:href="#DejaVuSans-Bold-20"/>
       <use x="230.060547" xlink:href="#DejaVuSans-Bold-32"/>
       <use x="299.640625" xlink:href="#DejaVuSans-Bold-30"/>
       <use x="369.220703" xlink:href="#DejaVuSans-Bold-2d"/>
       <use x="410.724609" xlink:href="#DejaVuSans-Bold-35"/>
       <use x="480.304688" xlink:href="#DejaVuSans-Bold-30"/>
       <use x="549.884766" xlink:href="#DejaVuSans-Bold-25"/>
      </g>
     </g>
    </g>
    <g id="xtick_5">
     <g id="line2d_9">
      <path clip-path="url(#p3950506ab6)" d="M 529.961538 320.4 
L 529.961538 43.2 
" style="fill:none;stroke:#b0b0b0;stroke-dasharray:2.96,1.28;stroke-dashoffset:0;stroke-width:0.8;"/>
     </g>
     <g id="line2d_10">
      <g>
       <use style="stroke:#000000;stroke-width:0.8;" x="529.961538" xlink:href="#mddfde5145b" y="320.4"/>
      </g>
     </g>
     <g id="text_5">
      <!-- Top 50-70% -->
      <g transform="translate(490.956851 336.518125)scale(0.12 -0.12)">
       <defs>
        <path d="M 428 4666 
L 3944 4666 
L 3944 3988 
L 2125 0 
L 953 0 
L 2675 3781 
L 428 3781 
L 428 4666 
z
" id="DejaVuSans-Bold-37" transform="scale(0.015625)"/>
       </defs>
       <use xlink:href="#DejaVuSans-Bold-54"/>
       <use x="54.962891" xlink:href="#DejaVuSans-Bold-6f"/>
       <use x="123.664062" xlink:href="#DejaVuSans-Bold-70"/>
       <use x="195.246094" xlink:href="#DejaVuSans-Bold-20"/>
       <use x="230.060547" xlink:href="#DejaVuSans-Bold-35"/>
       <use x="299.640625" xlink:href="#DejaVuSans-Bold-30"/>
       <use x="369.220703" xlink:href="#DejaVuSans-Bold-2d"/>
       <use x="410.724609" xlink:href="#DejaVuSans-Bold-37"/>
       <use x="480.304688" xlink:href="#DejaVuSans-Bold-30"/>
       <use x="549.884766" xlink:href="#DejaVuSans-Bold-25"/>
      </g>
     </g>
    </g>
    <g id="xtick_6">
     <g id="line2d_11">
      <path clip-path="url(#p3950506ab6)" d="M 637.269231 320.4 
L 637.269231 43.2 
" style="fill:none;stroke:#b0b0b0;stroke-dasharray:2.96,1.28;stroke-dashoffset:0;stroke-width:0.8;"/>
     </g>
     <g id="line2d_12">
      <g>
       <use style="stroke:#000000;stroke-width:0.8;" x="637.269231" xlink:href="#mddfde5145b" y="320.4"/>
      </g>
     </g>
     <g id="text_6">
      <!--  Top 70-100% -->
      <g transform="translate(592.001106 336.518125)scale(0.12 -0.12)">
       <use xlink:href="#DejaVuSans-Bold-20"/>
       <use x="34.814453" xlink:href="#DejaVuSans-Bold-54"/>
       <use x="89.777344" xlink:href="#DejaVuSans-Bold-6f"/>
       <use x="158.478516" xlink:href="#DejaVuSans-Bold-70"/>
       <use x="230.060547" xlink:href="#DejaVuSans-Bold-20"/>
       <use x="264.875" xlink:href="#DejaVuSans-Bold-37"/>
       <use x="334.455078" xlink:href="#DejaVuSans-Bold-30"/>
       <use x="404.035156" xlink:href="#DejaVuSans-Bold-2d"/>
       <use x="445.539062" xlink:href="#DejaVuSans-Bold-31"/>
       <use x="515.119141" xlink:href="#DejaVuSans-Bold-30"/>
       <use x="584.699219" xlink:href="#DejaVuSans-Bold-30"/>
       <use x="654.279297" xlink:href="#DejaVuSans-Bold-25"/>
      </g>
     </g>
    </g>
    <g id="text_7">
     <!-- Performance Percentile -->
     <g transform="translate(282.571328 352.891719)scale(0.13 -0.13)">
      <defs>
       <path d="M 588 4666 
L 2584 4666 
Q 3475 4666 3951 4270 
Q 4428 3875 4428 3144 
Q 4428 2409 3951 2014 
Q 3475 1619 2584 1619 
L 1791 1619 
L 1791 0 
L 588 0 
L 588 4666 
z
M 1791 3794 
L 1791 2491 
L 2456 2491 
Q 2806 2491 2997 2661 
Q 3188 2831 3188 3144 
Q 3188 3456 2997 3625 
Q 2806 3794 2456 3794 
L 1791 3794 
z
" id="DejaVuSans-Bold-50" transform="scale(0.015625)"/>
       <path d="M 4031 1759 
L 4031 1441 
L 1416 1441 
Q 1456 1047 1700 850 
Q 1944 653 2381 653 
Q 2734 653 3104 758 
Q 3475 863 3866 1075 
L 3866 213 
Q 3469 63 3072 -14 
Q 2675 -91 2278 -91 
Q 1328 -91 801 392 
Q 275 875 275 1747 
Q 275 2603 792 3093 
Q 1309 3584 2216 3584 
Q 3041 3584 3536 3087 
Q 4031 2591 4031 1759 
z
M 2881 2131 
Q 2881 2450 2695 2645 
Q 2509 2841 2209 2841 
Q 1884 2841 1681 2658 
Q 1478 2475 1428 2131 
L 2881 2131 
z
" id="DejaVuSans-Bold-65" transform="scale(0.015625)"/>
       <path d="M 3138 2547 
Q 2991 2616 2845 2648 
Q 2700 2681 2553 2681 
Q 2122 2681 1889 2404 
Q 1656 2128 1656 1613 
L 1656 0 
L 538 0 
L 538 3500 
L 1656 3500 
L 1656 2925 
Q 1872 3269 2151 3426 
Q 2431 3584 2822 3584 
Q 2878 3584 2943 3579 
Q 3009 3575 3134 3559 
L 3138 2547 
z
" id="DejaVuSans-Bold-72" transform="scale(0.015625)"/>
       <path d="M 2841 4863 
L 2841 4128 
L 2222 4128 
Q 1984 4128 1890 4042 
Q 1797 3956 1797 3744 
L 1797 3500 
L 2753 3500 
L 2753 2700 
L 1797 2700 
L 1797 0 
L 678 0 
L 678 2700 
L 122 2700 
L 122 3500 
L 678 3500 
L 678 3744 
Q 678 4316 997 4589 
Q 1316 4863 1984 4863 
L 2841 4863 
z
" id="DejaVuSans-Bold-66" transform="scale(0.015625)"/>
       <path d="M 3781 2919 
Q 3994 3244 4286 3414 
Q 4578 3584 4928 3584 
Q 5531 3584 5847 3212 
Q 6163 2841 6163 2131 
L 6163 0 
L 5038 0 
L 5038 1825 
Q 5041 1866 5042 1909 
Q 5044 1953 5044 2034 
Q 5044 2406 4934 2573 
Q 4825 2741 4581 2741 
Q 4263 2741 4089 2478 
Q 3916 2216 3909 1719 
L 3909 0 
L 2784 0 
L 2784 1825 
Q 2784 2406 2684 2573 
Q 2584 2741 2328 2741 
Q 2006 2741 1831 2477 
Q 1656 2213 1656 1722 
L 1656 0 
L 531 0 
L 531 3500 
L 1656 3500 
L 1656 2988 
Q 1863 3284 2130 3434 
Q 2397 3584 2719 3584 
Q 3081 3584 3359 3409 
Q 3638 3234 3781 2919 
z
" id="DejaVuSans-Bold-6d" transform="scale(0.015625)"/>
       <path d="M 2106 1575 
Q 1756 1575 1579 1456 
Q 1403 1338 1403 1106 
Q 1403 894 1545 773 
Q 1688 653 1941 653 
Q 2256 653 2472 879 
Q 2688 1106 2688 1447 
L 2688 1575 
L 2106 1575 
z
M 3816 1997 
L 3816 0 
L 2688 0 
L 2688 519 
Q 2463 200 2181 54 
Q 1900 -91 1497 -91 
Q 953 -91 614 226 
Q 275 544 275 1050 
Q 275 1666 698 1953 
Q 1122 2241 2028 2241 
L 2688 2241 
L 2688 2328 
Q 2688 2594 2478 2717 
Q 2269 2841 1825 2841 
Q 1466 2841 1156 2769 
Q 847 2697 581 2553 
L 581 3406 
Q 941 3494 1303 3539 
Q 1666 3584 2028 3584 
Q 2975 3584 3395 3211 
Q 3816 2838 3816 1997 
z
" id="DejaVuSans-Bold-61" transform="scale(0.015625)"/>
       <path d="M 4056 2131 
L 4056 0 
L 2931 0 
L 2931 347 
L 2931 1631 
Q 2931 2084 2911 2256 
Q 2891 2428 2841 2509 
Q 2775 2619 2662 2680 
Q 2550 2741 2406 2741 
Q 2056 2741 1856 2470 
Q 1656 2200 1656 1722 
L 1656 0 
L 538 0 
L 538 3500 
L 1656 3500 
L 1656 2988 
Q 1909 3294 2193 3439 
Q 2478 3584 2822 3584 
Q 3428 3584 3742 3212 
Q 4056 2841 4056 2131 
z
" id="DejaVuSans-Bold-6e" transform="scale(0.015625)"/>
       <path d="M 3366 3391 
L 3366 2478 
Q 3138 2634 2908 2709 
Q 2678 2784 2431 2784 
Q 1963 2784 1702 2511 
Q 1441 2238 1441 1747 
Q 1441 1256 1702 982 
Q 1963 709 2431 709 
Q 2694 709 2930 787 
Q 3166 866 3366 1019 
L 3366 103 
Q 3103 6 2833 -42 
Q 2563 -91 2291 -91 
Q 1344 -91 809 395 
Q 275 881 275 1747 
Q 275 2613 809 3098 
Q 1344 3584 2291 3584 
Q 2566 3584 2833 3536 
Q 3100 3488 3366 3391 
z
" id="DejaVuSans-Bold-63" transform="scale(0.015625)"/>
       <path d="M 1759 4494 
L 1759 3500 
L 2913 3500 
L 2913 2700 
L 1759 2700 
L 1759 1216 
Q 1759 972 1856 886 
Q 1953 800 2241 800 
L 2816 800 
L 2816 0 
L 1856 0 
Q 1194 0 917 276 
Q 641 553 641 1216 
L 641 2700 
L 84 2700 
L 84 3500 
L 641 3500 
L 641 4494 
L 1759 4494 
z
" id="DejaVuSans-Bold-74" transform="scale(0.015625)"/>
       <path d="M 538 3500 
L 1656 3500 
L 1656 0 
L 538 0 
L 538 3500 
z
M 538 4863 
L 1656 4863 
L 1656 3950 
L 538 3950 
L 538 4863 
z
" id="DejaVuSans-Bold-69" transform="scale(0.015625)"/>
       <path d="M 538 4863 
L 1656 4863 
L 1656 0 
L 538 0 
L 538 4863 
z
" id="DejaVuSans-Bold-6c" transform="scale(0.015625)"/>
      </defs>
      <use xlink:href="#DejaVuSans-Bold-50"/>
      <use x="73.291016" xlink:href="#DejaVuSans-Bold-65"/>
      <use x="141.113281" xlink:href="#DejaVuSans-Bold-72"/>
      <use x="190.429688" xlink:href="#DejaVuSans-Bold-66"/>
      <use x="233.935547" xlink:href="#DejaVuSans-Bold-6f"/>
      <use x="302.636719" xlink:href="#DejaVuSans-Bold-72"/>
      <use x="351.953125" xlink:href="#DejaVuSans-Bold-6d"/>
      <use x="456.152344" xlink:href="#DejaVuSans-Bold-61"/>
      <use x="523.632812" xlink:href="#DejaVuSans-Bold-6e"/>
      <use x="594.824219" xlink:href="#DejaVuSans-Bold-63"/>
      <use x="654.101562" xlink:href="#DejaVuSans-Bold-65"/>
      <use x="721.923828" xlink:href="#DejaVuSans-Bold-20"/>
      <use x="756.738281" xlink:href="#DejaVuSans-Bold-50"/>
      <use x="830.029297" xlink:href="#DejaVuSans-Bold-65"/>
      <use x="897.851562" xlink:href="#DejaVuSans-Bold-72"/>
      <use x="947.167969" xlink:href="#DejaVuSans-Bold-63"/>
      <use x="1006.445312" xlink:href="#DejaVuSans-Bold-65"/>
      <use x="1074.267578" xlink:href="#DejaVuSans-Bold-6e"/>
      <use x="1145.458984" xlink:href="#DejaVuSans-Bold-74"/>
      <use x="1193.261719" xlink:href="#DejaVuSans-Bold-69"/>
      <use x="1227.539062" xlink:href="#DejaVuSans-Bold-6c"/>
      <use x="1261.816406" xlink:href="#DejaVuSans-Bold-65"/>
     </g>
    </g>
   </g>
   <g id="matplotlib.axis_2">
    <g id="ytick_1">
     <g id="line2d_13">
      <path clip-path="url(#p3950506ab6)" d="M 90 310.841379 
L 648 310.841379 
" style="fill:none;stroke:#b0b0b0;stroke-dasharray:2.96,1.28;stroke-dashoffset:0;stroke-width:0.8;"/>
     </g>
     <g id="line2d_14">
      <defs>
       <path d="M 0 0 
L -3.5 0 
" id="md3e10110be" style="stroke:#000000;stroke-width:0.8;"/>
      </defs>
      <g>
       <use style="stroke:#000000;stroke-width:0.8;" x="90" xlink:href="#md3e10110be" y="310.841379"/>
      </g>
     </g>
     <g id="text_8">
      <!-- 2 -->
      <g transform="translate(74.650625 315.400442)scale(0.12 -0.12)">
       <use xlink:href="#DejaVuSans-Bold-32"/>
      </g>
     </g>
    </g>
    <g id="ytick_2">
     <g id="line2d_15">
      <path clip-path="url(#p3950506ab6)" d="M 90 272.606897 
L 648 272.606897 
" style="fill:none;stroke:#b0b0b0;stroke-dasharray:2.96,1.28;stroke-dashoffset:0;stroke-width:0.8;"/>
     </g>
     <g id="line2d_16">
      <g>
       <use style="stroke:#000000;stroke-width:0.8;" x="90" xlink:href="#md3e10110be" y="272.606897"/>
      </g>
     </g>
     <g id="text_9">
      <!-- 4 -->
      <g transform="translate(74.650625 277.165959)scale(0.12 -0.12)">
       <defs>
        <path d="M 2356 3675 
L 1038 1722 
L 2356 1722 
L 2356 3675 
z
M 2156 4666 
L 3494 4666 
L 3494 1722 
L 4159 1722 
L 4159 850 
L 3494 850 
L 3494 0 
L 2356 0 
L 2356 850 
L 288 850 
L 288 1881 
L 2156 4666 
z
" id="DejaVuSans-Bold-34" transform="scale(0.015625)"/>
       </defs>
       <use xlink:href="#DejaVuSans-Bold-34"/>
      </g>
     </g>
    </g>
    <g id="ytick_3">
     <g id="line2d_17">
      <path clip-path="url(#p3950506ab6)" d="M 90 234.372414 
L 648 234.372414 
" style="fill:none;stroke:#b0b0b0;stroke-dasharray:2.96,1.28;stroke-dashoffset:0;stroke-width:0.8;"/>
     </g>
     <g id="line2d_18">
      <g>
       <use style="stroke:#000000;stroke-width:0.8;" x="90" xlink:href="#md3e10110be" y="234.372414"/>
      </g>
     </g>
     <g id="text_10">
      <!-- 6 -->
      <g transform="translate(74.650625 238.931476)scale(0.12 -0.12)">
       <defs>
        <path d="M 2316 2303 
Q 2000 2303 1842 2098 
Q 1684 1894 1684 1484 
Q 1684 1075 1842 870 
Q 2000 666 2316 666 
Q 2634 666 2792 870 
Q 2950 1075 2950 1484 
Q 2950 1894 2792 2098 
Q 2634 2303 2316 2303 
z
M 3803 4544 
L 3803 3681 
Q 3506 3822 3243 3889 
Q 2981 3956 2731 3956 
Q 2194 3956 1894 3657 
Q 1594 3359 1544 2772 
Q 1750 2925 1990 3001 
Q 2231 3078 2516 3078 
Q 3231 3078 3670 2659 
Q 4109 2241 4109 1563 
Q 4109 813 3618 361 
Q 3128 -91 2303 -91 
Q 1394 -91 895 523 
Q 397 1138 397 2266 
Q 397 3422 980 4083 
Q 1563 4744 2578 4744 
Q 2900 4744 3203 4694 
Q 3506 4644 3803 4544 
z
" id="DejaVuSans-Bold-36" transform="scale(0.015625)"/>
       </defs>
       <use xlink:href="#DejaVuSans-Bold-36"/>
      </g>
     </g>
    </g>
    <g id="ytick_4">
     <g id="line2d_19">
      <path clip-path="url(#p3950506ab6)" d="M 90 196.137931 
L 648 196.137931 
" style="fill:none;stroke:#b0b0b0;stroke-dasharray:2.96,1.28;stroke-dashoffset:0;stroke-width:0.8;"/>
     </g>
     <g id="line2d_20">
      <g>
       <use style="stroke:#000000;stroke-width:0.8;" x="90" xlink:href="#md3e10110be" y="196.137931"/>
      </g>
     </g>
     <g id="text_11">
      <!-- 8 -->
      <g transform="translate(74.650625 200.696994)scale(0.12 -0.12)">
       <defs>
        <path d="M 2228 2088 
Q 1891 2088 1709 1903 
Q 1528 1719 1528 1375 
Q 1528 1031 1709 848 
Q 1891 666 2228 666 
Q 2563 666 2741 848 
Q 2919 1031 2919 1375 
Q 2919 1722 2741 1905 
Q 2563 2088 2228 2088 
z
M 1350 2484 
Q 925 2613 709 2878 
Q 494 3144 494 3541 
Q 494 4131 934 4440 
Q 1375 4750 2228 4750 
Q 3075 4750 3515 4442 
Q 3956 4134 3956 3541 
Q 3956 3144 3739 2878 
Q 3522 2613 3097 2484 
Q 3572 2353 3814 2058 
Q 4056 1763 4056 1313 
Q 4056 619 3595 264 
Q 3134 -91 2228 -91 
Q 1319 -91 855 264 
Q 391 619 391 1313 
Q 391 1763 633 2058 
Q 875 2353 1350 2484 
z
M 1631 3419 
Q 1631 3141 1786 2991 
Q 1941 2841 2228 2841 
Q 2509 2841 2662 2991 
Q 2816 3141 2816 3419 
Q 2816 3697 2662 3845 
Q 2509 3994 2228 3994 
Q 1941 3994 1786 3844 
Q 1631 3694 1631 3419 
z
" id="DejaVuSans-Bold-38" transform="scale(0.015625)"/>
       </defs>
       <use xlink:href="#DejaVuSans-Bold-38"/>
      </g>
     </g>
    </g>
    <g id="ytick_5">
     <g id="line2d_21">
      <path clip-path="url(#p3950506ab6)" d="M 90 157.903448 
L 648 157.903448 
" style="fill:none;stroke:#b0b0b0;stroke-dasharray:2.96,1.28;stroke-dashoffset:0;stroke-width:0.8;"/>
     </g>
     <g id="line2d_22">
      <g>
       <use style="stroke:#000000;stroke-width:0.8;" x="90" xlink:href="#md3e10110be" y="157.903448"/>
      </g>
     </g>
     <g id="text_12">
      <!-- 10 -->
      <g transform="translate(66.30125 162.462511)scale(0.12 -0.12)">
       <use xlink:href="#DejaVuSans-Bold-31"/>
       <use x="69.580078" xlink:href="#DejaVuSans-Bold-30"/>
      </g>
     </g>
    </g>
    <g id="ytick_6">
     <g id="line2d_23">
      <path clip-path="url(#p3950506ab6)" d="M 90 119.668966 
L 648 119.668966 
" style="fill:none;stroke:#b0b0b0;stroke-dasharray:2.96,1.28;stroke-dashoffset:0;stroke-width:0.8;"/>
     </g>
     <g id="line2d_24">
      <g>
       <use style="stroke:#000000;stroke-width:0.8;" x="90" xlink:href="#md3e10110be" y="119.668966"/>
      </g>
     </g>
     <g id="text_13">
      <!-- 12 -->
      <g transform="translate(66.30125 124.228028)scale(0.12 -0.12)">
       <use xlink:href="#DejaVuSans-Bold-31"/>
       <use x="69.580078" xlink:href="#DejaVuSans-Bold-32"/>
      </g>
     </g>
    </g>
    <g id="ytick_7">
     <g id="line2d_25">
      <path clip-path="url(#p3950506ab6)" d="M 90 81.434483 
L 648 81.434483 
" style="fill:none;stroke:#b0b0b0;stroke-dasharray:2.96,1.28;stroke-dashoffset:0;stroke-width:0.8;"/>
     </g>
     <g id="line2d_26">
      <g>
       <use style="stroke:#000000;stroke-width:0.8;" x="90" xlink:href="#md3e10110be" y="81.434483"/>
      </g>
     </g>
     <g id="text_14">
      <!-- 14 -->
      <g transform="translate(66.30125 85.993545)scale(0.12 -0.12)">
       <use xlink:href="#DejaVuSans-Bold-31"/>
       <use x="69.580078" xlink:href="#DejaVuSans-Bold-34"/>
      </g>
     </g>
    </g>
    <g id="ytick_8">
     <g id="line2d_27">
      <path clip-path="url(#p3950506ab6)" d="M 90 43.2 
L 648 43.2 
" style="fill:none;stroke:#b0b0b0;stroke-dasharray:2.96,1.28;stroke-dashoffset:0;stroke-width:0.8;"/>
     </g>
     <g id="line2d_28">
      <g>
       <use style="stroke:#000000;stroke-width:0.8;" x="90" xlink:href="#md3e10110be" y="43.2"/>
      </g>
     </g>
     <g id="text_15">
      <!-- 16 -->
      <g transform="translate(66.30125 47.759062)scale(0.12 -0.12)">
       <use xlink:href="#DejaVuSans-Bold-31"/>
       <use x="69.580078" xlink:href="#DejaVuSans-Bold-36"/>
      </g>
     </g>
    </g>
    <g id="text_16">
     <!-- 4pt-Homography RMSE -->
     <g transform="translate(59.496094 266.542734)rotate(-90)scale(0.13 -0.13)">
      <defs>
       <path d="M 588 4666 
L 1791 4666 
L 1791 2888 
L 3566 2888 
L 3566 4666 
L 4769 4666 
L 4769 0 
L 3566 0 
L 3566 1978 
L 1791 1978 
L 1791 0 
L 588 0 
L 588 4666 
z
" id="DejaVuSans-Bold-48" transform="scale(0.015625)"/>
       <path d="M 2919 594 
Q 2688 288 2409 144 
Q 2131 0 1766 0 
Q 1125 0 706 504 
Q 288 1009 288 1791 
Q 288 2575 706 3076 
Q 1125 3578 1766 3578 
Q 2131 3578 2409 3434 
Q 2688 3291 2919 2981 
L 2919 3500 
L 4044 3500 
L 4044 353 
Q 4044 -491 3511 -936 
Q 2978 -1381 1966 -1381 
Q 1638 -1381 1331 -1331 
Q 1025 -1281 716 -1178 
L 716 -306 
Q 1009 -475 1290 -558 
Q 1572 -641 1856 -641 
Q 2406 -641 2662 -400 
Q 2919 -159 2919 353 
L 2919 594 
z
M 2181 2772 
Q 1834 2772 1640 2515 
Q 1447 2259 1447 1791 
Q 1447 1309 1634 1061 
Q 1822 813 2181 813 
Q 2531 813 2725 1069 
Q 2919 1325 2919 1791 
Q 2919 2259 2725 2515 
Q 2531 2772 2181 2772 
z
" id="DejaVuSans-Bold-67" transform="scale(0.015625)"/>
       <path d="M 4056 2131 
L 4056 0 
L 2931 0 
L 2931 347 
L 2931 1625 
Q 2931 2084 2911 2256 
Q 2891 2428 2841 2509 
Q 2775 2619 2662 2680 
Q 2550 2741 2406 2741 
Q 2056 2741 1856 2470 
Q 1656 2200 1656 1722 
L 1656 0 
L 538 0 
L 538 4863 
L 1656 4863 
L 1656 2988 
Q 1909 3294 2193 3439 
Q 2478 3584 2822 3584 
Q 3428 3584 3742 3212 
Q 4056 2841 4056 2131 
z
" id="DejaVuSans-Bold-68" transform="scale(0.015625)"/>
       <path d="M 78 3500 
L 1197 3500 
L 2138 1125 
L 2938 3500 
L 4056 3500 
L 2584 -331 
Q 2363 -916 2067 -1148 
Q 1772 -1381 1288 -1381 
L 641 -1381 
L 641 -647 
L 991 -647 
Q 1275 -647 1404 -556 
Q 1534 -466 1606 -231 
L 1638 -134 
L 78 3500 
z
" id="DejaVuSans-Bold-79" transform="scale(0.015625)"/>
       <path d="M 2297 2597 
Q 2675 2597 2839 2737 
Q 3003 2878 3003 3200 
Q 3003 3519 2839 3656 
Q 2675 3794 2297 3794 
L 1791 3794 
L 1791 2597 
L 2297 2597 
z
M 1791 1766 
L 1791 0 
L 588 0 
L 588 4666 
L 2425 4666 
Q 3347 4666 3776 4356 
Q 4206 4047 4206 3378 
Q 4206 2916 3982 2619 
Q 3759 2322 3309 2181 
Q 3556 2125 3751 1926 
Q 3947 1728 4147 1325 
L 4800 0 
L 3519 0 
L 2950 1159 
Q 2778 1509 2601 1637 
Q 2425 1766 2131 1766 
L 1791 1766 
z
" id="DejaVuSans-Bold-52" transform="scale(0.015625)"/>
       <path d="M 588 4666 
L 2119 4666 
L 3181 2169 
L 4250 4666 
L 5778 4666 
L 5778 0 
L 4641 0 
L 4641 3413 
L 3566 897 
L 2803 897 
L 1728 3413 
L 1728 0 
L 588 0 
L 588 4666 
z
" id="DejaVuSans-Bold-4d" transform="scale(0.015625)"/>
       <path d="M 3834 4519 
L 3834 3531 
Q 3450 3703 3084 3790 
Q 2719 3878 2394 3878 
Q 1963 3878 1756 3759 
Q 1550 3641 1550 3391 
Q 1550 3203 1689 3098 
Q 1828 2994 2194 2919 
L 2706 2816 
Q 3484 2659 3812 2340 
Q 4141 2022 4141 1434 
Q 4141 663 3683 286 
Q 3225 -91 2284 -91 
Q 1841 -91 1394 -6 
Q 947 78 500 244 
L 500 1259 
Q 947 1022 1364 901 
Q 1781 781 2169 781 
Q 2563 781 2772 912 
Q 2981 1044 2981 1288 
Q 2981 1506 2839 1625 
Q 2697 1744 2272 1838 
L 1806 1941 
Q 1106 2091 782 2419 
Q 459 2747 459 3303 
Q 459 4000 909 4375 
Q 1359 4750 2203 4750 
Q 2588 4750 2994 4692 
Q 3400 4634 3834 4519 
z
" id="DejaVuSans-Bold-53" transform="scale(0.015625)"/>
       <path d="M 588 4666 
L 3834 4666 
L 3834 3756 
L 1791 3756 
L 1791 2888 
L 3713 2888 
L 3713 1978 
L 1791 1978 
L 1791 909 
L 3903 909 
L 3903 0 
L 588 0 
L 588 4666 
z
" id="DejaVuSans-Bold-45" transform="scale(0.015625)"/>
      </defs>
      <use xlink:href="#DejaVuSans-Bold-34"/>
      <use x="69.580078" xlink:href="#DejaVuSans-Bold-70"/>
      <use x="141.162109" xlink:href="#DejaVuSans-Bold-74"/>
      <use x="188.964844" xlink:href="#DejaVuSans-Bold-2d"/>
      <use x="230.46875" xlink:href="#DejaVuSans-Bold-48"/>
      <use x="314.160156" xlink:href="#DejaVuSans-Bold-6f"/>
      <use x="382.861328" xlink:href="#DejaVuSans-Bold-6d"/>
      <use x="487.060547" xlink:href="#DejaVuSans-Bold-6f"/>
      <use x="555.761719" xlink:href="#DejaVuSans-Bold-67"/>
      <use x="627.34375" xlink:href="#DejaVuSans-Bold-72"/>
      <use x="676.660156" xlink:href="#DejaVuSans-Bold-61"/>
      <use x="744.140625" xlink:href="#DejaVuSans-Bold-70"/>
      <use x="815.722656" xlink:href="#DejaVuSans-Bold-68"/>
      <use x="886.914062" xlink:href="#DejaVuSans-Bold-79"/>
      <use x="952.099609" xlink:href="#DejaVuSans-Bold-20"/>
      <use x="986.914062" xlink:href="#DejaVuSans-Bold-52"/>
      <use x="1063.916016" xlink:href="#DejaVuSans-Bold-4d"/>
      <use x="1163.427734" xlink:href="#DejaVuSans-Bold-53"/>
      <use x="1235.449219" xlink:href="#DejaVuSans-Bold-45"/>
     </g>
    </g>
   </g>
   <g id="line2d_29">
    <path clip-path="url(#p3950506ab6)" d="M 100.730769 292.202654 
L 208.038462 273.836101 
L 315.346154 258.382055 
L 422.653846 225.153048 
L 529.961538 182.369636 
L 637.269231 87.407053 
" style="fill:none;stroke:#0000ff;stroke-linecap:square;stroke-width:1.5;"/>
    <defs>
     <path d="M 0 3 
C 0.795609 3 1.55874 2.683901 2.12132 2.12132 
C 2.683901 1.55874 3 0.795609 3 0 
C 3 -0.795609 2.683901 -1.55874 2.12132 -2.12132 
C 1.55874 -2.683901 0.795609 -3 0 -3 
C -0.795609 -3 -1.55874 -2.683901 -2.12132 -2.12132 
C -2.683901 -1.55874 -3 -0.795609 -3 0 
C -3 0.795609 -2.683901 1.55874 -2.12132 2.12132 
C -1.55874 2.683901 -0.795609 3 0 3 
z
" id="m2cb1349817" style="stroke:#0000ff;"/>
    </defs>
    <g clip-path="url(#p3950506ab6)">
     <use style="fill:#0000ff;stroke:#0000ff;" x="100.730769" xlink:href="#m2cb1349817" y="292.202654"/>
     <use style="fill:#0000ff;stroke:#0000ff;" x="208.038462" xlink:href="#m2cb1349817" y="273.836101"/>
     <use style="fill:#0000ff;stroke:#0000ff;" x="315.346154" xlink:href="#m2cb1349817" y="258.382055"/>
     <use style="fill:#0000ff;stroke:#0000ff;" x="422.653846" xlink:href="#m2cb1349817" y="225.153048"/>
     <use style="fill:#0000ff;stroke:#0000ff;" x="529.961538" xlink:href="#m2cb1349817" y="182.369636"/>
     <use style="fill:#0000ff;stroke:#0000ff;" x="637.269231" xlink:href="#m2cb1349817" y="87.407053"/>
    </g>
   </g>
   <g id="line2d_30">
    <path clip-path="url(#p3950506ab6)" d="M 100.730769 308.844155 
L 208.038462 292.187955 
L 315.346154 276.900279 
L 422.653846 240.371289 
L 529.961538 189.105711 
L 637.269231 78.671449 
" style="fill:none;stroke:#008000;stroke-linecap:square;stroke-width:1.5;"/>
    <defs>
     <path d="M 0 3 
C 0.795609 3 1.55874 2.683901 2.12132 2.12132 
C 2.683901 1.55874 3 0.795609 3 0 
C 3 -0.795609 2.683901 -1.55874 2.12132 -2.12132 
C 1.55874 -2.683901 0.795609 -3 0 -3 
C -0.795609 -3 -1.55874 -2.683901 -2.12132 -2.12132 
C -2.683901 -1.55874 -3 -0.795609 -3 0 
C -3 0.795609 -2.683901 1.55874 -2.12132 2.12132 
C -1.55874 2.683901 -0.795609 3 0 3 
z
" id="md522fd8ebd" style="stroke:#008000;"/>
    </defs>
    <g clip-path="url(#p3950506ab6)">
     <use style="fill:#008000;stroke:#008000;" x="100.730769" xlink:href="#md522fd8ebd" y="308.844155"/>
     <use style="fill:#008000;stroke:#008000;" x="208.038462" xlink:href="#md522fd8ebd" y="292.187955"/>
     <use style="fill:#008000;stroke:#008000;" x="315.346154" xlink:href="#md522fd8ebd" y="276.900279"/>
     <use style="fill:#008000;stroke:#008000;" x="422.653846" xlink:href="#md522fd8ebd" y="240.371289"/>
     <use style="fill:#008000;stroke:#008000;" x="529.961538" xlink:href="#md522fd8ebd" y="189.105711"/>
     <use style="fill:#008000;stroke:#008000;" x="637.269231" xlink:href="#md522fd8ebd" y="78.671449"/>
    </g>
   </g>
   <g id="line2d_31">
    <path clip-path="url(#p3950506ab6)" d="M 100.730769 310.44853 
L 208.038462 298.39651 
L 315.346154 288.137317 
L 422.653846 265.327414 
L 529.961538 234.285469 
L 637.269231 159.245479 
" style="fill:none;stroke:#ff0000;stroke-linecap:square;stroke-width:1.5;"/>
    <defs>
     <path d="M 0 3 
C 0.795609 3 1.55874 2.683901 2.12132 2.12132 
C 2.683901 1.55874 3 0.795609 3 0 
C 3 -0.795609 2.683901 -1.55874 2.12132 -2.12132 
C 1.55874 -2.683901 0.795609 -3 0 -3 
C -0.795609 -3 -1.55874 -2.683901 -2.12132 -2.12132 
C -2.683901 -1.55874 -3 -0.795609 -3 0 
C -3 0.795609 -2.683901 1.55874 -2.12132 2.12132 
C -1.55874 2.683901 -0.795609 3 0 3 
z
" id="m02ea3fefe4" style="stroke:#ff0000;"/>
    </defs>
    <g clip-path="url(#p3950506ab6)">
     <use style="fill:#ff0000;stroke:#ff0000;" x="100.730769" xlink:href="#m02ea3fefe4" y="310.44853"/>
     <use style="fill:#ff0000;stroke:#ff0000;" x="208.038462" xlink:href="#m02ea3fefe4" y="298.39651"/>
     <use style="fill:#ff0000;stroke:#ff0000;" x="315.346154" xlink:href="#m02ea3fefe4" y="288.137317"/>
     <use style="fill:#ff0000;stroke:#ff0000;" x="422.653846" xlink:href="#m02ea3fefe4" y="265.327414"/>
     <use style="fill:#ff0000;stroke:#ff0000;" x="529.961538" xlink:href="#m02ea3fefe4" y="234.285469"/>
     <use style="fill:#ff0000;stroke:#ff0000;" x="637.269231" xlink:href="#m02ea3fefe4" y="159.245479"/>
    </g>
   </g>
   <g id="patch_3">
    <path d="M 90 320.4 
L 90 43.2 
" style="fill:none;stroke:#000000;stroke-linecap:square;stroke-linejoin:miter;stroke-width:0.8;"/>
   </g>
   <g id="patch_4">
    <path d="M 90 320.4 
L 648 320.4 
" style="fill:none;stroke:#000000;stroke-linecap:square;stroke-linejoin:miter;stroke-width:0.8;"/>
   </g>
   <g id="legend_1">
    <g id="patch_5">
     <path d="M 97 101.3225 
L 353.844375 101.3225 
Q 355.844375 101.3225 355.844375 99.3225 
L 355.844375 50.2 
Q 355.844375 48.2 353.844375 48.2 
L 97 48.2 
Q 95 48.2 95 50.2 
L 95 99.3225 
Q 95 101.3225 97 101.3225 
z
" style="fill:#ffffff;opacity:0.8;stroke:#cccccc;stroke-linejoin:miter;"/>
    </g>
    <g id="line2d_32">
     <path d="M 99 57.818125 
L 119 57.818125 
" style="fill:none;stroke:#0000ff;stroke-linecap:square;stroke-width:1.5;"/>
    </g>
    <g id="line2d_33">
     <g>
      <use style="fill:#0000ff;stroke:#0000ff;" x="109" xlink:href="#m2cb1349817" y="57.818125"/>
     </g>
    </g>
    <g id="text_17">
     <!-- VGG-style Supervised Network -->
     <g transform="translate(127 61.318125)scale(0.12 -0.12)">
      <defs>
       <path d="M 31 4666 
L 1241 4666 
L 2478 1222 
L 3713 4666 
L 4922 4666 
L 3194 0 
L 1759 0 
L 31 4666 
z
" id="DejaVuSans-Bold-56" transform="scale(0.015625)"/>
       <path d="M 4781 347 
Q 4331 128 3847 18 
Q 3363 -91 2847 -91 
Q 1681 -91 1000 561 
Q 319 1213 319 2328 
Q 319 3456 1012 4103 
Q 1706 4750 2913 4750 
Q 3378 4750 3804 4662 
Q 4231 4575 4609 4403 
L 4609 3438 
Q 4219 3659 3833 3768 
Q 3447 3878 3059 3878 
Q 2341 3878 1952 3476 
Q 1563 3075 1563 2328 
Q 1563 1588 1938 1184 
Q 2313 781 3003 781 
Q 3191 781 3352 804 
Q 3513 828 3641 878 
L 3641 1784 
L 2906 1784 
L 2906 2591 
L 4781 2591 
L 4781 347 
z
" id="DejaVuSans-Bold-47" transform="scale(0.015625)"/>
       <path d="M 3272 3391 
L 3272 2541 
Q 2913 2691 2578 2766 
Q 2244 2841 1947 2841 
Q 1628 2841 1473 2761 
Q 1319 2681 1319 2516 
Q 1319 2381 1436 2309 
Q 1553 2238 1856 2203 
L 2053 2175 
Q 2913 2066 3209 1816 
Q 3506 1566 3506 1031 
Q 3506 472 3093 190 
Q 2681 -91 1863 -91 
Q 1516 -91 1145 -36 
Q 775 19 384 128 
L 384 978 
Q 719 816 1070 734 
Q 1422 653 1784 653 
Q 2113 653 2278 743 
Q 2444 834 2444 1013 
Q 2444 1163 2330 1236 
Q 2216 1309 1875 1350 
L 1678 1375 
Q 931 1469 631 1722 
Q 331 1975 331 2491 
Q 331 3047 712 3315 
Q 1094 3584 1881 3584 
Q 2191 3584 2531 3537 
Q 2872 3491 3272 3391 
z
" id="DejaVuSans-Bold-73" transform="scale(0.015625)"/>
       <path d="M 500 1363 
L 500 3500 
L 1625 3500 
L 1625 3150 
Q 1625 2866 1622 2436 
Q 1619 2006 1619 1863 
Q 1619 1441 1641 1255 
Q 1663 1069 1716 984 
Q 1784 875 1895 815 
Q 2006 756 2150 756 
Q 2500 756 2700 1025 
Q 2900 1294 2900 1772 
L 2900 3500 
L 4019 3500 
L 4019 0 
L 2900 0 
L 2900 506 
Q 2647 200 2364 54 
Q 2081 -91 1741 -91 
Q 1134 -91 817 281 
Q 500 653 500 1363 
z
" id="DejaVuSans-Bold-75" transform="scale(0.015625)"/>
       <path d="M 97 3500 
L 1216 3500 
L 2088 1081 
L 2956 3500 
L 4078 3500 
L 2700 0 
L 1472 0 
L 97 3500 
z
" id="DejaVuSans-Bold-76" transform="scale(0.015625)"/>
       <path d="M 2919 2988 
L 2919 4863 
L 4044 4863 
L 4044 0 
L 2919 0 
L 2919 506 
Q 2688 197 2409 53 
Q 2131 -91 1766 -91 
Q 1119 -91 703 423 
Q 288 938 288 1747 
Q 288 2556 703 3070 
Q 1119 3584 1766 3584 
Q 2128 3584 2408 3439 
Q 2688 3294 2919 2988 
z
M 2181 722 
Q 2541 722 2730 984 
Q 2919 1247 2919 1747 
Q 2919 2247 2730 2509 
Q 2541 2772 2181 2772 
Q 1825 2772 1636 2509 
Q 1447 2247 1447 1747 
Q 1447 1247 1636 984 
Q 1825 722 2181 722 
z
" id="DejaVuSans-Bold-64" transform="scale(0.015625)"/>
       <path d="M 588 4666 
L 1931 4666 
L 3628 1466 
L 3628 4666 
L 4769 4666 
L 4769 0 
L 3425 0 
L 1728 3200 
L 1728 0 
L 588 0 
L 588 4666 
z
" id="DejaVuSans-Bold-4e" transform="scale(0.015625)"/>
       <path d="M 225 3500 
L 1313 3500 
L 1900 1088 
L 2491 3500 
L 3425 3500 
L 4013 1113 
L 4603 3500 
L 5691 3500 
L 4769 0 
L 3547 0 
L 2956 2406 
L 2369 0 
L 1147 0 
L 225 3500 
z
" id="DejaVuSans-Bold-77" transform="scale(0.015625)"/>
       <path d="M 538 4863 
L 1656 4863 
L 1656 2216 
L 2944 3500 
L 4244 3500 
L 2534 1894 
L 4378 0 
L 3022 0 
L 1656 1459 
L 1656 0 
L 538 0 
L 538 4863 
z
" id="DejaVuSans-Bold-6b" transform="scale(0.015625)"/>
      </defs>
      <use xlink:href="#DejaVuSans-Bold-56"/>
      <use x="77.392578" xlink:href="#DejaVuSans-Bold-47"/>
      <use x="159.472656" xlink:href="#DejaVuSans-Bold-47"/>
      <use x="241.552734" xlink:href="#DejaVuSans-Bold-2d"/>
      <use x="283.056641" xlink:href="#DejaVuSans-Bold-73"/>
      <use x="342.578125" xlink:href="#DejaVuSans-Bold-74"/>
      <use x="390.380859" xlink:href="#DejaVuSans-Bold-79"/>
      <use x="455.566406" xlink:href="#DejaVuSans-Bold-6c"/>
      <use x="489.84375" xlink:href="#DejaVuSans-Bold-65"/>
      <use x="557.666016" xlink:href="#DejaVuSans-Bold-20"/>
      <use x="592.480469" xlink:href="#DejaVuSans-Bold-53"/>
      <use x="664.501953" xlink:href="#DejaVuSans-Bold-75"/>
      <use x="735.693359" xlink:href="#DejaVuSans-Bold-70"/>
      <use x="807.275391" xlink:href="#DejaVuSans-Bold-65"/>
      <use x="875.097656" xlink:href="#DejaVuSans-Bold-72"/>
      <use x="924.414062" xlink:href="#DejaVuSans-Bold-76"/>
      <use x="989.599609" xlink:href="#DejaVuSans-Bold-69"/>
      <use x="1023.876953" xlink:href="#DejaVuSans-Bold-73"/>
      <use x="1083.398438" xlink:href="#DejaVuSans-Bold-65"/>
      <use x="1151.220703" xlink:href="#DejaVuSans-Bold-64"/>
      <use x="1222.802734" xlink:href="#DejaVuSans-Bold-20"/>
      <use x="1257.617188" xlink:href="#DejaVuSans-Bold-4e"/>
      <use x="1341.308594" xlink:href="#DejaVuSans-Bold-65"/>
      <use x="1409.130859" xlink:href="#DejaVuSans-Bold-74"/>
      <use x="1456.933594" xlink:href="#DejaVuSans-Bold-77"/>
      <use x="1549.316406" xlink:href="#DejaVuSans-Bold-6f"/>
      <use x="1618.017578" xlink:href="#DejaVuSans-Bold-72"/>
      <use x="1667.333984" xlink:href="#DejaVuSans-Bold-6b"/>
     </g>
    </g>
    <g id="line2d_34">
     <path d="M 99 74.525625 
L 119 74.525625 
" style="fill:none;stroke:#008000;stroke-linecap:square;stroke-width:1.5;"/>
    </g>
    <g id="line2d_35">
     <g>
      <use style="fill:#008000;stroke:#008000;" x="109" xlink:href="#md522fd8ebd" y="74.525625"/>
     </g>
    </g>
    <g id="text_18">
     <!-- VGG-style Unsupervised Network -->
     <g transform="translate(127 78.025625)scale(0.12 -0.12)">
      <defs>
       <path d="M 588 4666 
L 1791 4666 
L 1791 1869 
Q 1791 1291 1980 1042 
Q 2169 794 2597 794 
Q 3028 794 3217 1042 
Q 3406 1291 3406 1869 
L 3406 4666 
L 4609 4666 
L 4609 1869 
Q 4609 878 4112 393 
Q 3616 -91 2597 -91 
Q 1581 -91 1084 393 
Q 588 878 588 1869 
L 588 4666 
z
" id="DejaVuSans-Bold-55" transform="scale(0.015625)"/>
      </defs>
      <use xlink:href="#DejaVuSans-Bold-56"/>
      <use x="77.392578" xlink:href="#DejaVuSans-Bold-47"/>
      <use x="159.472656" xlink:href="#DejaVuSans-Bold-47"/>
      <use x="241.552734" xlink:href="#DejaVuSans-Bold-2d"/>
      <use x="283.056641" xlink:href="#DejaVuSans-Bold-73"/>
      <use x="342.578125" xlink:href="#DejaVuSans-Bold-74"/>
      <use x="390.380859" xlink:href="#DejaVuSans-Bold-79"/>
      <use x="455.566406" xlink:href="#DejaVuSans-Bold-6c"/>
      <use x="489.84375" xlink:href="#DejaVuSans-Bold-65"/>
      <use x="557.666016" xlink:href="#DejaVuSans-Bold-20"/>
      <use x="592.480469" xlink:href="#DejaVuSans-Bold-55"/>
      <use x="673.681641" xlink:href="#DejaVuSans-Bold-6e"/>
      <use x="744.873047" xlink:href="#DejaVuSans-Bold-73"/>
      <use x="804.394531" xlink:href="#DejaVuSans-Bold-75"/>
      <use x="875.585938" xlink:href="#DejaVuSans-Bold-70"/>
      <use x="947.167969" xlink:href="#DejaVuSans-Bold-65"/>
      <use x="1014.990234" xlink:href="#DejaVuSans-Bold-72"/>
      <use x="1064.306641" xlink:href="#DejaVuSans-Bold-76"/>
      <use x="1129.492188" xlink:href="#DejaVuSans-Bold-69"/>
      <use x="1163.769531" xlink:href="#DejaVuSans-Bold-73"/>
      <use x="1223.291016" xlink:href="#DejaVuSans-Bold-65"/>
      <use x="1291.113281" xlink:href="#DejaVuSans-Bold-64"/>
      <use x="1362.695312" xlink:href="#DejaVuSans-Bold-20"/>
      <use x="1397.509766" xlink:href="#DejaVuSans-Bold-4e"/>
      <use x="1481.201172" xlink:href="#DejaVuSans-Bold-65"/>
      <use x="1549.023438" xlink:href="#DejaVuSans-Bold-74"/>
      <use x="1596.826172" xlink:href="#DejaVuSans-Bold-77"/>
      <use x="1689.208984" xlink:href="#DejaVuSans-Bold-6f"/>
      <use x="1757.910156" xlink:href="#DejaVuSans-Bold-72"/>
      <use x="1807.226562" xlink:href="#DejaVuSans-Bold-6b"/>
     </g>
    </g>
    <g id="line2d_36">
     <path d="M 99 91.233125 
L 119 91.233125 
" style="fill:none;stroke:#ff0000;stroke-linecap:square;stroke-width:1.5;"/>
    </g>
    <g id="line2d_37">
     <g>
      <use style="fill:#ff0000;stroke:#ff0000;" x="109" xlink:href="#m02ea3fefe4" y="91.233125"/>
     </g>
    </g>
    <g id="text_19">
     <!-- ShuffleNet-style Network -->
     <g transform="translate(127 94.733125)scale(0.12 -0.12)">
      <use xlink:href="#DejaVuSans-Bold-53"/>
      <use x="72.021484" xlink:href="#DejaVuSans-Bold-68"/>
      <use x="143.212891" xlink:href="#DejaVuSans-Bold-75"/>
      <use x="214.404297" xlink:href="#DejaVuSans-Bold-66"/>
      <use x="257.910156" xlink:href="#DejaVuSans-Bold-66"/>
      <use x="301.416016" xlink:href="#DejaVuSans-Bold-6c"/>
      <use x="335.693359" xlink:href="#DejaVuSans-Bold-65"/>
      <use x="403.515625" xlink:href="#DejaVuSans-Bold-4e"/>
      <use x="487.207031" xlink:href="#DejaVuSans-Bold-65"/>
      <use x="555.029297" xlink:href="#DejaVuSans-Bold-74"/>
      <use x="602.832031" xlink:href="#DejaVuSans-Bold-2d"/>
      <use x="644.335938" xlink:href="#DejaVuSans-Bold-73"/>
      <use x="703.857422" xlink:href="#DejaVuSans-Bold-74"/>
      <use x="751.660156" xlink:href="#DejaVuSans-Bold-79"/>
      <use x="816.845703" xlink:href="#DejaVuSans-Bold-6c"/>
      <use x="851.123047" xlink:href="#DejaVuSans-Bold-65"/>
      <use x="918.945312" xlink:href="#DejaVuSans-Bold-20"/>
      <use x="953.759766" xlink:href="#DejaVuSans-Bold-4e"/>
      <use x="1037.451172" xlink:href="#DejaVuSans-Bold-65"/>
      <use x="1105.273438" xlink:href="#DejaVuSans-Bold-74"/>
      <use x="1153.076172" xlink:href="#DejaVuSans-Bold-77"/>
      <use x="1245.458984" xlink:href="#DejaVuSans-Bold-6f"/>
      <use x="1314.160156" xlink:href="#DejaVuSans-Bold-72"/>
      <use x="1363.476562" xlink:href="#DejaVuSans-Bold-6b"/>
     </g>
    </g>
   </g>
  </g>
 </g>
 <defs>
  <clipPath id="p3950506ab6">
   <rect height="277.2" width="558" x="90" y="43.2"/>
  </clipPath>
 </defs>
</svg>
